<svg width="114" height="71" viewBox="0 0 114 71" fill="none" xmlns="http://www.w3.org/2000/svg">
<path d="M75 47.2586L17 68V36.7414L75 16V47.2586Z" fill="#FFBFCD"/>
<path d="M37 43L63.5 33.5" stroke="#F1AABA"/>
<path d="M0 20.5176L16.7206 37L75 16.4824L58.2794 0L0 20.5176Z" fill="#FFDCE4"/>
<path d="M17 68V37.4654L8.5 29.2327L0 21V51.5346L17 68Z" fill="#E492A4"/>
<path d="M10.5 40L16.5 44V42.5L10.5 40Z" fill="#DC8094"/>
<path d="M10.5 53L0 42.5V44.5L10.5 53Z" fill="#DC8094"/>
<ellipse cx="38" cy="18" rx="10" ry="6" fill="#FFBFCD"/>
<ellipse cx="56.5" cy="11.5" rx="2.5" ry="1.5" fill="#FFBFCD"/>
<ellipse cx="19.5" cy="24.5" rx="2.5" ry="1.5" fill="#FFBFCD"/>
<path d="M36 55L17 60.5V62L36 55Z" fill="#F1AABA"/>
<path d="M25.5 40L17 42.5V44L25.5 40Z" fill="#F1AABA"/>
<path d="M84.7951 60.2246C84.7951 64.6557 78.8141 68.2663 71.3976 68.2663C63.9811 68.2663 58 64.6557 58 60.2246C58 55.7934 63.9811 52.1828 71.3976 52.1828C78.8141 52.1828 84.7951 55.7934 84.7951 60.2246Z" fill="white"/>
<path d="M71.3976 68.2663C64.5552 68.2663 58.9091 65.1809 58.0957 61.2093C58.0478 61.5375 58 61.8658 58 62.194C58 66.6251 63.9811 70.2357 71.3976 70.2357C78.8141 70.2357 84.7951 66.6251 84.7951 62.194C84.7951 61.8658 84.7473 61.5375 84.6994 61.2093C83.886 65.1809 78.2399 68.2663 71.3976 68.2663Z" fill="#FFBFCD"/>
<path d="M82.1635 60.1918C82.1635 60.4544 82.1635 60.6841 82.1157 60.9139C82.0678 61.078 81.8286 61.2093 81.5893 61.2093C81.3501 61.1765 81.1587 61.0124 81.1587 60.8483C81.2065 60.6513 81.2065 60.4544 81.2065 60.2246C81.2065 60.0277 81.3979 59.8964 81.685 59.8964C81.9721 59.8964 82.1635 60.0277 82.1635 60.1918ZM81.6372 58.288C81.6372 58.4193 81.5415 58.5506 81.3501 58.5835C81.1108 58.6491 80.8237 58.5506 80.728 58.3865C80.6324 58.1896 80.4888 57.9926 80.3453 57.8285C80.2017 57.6644 80.2974 57.4675 80.5367 57.4018C80.7759 57.3033 81.063 57.369 81.1587 57.5331C81.3022 57.73 81.4458 57.9598 81.5415 58.1567C81.6372 58.2224 81.6372 58.2552 81.6372 58.288ZM81.3022 62.7192C81.3022 62.7848 81.3022 62.8177 81.2544 62.8833C81.1108 63.0803 80.9194 63.2772 80.7759 63.4741C80.6324 63.6383 80.3453 63.6711 80.106 63.5726C79.8668 63.4741 79.8189 63.2772 79.9625 63.1131C80.106 62.949 80.2974 62.752 80.3931 62.5879C80.5367 62.4238 80.8237 62.3581 81.0151 62.4566C81.2065 62.4894 81.3022 62.6207 81.3022 62.7192ZM79.5797 56.1217C79.5797 56.2202 79.5318 56.2858 79.4361 56.3515C79.2447 56.4828 78.9577 56.4828 78.7663 56.3515C78.5749 56.2202 78.3356 56.0561 78.0964 55.9248C77.905 55.8263 77.8571 55.5965 78.0485 55.4652C78.2399 55.3339 78.527 55.3011 78.7184 55.4324C78.9577 55.5637 79.2447 55.7278 79.4361 55.8919C79.5318 55.9576 79.5797 56.0561 79.5797 56.1217ZM78.9098 64.7214C78.9098 64.8199 78.862 64.9184 78.7184 64.984C78.4792 65.1153 78.1921 65.2794 77.905 65.3779C77.6658 65.4764 77.3787 65.4435 77.2351 65.2794C77.0916 65.1153 77.1394 64.9184 77.3787 64.8199C77.6179 64.6886 77.8571 64.5901 78.0964 64.4588C78.2878 64.3275 78.6227 64.3604 78.7663 64.4917C78.862 64.5901 78.9098 64.6558 78.9098 64.7214ZM76.4695 54.6775C76.4695 54.7103 76.4695 54.7759 76.4217 54.8088C76.326 54.9729 76.0389 55.0385 75.7997 54.9729C75.5126 54.8744 75.2255 54.8088 74.9384 54.7431C74.6991 54.6775 74.5556 54.5134 74.6513 54.3164C74.747 54.1523 74.9862 54.0538 75.2733 54.1195C75.6083 54.1851 75.8954 54.2836 76.1824 54.3492C76.3738 54.4477 76.4695 54.5462 76.4695 54.6775ZM75.6083 66.0015C75.6083 66.1328 75.4647 66.2641 75.2733 66.2969C74.9862 66.3626 74.6513 66.4282 74.3164 66.4939C74.0771 66.5267 73.79 66.4282 73.7422 66.2641C73.6943 66.1 73.8379 65.9031 74.0771 65.8702C74.3642 65.8046 74.6513 65.7718 74.9384 65.7061C75.1776 65.6405 75.4647 65.7389 75.5604 65.9031C75.6083 65.9031 75.6083 65.9359 75.6083 66.0015ZM72.7852 54.0538C72.7852 54.0867 72.7852 54.0867 72.7852 54.0538C72.7852 54.2508 72.546 54.3821 72.2589 54.3821C71.9718 54.3821 71.6847 54.3492 71.3976 54.3492C71.1105 54.3492 70.9191 54.2179 70.9191 54.021C70.9191 53.8241 71.1105 53.6928 71.3976 53.6928C71.7325 53.6928 72.0196 53.6928 72.3546 53.7256C72.5938 53.7584 72.7852 53.8897 72.7852 54.0538ZM71.8761 66.3954C71.8761 66.5924 71.6847 66.7236 71.3976 66.7236C71.0627 66.7236 70.7277 66.7236 70.4406 66.6908C70.2014 66.6908 69.9622 66.5267 70.01 66.3298C70.01 66.1328 70.2492 66.0015 70.5363 66.0344C70.8234 66.0344 71.1584 66.0672 71.4455 66.0672C71.6847 66.0672 71.8761 66.2313 71.8761 66.3954ZM69.0052 54.2836C69.0052 54.4149 68.8616 54.579 68.6224 54.6118C68.3353 54.6775 68.0482 54.7103 67.7611 54.7759C67.5219 54.8416 67.2348 54.7431 67.1391 54.579C67.0434 54.4149 67.1869 54.2179 67.4262 54.1523C67.7133 54.0867 68.0482 54.021 68.3832 53.9554C68.6224 53.9225 68.9095 54.021 68.9573 54.1851C69.0052 54.2179 69.0052 54.2508 69.0052 54.2836ZM68.1439 66.0015C68.1439 66.0344 68.1439 66.0672 68.0961 66.1C68.0004 66.2641 67.7611 66.3626 67.474 66.2969C67.1869 66.2313 66.852 66.1328 66.5649 66.0672C66.3257 66.0015 66.23 65.8046 66.3257 65.6405C66.4214 65.4764 66.7085 65.4107 66.9477 65.4764C67.2348 65.5748 67.5219 65.6405 67.809 65.7061C68.0482 65.7389 68.1439 65.8702 68.1439 66.0015ZM65.5601 55.3339C65.5601 55.4324 65.4644 55.5309 65.3687 55.5965C65.1295 55.7278 64.8902 55.8263 64.651 55.9576C64.4596 56.0889 64.1246 56.0561 63.9811 55.9248C63.7897 55.7935 63.8376 55.5637 64.029 55.4652C64.2682 55.3339 64.5553 55.1698 64.8424 55.0714C65.0816 54.9729 65.3687 55.0057 65.5123 55.1698C65.5601 55.2026 65.5601 55.2683 65.5601 55.3339ZM64.8424 64.7542C64.8424 64.8199 64.7945 64.8855 64.7467 64.9512C64.6031 65.0825 64.2682 65.1153 64.0768 64.984C63.8376 64.8527 63.5505 64.6886 63.3591 64.5245C63.1677 64.3932 63.1677 64.1962 63.3591 64.065C63.5505 63.9337 63.8376 63.9337 64.029 64.065C64.2203 64.1962 64.4596 64.3604 64.6988 64.4917C64.7945 64.5573 64.8424 64.6558 64.8424 64.7542ZM62.9284 57.172C62.9284 57.2377 62.8806 57.3033 62.8327 57.3362C62.6892 57.5003 62.4978 57.6972 62.4021 57.8613C62.3064 58.0255 61.9715 58.0911 61.7801 57.9926C61.5408 57.927 61.4451 57.73 61.5887 57.5659C61.7322 57.369 61.9236 57.172 62.0672 56.9751C62.2107 56.811 62.4978 56.7782 62.737 56.8766C62.8327 56.9423 62.9284 57.0736 62.9284 57.172ZM62.45 62.752C62.45 62.8833 62.3543 62.9818 62.2107 63.0474C61.9715 63.1459 61.6844 63.0803 61.5887 62.9161C61.4451 62.7192 61.3016 62.4894 61.2059 62.2925C61.1102 62.1284 61.2537 61.9314 61.493 61.8658C61.7322 61.8001 62.0193 61.8986 62.115 62.0627C62.2107 62.2597 62.3543 62.4566 62.4978 62.6207C62.45 62.6536 62.45 62.6864 62.45 62.752ZM61.6365 59.601L61.6365 59.6338C61.5887 59.8307 61.5887 60.0277 61.5887 60.2246C61.5887 60.4216 61.3973 60.5529 61.1102 60.5529C60.8231 60.5529 60.6317 60.4216 60.6317 60.2246C60.6317 59.9949 60.6317 59.7651 60.6796 59.5682C60.7274 59.404 60.9667 59.2727 61.2059 59.2727C61.4451 59.2727 61.6365 59.4369 61.6365 59.601Z" fill="#FFBFCD"/>
<path d="M71.8761 68.2663L71.8761 70.2357C72.211 70.2357 72.4981 70.2029 72.8331 70.2029L72.8331 68.2335C72.4981 68.2335 72.211 68.2663 71.8761 68.2663Z" fill="#F48BA2"/>
<path d="M69.4836 68.2007L69.4836 70.1701C69.8186 70.2029 70.1057 70.2029 70.4406 70.2357L70.4406 68.2663C70.1057 68.2335 69.8186 68.2335 69.4836 68.2007Z" fill="#F48BA2"/>
<path d="M74.2686 68.1023L74.2686 70.0717C74.6035 70.0388 74.8906 69.9732 75.2255 69.9075L75.2255 67.9381C74.8906 68.0038 74.6035 68.0366 74.2686 68.1023Z" fill="#F48BA2"/>
<path d="M76.6609 67.6426L76.6609 69.612C76.9958 69.5136 77.2829 69.4479 77.6179 69.3495L77.6179 67.3801C77.2829 67.4457 76.9958 67.5442 76.6609 67.6426Z" fill="#F48BA2"/>
<path d="M67.0913 67.8396L67.0913 69.809C67.4262 69.8747 67.7133 69.9403 68.0483 69.9731L68.0483 68.0037C67.7133 67.9709 67.4262 67.9053 67.0913 67.8396Z" fill="#F48BA2"/>
<path d="M64.6989 67.1832L64.6989 69.1526C65.0338 69.251 65.3209 69.3495 65.6558 69.448L65.6558 67.4786C65.3209 67.4129 65.0338 67.3145 64.6989 67.1832Z" fill="#F48BA2"/>
<path d="M61.8279 65.8701L61.8279 67.8395C62.115 68.0365 62.4499 68.2006 62.7848 68.3647L62.7848 66.3953C62.4499 66.2312 62.115 66.0342 61.8279 65.8701Z" fill="#F48BA2"/>
<path d="M59.4355 63.8351L59.4355 65.8045C59.7226 66.1327 60.0576 66.4609 60.3925 66.7563L60.3925 64.7869C60.0576 64.4915 59.7226 64.1961 59.4355 63.8351Z" fill="#F48BA2"/>
<path d="M79.5319 66.6251L79.5319 68.5945C79.8668 68.4304 80.2017 68.2663 80.4888 68.1022L80.4888 66.1328C80.2017 66.2969 79.8668 66.461 79.5319 66.6251Z" fill="#F48BA2"/>
<path d="M81.9243 67.1831C82.2593 66.9205 82.5942 66.6579 82.8813 66.3625L82.8813 64.3931C82.5942 64.6885 82.2593 64.9511 81.9243 65.2137L81.9243 67.1831Z" fill="#F48BA2"/>
<path d="M73.8763 59.733L73.8763 61.0232L75.2255 61.0232L75.2255 62.0329L73.8763 62.0329L73.8763 62.8543L72.6906 62.8543L72.6906 62.0329L72.0656 62.0329L72.0656 62.8543L70.8799 62.8543L70.8799 62.0329L66.7212 62.0329L66.7212 59.8011C66.7212 59.1574 66.9665 58.6432 67.4571 58.2585C67.9439 57.8739 68.5922 57.6815 69.4022 57.6815C70.2277 57.6815 70.876 57.8645 71.3472 58.2305C71.8144 58.5964 72.0539 59.1053 72.0656 59.757L72.0656 61.0232L72.6906 61.0232L72.6906 59.733L73.8763 59.733ZM70.8799 61.0232L70.8799 59.8171C70.8799 59.4539 70.7572 59.1761 70.5119 58.9837C70.2666 58.7914 69.9006 58.6952 69.4138 58.6952C68.9777 58.6952 68.6214 58.7901 68.345 58.9797C68.0685 59.1667 67.9244 59.4258 67.9127 59.757L67.9127 61.0232L70.8799 61.0232Z" fill="#F48BA2"/>
<path d="M84.7951 58.1031C84.7951 62.5343 78.8141 66.1448 71.3976 66.1448C63.9811 66.1448 58 62.5343 58 58.1031C58 53.672 63.9811 50.0614 71.3976 50.0614C78.8141 50.0614 84.7951 53.672 84.7951 58.1031Z" fill="white"/>
<path d="M71.3976 66.1448C64.5552 66.1448 58.9091 63.0594 58.0957 59.0878C58.0478 59.416 58 59.7442 58 60.0725C58 64.5036 63.9811 68.1142 71.3976 68.1142C78.8141 68.1142 84.7951 64.5036 84.7951 60.0725C84.7951 59.7442 84.7473 59.416 84.6994 59.0878C83.886 63.0594 78.2399 66.1448 71.3976 66.1448Z" fill="#FFBFCD"/>
<path d="M82.1635 58.0703C82.1635 58.3329 82.1635 58.5627 82.1157 58.7924C82.0678 58.9566 81.8286 59.0878 81.5893 59.0878C81.3501 59.055 81.1587 58.8909 81.1587 58.7268C81.2065 58.5298 81.2065 58.3329 81.2065 58.1031C81.2065 57.9062 81.3979 57.7749 81.685 57.7749C81.9721 57.7749 82.1635 57.9062 82.1635 58.0703ZM81.6372 56.1666C81.6372 56.2979 81.5415 56.4292 81.3501 56.462C81.1108 56.5276 80.8237 56.4292 80.728 56.265C80.6324 56.0681 80.4888 55.8712 80.3453 55.707C80.2017 55.5429 80.2974 55.346 80.5367 55.2803C80.7759 55.1819 81.063 55.2475 81.1587 55.4116C81.3022 55.6086 81.4458 55.8383 81.5415 56.0353C81.6372 56.1009 81.6372 56.1337 81.6372 56.1666ZM81.3022 60.5977C81.3022 60.6634 81.3022 60.6962 81.2544 60.7618C81.1108 60.9588 80.9194 61.1557 80.7759 61.3527C80.6324 61.5168 80.3453 61.5496 80.106 61.4511C79.8668 61.3527 79.8189 61.1557 79.9625 60.9916C80.106 60.8275 80.2974 60.6305 80.3931 60.4664C80.5367 60.3023 80.8237 60.2367 81.0151 60.3351C81.2065 60.368 81.3022 60.4993 81.3022 60.5977ZM79.5797 54.0002C79.5797 54.0987 79.5318 54.1643 79.4361 54.23C79.2447 54.3613 78.9577 54.3613 78.7663 54.23C78.5749 54.0987 78.3356 53.9346 78.0964 53.8033C77.905 53.7048 77.8571 53.4751 78.0485 53.3438C78.2399 53.2125 78.527 53.1796 78.7184 53.3109C78.9577 53.4422 79.2447 53.6063 79.4361 53.7705C79.5318 53.8361 79.5797 53.9346 79.5797 54.0002ZM78.9098 62.5999C78.9098 62.6984 78.862 62.7969 78.7184 62.8625C78.4792 62.9938 78.1921 63.1579 77.905 63.2564C77.6658 63.3549 77.3787 63.3221 77.2351 63.1579C77.0916 62.9938 77.1394 62.7969 77.3787 62.6984C77.6179 62.5671 77.8571 62.4687 78.0964 62.3374C78.2878 62.2061 78.6227 62.2389 78.7663 62.3702C78.862 62.4687 78.9098 62.5343 78.9098 62.5999ZM76.4695 52.556C76.4695 52.5888 76.4695 52.6545 76.4217 52.6873C76.326 52.8514 76.0389 52.9171 75.7997 52.8514C75.5126 52.7529 75.2255 52.6873 74.9384 52.6216C74.6991 52.556 74.5556 52.3919 74.6513 52.1949C74.747 52.0308 74.9862 51.9324 75.2733 51.998C75.6083 52.0636 75.8954 52.1621 76.1824 52.2278C76.3738 52.3262 76.4695 52.4247 76.4695 52.556ZM75.6083 63.8801C75.6083 64.0114 75.4647 64.1426 75.2733 64.1755C74.9862 64.2411 74.6513 64.3068 74.3164 64.3724C74.0771 64.4052 73.79 64.3068 73.7422 64.1426C73.6943 63.9785 73.8379 63.7816 74.0771 63.7488C74.3642 63.6831 74.6513 63.6503 74.9384 63.5846C75.1776 63.519 75.4647 63.6175 75.5604 63.7816C75.6083 63.7816 75.6083 63.8144 75.6083 63.8801ZM72.7852 51.9324C72.7852 51.9652 72.7852 51.9652 72.7852 51.9324C72.7852 52.1293 72.546 52.2606 72.2589 52.2606C71.9718 52.2606 71.6847 52.2278 71.3976 52.2278C71.1105 52.2278 70.9191 52.0965 70.9191 51.8995C70.9191 51.7026 71.1105 51.5713 71.3976 51.5713C71.7325 51.5713 72.0196 51.5713 72.3546 51.6041C72.5938 51.6369 72.7852 51.7682 72.7852 51.9324ZM71.8761 64.2739C71.8761 64.4709 71.6847 64.6022 71.3976 64.6022C71.0627 64.6022 70.7277 64.6022 70.4406 64.5693C70.2014 64.5693 69.9622 64.4052 70.01 64.2083C70.01 64.0114 70.2492 63.8801 70.5363 63.9129C70.8234 63.9129 71.1584 63.9457 71.4455 63.9457C71.6847 63.9457 71.8761 64.1098 71.8761 64.2739ZM69.0052 52.1621C69.0052 52.2934 68.8616 52.4575 68.6224 52.4904C68.3353 52.556 68.0482 52.5888 67.7611 52.6545C67.5219 52.7201 67.2348 52.6216 67.1391 52.4575C67.0434 52.2934 67.1869 52.0965 67.4262 52.0308C67.7133 51.9652 68.0482 51.8995 68.3832 51.8339C68.6224 51.8011 68.9095 51.8995 68.9573 52.0636C69.0052 52.0965 69.0052 52.1293 69.0052 52.1621ZM68.1439 63.8801C68.1439 63.9129 68.1439 63.9457 68.0961 63.9785C68.0004 64.1426 67.7611 64.2411 67.474 64.1755C67.1869 64.1098 66.852 64.0114 66.5649 63.9457C66.3257 63.8801 66.23 63.6831 66.3257 63.519C66.4214 63.3549 66.7085 63.2892 66.9477 63.3549C67.2348 63.4534 67.5219 63.519 67.809 63.5846C68.0482 63.6175 68.1439 63.7488 68.1439 63.8801ZM65.5601 53.2125C65.5601 53.3109 65.4644 53.4094 65.3687 53.4751C65.1295 53.6063 64.8902 53.7048 64.651 53.8361C64.4596 53.9674 64.1246 53.9346 63.9811 53.8033C63.7897 53.672 63.8376 53.4422 64.029 53.3438C64.2682 53.2125 64.5553 53.0483 64.8424 52.9499C65.0816 52.8514 65.3687 52.8842 65.5123 53.0483C65.5601 53.0812 65.5601 53.1468 65.5601 53.2125ZM64.8424 62.6328C64.8424 62.6984 64.7945 62.7641 64.7467 62.8297C64.6031 62.961 64.2682 62.9938 64.0768 62.8625C63.8376 62.7312 63.5505 62.5671 63.3591 62.403C63.1677 62.2717 63.1677 62.0748 63.3591 61.9435C63.5505 61.8122 63.8376 61.8122 64.029 61.9435C64.2203 62.0748 64.4596 62.2389 64.6988 62.3702C64.7945 62.4358 64.8424 62.5343 64.8424 62.6328ZM62.9284 55.0506C62.9284 55.1162 62.8806 55.1819 62.8327 55.2147C62.6892 55.3788 62.4978 55.5757 62.4021 55.7399C62.3064 55.904 61.9715 55.9696 61.7801 55.8712C61.5408 55.8055 61.4451 55.6086 61.5887 55.4445C61.7322 55.2475 61.9236 55.0506 62.0672 54.8536C62.2107 54.6895 62.4978 54.6567 62.737 54.7552C62.8327 54.8208 62.9284 54.9521 62.9284 55.0506ZM62.45 60.6305C62.45 60.7618 62.3543 60.8603 62.2107 60.926C61.9715 61.0244 61.6844 60.9588 61.5887 60.7947C61.4451 60.5977 61.3016 60.368 61.2059 60.171C61.1102 60.0069 61.2537 59.81 61.493 59.7443C61.7322 59.6787 62.0193 59.7771 62.115 59.9413C62.2107 60.1382 62.3543 60.3351 62.4978 60.4993C62.45 60.5321 62.45 60.5649 62.45 60.6305ZM61.6365 57.4795L61.6365 57.5123C61.5887 57.7093 61.5887 57.9062 61.5887 58.1031C61.5887 58.3001 61.3973 58.4314 61.1102 58.4314C60.8231 58.4314 60.6317 58.3001 60.6317 58.1031C60.6317 57.8734 60.6317 57.6436 60.6796 57.4467C60.7274 57.2826 60.9667 57.1513 61.2059 57.1513C61.4451 57.1513 61.6365 57.3154 61.6365 57.4795Z" fill="#FFBFCD"/>
<path d="M71.8761 66.1449L71.8761 68.1143C72.211 68.1143 72.4981 68.0814 72.8331 68.0814L72.8331 66.112C72.4981 66.112 72.211 66.1449 71.8761 66.1449Z" fill="#F48BA2"/>
<path d="M69.4836 66.0792L69.4836 68.0486C69.8186 68.0814 70.1057 68.0814 70.4406 68.1143L70.4406 66.1449C70.1057 66.112 69.8186 66.112 69.4836 66.0792Z" fill="#F48BA2"/>
<path d="M74.2686 65.9808L74.2686 67.9502C74.6035 67.9174 74.8906 67.8517 75.2255 67.7861L75.2255 65.8167C74.8906 65.8823 74.6035 65.9151 74.2686 65.9808Z" fill="#F48BA2"/>
<path d="M76.6609 65.5213L76.6609 67.4907C76.9958 67.3922 77.2829 67.3266 77.6179 67.2281L77.6179 65.2587C77.2829 65.3243 76.9958 65.4228 76.6609 65.5213Z" fill="#F48BA2"/>
<path d="M67.0913 65.7183L67.0913 67.6877C67.4262 67.7533 67.7133 67.819 68.0483 67.8518L68.0483 65.8824C67.7133 65.8496 67.4262 65.7839 67.0913 65.7183Z" fill="#F48BA2"/>
<path d="M64.6989 65.0617L64.6989 67.0311C65.0338 67.1296 65.3209 67.228 65.6558 67.3265L65.6558 65.3571C65.3209 65.2915 65.0338 65.193 64.6989 65.0617Z" fill="#F48BA2"/>
<path d="M61.8279 63.7488L61.8279 65.7182C62.115 65.9151 62.4499 66.0792 62.7848 66.2433L62.7848 64.2739C62.4499 64.1098 62.115 63.9129 61.8279 63.7488Z" fill="#F48BA2"/>
<path d="M59.4355 61.7137L59.4355 63.6831C59.7226 64.0114 60.0576 64.3396 60.3925 64.635L60.3925 62.6656C60.0576 62.3702 59.7226 62.0748 59.4355 61.7137Z" fill="#F48BA2"/>
<path d="M79.5319 64.5038L79.5319 66.4732C79.8668 66.3091 80.2017 66.145 80.4888 65.9809L80.4888 64.0115C80.2017 64.1756 79.8668 64.3397 79.5319 64.5038Z" fill="#F48BA2"/>
<path d="M81.9243 65.0617C82.2593 64.7991 82.5942 64.5365 82.8813 64.2411L82.8813 62.2717C82.5942 62.5671 82.2593 62.8297 81.9243 63.0923L81.9243 65.0617Z" fill="#F48BA2"/>
<path d="M73.8763 57.6116L73.8763 58.9018L75.2255 58.9018L75.2255 59.9115L73.8763 59.9115L73.8763 60.7329L72.6906 60.7329L72.6906 59.9115L72.0656 59.9115L72.0656 60.7329L70.8799 60.7329L70.8799 59.9115L66.7212 59.9115L66.7212 57.6797C66.7212 57.036 66.9665 56.5218 67.4571 56.1371C67.9439 55.7525 68.5922 55.5602 69.4022 55.5602C70.2277 55.5602 70.876 55.7431 71.3472 56.1091C71.8144 56.475 72.0539 56.9839 72.0656 57.6357L72.0656 58.9018L72.6906 58.9018L72.6906 57.6116L73.8763 57.6116ZM70.8799 58.9018L70.8799 57.6958C70.8799 57.3325 70.7572 57.0547 70.5119 56.8624C70.2666 56.67 69.9006 56.5739 69.4138 56.5739C68.9777 56.5739 68.6214 56.6687 68.345 56.8584C68.0685 57.0453 67.9244 57.3044 67.9127 57.6357L67.9127 58.9018L70.8799 58.9018Z" fill="#F48BA2"/>
<path d="M84.7951 55.973C84.7951 60.4041 78.8141 64.0147 71.3976 64.0147C63.9811 64.0147 58 60.4041 58 55.973C58 51.5418 63.9811 47.9312 71.3976 47.9312C78.8141 47.9312 84.7951 51.5418 84.7951 55.973Z" fill="white"/>
<path d="M71.3976 64.0147C64.5552 64.0147 58.9091 60.9293 58.0957 56.9576C58.0478 57.2859 58 57.6141 58 57.9423C58 62.3735 63.9811 65.9841 71.3976 65.9841C78.8141 65.9841 84.7951 62.3735 84.7951 57.9423C84.7951 57.6141 84.7473 57.2859 84.6994 56.9576C83.886 60.9293 78.2399 64.0147 71.3976 64.0147Z" fill="#FFBFCD"/>
<path d="M82.1635 55.9402C82.1635 56.2028 82.1635 56.4325 82.1157 56.6623C82.0678 56.8264 81.8286 56.9577 81.5893 56.9577C81.3501 56.9249 81.1587 56.7608 81.1587 56.5967C81.2065 56.3997 81.2065 56.2028 81.2065 55.973C81.2065 55.7761 81.3979 55.6448 81.685 55.6448C81.9721 55.6448 82.1635 55.7761 82.1635 55.9402ZM81.6372 54.0364C81.6372 54.1677 81.5415 54.299 81.3501 54.3319C81.1108 54.3975 80.8237 54.299 80.728 54.1349C80.6324 53.938 80.4888 53.741 80.3453 53.5769C80.2017 53.4128 80.2974 53.2159 80.5367 53.1502C80.7759 53.0517 81.063 53.1174 81.1587 53.2815C81.3022 53.4784 81.4458 53.7082 81.5415 53.9051C81.6372 53.9708 81.6372 54.0036 81.6372 54.0364ZM81.3022 58.4676C81.3022 58.5332 81.3022 58.5661 81.2544 58.6317C81.1108 58.8287 80.9194 59.0256 80.7759 59.2225C80.6324 59.3866 80.3453 59.4195 80.106 59.321C79.8668 59.2225 79.8189 59.0256 79.9625 58.8615C80.106 58.6974 80.2974 58.5004 80.3931 58.3363C80.5367 58.1722 80.8237 58.1065 81.0151 58.205C81.2065 58.2378 81.3022 58.3691 81.3022 58.4676ZM79.5797 51.8701C79.5797 51.9686 79.5318 52.0342 79.4361 52.0999C79.2447 52.2312 78.9577 52.2312 78.7663 52.0999C78.5749 51.9686 78.3356 51.8045 78.0964 51.6732C77.905 51.5747 77.8571 51.3449 78.0485 51.2136C78.2399 51.0823 78.527 51.0495 78.7184 51.1808C78.9577 51.3121 79.2447 51.4762 79.4361 51.6403C79.5318 51.706 79.5797 51.8045 79.5797 51.8701ZM78.9098 60.4698C78.9098 60.5683 78.862 60.6668 78.7184 60.7324C78.4792 60.8637 78.1921 61.0278 77.905 61.1263C77.6658 61.2248 77.3787 61.1919 77.2351 61.0278C77.0916 60.8637 77.1394 60.6668 77.3787 60.5683C77.6179 60.437 77.8571 60.3385 78.0964 60.2072C78.2878 60.0759 78.6227 60.1088 78.7663 60.2401C78.862 60.3385 78.9098 60.4042 78.9098 60.4698ZM76.4695 50.4259C76.4695 50.4587 76.4695 50.5243 76.4217 50.5572C76.326 50.7213 76.0389 50.7869 75.7997 50.7213C75.5126 50.6228 75.2255 50.5572 74.9384 50.4915C74.6991 50.4259 74.5556 50.2618 74.6513 50.0648C74.747 49.9007 74.9862 49.8022 75.2733 49.8679C75.6083 49.9335 75.8954 50.032 76.1824 50.0976C76.3738 50.1961 76.4695 50.2946 76.4695 50.4259ZM75.6083 61.7499C75.6083 61.8812 75.4647 62.0125 75.2733 62.0453C74.9862 62.111 74.6513 62.1766 74.3164 62.2423C74.0771 62.2751 73.79 62.1766 73.7422 62.0125C73.6943 61.8484 73.8379 61.6515 74.0771 61.6186C74.3642 61.553 74.6513 61.5202 74.9384 61.4545C75.1776 61.3889 75.4647 61.4873 75.5604 61.6515C75.6083 61.6515 75.6083 61.6843 75.6083 61.7499ZM72.7852 49.8022C72.7852 49.835 72.7852 49.835 72.7852 49.8022C72.7852 49.9992 72.546 50.1305 72.2589 50.1305C71.9718 50.1305 71.6847 50.0976 71.3976 50.0976C71.1105 50.0976 70.9191 49.9663 70.9191 49.7694C70.9191 49.5725 71.1105 49.4412 71.3976 49.4412C71.7325 49.4412 72.0196 49.4412 72.3546 49.474C72.5938 49.5068 72.7852 49.6381 72.7852 49.8022ZM71.8761 62.1438C71.8761 62.3408 71.6847 62.472 71.3976 62.472C71.0627 62.472 70.7277 62.472 70.4406 62.4392C70.2014 62.4392 69.9622 62.2751 70.01 62.0782C70.01 61.8812 70.2492 61.7499 70.5363 61.7828C70.8234 61.7828 71.1584 61.8156 71.4455 61.8156C71.6847 61.8156 71.8761 61.9797 71.8761 62.1438ZM69.0052 50.032C69.0052 50.1633 68.8616 50.3274 68.6224 50.3602C68.3353 50.4259 68.0482 50.4587 67.7611 50.5243C67.5219 50.59 67.2348 50.4915 67.1391 50.3274C67.0434 50.1633 67.1869 49.9663 67.4262 49.9007C67.7133 49.835 68.0482 49.7694 68.3832 49.7038C68.6224 49.6709 68.9095 49.7694 68.9573 49.9335C69.0052 49.9663 69.0052 49.9992 69.0052 50.032ZM68.1439 61.7499C68.1439 61.7828 68.1439 61.8156 68.0961 61.8484C68.0004 62.0125 67.7611 62.111 67.474 62.0453C67.1869 61.9797 66.852 61.8812 66.5649 61.8156C66.3257 61.7499 66.23 61.553 66.3257 61.3889C66.4214 61.2248 66.7085 61.1591 66.9477 61.2248C67.2348 61.3232 67.5219 61.3889 67.809 61.4545C68.0482 61.4873 68.1439 61.6186 68.1439 61.7499ZM65.5601 51.0823C65.5601 51.1808 65.4644 51.2793 65.3687 51.3449C65.1295 51.4762 64.8902 51.5747 64.651 51.706C64.4596 51.8373 64.1246 51.8045 63.9811 51.6732C63.7897 51.5419 63.8376 51.3121 64.029 51.2136C64.2682 51.0823 64.5553 50.9182 64.8424 50.8197C65.0816 50.7213 65.3687 50.7541 65.5123 50.9182C65.5601 50.951 65.5601 51.0167 65.5601 51.0823ZM64.8424 60.5026C64.8424 60.5683 64.7945 60.6339 64.7467 60.6996C64.6031 60.8309 64.2682 60.8637 64.0768 60.7324C63.8376 60.6011 63.5505 60.437 63.3591 60.2729C63.1677 60.1416 63.1677 59.9446 63.3591 59.8134C63.5505 59.6821 63.8376 59.6821 64.029 59.8134C64.2203 59.9446 64.4596 60.1088 64.6988 60.2401C64.7945 60.3057 64.8424 60.4042 64.8424 60.5026ZM62.9284 52.9204C62.9284 52.9861 62.8806 53.0517 62.8327 53.0846C62.6892 53.2487 62.4978 53.4456 62.4021 53.6097C62.3064 53.7739 61.9715 53.8395 61.7801 53.741C61.5408 53.6754 61.4451 53.4784 61.5887 53.3143C61.7322 53.1174 61.9236 52.9204 62.0672 52.7235C62.2107 52.5594 62.4978 52.5266 62.737 52.625C62.8327 52.6907 62.9284 52.822 62.9284 52.9204ZM62.45 58.5004C62.45 58.6317 62.3543 58.7302 62.2107 58.7958C61.9715 58.8943 61.6844 58.8287 61.5887 58.6645C61.4451 58.4676 61.3016 58.2378 61.2059 58.0409C61.1102 57.8768 61.2537 57.6798 61.493 57.6142C61.7322 57.5485 62.0193 57.647 62.115 57.8111C62.2107 58.0081 62.3543 58.205 62.4978 58.3691C62.45 58.4019 62.45 58.4348 62.45 58.5004ZM61.6365 55.3494L61.6365 55.3822C61.5887 55.5791 61.5887 55.7761 61.5887 55.973C61.5887 56.17 61.3973 56.3013 61.1102 56.3013C60.8231 56.3013 60.6317 56.17 60.6317 55.973C60.6317 55.7433 60.6317 55.5135 60.6796 55.3166C60.7274 55.1524 60.9667 55.0211 61.2059 55.0211C61.4451 55.0211 61.6365 55.1853 61.6365 55.3494Z" fill="#FFBFCD"/>
<path d="M71.8761 64.0147L71.8761 65.9841C72.211 65.9841 72.4981 65.9513 72.8331 65.9513L72.8331 63.9819C72.4981 63.9819 72.211 64.0147 71.8761 64.0147Z" fill="#F48BA2"/>
<path d="M69.4836 63.9491L69.4836 65.9185C69.8186 65.9513 70.1057 65.9513 70.4406 65.9841L70.4406 64.0147C70.1057 63.9819 69.8186 63.9819 69.4836 63.9491Z" fill="#F48BA2"/>
<path d="M74.2686 63.8508L74.2686 65.8202C74.6035 65.7874 74.8906 65.7217 75.2255 65.6561L75.2255 63.6867C74.8906 63.7523 74.6035 63.7851 74.2686 63.8508Z" fill="#F48BA2"/>
<path d="M76.6609 63.391L76.6609 65.3604C76.9958 65.262 77.2829 65.1963 77.6179 65.0979L77.6179 63.1285C77.2829 63.1941 76.9958 63.2926 76.6609 63.391Z" fill="#F48BA2"/>
<path d="M67.0913 63.588L67.0913 65.5574C67.4262 65.6231 67.7133 65.6887 68.0483 65.7215L68.0483 63.7521C67.7133 63.7193 67.4262 63.6537 67.0913 63.588Z" fill="#F48BA2"/>
<path d="M64.6989 62.9316L64.6989 64.901C65.0338 64.9994 65.3209 65.0979 65.6558 65.1964L65.6558 63.227C65.3209 63.1613 65.0338 63.0628 64.6989 62.9316Z" fill="#F48BA2"/>
<path d="M61.8279 61.6186L61.8279 63.588C62.115 63.785 62.4499 63.9491 62.7848 64.1132L62.7848 62.1438C62.4499 61.9797 62.115 61.7827 61.8279 61.6186Z" fill="#F48BA2"/>
<path d="M59.4355 59.5836L59.4355 61.553C59.7226 61.8812 60.0576 62.2095 60.3925 62.5049L60.3925 60.5355C60.0576 60.2401 59.7226 59.9447 59.4355 59.5836Z" fill="#F48BA2"/>
<path d="M79.5319 62.3736L79.5319 64.343C79.8668 64.1788 80.2017 64.0147 80.4888 63.8506L80.4888 61.8812C80.2017 62.0453 79.8668 62.2094 79.5319 62.3736Z" fill="#F48BA2"/>
<path d="M81.9243 62.9317C82.2593 62.6691 82.5942 62.4065 82.8813 62.1111L82.8813 60.1417C82.5942 60.4371 82.2593 60.6997 81.9243 60.9623L81.9243 62.9317Z" fill="#F48BA2"/>
<path d="M73.8763 55.4815L73.8763 56.7717L75.2255 56.7717L75.2255 57.7814L73.8763 57.7814L73.8763 58.6028L72.6906 58.6028L72.6906 57.7814L72.0656 57.7814L72.0656 58.6028L70.8799 58.6028L70.8799 57.7814L66.7212 57.7814L66.7212 55.5496C66.7212 54.9059 66.9665 54.3917 67.4571 54.007C67.9439 53.6224 68.5922 53.43 69.4022 53.43C70.2277 53.43 70.876 53.613 71.3472 53.979C71.8144 54.3449 72.0539 54.8538 72.0656 55.5055L72.0656 56.7717L72.6906 56.7717L72.6906 55.4815L73.8763 55.4815ZM70.8799 56.7717L70.8799 55.5656C70.8799 55.2024 70.7572 54.9246 70.5119 54.7322C70.2666 54.5399 69.9006 54.4438 69.4138 54.4438C68.9777 54.4438 68.6214 54.5386 68.345 54.7282C68.0685 54.9152 67.9244 55.1743 67.9127 55.5055L67.9127 56.7717L70.8799 56.7717Z" fill="#F48BA2"/>
<path d="M84.7951 53.8514C84.7951 58.2826 78.8141 61.8931 71.3976 61.8931C63.9811 61.8931 58 58.2826 58 53.8514C58 49.4202 63.9811 45.8097 71.3976 45.8097C78.8141 45.8097 84.7951 49.4202 84.7951 53.8514Z" fill="white"/>
<path d="M71.3976 61.8932C64.5552 61.8932 58.9091 58.8078 58.0957 54.8362C58.0478 55.1644 58 55.4926 58 55.8209C58 60.252 63.9811 63.8626 71.3976 63.8626C78.8141 63.8626 84.7951 60.252 84.7951 55.8209C84.7951 55.4926 84.7473 55.1644 84.6994 54.8362C83.886 58.8078 78.2399 61.8932 71.3976 61.8932Z" fill="#FFBFCD"/>
<path d="M82.1635 53.8186C82.1635 54.0812 82.1635 54.311 82.1157 54.5407C82.0678 54.7049 81.8286 54.8362 81.5893 54.8362C81.3501 54.8033 81.1587 54.6392 81.1587 54.4751C81.2065 54.2782 81.2065 54.0812 81.2065 53.8515C81.2065 53.6545 81.3979 53.5232 81.685 53.5232C81.9721 53.5232 82.1635 53.6545 82.1635 53.8186ZM81.6372 51.9149C81.6372 52.0462 81.5415 52.1775 81.3501 52.2103C81.1108 52.2759 80.8237 52.1775 80.728 52.0133C80.6324 51.8164 80.4888 51.6195 80.3453 51.4553C80.2017 51.2912 80.2974 51.0943 80.5367 51.0286C80.7759 50.9302 81.063 50.9958 81.1587 51.1599C81.3022 51.3569 81.4458 51.5866 81.5415 51.7836C81.6372 51.8492 81.6372 51.882 81.6372 51.9149ZM81.3022 56.346C81.3022 56.4117 81.3022 56.4445 81.2544 56.5101C81.1108 56.7071 80.9194 56.904 80.7759 57.101C80.6324 57.2651 80.3453 57.2979 80.106 57.1994C79.8668 57.101 79.8189 56.904 79.9625 56.7399C80.106 56.5758 80.2974 56.3789 80.3931 56.2147C80.5367 56.0506 80.8237 55.985 81.0151 56.0834C81.2065 56.1163 81.3022 56.2476 81.3022 56.346ZM79.5797 49.7485C79.5797 49.847 79.5318 49.9126 79.4361 49.9783C79.2447 50.1096 78.9577 50.1096 78.7663 49.9783C78.5749 49.847 78.3356 49.6829 78.0964 49.5516C77.905 49.4531 77.8571 49.2234 78.0485 49.0921C78.2399 48.9608 78.527 48.9279 78.7184 49.0592C78.9577 49.1905 79.2447 49.3546 79.4361 49.5188C79.5318 49.5844 79.5797 49.6829 79.5797 49.7485ZM78.9098 58.3483C78.9098 58.4467 78.862 58.5452 78.7184 58.6108C78.4792 58.7421 78.1921 58.9063 77.905 59.0047C77.6658 59.1032 77.3787 59.0704 77.2351 58.9063C77.0916 58.7421 77.1394 58.5452 77.3787 58.4467C77.6179 58.3154 77.8571 58.217 78.0964 58.0857C78.2878 57.9544 78.6227 57.9872 78.7663 58.1185C78.862 58.217 78.9098 58.2826 78.9098 58.3483ZM76.4695 48.3043C76.4695 48.3371 76.4695 48.4028 76.4217 48.4356C76.326 48.5997 76.0389 48.6654 75.7997 48.5997C75.5126 48.5012 75.2255 48.4356 74.9384 48.3699C74.6991 48.3043 74.5556 48.1402 74.6513 47.9432C74.747 47.7791 74.9862 47.6807 75.2733 47.7463C75.6083 47.812 75.8954 47.9104 76.1824 47.9761C76.3738 48.0745 76.4695 48.173 76.4695 48.3043ZM75.6083 59.6284C75.6083 59.7597 75.4647 59.891 75.2733 59.9238C74.9862 59.9894 74.6513 60.0551 74.3164 60.1207C74.0771 60.1535 73.79 60.0551 73.7422 59.891C73.6943 59.7268 73.8379 59.5299 74.0771 59.4971C74.3642 59.4314 74.6513 59.3986 74.9384 59.333C75.1776 59.2673 75.4647 59.3658 75.5604 59.5299C75.6083 59.5299 75.6083 59.5627 75.6083 59.6284ZM72.7852 47.6807C72.7852 47.7135 72.7852 47.7135 72.7852 47.6807C72.7852 47.8776 72.546 48.0089 72.2589 48.0089C71.9718 48.0089 71.6847 47.9761 71.3976 47.9761C71.1105 47.9761 70.9191 47.8448 70.9191 47.6478C70.9191 47.4509 71.1105 47.3196 71.3976 47.3196C71.7325 47.3196 72.0196 47.3196 72.3546 47.3524C72.5938 47.3852 72.7852 47.5165 72.7852 47.6807ZM71.8761 60.0222C71.8761 60.2192 71.6847 60.3505 71.3976 60.3505C71.0627 60.3505 70.7277 60.3505 70.4406 60.3177C70.2014 60.3177 69.9622 60.1535 70.01 59.9566C70.01 59.7597 70.2492 59.6284 70.5363 59.6612C70.8234 59.6612 71.1584 59.694 71.4455 59.694C71.6847 59.694 71.8761 59.8581 71.8761 60.0222ZM69.0052 47.9104C69.0052 48.0417 68.8616 48.2058 68.6224 48.2387C68.3353 48.3043 68.0482 48.3371 67.7611 48.4028C67.5219 48.4684 67.2348 48.3699 67.1391 48.2058C67.0434 48.0417 67.1869 47.8448 67.4262 47.7791C67.7133 47.7135 68.0482 47.6478 68.3832 47.5822C68.6224 47.5494 68.9095 47.6478 68.9573 47.812C69.0052 47.8448 69.0052 47.8776 69.0052 47.9104ZM68.1439 59.6284C68.1439 59.6612 68.1439 59.694 68.0961 59.7268C68.0004 59.891 67.7611 59.9894 67.474 59.9238C67.1869 59.8581 66.852 59.7597 66.5649 59.694C66.3257 59.6284 66.23 59.4314 66.3257 59.2673C66.4214 59.1032 66.7085 59.0375 66.9477 59.1032C67.2348 59.2017 67.5219 59.2673 67.809 59.333C68.0482 59.3658 68.1439 59.4971 68.1439 59.6284ZM65.5601 48.9608C65.5601 49.0592 65.4644 49.1577 65.3687 49.2234C65.1295 49.3547 64.8902 49.4531 64.651 49.5844C64.4596 49.7157 64.1246 49.6829 63.9811 49.5516C63.7897 49.4203 63.8376 49.1905 64.029 49.0921C64.2682 48.9608 64.5553 48.7967 64.8424 48.6982C65.0816 48.5997 65.3687 48.6325 65.5123 48.7967C65.5601 48.8295 65.5601 48.8951 65.5601 48.9608ZM64.8424 58.3811C64.8424 58.4467 64.7945 58.5124 64.7467 58.578C64.6031 58.7093 64.2682 58.7421 64.0768 58.6108C63.8376 58.4795 63.5505 58.3154 63.3591 58.1513C63.1677 58.02 63.1677 57.8231 63.3591 57.6918C63.5505 57.5605 63.8376 57.5605 64.029 57.6918C64.2203 57.8231 64.4596 57.9872 64.6988 58.1185C64.7945 58.1841 64.8424 58.2826 64.8424 58.3811ZM62.9284 50.7989C62.9284 50.8645 62.8806 50.9302 62.8327 50.963C62.6892 51.1271 62.4978 51.3241 62.4021 51.4882C62.3064 51.6523 61.9715 51.7179 61.7801 51.6195C61.5408 51.5538 61.4451 51.3569 61.5887 51.1928C61.7322 50.9958 61.9236 50.7989 62.0672 50.6019C62.2107 50.4378 62.4978 50.405 62.737 50.5035C62.8327 50.5691 62.9284 50.7004 62.9284 50.7989ZM62.45 56.3789C62.45 56.5101 62.3543 56.6086 62.2107 56.6743C61.9715 56.7727 61.6844 56.7071 61.5887 56.543C61.4451 56.346 61.3016 56.1163 61.2059 55.9193C61.1102 55.7552 61.2537 55.5583 61.493 55.4926C61.7322 55.427 62.0193 55.5254 62.115 55.6896C62.2107 55.8865 62.3543 56.0834 62.4978 56.2476C62.45 56.2804 62.45 56.3132 62.45 56.3789ZM61.6365 53.2278L61.6365 53.2606C61.5887 53.4576 61.5887 53.6545 61.5887 53.8515C61.5887 54.0484 61.3973 54.1797 61.1102 54.1797C60.8231 54.1797 60.6317 54.0484 60.6317 53.8515C60.6317 53.6217 60.6317 53.3919 60.6796 53.195C60.7274 53.0309 60.9667 52.8996 61.2059 52.8996C61.4451 52.8996 61.6365 53.0637 61.6365 53.2278Z" fill="#FFBFCD"/>
<path d="M71.8761 61.8931L71.8761 63.8625C72.211 63.8625 72.4981 63.8297 72.8331 63.8297L72.8331 61.8603C72.4981 61.8603 72.211 61.8931 71.8761 61.8931Z" fill="#F48BA2"/>
<path d="M69.4836 61.8275L69.4836 63.7969C69.8186 63.8297 70.1057 63.8297 70.4406 63.8625L70.4406 61.8931C70.1057 61.8603 69.8186 61.8603 69.4836 61.8275Z" fill="#F48BA2"/>
<path d="M74.2686 61.729L74.2686 63.6984C74.6035 63.6655 74.8906 63.5999 75.2255 63.5342L75.2255 61.5648C74.8906 61.6305 74.6035 61.6633 74.2686 61.729Z" fill="#F48BA2"/>
<path d="M76.6609 61.2695L76.6609 63.2389C76.9958 63.1404 77.2829 63.0748 77.6179 62.9763L77.6179 61.0069C77.2829 61.0725 76.9958 61.171 76.6609 61.2695Z" fill="#F48BA2"/>
<path d="M67.0913 61.4665L67.0913 63.4359C67.4262 63.5015 67.7133 63.5672 68.0483 63.6L68.0483 61.6306C67.7133 61.5977 67.4262 61.5321 67.0913 61.4665Z" fill="#F48BA2"/>
<path d="M64.6989 60.81L64.6989 62.7794C65.0338 62.8779 65.3209 62.9763 65.6558 63.0748L65.6558 61.1054C65.3209 61.0398 65.0338 60.9413 64.6989 60.81Z" fill="#F48BA2"/>
<path d="M61.8279 59.4969L61.8279 61.4663C62.115 61.6633 62.4499 61.8274 62.7848 61.9915L62.7848 60.0221C62.4499 59.858 62.115 59.6611 61.8279 59.4969Z" fill="#F48BA2"/>
<path d="M59.4355 57.4621L59.4355 59.4315C59.7226 59.7597 60.0576 60.0879 60.3925 60.3833L60.3925 58.4139C60.0576 58.1185 59.7226 57.8231 59.4355 57.4621Z" fill="#F48BA2"/>
<path d="M79.5319 60.252L79.5319 62.2214C79.8668 62.0573 80.2017 61.8932 80.4888 61.729L80.4888 59.7596C80.2017 59.9238 79.8668 60.0879 79.5319 60.252Z" fill="#F48BA2"/>
<path d="M81.9243 60.8098C82.2593 60.5473 82.5942 60.2847 82.8813 59.9893L82.8813 58.0199C82.5942 58.3153 82.2593 58.5779 81.9243 58.8404L81.9243 60.8098Z" fill="#F48BA2"/>
<path d="M73.8763 53.36L73.8763 54.6501L75.2255 54.6501L75.2255 55.6598L73.8763 55.6598L73.8763 56.4812L72.6906 56.4812L72.6906 55.6598L72.0656 55.6598L72.0656 56.4812L70.8799 56.4812L70.8799 55.6598L66.7212 55.6598L66.7212 53.4281C66.7212 52.7843 66.9665 52.2701 67.4571 51.8855C67.9439 51.5008 68.5922 51.3085 69.4022 51.3085C70.2277 51.3085 70.876 51.4915 71.3472 51.8574C71.8144 52.2234 72.0539 52.7322 72.0656 53.384L72.0656 54.6501L72.6906 54.6501L72.6906 53.36L73.8763 53.36ZM70.8799 54.6501L70.8799 53.4441C70.8799 53.0808 70.7572 52.803 70.5119 52.6107C70.2666 52.4184 69.9006 52.3222 69.4138 52.3222C68.9777 52.3222 68.6214 52.417 68.345 52.6067C68.0685 52.7937 67.9244 53.0528 67.9127 53.384L67.9127 54.6501L70.8799 54.6501Z" fill="#F48BA2"/>
<path d="M84.7951 51.6444C84.7951 56.0755 78.8141 59.6861 71.3976 59.6861C63.9811 59.6861 58 56.0755 58 51.6444C58 47.2132 63.9811 43.6026 71.3976 43.6026C78.8141 43.6026 84.7951 47.2132 84.7951 51.6444Z" fill="white"/>
<path d="M71.3976 59.6862C64.5552 59.6862 58.9091 56.6008 58.0957 52.6292C58.0478 52.9574 58 53.2856 58 53.6139C58 58.045 63.9811 61.6556 71.3976 61.6556C78.8141 61.6556 84.7951 58.045 84.7951 53.6139C84.7951 53.2856 84.7473 52.9574 84.6994 52.6292C83.886 56.6008 78.2399 59.6862 71.3976 59.6862Z" fill="#FFBFCD"/>
<path d="M82.1635 51.6116C82.1635 51.8742 82.1635 52.1039 82.1157 52.3337C82.0678 52.4978 81.8286 52.6291 81.5893 52.6291C81.3501 52.5963 81.1587 52.4322 81.1587 52.2681C81.2065 52.0711 81.2065 51.8742 81.2065 51.6444C81.2065 51.4475 81.3979 51.3162 81.685 51.3162C81.9721 51.3162 82.1635 51.4475 82.1635 51.6116ZM81.6372 49.7078C81.6372 49.8391 81.5415 49.9704 81.3501 50.0033C81.1108 50.0689 80.8237 49.9704 80.728 49.8063C80.6324 49.6094 80.4888 49.4124 80.3453 49.2483C80.2017 49.0842 80.2974 48.8873 80.5367 48.8216C80.7759 48.7231 81.063 48.7888 81.1587 48.9529C81.3022 49.1498 81.4458 49.3796 81.5415 49.5765C81.6372 49.6422 81.6372 49.675 81.6372 49.7078ZM81.3022 54.139C81.3022 54.2046 81.3022 54.2375 81.2544 54.3031C81.1108 54.5001 80.9194 54.697 80.7759 54.8939C80.6324 55.0581 80.3453 55.0909 80.106 54.9924C79.8668 54.8939 79.8189 54.697 79.9625 54.5329C80.106 54.3688 80.2974 54.1718 80.3931 54.0077C80.5367 53.8436 80.8237 53.7779 81.0151 53.8764C81.2065 53.9092 81.3022 54.0405 81.3022 54.139ZM79.5797 47.5415C79.5797 47.64 79.5318 47.7056 79.4361 47.7713C79.2447 47.9026 78.9577 47.9026 78.7663 47.7713C78.5749 47.64 78.3356 47.4759 78.0964 47.3446C77.905 47.2461 77.8571 47.0163 78.0485 46.885C78.2399 46.7537 78.527 46.7209 78.7184 46.8522C78.9577 46.9835 79.2447 47.1476 79.4361 47.3117C79.5318 47.3774 79.5797 47.4759 79.5797 47.5415ZM78.9098 56.1412C78.9098 56.2397 78.862 56.3382 78.7184 56.4038C78.4792 56.5351 78.1921 56.6992 77.905 56.7977C77.6658 56.8962 77.3787 56.8633 77.2351 56.6992C77.0916 56.5351 77.1394 56.3382 77.3787 56.2397C77.6179 56.1084 77.8571 56.0099 78.0964 55.8786C78.2878 55.7473 78.6227 55.7802 78.7663 55.9115C78.862 56.0099 78.9098 56.0756 78.9098 56.1412ZM76.4695 46.0973C76.4695 46.1301 76.4695 46.1957 76.4217 46.2286C76.326 46.3927 76.0389 46.4583 75.7997 46.3927C75.5126 46.2942 75.2255 46.2286 74.9384 46.1629C74.6991 46.0973 74.5556 45.9332 74.6513 45.7362C74.747 45.5721 74.9862 45.4736 75.2733 45.5393C75.6083 45.6049 75.8954 45.7034 76.1824 45.769C76.3738 45.8675 76.4695 45.966 76.4695 46.0973ZM75.6083 57.4213C75.6083 57.5526 75.4647 57.6839 75.2733 57.7167C74.9862 57.7824 74.6513 57.848 74.3164 57.9137C74.0771 57.9465 73.79 57.848 73.7422 57.6839C73.6943 57.5198 73.8379 57.3229 74.0771 57.29C74.3642 57.2244 74.6513 57.1916 74.9384 57.1259C75.1776 57.0603 75.4647 57.1587 75.5604 57.3229C75.6083 57.3229 75.6083 57.3557 75.6083 57.4213ZM72.7852 45.4736C72.7852 45.5065 72.7852 45.5065 72.7852 45.4736C72.7852 45.6706 72.546 45.8019 72.2589 45.8019C71.9718 45.8019 71.6847 45.769 71.3976 45.769C71.1105 45.769 70.9191 45.6377 70.9191 45.4408C70.9191 45.2439 71.1105 45.1126 71.3976 45.1126C71.7325 45.1126 72.0196 45.1126 72.3546 45.1454C72.5938 45.1782 72.7852 45.3095 72.7852 45.4736ZM71.8761 57.8152C71.8761 58.0122 71.6847 58.1434 71.3976 58.1434C71.0627 58.1434 70.7277 58.1434 70.4406 58.1106C70.2014 58.1106 69.9622 57.9465 70.01 57.7496C70.01 57.5526 70.2492 57.4213 70.5363 57.4542C70.8234 57.4542 71.1584 57.487 71.4455 57.487C71.6847 57.487 71.8761 57.6511 71.8761 57.8152ZM69.0052 45.7034C69.0052 45.8347 68.8616 45.9988 68.6224 46.0316C68.3353 46.0973 68.0482 46.1301 67.7611 46.1957C67.5219 46.2614 67.2348 46.1629 67.1391 45.9988C67.0434 45.8347 67.1869 45.6377 67.4262 45.5721C67.7133 45.5065 68.0482 45.4408 68.3832 45.3752C68.6224 45.3423 68.9095 45.4408 68.9573 45.6049C69.0052 45.6377 69.0052 45.6706 69.0052 45.7034ZM68.1439 57.4213C68.1439 57.4542 68.1439 57.487 68.0961 57.5198C68.0004 57.6839 67.7611 57.7824 67.474 57.7167C67.1869 57.6511 66.852 57.5526 66.5649 57.487C66.3257 57.4213 66.23 57.2244 66.3257 57.0603C66.4214 56.8962 66.7085 56.8305 66.9477 56.8962C67.2348 56.9946 67.5219 57.0603 67.809 57.1259C68.0482 57.1587 68.1439 57.29 68.1439 57.4213ZM65.5601 46.7537C65.5601 46.8522 65.4644 46.9507 65.3687 47.0163C65.1295 47.1476 64.8902 47.2461 64.651 47.3774C64.4596 47.5087 64.1246 47.4759 63.9811 47.3446C63.7897 47.2133 63.8376 46.9835 64.029 46.885C64.2682 46.7537 64.5553 46.5896 64.8424 46.4912C65.0816 46.3927 65.3687 46.4255 65.5123 46.5896C65.5601 46.6224 65.5601 46.6881 65.5601 46.7537ZM64.8424 56.174C64.8424 56.2397 64.7945 56.3053 64.7467 56.371C64.6031 56.5023 64.2682 56.5351 64.0768 56.4038C63.8376 56.2725 63.5505 56.1084 63.3591 55.9443C63.1677 55.813 63.1677 55.616 63.3591 55.4848C63.5505 55.3535 63.8376 55.3535 64.029 55.4848C64.2203 55.616 64.4596 55.7802 64.6988 55.9115C64.7945 55.9771 64.8424 56.0756 64.8424 56.174ZM62.9284 48.5918C62.9284 48.6575 62.8806 48.7231 62.8327 48.756C62.6892 48.9201 62.4978 49.117 62.4021 49.2811C62.3064 49.4453 61.9715 49.5109 61.7801 49.4124C61.5408 49.3468 61.4451 49.1498 61.5887 48.9857C61.7322 48.7888 61.9236 48.5918 62.0672 48.3949C62.2107 48.2308 62.4978 48.198 62.737 48.2964C62.8327 48.3621 62.9284 48.4934 62.9284 48.5918ZM62.45 54.1718C62.45 54.3031 62.3543 54.4016 62.2107 54.4672C61.9715 54.5657 61.6844 54.5001 61.5887 54.3359C61.4451 54.139 61.3016 53.9092 61.2059 53.7123C61.1102 53.5482 61.2537 53.3512 61.493 53.2856C61.7322 53.2199 62.0193 53.3184 62.115 53.4825C62.2107 53.6795 62.3543 53.8764 62.4978 54.0405C62.45 54.0733 62.45 54.1062 62.45 54.1718ZM61.6365 51.0208L61.6365 51.0536C61.5887 51.2505 61.5887 51.4475 61.5887 51.6444C61.5887 51.8414 61.3973 51.9727 61.1102 51.9727C60.8231 51.9727 60.6317 51.8414 60.6317 51.6444C60.6317 51.4147 60.6317 51.1849 60.6796 50.988C60.7274 50.8238 60.9667 50.6925 61.2059 50.6925C61.4451 50.6925 61.6365 50.8567 61.6365 51.0208Z" fill="#FFBFCD"/>
<path d="M71.8761 59.6861L71.8761 61.6555C72.211 61.6555 72.4981 61.6227 72.8331 61.6227L72.8331 59.6533C72.4981 59.6533 72.211 59.6861 71.8761 59.6861Z" fill="#F48BA2"/>
<path d="M69.4836 59.6205L69.4836 61.5899C69.8186 61.6227 70.1057 61.6227 70.4406 61.6555L70.4406 59.6861C70.1057 59.6533 69.8186 59.6533 69.4836 59.6205Z" fill="#F48BA2"/>
<path d="M74.2686 59.5219L74.2686 61.4913C74.6035 61.4585 74.8906 61.3929 75.2255 61.3272L75.2255 59.3578C74.8906 59.4235 74.6035 59.4563 74.2686 59.5219Z" fill="#F48BA2"/>
<path d="M76.6609 59.0624L76.6609 61.0318C76.9958 60.9334 77.2829 60.8677 77.6179 60.7693L77.6179 58.7999C77.2829 58.8655 76.9958 58.964 76.6609 59.0624Z" fill="#F48BA2"/>
<path d="M67.0913 59.2594L67.0913 61.2288C67.4262 61.2945 67.7133 61.3601 68.0483 61.3929L68.0483 59.4235C67.7133 59.3907 67.4262 59.3251 67.0913 59.2594Z" fill="#F48BA2"/>
<path d="M64.6989 58.603L64.6989 60.5724C65.0338 60.6708 65.3209 60.7693 65.6558 60.8678L65.6558 58.8984C65.3209 58.8327 65.0338 58.7343 64.6989 58.603Z" fill="#F48BA2"/>
<path d="M61.8279 57.29L61.8279 59.2594C62.115 59.4564 62.4499 59.6205 62.7848 59.7846L62.7848 57.8152C62.4499 57.6511 62.115 57.4542 61.8279 57.29Z" fill="#F48BA2"/>
<path d="M59.4355 55.2549L59.4355 57.2243C59.7226 57.5525 60.0576 57.8807 60.3925 58.1761L60.3925 56.2067C60.0576 55.9113 59.7226 55.6159 59.4355 55.2549Z" fill="#F48BA2"/>
<path d="M79.5319 58.0449L79.5319 60.0143C79.8668 59.8502 80.2017 59.6861 80.4888 59.522L80.4888 57.5526C80.2017 57.7167 79.8668 57.8808 79.5319 58.0449Z" fill="#F48BA2"/>
<path d="M81.9243 58.603C82.2593 58.3405 82.5942 58.0779 82.8813 57.7825L82.8813 55.8131C82.5942 56.1085 82.2593 56.3711 81.9243 56.6336L81.9243 58.603Z" fill="#F48BA2"/>
<path d="M73.8763 51.1528L73.8763 52.443L75.2255 52.443L75.2255 53.4527L73.8763 53.4527L73.8763 54.2741L72.6906 54.2741L72.6906 53.4527L72.0656 53.4527L72.0656 54.2741L70.8799 54.2741L70.8799 53.4527L66.7212 53.4527L66.7212 51.2209C66.7212 50.5772 66.9665 50.063 67.4571 49.6783C67.9439 49.2937 68.5922 49.1013 69.4022 49.1013C70.2277 49.1013 70.876 49.2843 71.3472 49.6503C71.8144 50.0162 72.0539 50.5251 72.0656 51.1768L72.0656 52.443L72.6906 52.443L72.6906 51.1528L73.8763 51.1528ZM70.8799 52.443L70.8799 51.2369C70.8799 50.8737 70.7572 50.5959 70.5119 50.4035C70.2666 50.2112 69.9006 50.115 69.4138 50.115C68.9777 50.115 68.6214 50.2099 68.345 50.3995C68.0685 50.5865 67.9244 50.8456 67.9127 51.1768L67.9127 52.443L70.8799 52.443Z" fill="#F48BA2"/>
<path d="M84.7951 49.5228C84.7951 53.954 78.8141 57.5646 71.3976 57.5646C63.9811 57.5646 58 53.954 58 49.5228C58 45.0917 63.9811 41.4811 71.3976 41.4811C78.8141 41.4811 84.7951 45.0917 84.7951 49.5228Z" fill="#FFDCE4"/>
<path d="M71.3976 57.5646C64.5552 57.5646 58.9091 54.4792 58.0957 50.5076C58.0478 50.8358 58 51.164 58 51.4923C58 55.9234 63.9811 59.534 71.3976 59.534C78.8141 59.534 84.7951 55.9234 84.7951 51.4923C84.7951 51.164 84.7473 50.8358 84.6994 50.5076C83.886 54.4792 78.2399 57.5646 71.3976 57.5646Z" fill="#FFBFCD"/>
<path d="M82.1635 49.4901C82.1635 49.7526 82.1635 49.9824 82.1157 50.2122C82.0678 50.3763 81.8286 50.5076 81.5893 50.5076C81.3501 50.4748 81.1587 50.3106 81.1587 50.1465C81.2065 49.9496 81.2065 49.7526 81.2065 49.5229C81.2065 49.3259 81.3979 49.1947 81.685 49.1947C81.9721 49.1947 82.1635 49.3259 82.1635 49.4901ZM81.6372 47.5863C81.6372 47.7176 81.5415 47.8489 81.3501 47.8817C81.1108 47.9474 80.8237 47.8489 80.728 47.6848C80.6324 47.4878 80.4888 47.2909 80.3453 47.1268C80.2017 46.9627 80.2974 46.7657 80.5367 46.7001C80.7759 46.6016 81.063 46.6673 81.1587 46.8314C81.3022 47.0283 81.4458 47.2581 81.5415 47.455C81.6372 47.5207 81.6372 47.5535 81.6372 47.5863ZM81.3022 52.0175C81.3022 52.0831 81.3022 52.1159 81.2544 52.1816C81.1108 52.3785 80.9194 52.5755 80.7759 52.7724C80.6324 52.9365 80.3453 52.9693 80.106 52.8709C79.8668 52.7724 79.8189 52.5755 79.9625 52.4113C80.106 52.2472 80.2974 52.0503 80.3931 51.8862C80.5367 51.7221 80.8237 51.6564 81.0151 51.7549C81.2065 51.7877 81.3022 51.919 81.3022 52.0175ZM79.5797 45.42C79.5797 45.5184 79.5318 45.5841 79.4361 45.6497C79.2447 45.781 78.9577 45.781 78.7663 45.6497C78.5749 45.5184 78.3356 45.3543 78.0964 45.223C77.905 45.1246 77.8571 44.8948 78.0485 44.7635C78.2399 44.6322 78.527 44.5994 78.7184 44.7307C78.9577 44.862 79.2447 45.0261 79.4361 45.1902C79.5318 45.2558 79.5797 45.3543 79.5797 45.42ZM78.9098 54.0197C78.9098 54.1182 78.862 54.2166 78.7184 54.2823C78.4792 54.4136 78.1921 54.5777 77.905 54.6762C77.6658 54.7746 77.3787 54.7418 77.2351 54.5777C77.0916 54.4136 77.1394 54.2166 77.3787 54.1182C77.6179 53.9869 77.8571 53.8884 78.0964 53.7571C78.2878 53.6258 78.6227 53.6586 78.7663 53.7899C78.862 53.8884 78.9098 53.954 78.9098 54.0197ZM76.4695 43.9757C76.4695 44.0086 76.4695 44.0742 76.4217 44.107C76.326 44.2711 76.0389 44.3368 75.7997 44.2711C75.5126 44.1727 75.2255 44.107 74.9384 44.0414C74.6991 43.9757 74.5556 43.8116 74.6513 43.6147C74.747 43.4506 74.9862 43.3521 75.2733 43.4177C75.6083 43.4834 75.8954 43.5819 76.1824 43.6475C76.3738 43.746 76.4695 43.8444 76.4695 43.9757ZM75.6083 55.2998C75.6083 55.4311 75.4647 55.5624 75.2733 55.5952C74.9862 55.6609 74.6513 55.7265 74.3164 55.7921C74.0771 55.825 73.79 55.7265 73.7422 55.5624C73.6943 55.3983 73.8379 55.2013 74.0771 55.1685C74.3642 55.1029 74.6513 55.07 74.9384 55.0044C75.1776 54.9387 75.4647 55.0372 75.5604 55.2013C75.6083 55.2013 75.6083 55.2342 75.6083 55.2998ZM72.7852 43.3521C72.7852 43.3849 72.7852 43.3849 72.7852 43.3521C72.7852 43.549 72.546 43.6803 72.2589 43.6803C71.9718 43.6803 71.6847 43.6475 71.3976 43.6475C71.1105 43.6475 70.9191 43.5162 70.9191 43.3193C70.9191 43.1223 71.1105 42.991 71.3976 42.991C71.7325 42.991 72.0196 42.991 72.3546 43.0239C72.5938 43.0567 72.7852 43.188 72.7852 43.3521ZM71.8761 55.6937C71.8761 55.8906 71.6847 56.0219 71.3976 56.0219C71.0627 56.0219 70.7277 56.0219 70.4406 55.9891C70.2014 55.9891 69.9622 55.825 70.01 55.628C70.01 55.4311 70.2492 55.2998 70.5363 55.3326C70.8234 55.3326 71.1584 55.3654 71.4455 55.3654C71.6847 55.3654 71.8761 55.5296 71.8761 55.6937ZM69.0052 43.5819C69.0052 43.7131 68.8616 43.8773 68.6224 43.9101C68.3353 43.9757 68.0482 44.0086 67.7611 44.0742C67.5219 44.1399 67.2348 44.0414 67.1391 43.8773C67.0434 43.7131 67.1869 43.5162 67.4262 43.4506C67.7133 43.3849 68.0482 43.3193 68.3832 43.2536C68.6224 43.2208 68.9095 43.3193 68.9573 43.4834C69.0052 43.5162 69.0052 43.549 69.0052 43.5819ZM68.1439 55.2998C68.1439 55.3326 68.1439 55.3654 68.0961 55.3983C68.0004 55.5624 67.7611 55.6609 67.474 55.5952C67.1869 55.5296 66.852 55.4311 66.5649 55.3654C66.3257 55.2998 66.23 55.1029 66.3257 54.9387C66.4214 54.7746 66.7085 54.709 66.9477 54.7746C67.2348 54.8731 67.5219 54.9387 67.809 55.0044C68.0482 55.0372 68.1439 55.1685 68.1439 55.2998ZM65.5601 44.6322C65.5601 44.7307 65.4644 44.8291 65.3687 44.8948C65.1295 45.0261 64.8902 45.1246 64.651 45.2558C64.4596 45.3871 64.1246 45.3543 63.9811 45.223C63.7897 45.0917 63.8376 44.862 64.029 44.7635C64.2682 44.6322 64.5553 44.4681 64.8424 44.3696C65.0816 44.2711 65.3687 44.304 65.5123 44.4681C65.5601 44.5009 65.5601 44.5666 65.5601 44.6322ZM64.8424 54.0525C64.8424 54.1182 64.7945 54.1838 64.7467 54.2494C64.6031 54.3807 64.2682 54.4136 64.0768 54.2823C63.8376 54.151 63.5505 53.9869 63.3591 53.8227C63.1677 53.6915 63.1677 53.4945 63.3591 53.3632C63.5505 53.2319 63.8376 53.2319 64.029 53.3632C64.2203 53.4945 64.4596 53.6586 64.6988 53.7899C64.7945 53.8556 64.8424 53.954 64.8424 54.0525ZM62.9284 46.4703C62.9284 46.536 62.8806 46.6016 62.8327 46.6344C62.6892 46.7985 62.4978 46.9955 62.4021 47.1596C62.3064 47.3237 61.9715 47.3894 61.7801 47.2909C61.5408 47.2252 61.4451 47.0283 61.5887 46.8642C61.7322 46.6673 61.9236 46.4703 62.0672 46.2734C62.2107 46.1093 62.4978 46.0764 62.737 46.1749C62.8327 46.2405 62.9284 46.3718 62.9284 46.4703ZM62.45 52.0503C62.45 52.1816 62.3543 52.28 62.2107 52.3457C61.9715 52.4442 61.6844 52.3785 61.5887 52.2144C61.4451 52.0175 61.3016 51.7877 61.2059 51.5908C61.1102 51.4266 61.2537 51.2297 61.493 51.1641C61.7322 51.0984 62.0193 51.1969 62.115 51.361C62.2107 51.5579 62.3543 51.7549 62.4978 51.919C62.45 51.9518 62.45 51.9846 62.45 52.0503ZM61.6365 48.8992L61.6365 48.9321C61.5887 49.129 61.5887 49.3259 61.5887 49.5229C61.5887 49.7198 61.3973 49.8511 61.1102 49.8511C60.8231 49.8511 60.6317 49.7198 60.6317 49.5229C60.6317 49.2931 60.6317 49.0634 60.6796 48.8664C60.7274 48.7023 60.9667 48.571 61.2059 48.571C61.4451 48.571 61.6365 48.7351 61.6365 48.8992Z" fill="#FFBFCD"/>
<path d="M71.8761 57.5646L71.8761 59.534C72.211 59.534 72.4981 59.5012 72.8331 59.5012L72.8331 57.5318C72.4981 57.5318 72.211 57.5646 71.8761 57.5646Z" fill="#F48BA2"/>
<path d="M69.4836 57.4989L69.4836 59.4683C69.8186 59.5012 70.1057 59.5012 70.4406 59.534L70.4406 57.5646C70.1057 57.5318 69.8186 57.5318 69.4836 57.4989Z" fill="#F48BA2"/>
<path d="M74.2686 57.4004L74.2686 59.3698C74.6035 59.337 74.8906 59.2713 75.2255 59.2057L75.2255 57.2363C74.8906 57.3019 74.6035 57.3348 74.2686 57.4004Z" fill="#F48BA2"/>
<path d="M76.6609 56.941L76.6609 58.9104C76.9958 58.812 77.2829 58.7463 77.6179 58.6478L77.6179 56.6784C77.2829 56.7441 76.9958 56.8426 76.6609 56.941Z" fill="#F48BA2"/>
<path d="M67.0913 57.1379L67.0913 59.1073C67.4262 59.1729 67.7133 59.2386 68.0483 59.2714L68.0483 57.302C67.7133 57.2692 67.4262 57.2035 67.0913 57.1379Z" fill="#F48BA2"/>
<path d="M64.6989 56.4814L64.6989 58.4508C65.0338 58.5493 65.3209 58.6478 65.6558 58.7462L65.6558 56.7768C65.3209 56.7112 65.0338 56.6127 64.6989 56.4814Z" fill="#F48BA2"/>
<path d="M61.8279 55.1684L61.8279 57.1378C62.115 57.3347 62.4499 57.4988 62.7848 57.663L62.7848 55.6936C62.4499 55.5294 62.115 55.3325 61.8279 55.1684Z" fill="#F48BA2"/>
<path d="M59.4355 53.1335L59.4355 55.1029C59.7226 55.4311 60.0576 55.7593 60.3925 56.0547L60.3925 54.0853C60.0576 53.7899 59.7226 53.4945 59.4355 53.1335Z" fill="#F48BA2"/>
<path d="M79.5319 55.9235L79.5319 57.8929C79.8668 57.7288 80.2017 57.5647 80.4888 57.4006L80.4888 55.4312C80.2017 55.5953 79.8668 55.7594 79.5319 55.9235Z" fill="#F48BA2"/>
<path d="M81.9243 56.4813C82.2593 56.2187 82.5942 55.9561 82.8813 55.6607L82.8813 53.6913C82.5942 53.9867 82.2593 54.2493 81.9243 54.5119L81.9243 56.4813Z" fill="#F48BA2"/>
<path d="M73.8763 49.0313L73.8763 50.3214L75.2255 50.3214L75.2255 51.3311L73.8763 51.3311L73.8763 52.1525L72.6906 52.1525L72.6906 51.3311L72.0656 51.3311L72.0656 52.1525L70.8799 52.1525L70.8799 51.3311L66.7212 51.3311L66.7212 49.0994C66.7212 48.4556 66.9665 47.9414 67.4571 47.5568C67.9439 47.1721 68.5922 46.9798 69.4022 46.9798C70.2277 46.9798 70.876 47.1628 71.3472 47.5287C71.8144 47.8947 72.0539 48.4035 72.0656 49.0553L72.0656 50.3214L72.6906 50.3214L72.6906 49.0313L73.8763 49.0313ZM70.8799 50.3214L70.8799 49.1154C70.8799 48.7521 70.7572 48.4743 70.5119 48.282C70.2666 48.0897 69.9006 47.9935 69.4138 47.9935C68.9777 47.9935 68.6214 48.0883 68.345 48.278C68.0685 48.465 67.9244 48.7241 67.9127 49.0553L67.9127 50.3214L70.8799 50.3214Z" fill="#F48BA2"/>
<path d="M113.02 53.7107C113.02 58.1419 107.039 61.7525 99.6224 61.7525C92.2059 61.7525 86.2249 58.1419 86.2249 53.7107C86.2249 49.2796 92.2059 45.669 99.6224 45.669C107.039 45.669 113.02 49.2796 113.02 53.7107Z" fill="white"/>
<path d="M99.6224 61.7525C92.7801 61.7525 87.134 58.6671 86.3205 54.6955C86.2727 55.0237 86.2249 55.352 86.2249 55.6802C86.2249 60.1114 92.2059 63.7219 99.6224 63.7219C107.039 63.7219 113.02 60.1114 113.02 55.6802C113.02 55.352 112.972 55.0237 112.924 54.6955C112.111 58.6671 106.465 61.7525 99.6224 61.7525Z" fill="#FFBFCD"/>
<path d="M110.388 53.678C110.388 53.9405 110.388 54.1703 110.341 54.4001C110.293 54.5642 110.053 54.6955 109.814 54.6955C109.575 54.6627 109.384 54.4985 109.384 54.3344C109.431 54.1375 109.431 53.9405 109.431 53.7108C109.431 53.5138 109.623 53.3825 109.91 53.3825C110.197 53.3825 110.388 53.5138 110.388 53.678ZM109.862 51.7742C109.862 51.9055 109.766 52.0368 109.575 52.0696C109.336 52.1353 109.049 52.0368 108.953 51.8727C108.857 51.6757 108.714 51.4788 108.57 51.3147C108.427 51.1506 108.522 50.9536 108.762 50.888C109.001 50.7895 109.288 50.8551 109.384 51.0193C109.527 51.2162 109.671 51.446 109.766 51.6429C109.862 51.7086 109.862 51.7414 109.862 51.7742ZM109.527 56.2054C109.527 56.271 109.527 56.3038 109.479 56.3695C109.336 56.5664 109.144 56.7634 109.001 56.9603C108.857 57.1244 108.57 57.1572 108.331 57.0588C108.092 56.9603 108.044 56.7634 108.187 56.5992C108.331 56.4351 108.522 56.2382 108.618 56.0741C108.762 55.9099 109.049 55.8443 109.24 55.9428C109.431 55.9756 109.527 56.1069 109.527 56.2054ZM107.805 49.6079C107.805 49.7063 107.757 49.772 107.661 49.8376C107.47 49.9689 107.183 49.9689 106.991 49.8376C106.8 49.7063 106.56 49.5422 106.321 49.4109C106.13 49.3124 106.082 49.0827 106.273 48.9514C106.465 48.8201 106.752 48.7873 106.943 48.9186C107.183 49.0499 107.47 49.214 107.661 49.3781C107.757 49.4437 107.805 49.5422 107.805 49.6079ZM107.135 58.2076C107.135 58.3061 107.087 58.4045 106.943 58.4702C106.704 58.6015 106.417 58.7656 106.13 58.864C105.891 58.9625 105.604 58.9297 105.46 58.7656C105.316 58.6015 105.364 58.4045 105.604 58.3061C105.843 58.1748 106.082 58.0763 106.321 57.945C106.513 57.8137 106.848 57.8465 106.991 57.9778C107.087 58.0763 107.135 58.1419 107.135 58.2076ZM104.694 48.1636C104.694 48.1965 104.694 48.2621 104.647 48.2949C104.551 48.459 104.264 48.5247 104.025 48.459C103.737 48.3606 103.45 48.2949 103.163 48.2293C102.924 48.1636 102.78 47.9995 102.876 47.8026C102.972 47.6385 103.211 47.54 103.498 47.6056C103.833 47.6713 104.12 47.7698 104.407 47.8354C104.599 47.9339 104.694 48.0323 104.694 48.1636ZM103.833 59.4877C103.833 59.619 103.69 59.7503 103.498 59.7831C103.211 59.8488 102.876 59.9144 102.541 59.98C102.302 60.0129 102.015 59.9144 101.967 59.7503C101.919 59.5862 102.063 59.3892 102.302 59.3564C102.589 59.2908 102.876 59.2579 103.163 59.1923C103.402 59.1266 103.69 59.2251 103.785 59.3892C103.833 59.3892 103.833 59.422 103.833 59.4877ZM101.01 47.54C101.01 47.5728 101.01 47.5728 101.01 47.54C101.01 47.7369 100.771 47.8682 100.484 47.8682C100.197 47.8682 99.9096 47.8354 99.6225 47.8354C99.3354 47.8354 99.144 47.7041 99.144 47.5072C99.144 47.3102 99.3354 47.1789 99.6225 47.1789C99.9574 47.1789 100.244 47.1789 100.579 47.2118C100.819 47.2446 101.01 47.3759 101.01 47.54ZM100.101 59.8816C100.101 60.0785 99.9096 60.2098 99.6225 60.2098C99.2875 60.2098 98.9526 60.2098 98.6655 60.177C98.4263 60.177 98.187 60.0129 98.2349 59.8159C98.2349 59.619 98.4741 59.4877 98.7612 59.5205C99.0483 59.5205 99.3832 59.5533 99.6703 59.5533C99.9096 59.5533 100.101 59.7175 100.101 59.8816ZM97.23 47.7698C97.23 47.901 97.0865 48.0652 96.8473 48.098C96.5602 48.1636 96.2731 48.1965 95.986 48.2621C95.7467 48.3277 95.4596 48.2293 95.364 48.0652C95.2683 47.901 95.4118 47.7041 95.651 47.6385C95.9381 47.5728 96.2731 47.5072 96.608 47.4415C96.8473 47.4087 97.1343 47.5072 97.1822 47.6713C97.23 47.7041 97.23 47.7369 97.23 47.7698ZM96.3688 59.4877C96.3688 59.5205 96.3688 59.5533 96.3209 59.5862C96.2252 59.7503 95.986 59.8488 95.6989 59.7831C95.4118 59.7175 95.0769 59.619 94.7898 59.5533C94.5505 59.4877 94.4548 59.2908 94.5505 59.1266C94.6462 58.9625 94.9333 58.8969 95.1726 58.9625C95.4596 59.061 95.7467 59.1266 96.0338 59.1923C96.2731 59.2251 96.3688 59.3564 96.3688 59.4877ZM93.785 48.8201C93.785 48.9186 93.6893 49.017 93.5936 49.0827C93.3543 49.214 93.1151 49.3125 92.8758 49.4437C92.6844 49.575 92.3495 49.5422 92.206 49.4109C92.0146 49.2796 92.0624 49.0499 92.2538 48.9514C92.493 48.8201 92.7801 48.656 93.0672 48.5575C93.3065 48.459 93.5936 48.4919 93.7371 48.656C93.785 48.6888 93.785 48.7545 93.785 48.8201ZM93.0672 58.2404C93.0672 58.3061 93.0194 58.3717 92.9715 58.4373C92.828 58.5686 92.493 58.6015 92.3017 58.4702C92.0624 58.3389 91.7753 58.1748 91.5839 58.0106C91.3925 57.8793 91.3925 57.6824 91.5839 57.5511C91.7753 57.4198 92.0624 57.4198 92.2538 57.5511C92.4452 57.6824 92.6844 57.8465 92.9237 57.9778C93.0194 58.0435 93.0672 58.1419 93.0672 58.2404ZM91.1533 50.6582C91.1533 50.7239 91.1054 50.7895 91.0576 50.8223C90.914 50.9864 90.7227 51.1834 90.627 51.3475C90.5313 51.5116 90.1963 51.5773 90.0049 51.4788C89.7657 51.4131 89.67 51.2162 89.8135 51.0521C89.9571 50.8551 90.1485 50.6582 90.292 50.4613C90.4356 50.2972 90.7227 50.2643 90.9619 50.3628C91.0576 50.4284 91.1533 50.5597 91.1533 50.6582ZM90.6748 56.2382C90.6748 56.3695 90.5791 56.4679 90.4356 56.5336C90.1963 56.6321 89.9092 56.5664 89.8135 56.4023C89.67 56.2054 89.5264 55.9756 89.4307 55.7787C89.3351 55.6145 89.4786 55.4176 89.7178 55.3519C89.9571 55.2863 90.2442 55.3848 90.3399 55.5489C90.4356 55.7458 90.5791 55.9428 90.7227 56.1069C90.6748 56.1397 90.6748 56.1725 90.6748 56.2382ZM89.8614 53.0871L89.8614 53.12C89.8135 53.3169 89.8135 53.5138 89.8135 53.7108C89.8135 53.9077 89.6221 54.039 89.3351 54.039C89.048 54.039 88.8566 53.9077 88.8566 53.7108C88.8566 53.481 88.8566 53.2513 88.9044 53.0543C88.9523 52.8902 89.1915 52.7589 89.4307 52.7589C89.67 52.7589 89.8614 52.923 89.8614 53.0871Z" fill="#FFBFCD"/>
<path d="M100.101 61.7525L100.101 63.7219C100.436 63.7219 100.723 63.6891 101.058 63.6891L101.058 61.7197C100.723 61.7197 100.436 61.7525 100.101 61.7525Z" fill="#F48BA2"/>
<path d="M97.7085 61.6868L97.7085 63.6562C98.0434 63.6891 98.3305 63.6891 98.6655 63.7219L98.6655 61.7525C98.3305 61.7197 98.0434 61.7197 97.7085 61.6868Z" fill="#F48BA2"/>
<path d="M102.493 61.5884L102.493 63.5578C102.828 63.525 103.115 63.4593 103.45 63.3937L103.45 61.4243C103.115 61.4899 102.828 61.5228 102.493 61.5884Z" fill="#F48BA2"/>
<path d="M104.886 61.1288L104.886 63.0982C105.221 62.9997 105.508 62.9341 105.843 62.8356L105.843 60.8662C105.508 60.9319 105.221 61.0303 104.886 61.1288Z" fill="#F48BA2"/>
<path d="M95.3162 61.3258L95.3162 63.2952C95.6511 63.3608 95.9382 63.4265 96.2731 63.4593L96.2731 61.4899C95.9382 61.4571 95.6511 61.3914 95.3162 61.3258Z" fill="#F48BA2"/>
<path d="M92.9237 60.6693L92.9237 62.6387C93.2586 62.7372 93.5457 62.8357 93.8807 62.9341L93.8807 60.9647C93.5457 60.8991 93.2586 60.8006 92.9237 60.6693Z" fill="#F48BA2"/>
<path d="M90.0527 59.3563L90.0527 61.3257C90.3398 61.5226 90.6748 61.6867 91.0097 61.8509L91.0097 59.8815C90.6748 59.7173 90.3398 59.5204 90.0527 59.3563Z" fill="#F48BA2"/>
<path d="M87.6604 57.3212L87.6604 59.2906C87.9475 59.6189 88.2824 59.9471 88.6174 60.2425L88.6174 58.2731C88.2824 57.9777 87.9475 57.6823 87.6604 57.3212Z" fill="#F48BA2"/>
<path d="M107.757 60.1113L107.757 62.0807C108.092 61.9166 108.427 61.7525 108.714 61.5884L108.714 59.619C108.427 59.7831 108.092 59.9472 107.757 60.1113Z" fill="#F48BA2"/>
<path d="M110.149 60.6693C110.484 60.4067 110.819 60.1441 111.106 59.8487L111.106 57.8793C110.819 58.1747 110.484 58.4373 110.149 58.6999L110.149 60.6693Z" fill="#F48BA2"/>
<path d="M102.101 53.2192L102.101 54.5093L103.45 54.5093L103.45 55.519L102.101 55.519L102.101 56.3404L100.915 56.3404L100.915 55.519L100.29 55.519L100.29 56.3404L99.1047 56.3404L99.1047 55.519L94.946 55.519L94.946 53.2873C94.946 52.6435 95.1914 52.1293 95.682 51.7447C96.1687 51.36 96.8171 51.1677 97.627 51.1677C98.4525 51.1677 99.1009 51.3507 99.572 51.7166C100.039 52.0826 100.279 52.5914 100.29 53.2432L100.29 54.5093L100.915 54.5093L100.915 53.2192L102.101 53.2192ZM99.1047 54.5093L99.1047 53.3033C99.1047 52.94 98.9821 52.6622 98.7368 52.4699C98.4915 52.2776 98.1254 52.1814 97.6387 52.1814C97.2026 52.1814 96.8463 52.2762 96.5698 52.4659C96.2933 52.6529 96.1493 52.912 96.1376 53.2432L96.1376 54.5093L99.1047 54.5093Z" fill="#F48BA2"/>
<path d="M113.02 51.5892C113.02 56.0204 107.039 59.631 99.6224 59.631C92.2059 59.631 86.2249 56.0204 86.2249 51.5892C86.2249 47.1581 92.2059 43.5475 99.6224 43.5475C107.039 43.5475 113.02 47.1581 113.02 51.5892Z" fill="white"/>
<path d="M99.6224 59.631C92.7801 59.631 87.134 56.5456 86.3205 52.5739C86.2727 52.9022 86.2249 53.2304 86.2249 53.5586C86.2249 57.9898 92.2059 61.6004 99.6224 61.6004C107.039 61.6004 113.02 57.9898 113.02 53.5586C113.02 53.2304 112.972 52.9022 112.924 52.5739C112.111 56.5456 106.465 59.631 99.6224 59.631Z" fill="#FFBFCD"/>
<path d="M110.388 51.5565C110.388 51.819 110.388 52.0488 110.341 52.2786C110.293 52.4427 110.053 52.574 109.814 52.574C109.575 52.5412 109.384 52.377 109.384 52.2129C109.431 52.016 109.431 51.819 109.431 51.5893C109.431 51.3923 109.623 51.261 109.91 51.261C110.197 51.261 110.388 51.3923 110.388 51.5565ZM109.862 49.6527C109.862 49.784 109.766 49.9153 109.575 49.9481C109.336 50.0138 109.049 49.9153 108.953 49.7512C108.857 49.5542 108.714 49.3573 108.57 49.1932C108.427 49.0291 108.522 48.8321 108.762 48.7665C109.001 48.668 109.288 48.7336 109.384 48.8978C109.527 49.0947 109.671 49.3245 109.766 49.5214C109.862 49.587 109.862 49.6199 109.862 49.6527ZM109.527 54.0839C109.527 54.1495 109.527 54.1823 109.479 54.248C109.336 54.4449 109.144 54.6418 109.001 54.8388C108.857 55.0029 108.57 55.0357 108.331 54.9373C108.092 54.8388 108.044 54.6418 108.187 54.4777C108.331 54.3136 108.522 54.1167 108.618 53.9526C108.762 53.7884 109.049 53.7228 109.24 53.8213C109.431 53.8541 109.527 53.9854 109.527 54.0839ZM107.805 47.4864C107.805 47.5848 107.757 47.6505 107.661 47.7161C107.47 47.8474 107.183 47.8474 106.991 47.7161C106.8 47.5848 106.56 47.4207 106.321 47.2894C106.13 47.1909 106.082 46.9612 106.273 46.8299C106.465 46.6986 106.752 46.6658 106.943 46.7971C107.183 46.9284 107.47 47.0925 107.661 47.2566C107.757 47.3222 107.805 47.4207 107.805 47.4864ZM107.135 56.0861C107.135 56.1845 107.087 56.283 106.943 56.3487C106.704 56.48 106.417 56.6441 106.13 56.7425C105.891 56.841 105.604 56.8082 105.46 56.6441C105.316 56.48 105.364 56.283 105.604 56.1845C105.843 56.0533 106.082 55.9548 106.321 55.8235C106.513 55.6922 106.848 55.725 106.991 55.8563C107.087 55.9548 107.135 56.0204 107.135 56.0861ZM104.694 46.0421C104.694 46.0749 104.694 46.1406 104.647 46.1734C104.551 46.3375 104.264 46.4032 104.025 46.3375C103.737 46.2391 103.45 46.1734 103.163 46.1078C102.924 46.0421 102.78 45.878 102.876 45.6811C102.972 45.517 103.211 45.4185 103.498 45.4841C103.833 45.5498 104.12 45.6482 104.407 45.7139C104.599 45.8124 104.694 45.9108 104.694 46.0421ZM103.833 57.3662C103.833 57.4975 103.69 57.6288 103.498 57.6616C103.211 57.7272 102.876 57.7929 102.541 57.8585C102.302 57.8914 102.015 57.7929 101.967 57.6288C101.919 57.4647 102.063 57.2677 102.302 57.2349C102.589 57.1692 102.876 57.1364 103.163 57.0708C103.402 57.0051 103.69 57.1036 103.785 57.2677C103.833 57.2677 103.833 57.3005 103.833 57.3662ZM101.01 45.4185C101.01 45.4513 101.01 45.4513 101.01 45.4185C101.01 45.6154 100.771 45.7467 100.484 45.7467C100.197 45.7467 99.9096 45.7139 99.6225 45.7139C99.3354 45.7139 99.144 45.5826 99.144 45.3857C99.144 45.1887 99.3354 45.0574 99.6225 45.0574C99.9574 45.0574 100.244 45.0574 100.579 45.0902C100.819 45.1231 101.01 45.2544 101.01 45.4185ZM100.101 57.7601C100.101 57.957 99.9096 58.0883 99.6225 58.0883C99.2875 58.0883 98.9526 58.0883 98.6655 58.0555C98.4263 58.0555 98.187 57.8914 98.2349 57.6944C98.2349 57.4975 98.4741 57.3662 98.7612 57.399C99.0483 57.399 99.3832 57.4318 99.6703 57.4318C99.9096 57.4318 100.101 57.596 100.101 57.7601ZM97.23 45.6482C97.23 45.7795 97.0865 45.9437 96.8473 45.9765C96.5602 46.0421 96.2731 46.0749 95.986 46.1406C95.7467 46.2062 95.4596 46.1078 95.364 45.9437C95.2683 45.7795 95.4118 45.5826 95.651 45.517C95.9381 45.4513 96.2731 45.3857 96.608 45.32C96.8473 45.2872 97.1343 45.3857 97.1822 45.5498C97.23 45.5826 97.23 45.6154 97.23 45.6482ZM96.3688 57.3662C96.3688 57.399 96.3688 57.4318 96.3209 57.4647C96.2252 57.6288 95.986 57.7272 95.6989 57.6616C95.4118 57.596 95.0769 57.4975 94.7898 57.4318C94.5505 57.3662 94.4548 57.1692 94.5505 57.0051C94.6462 56.841 94.9333 56.7754 95.1726 56.841C95.4596 56.9395 95.7467 57.0051 96.0338 57.0708C96.2731 57.1036 96.3688 57.2349 96.3688 57.3662ZM93.785 46.6986C93.785 46.7971 93.6893 46.8955 93.5936 46.9612C93.3543 47.0925 93.1151 47.1909 92.8758 47.3222C92.6844 47.4535 92.3495 47.4207 92.206 47.2894C92.0146 47.1581 92.0624 46.9284 92.2538 46.8299C92.493 46.6986 92.7801 46.5345 93.0672 46.436C93.3065 46.3375 93.5936 46.3704 93.7371 46.5345C93.785 46.5673 93.785 46.6329 93.785 46.6986ZM93.0672 56.1189C93.0672 56.1845 93.0194 56.2502 92.9715 56.3158C92.828 56.4471 92.493 56.48 92.3017 56.3487C92.0624 56.2174 91.7753 56.0533 91.5839 55.8891C91.3925 55.7578 91.3925 55.5609 91.5839 55.4296C91.7753 55.2983 92.0624 55.2983 92.2538 55.4296C92.4452 55.5609 92.6844 55.725 92.9237 55.8563C93.0194 55.922 93.0672 56.0204 93.0672 56.1189ZM91.1533 48.5367C91.1533 48.6023 91.1054 48.668 91.0576 48.7008C90.914 48.8649 90.7227 49.0619 90.627 49.226C90.5313 49.3901 90.1963 49.4558 90.0049 49.3573C89.7657 49.2916 89.67 49.0947 89.8135 48.9306C89.9571 48.7336 90.1485 48.5367 90.292 48.3398C90.4356 48.1756 90.7227 48.1428 90.9619 48.2413C91.0576 48.3069 91.1533 48.4382 91.1533 48.5367ZM90.6748 54.1167C90.6748 54.248 90.5791 54.3464 90.4356 54.4121C90.1963 54.5106 89.9092 54.4449 89.8135 54.2808C89.67 54.0839 89.5264 53.8541 89.4307 53.6571C89.3351 53.493 89.4786 53.2961 89.7178 53.2304C89.9571 53.1648 90.2442 53.2633 90.3399 53.4274C90.4356 53.6243 90.5791 53.8213 90.7227 53.9854C90.6748 54.0182 90.6748 54.051 90.6748 54.1167ZM89.8614 50.9656L89.8614 50.9985C89.8135 51.1954 89.8135 51.3923 89.8135 51.5893C89.8135 51.7862 89.6221 51.9175 89.3351 51.9175C89.048 51.9175 88.8566 51.7862 88.8566 51.5893C88.8566 51.3595 88.8566 51.1297 88.9044 50.9328C88.9523 50.7687 89.1915 50.6374 89.4307 50.6374C89.67 50.6374 89.8614 50.8015 89.8614 50.9656Z" fill="#FFBFCD"/>
<path d="M100.101 59.631L100.101 61.6004C100.436 61.6004 100.723 61.5675 101.058 61.5675L101.058 59.5981C100.723 59.5981 100.436 59.631 100.101 59.631Z" fill="#F48BA2"/>
<path d="M97.7085 59.5653L97.7085 61.5347C98.0434 61.5675 98.3305 61.5675 98.6655 61.6004L98.6655 59.631C98.3305 59.5981 98.0434 59.5981 97.7085 59.5653Z" fill="#F48BA2"/>
<path d="M102.493 59.4669L102.493 61.4363C102.828 61.4035 103.115 61.3378 103.45 61.2722L103.45 59.3028C103.115 59.3684 102.828 59.4012 102.493 59.4669Z" fill="#F48BA2"/>
<path d="M104.886 59.0074L104.886 60.9768C105.221 60.8784 105.508 60.8127 105.843 60.7142L105.843 58.7448C105.508 58.8105 105.221 58.9089 104.886 59.0074Z" fill="#F48BA2"/>
<path d="M95.3162 59.2044L95.3162 61.1738C95.6511 61.2394 95.9382 61.3051 96.2731 61.3379L96.2731 59.3685C95.9382 59.3357 95.6511 59.27 95.3162 59.2044Z" fill="#F48BA2"/>
<path d="M92.9237 58.5478L92.9237 60.5172C93.2586 60.6157 93.5457 60.7142 93.8807 60.8126L93.8807 58.8432C93.5457 58.7776 93.2586 58.6791 92.9237 58.5478Z" fill="#F48BA2"/>
<path d="M90.0527 57.2349L90.0527 59.2043C90.3398 59.4012 90.6748 59.5653 91.0097 59.7295L91.0097 57.7601C90.6748 57.5959 90.3398 57.399 90.0527 57.2349Z" fill="#F48BA2"/>
<path d="M87.6604 55.1999L87.6604 57.1693C87.9475 57.4975 88.2824 57.8257 88.6174 58.1211L88.6174 56.1517C88.2824 55.8563 87.9475 55.5609 87.6604 55.1999Z" fill="#F48BA2"/>
<path d="M107.757 57.9899L107.757 59.9593C108.092 59.7952 108.427 59.6311 108.714 59.467L108.714 57.4976C108.427 57.6617 108.092 57.8258 107.757 57.9899Z" fill="#F48BA2"/>
<path d="M110.149 58.5478C110.484 58.2852 110.819 58.0226 111.106 57.7272L111.106 55.7578C110.819 56.0532 110.484 56.3158 110.149 56.5784L110.149 58.5478Z" fill="#F48BA2"/>
<path d="M102.101 51.0978L102.101 52.3879L103.45 52.3879L103.45 53.3976L102.101 53.3976L102.101 54.219L100.915 54.219L100.915 53.3976L100.29 53.3976L100.29 54.219L99.1047 54.219L99.1047 53.3976L94.946 53.3976L94.946 51.1659C94.946 50.5221 95.1914 50.0079 95.682 49.6233C96.1687 49.2386 96.8171 49.0463 97.627 49.0463C98.4525 49.0463 99.1009 49.2293 99.572 49.5952C100.039 49.9612 100.279 50.47 100.29 51.1218L100.29 52.3879L100.915 52.3879L100.915 51.0978L102.101 51.0978ZM99.1047 52.3879L99.1047 51.1819C99.1047 50.8186 98.9821 50.5408 98.7368 50.3485C98.4915 50.1562 98.1254 50.06 97.6387 50.06C97.2026 50.06 96.8463 50.1548 96.5698 50.3445C96.2933 50.5315 96.1493 50.7906 96.1376 51.1218L96.1376 52.3879L99.1047 52.3879Z" fill="#F48BA2"/>
<path d="M113.02 49.4592C113.02 53.8904 107.039 57.5009 99.6224 57.5009C92.2059 57.5009 86.2249 53.8904 86.2249 49.4592C86.2249 45.028 92.2059 41.4175 99.6224 41.4175C107.039 41.4175 113.02 45.028 113.02 49.4592Z" fill="white"/>
<path d="M99.6224 57.5009C92.7801 57.5009 87.134 54.4155 86.3205 50.4439C86.2727 50.7721 86.2249 51.1004 86.2249 51.4286C86.2249 55.8598 92.2059 59.4703 99.6224 59.4703C107.039 59.4703 113.02 55.8598 113.02 51.4286C113.02 51.1004 112.972 50.7721 112.924 50.4439C112.111 54.4155 106.465 57.5009 99.6224 57.5009Z" fill="#FFBFCD"/>
<path d="M110.388 49.4264C110.388 49.689 110.388 49.9188 110.341 50.1485C110.293 50.3127 110.053 50.444 109.814 50.444C109.575 50.4111 109.384 50.247 109.384 50.0829C109.431 49.886 109.431 49.689 109.431 49.4593C109.431 49.2623 109.623 49.131 109.91 49.131C110.197 49.131 110.388 49.2623 110.388 49.4264ZM109.862 47.5227C109.862 47.654 109.766 47.7853 109.575 47.8181C109.336 47.8837 109.049 47.7853 108.953 47.6211C108.857 47.4242 108.714 47.2273 108.57 47.0631C108.427 46.899 108.522 46.7021 108.762 46.6364C109.001 46.538 109.288 46.6036 109.384 46.7677C109.527 46.9647 109.671 47.1944 109.766 47.3914C109.862 47.457 109.862 47.4899 109.862 47.5227ZM109.527 51.9538C109.527 52.0195 109.527 52.0523 109.479 52.1179C109.336 52.3149 109.144 52.5118 109.001 52.7088C108.857 52.8729 108.57 52.9057 108.331 52.8072C108.092 52.7088 108.044 52.5118 108.187 52.3477C108.331 52.1836 108.522 51.9867 108.618 51.8225C108.762 51.6584 109.049 51.5928 109.24 51.6912C109.431 51.7241 109.527 51.8554 109.527 51.9538ZM107.805 45.3563C107.805 45.4548 107.757 45.5205 107.661 45.5861C107.47 45.7174 107.183 45.7174 106.991 45.5861C106.8 45.4548 106.56 45.2907 106.321 45.1594C106.13 45.0609 106.082 44.8312 106.273 44.6999C106.465 44.5686 106.752 44.5357 106.943 44.667C107.183 44.7983 107.47 44.9625 107.661 45.1266C107.757 45.1922 107.805 45.2907 107.805 45.3563ZM107.135 53.9561C107.135 54.0545 107.087 54.153 106.943 54.2186C106.704 54.3499 106.417 54.5141 106.13 54.6125C105.891 54.711 105.604 54.6782 105.46 54.5141C105.316 54.3499 105.364 54.153 105.604 54.0545C105.843 53.9232 106.082 53.8248 106.321 53.6935C106.513 53.5622 106.848 53.595 106.991 53.7263C107.087 53.8248 107.135 53.8904 107.135 53.9561ZM104.694 43.9121C104.694 43.9449 104.694 44.0106 104.647 44.0434C104.551 44.2075 104.264 44.2732 104.025 44.2075C103.737 44.109 103.45 44.0434 103.163 43.9778C102.924 43.9121 102.78 43.748 102.876 43.551C102.972 43.3869 103.211 43.2885 103.498 43.3541C103.833 43.4198 104.12 43.5182 104.407 43.5839C104.599 43.6823 104.694 43.7808 104.694 43.9121ZM103.833 55.2362C103.833 55.3675 103.69 55.4988 103.498 55.5316C103.211 55.5972 102.876 55.6629 102.541 55.7285C102.302 55.7613 102.015 55.6629 101.967 55.4988C101.919 55.3346 102.063 55.1377 102.302 55.1049C102.589 55.0392 102.876 55.0064 103.163 54.9408C103.402 54.8751 103.69 54.9736 103.785 55.1377C103.833 55.1377 103.833 55.1705 103.833 55.2362ZM101.01 43.2885C101.01 43.3213 101.01 43.3213 101.01 43.2885C101.01 43.4854 100.771 43.6167 100.484 43.6167C100.197 43.6167 99.9096 43.5839 99.6225 43.5839C99.3354 43.5839 99.144 43.4526 99.144 43.2556C99.144 43.0587 99.3354 42.9274 99.6225 42.9274C99.9574 42.9274 100.244 42.9274 100.579 42.9602C100.819 42.9931 101.01 43.1243 101.01 43.2885ZM100.101 55.63C100.101 55.827 99.9096 55.9583 99.6225 55.9583C99.2875 55.9583 98.9526 55.9583 98.6655 55.9255C98.4263 55.9255 98.187 55.7613 98.2349 55.5644C98.2349 55.3675 98.4741 55.2362 98.7612 55.269C99.0483 55.269 99.3832 55.3018 99.6703 55.3018C99.9096 55.3018 100.101 55.4659 100.101 55.63ZM97.23 43.5182C97.23 43.6495 97.0865 43.8136 96.8473 43.8465C96.5602 43.9121 96.2731 43.9449 95.986 44.0106C95.7467 44.0762 95.4596 43.9778 95.364 43.8136C95.2683 43.6495 95.4118 43.4526 95.651 43.3869C95.9381 43.3213 96.2731 43.2556 96.608 43.19C96.8473 43.1572 97.1343 43.2556 97.1822 43.4198C97.23 43.4526 97.23 43.4854 97.23 43.5182ZM96.3688 55.2362C96.3688 55.269 96.3688 55.3018 96.3209 55.3346C96.2252 55.4988 95.986 55.5972 95.6989 55.5316C95.4118 55.4659 95.0769 55.3675 94.7898 55.3018C94.5505 55.2362 94.4548 55.0392 94.5505 54.8751C94.6462 54.711 94.9333 54.6453 95.1726 54.711C95.4596 54.8095 95.7467 54.8751 96.0338 54.9408C96.2731 54.9736 96.3688 55.1049 96.3688 55.2362ZM93.785 44.5686C93.785 44.667 93.6893 44.7655 93.5936 44.8312C93.3543 44.9625 93.1151 45.0609 92.8758 45.1922C92.6844 45.3235 92.3495 45.2907 92.206 45.1594C92.0146 45.0281 92.0624 44.7983 92.2538 44.6999C92.493 44.5686 92.7801 44.4045 93.0672 44.306C93.3065 44.2075 93.5936 44.2403 93.7371 44.4045C93.785 44.4373 93.785 44.5029 93.785 44.5686ZM93.0672 53.9889C93.0672 54.0545 93.0194 54.1202 92.9715 54.1858C92.828 54.3171 92.493 54.3499 92.3017 54.2186C92.0624 54.0874 91.7753 53.9232 91.5839 53.7591C91.3925 53.6278 91.3925 53.4309 91.5839 53.2996C91.7753 53.1683 92.0624 53.1683 92.2538 53.2996C92.4452 53.4309 92.6844 53.595 92.9237 53.7263C93.0194 53.7919 93.0672 53.8904 93.0672 53.9889ZM91.1533 46.4067C91.1533 46.4723 91.1054 46.538 91.0576 46.5708C90.914 46.7349 90.7227 46.9319 90.627 47.096C90.5313 47.2601 90.1963 47.3257 90.0049 47.2273C89.7657 47.1616 89.67 46.9647 89.8135 46.8006C89.9571 46.6036 90.1485 46.4067 90.292 46.2097C90.4356 46.0456 90.7227 46.0128 90.9619 46.1113C91.0576 46.1769 91.1533 46.3082 91.1533 46.4067ZM90.6748 51.9867C90.6748 52.1179 90.5791 52.2164 90.4356 52.2821C90.1963 52.3805 89.9092 52.3149 89.8135 52.1508C89.67 51.9538 89.5264 51.7241 89.4307 51.5271C89.3351 51.363 89.4786 51.1661 89.7178 51.1004C89.9571 51.0348 90.2442 51.1332 90.3399 51.2974C90.4356 51.4943 90.5791 51.6912 90.7227 51.8554C90.6748 51.8882 90.6748 51.921 90.6748 51.9867ZM89.8614 48.8356L89.8614 48.8684C89.8135 49.0654 89.8135 49.2623 89.8135 49.4593C89.8135 49.6562 89.6221 49.7875 89.3351 49.7875C89.048 49.7875 88.8566 49.6562 88.8566 49.4593C88.8566 49.2295 88.8566 48.9997 88.9044 48.8028C88.9523 48.6387 89.1915 48.5074 89.4307 48.5074C89.67 48.5074 89.8614 48.6715 89.8614 48.8356Z" fill="#FFBFCD"/>
<path d="M100.101 57.501L100.101 59.4704C100.436 59.4704 100.723 59.4375 101.058 59.4375L101.058 57.4681C100.723 57.4681 100.436 57.501 100.101 57.501Z" fill="#F48BA2"/>
<path d="M97.7085 57.4353L97.7085 59.4047C98.0434 59.4375 98.3305 59.4375 98.6655 59.4704L98.6655 57.5009C98.3305 57.4681 98.0434 57.4681 97.7085 57.4353Z" fill="#F48BA2"/>
<path d="M102.493 57.337L102.493 59.3064C102.828 59.2736 103.115 59.2079 103.45 59.1423L103.45 57.1729C103.115 57.2385 102.828 57.2714 102.493 57.337Z" fill="#F48BA2"/>
<path d="M104.886 56.8773L104.886 58.8467C105.221 58.7482 105.508 58.6826 105.843 58.5841L105.843 56.6147C105.508 56.6803 105.221 56.7788 104.886 56.8773Z" fill="#F48BA2"/>
<path d="M95.3162 57.0743L95.3162 59.0437C95.6511 59.1093 95.9382 59.175 96.2731 59.2078L96.2731 57.2384C95.9382 57.2056 95.6511 57.1399 95.3162 57.0743Z" fill="#F48BA2"/>
<path d="M92.9237 56.4178L92.9237 58.3872C93.2586 58.4857 93.5457 58.5841 93.8807 58.6826L93.8807 56.7132C93.5457 56.6476 93.2586 56.5491 92.9237 56.4178Z" fill="#F48BA2"/>
<path d="M90.0527 55.1049L90.0527 57.0743C90.3398 57.2712 90.6748 57.4353 91.0097 57.5994L91.0097 55.63C90.6748 55.4659 90.3398 55.269 90.0527 55.1049Z" fill="#F48BA2"/>
<path d="M87.6604 53.0698L87.6604 55.0392C87.9475 55.3675 88.2824 55.6957 88.6174 55.9911L88.6174 54.0217C88.2824 53.7263 87.9475 53.4309 87.6604 53.0698Z" fill="#F48BA2"/>
<path d="M107.757 55.8598L107.757 57.8292C108.092 57.6651 108.427 57.501 108.714 57.3368L108.714 55.3674C108.427 55.5316 108.092 55.6957 107.757 55.8598Z" fill="#F48BA2"/>
<path d="M110.149 56.4179C110.484 56.1553 110.819 55.8927 111.106 55.5973L111.106 53.6279C110.819 53.9233 110.484 54.1859 110.149 54.4485L110.149 56.4179Z" fill="#F48BA2"/>
<path d="M102.101 48.9678L102.101 50.2579L103.45 50.2579L103.45 51.2676L102.101 51.2676L102.101 52.089L100.915 52.089L100.915 51.2676L100.29 51.2676L100.29 52.089L99.1047 52.089L99.1047 51.2676L94.946 51.2676L94.946 49.0359C94.946 48.3921 95.1914 47.8779 95.682 47.4933C96.1687 47.1086 96.8171 46.9163 97.627 46.9163C98.4525 46.9163 99.1009 47.0993 99.572 47.4652C100.039 47.8312 100.279 48.34 100.29 48.9918L100.29 50.2579L100.915 50.2579L100.915 48.9678L102.101 48.9678ZM99.1047 50.2579L99.1047 49.0519C99.1047 48.6886 98.9821 48.4108 98.7368 48.2185C98.4915 48.0262 98.1254 47.93 97.6387 47.93C97.2026 47.93 96.8463 48.0248 96.5698 48.2145C96.2933 48.4015 96.1493 48.6606 96.1376 48.9918L96.1376 50.2579L99.1047 50.2579Z" fill="#F48BA2"/>
<path d="M113.02 47.3376C113.02 51.7688 107.039 55.3793 99.6224 55.3793C92.2059 55.3793 86.2249 51.7688 86.2249 47.3376C86.2249 42.9065 92.2059 39.2959 99.6224 39.2959C107.039 39.2959 113.02 42.9065 113.02 47.3376Z" fill="#FFDCE4"/>
<path d="M99.6224 55.3794C92.7801 55.3794 87.134 52.294 86.3205 48.3224C86.2727 48.6506 86.2249 48.9789 86.2249 49.3071C86.2249 53.7383 92.2059 57.3488 99.6224 57.3488C107.039 57.3488 113.02 53.7383 113.02 49.3071C113.02 48.9789 112.972 48.6506 112.924 48.3224C112.111 52.294 106.465 55.3794 99.6224 55.3794Z" fill="#FFBFCD"/>
<path d="M110.388 47.3048C110.388 47.5674 110.388 47.7972 110.341 48.027C110.293 48.1911 110.053 48.3224 109.814 48.3224C109.575 48.2896 109.384 48.1254 109.384 47.9613C109.431 47.7644 109.431 47.5674 109.431 47.3377C109.431 47.1407 109.623 47.0094 109.91 47.0094C110.197 47.0094 110.388 47.1407 110.388 47.3048ZM109.862 45.4011C109.862 45.5324 109.766 45.6637 109.575 45.6965C109.336 45.7622 109.049 45.6637 108.953 45.4996C108.857 45.3026 108.714 45.1057 108.57 44.9416C108.427 44.7775 108.522 44.5805 108.762 44.5149C109.001 44.4164 109.288 44.482 109.384 44.6462C109.527 44.8431 109.671 45.0729 109.766 45.2698C109.862 45.3354 109.862 45.3683 109.862 45.4011ZM109.527 49.8322C109.527 49.8979 109.527 49.9307 109.479 49.9964C109.336 50.1933 109.144 50.3902 109.001 50.5872C108.857 50.7513 108.57 50.7841 108.331 50.6857C108.092 50.5872 108.044 50.3902 108.187 50.2261C108.331 50.062 108.522 49.8651 108.618 49.701C108.762 49.5368 109.049 49.4712 109.24 49.5697C109.431 49.6025 109.527 49.7338 109.527 49.8322ZM107.805 43.2348C107.805 43.3332 107.757 43.3989 107.661 43.4645C107.47 43.5958 107.183 43.5958 106.991 43.4645C106.8 43.3332 106.56 43.1691 106.321 43.0378C106.13 42.9393 106.082 42.7096 106.273 42.5783C106.465 42.447 106.752 42.4142 106.943 42.5455C107.183 42.6768 107.47 42.8409 107.661 43.005C107.757 43.0706 107.805 43.1691 107.805 43.2348ZM107.135 51.8345C107.135 51.9329 107.087 52.0314 106.943 52.0971C106.704 52.2284 106.417 52.3925 106.13 52.4909C105.891 52.5894 105.604 52.5566 105.46 52.3925C105.316 52.2284 105.364 52.0314 105.604 51.9329C105.843 51.8017 106.082 51.7032 106.321 51.5719C106.513 51.4406 106.848 51.4734 106.991 51.6047C107.087 51.7032 107.135 51.7688 107.135 51.8345ZM104.694 41.7905C104.694 41.8233 104.694 41.889 104.647 41.9218C104.551 42.0859 104.264 42.1516 104.025 42.0859C103.737 41.9875 103.45 41.9218 103.163 41.8562C102.924 41.7905 102.78 41.6264 102.876 41.4295C102.972 41.2653 103.211 41.1669 103.498 41.2325C103.833 41.2982 104.12 41.3966 104.407 41.4623C104.599 41.5608 104.694 41.6592 104.694 41.7905ZM103.833 53.1146C103.833 53.2459 103.69 53.3772 103.498 53.41C103.211 53.4756 102.876 53.5413 102.541 53.6069C102.302 53.6398 102.015 53.5413 101.967 53.3772C101.919 53.2131 102.063 53.0161 102.302 52.9833C102.589 52.9176 102.876 52.8848 103.163 52.8192C103.402 52.7535 103.69 52.852 103.785 53.0161C103.833 53.0161 103.833 53.0489 103.833 53.1146ZM101.01 41.1669C101.01 41.1997 101.01 41.1997 101.01 41.1669C101.01 41.3638 100.771 41.4951 100.484 41.4951C100.197 41.4951 99.9096 41.4623 99.6225 41.4623C99.3354 41.4623 99.144 41.331 99.144 41.1341C99.144 40.9371 99.3354 40.8058 99.6225 40.8058C99.9574 40.8058 100.244 40.8058 100.579 40.8386C100.819 40.8715 101.01 41.0028 101.01 41.1669ZM100.101 53.5085C100.101 53.7054 99.9096 53.8367 99.6225 53.8367C99.2875 53.8367 98.9526 53.8367 98.6655 53.8039C98.4263 53.8039 98.187 53.6398 98.2349 53.4428C98.2349 53.2459 98.4741 53.1146 98.7612 53.1474C99.0483 53.1474 99.3832 53.1802 99.6703 53.1802C99.9096 53.1802 100.101 53.3443 100.101 53.5085ZM97.23 41.3966C97.23 41.5279 97.0865 41.6921 96.8473 41.7249C96.5602 41.7905 96.2731 41.8233 95.986 41.889C95.7467 41.9546 95.4596 41.8562 95.364 41.6921C95.2683 41.5279 95.4118 41.331 95.651 41.2654C95.9381 41.1997 96.2731 41.1341 96.608 41.0684C96.8473 41.0356 97.1343 41.1341 97.1822 41.2982C97.23 41.331 97.23 41.3638 97.23 41.3966ZM96.3688 53.1146C96.3688 53.1474 96.3688 53.1802 96.3209 53.2131C96.2252 53.3772 95.986 53.4756 95.6989 53.41C95.4118 53.3443 95.0769 53.2459 94.7898 53.1802C94.5505 53.1146 94.4548 52.9176 94.5505 52.7535C94.6462 52.5894 94.9333 52.5238 95.1726 52.5894C95.4596 52.6879 95.7467 52.7535 96.0338 52.8192C96.2731 52.852 96.3688 52.9833 96.3688 53.1146ZM93.785 42.447C93.785 42.5455 93.6893 42.6439 93.5936 42.7096C93.3543 42.8409 93.1151 42.9393 92.8758 43.0706C92.6844 43.2019 92.3495 43.1691 92.206 43.0378C92.0146 42.9065 92.0624 42.6768 92.2538 42.5783C92.493 42.447 92.7801 42.2829 93.0672 42.1844C93.3065 42.0859 93.5936 42.1188 93.7371 42.2829C93.785 42.3157 93.785 42.3813 93.785 42.447ZM93.0672 51.8673C93.0672 51.9329 93.0194 51.9986 92.9715 52.0642C92.828 52.1955 92.493 52.2284 92.3017 52.0971C92.0624 51.9658 91.7753 51.8017 91.5839 51.6375C91.3925 51.5062 91.3925 51.3093 91.5839 51.178C91.7753 51.0467 92.0624 51.0467 92.2538 51.178C92.4452 51.3093 92.6844 51.4734 92.9237 51.6047C93.0194 51.6704 93.0672 51.7688 93.0672 51.8673ZM91.1533 44.2851C91.1533 44.3507 91.1054 44.4164 91.0576 44.4492C90.914 44.6133 90.7227 44.8103 90.627 44.9744C90.5313 45.1385 90.1963 45.2042 90.0049 45.1057C89.7657 45.04 89.67 44.8431 89.8135 44.679C89.9571 44.482 90.1485 44.2851 90.292 44.0882C90.4356 43.924 90.7227 43.8912 90.9619 43.9897C91.0576 44.0553 91.1533 44.1866 91.1533 44.2851ZM90.6748 49.8651C90.6748 49.9964 90.5791 50.0948 90.4356 50.1605C90.1963 50.259 89.9092 50.1933 89.8135 50.0292C89.67 49.8322 89.5264 49.6025 89.4307 49.4055C89.3351 49.2414 89.4786 49.0445 89.7178 48.9788C89.9571 48.9132 90.2442 49.0117 90.3399 49.1758C90.4356 49.3727 90.5791 49.5697 90.7227 49.7338C90.6748 49.7666 90.6748 49.7994 90.6748 49.8651ZM89.8614 46.714L89.8614 46.7469C89.8135 46.9438 89.8135 47.1407 89.8135 47.3377C89.8135 47.5346 89.6221 47.6659 89.3351 47.6659C89.048 47.6659 88.8566 47.5346 88.8566 47.3377C88.8566 47.1079 88.8566 46.8781 88.9044 46.6812C88.9523 46.5171 89.1915 46.3858 89.4307 46.3858C89.67 46.3858 89.8614 46.5499 89.8614 46.714Z" fill="#FFBFCD"/>
<path d="M100.101 55.3794L100.101 57.3488C100.436 57.3488 100.723 57.316 101.058 57.316L101.058 55.3466C100.723 55.3466 100.436 55.3794 100.101 55.3794Z" fill="#F48BA2"/>
<path d="M97.7085 55.3137L97.7085 57.2831C98.0434 57.316 98.3305 57.316 98.6655 57.3488L98.6655 55.3794C98.3305 55.3466 98.0434 55.3466 97.7085 55.3137Z" fill="#F48BA2"/>
<path d="M102.493 55.2152L102.493 57.1846C102.828 57.1518 103.115 57.0861 103.45 57.0205L103.45 55.0511C103.115 55.1167 102.828 55.1495 102.493 55.2152Z" fill="#F48BA2"/>
<path d="M104.886 54.7557L104.886 56.7251C105.221 56.6266 105.508 56.561 105.843 56.4625L105.843 54.4931C105.508 54.5588 105.221 54.6572 104.886 54.7557Z" fill="#F48BA2"/>
<path d="M95.3162 54.9527L95.3162 56.9221C95.6511 56.9877 95.9382 57.0534 96.2731 57.0862L96.2731 55.1168C95.9382 55.084 95.6511 55.0183 95.3162 54.9527Z" fill="#F48BA2"/>
<path d="M92.9237 54.2962L92.9237 56.2656C93.2586 56.3641 93.5457 56.4626 93.8807 56.561L93.8807 54.5916C93.5457 54.526 93.2586 54.4275 92.9237 54.2962Z" fill="#F48BA2"/>
<path d="M90.0527 52.9832L90.0527 54.9526C90.3398 55.1495 90.6748 55.3136 91.0097 55.4778L91.0097 53.5084C90.6748 53.3442 90.3398 53.1473 90.0527 52.9832Z" fill="#F48BA2"/>
<path d="M87.6604 50.9483L87.6604 52.9177C87.9475 53.2459 88.2824 53.5741 88.6174 53.8696L88.6174 51.9002C88.2824 51.6047 87.9475 51.3093 87.6604 50.9483Z" fill="#F48BA2"/>
<path d="M107.757 53.7382L107.757 55.7076C108.092 55.5435 108.427 55.3794 108.714 55.2153L108.714 53.2459C108.427 53.41 108.092 53.5741 107.757 53.7382Z" fill="#F48BA2"/>
<path d="M110.149 54.2961C110.484 54.0335 110.819 53.7709 111.106 53.4755L111.106 51.5061C110.819 51.8015 110.484 52.0641 110.149 52.3267L110.149 54.2961Z" fill="#F48BA2"/>
<path d="M102.101 46.8462L102.101 48.1363L103.45 48.1363L103.45 49.1461L102.101 49.1461L102.101 49.9674L100.915 49.9674L100.915 49.1461L100.29 49.1461L100.29 49.9674L99.1047 49.9674L99.1047 49.1461L94.946 49.1461L94.946 46.9143C94.946 46.2705 95.1914 45.7563 95.682 45.3717C96.1687 44.987 96.8171 44.7947 97.627 44.7947C98.4525 44.7947 99.1009 44.9777 99.572 45.3436C100.039 45.7096 100.279 46.2184 100.29 46.8702L100.29 48.1363L100.915 48.1363L100.915 46.8462L102.101 46.8462ZM99.1047 48.1363L99.1047 46.9303C99.1047 46.567 98.9821 46.2892 98.7368 46.0969C98.4915 45.9046 98.1254 45.8084 97.6387 45.8084C97.2026 45.8084 96.8463 45.9032 96.5698 46.0929C96.2933 46.2799 96.1493 46.539 96.1376 46.8702L96.1376 48.1363L99.1047 48.1363Z" fill="#F48BA2"/>
</svg>
