<svg width="56" height="29" viewBox="0 0 56 29" fill="none" xmlns="http://www.w3.org/2000/svg">
<path d="M26.7951 18.7434C26.7951 23.1746 20.8141 26.7851 13.3976 26.7851C5.98105 26.7851 -2.30067e-07 23.1746 -5.12423e-07 18.7434C-7.94778e-07 14.3122 5.98105 10.7017 13.3976 10.7017C20.8141 10.7017 26.7951 14.3122 26.7951 18.7434Z" fill="white"/>
<path d="M13.3976 26.7851C6.55523 26.7851 0.90912 23.6997 0.0956963 19.7281C0.0478479 20.0564 -5.33338e-07 20.3846 -5.12423e-07 20.7128C-2.30067e-07 25.144 5.98105 28.7545 13.3976 28.7545C20.8141 28.7545 26.7951 25.144 26.7951 20.7128C26.7951 20.3846 26.7473 20.0564 26.6994 19.7281C25.886 23.6997 20.2399 26.7851 13.3976 26.7851Z" fill="#FFBFCD"/>
<path d="M24.1635 18.7106C24.1635 18.9732 24.1635 19.203 24.1157 19.4327C24.0678 19.5969 23.8286 19.7282 23.5893 19.7282C23.3501 19.6953 23.1587 19.5312 23.1587 19.3671C23.2065 19.1702 23.2065 18.9732 23.2065 18.7435C23.2065 18.5465 23.3979 18.4152 23.685 18.4152C23.9721 18.4152 24.1635 18.5465 24.1635 18.7106ZM23.6372 16.8069C23.6372 16.9382 23.5415 17.0695 23.3501 17.1023C23.1108 17.1679 22.8237 17.0695 22.728 16.9053C22.6324 16.7084 22.4888 16.5115 22.3453 16.3473C22.2017 16.1832 22.2974 15.9863 22.5367 15.9206C22.7759 15.8222 23.063 15.8878 23.1587 16.0519C23.3022 16.2489 23.4458 16.4786 23.5415 16.6756C23.6372 16.7412 23.6372 16.774 23.6372 16.8069ZM23.3022 21.238C23.3022 21.3037 23.3022 21.3365 23.2544 21.4021C23.1108 21.5991 22.9194 21.796 22.7759 21.993C22.6324 22.1571 22.3453 22.1899 22.106 22.0914C21.8668 21.993 21.8189 21.796 21.9625 21.6319C22.106 21.4678 22.2974 21.2708 22.3931 21.1067C22.5367 20.9426 22.8237 20.877 23.0151 20.9754C23.2065 21.0083 23.3022 21.1396 23.3022 21.238ZM21.5797 14.6405C21.5797 14.739 21.5318 14.8046 21.4361 14.8703C21.2447 15.0016 20.9577 15.0016 20.7663 14.8703C20.5749 14.739 20.3356 14.5749 20.0964 14.4436C19.905 14.3451 19.8571 14.1154 20.0485 13.9841C20.2399 13.8528 20.527 13.8199 20.7184 13.9512C20.9577 14.0825 21.2447 14.2466 21.4361 14.4108C21.5318 14.4764 21.5797 14.5749 21.5797 14.6405ZM20.9098 23.2403C20.9098 23.3387 20.862 23.4372 20.7184 23.5028C20.4792 23.6341 20.1921 23.7982 19.905 23.8967C19.6658 23.9952 19.3787 23.9624 19.2351 23.7982C19.0916 23.6341 19.1394 23.4372 19.3787 23.3387C19.6179 23.2074 19.8571 23.109 20.0964 22.9777C20.2878 22.8464 20.6227 22.8792 20.7663 23.0105C20.862 23.109 20.9098 23.1746 20.9098 23.2403ZM18.4695 13.1963C18.4695 13.2291 18.4695 13.2948 18.4217 13.3276C18.326 13.4917 18.0389 13.5574 17.7997 13.4917C17.5126 13.3932 17.2255 13.3276 16.9384 13.2619C16.6991 13.1963 16.5556 13.0322 16.6513 12.8352C16.747 12.6711 16.9862 12.5727 17.2733 12.6383C17.6083 12.704 17.8954 12.8024 18.1824 12.8681C18.3738 12.9665 18.4695 13.065 18.4695 13.1963ZM17.6083 24.5204C17.6083 24.6517 17.4647 24.7829 17.2733 24.8158C16.9862 24.8814 16.6513 24.9471 16.3164 25.0127C16.0771 25.0455 15.79 24.9471 15.7422 24.7829C15.6943 24.6188 15.8379 24.4219 16.0771 24.3891C16.3642 24.3234 16.6513 24.2906 16.9384 24.225C17.1776 24.1593 17.4647 24.2578 17.5604 24.4219C17.6083 24.4219 17.6083 24.4547 17.6083 24.5204ZM14.7852 12.5727C14.7852 12.6055 14.7852 12.6055 14.7852 12.5727C14.7852 12.7696 14.546 12.9009 14.2589 12.9009C13.9718 12.9009 13.6847 12.8681 13.3976 12.8681C13.1105 12.8681 12.9191 12.7368 12.9191 12.5398C12.9191 12.3429 13.1105 12.2116 13.3976 12.2116C13.7325 12.2116 14.0196 12.2116 14.3546 12.2444C14.5938 12.2772 14.7852 12.4085 14.7852 12.5727ZM13.8761 24.9142C13.8761 25.1112 13.6847 25.2425 13.3976 25.2425C13.0627 25.2425 12.7277 25.2425 12.4406 25.2097C12.2014 25.2097 11.9622 25.0455 12.01 24.8486C12.01 24.6517 12.2492 24.5204 12.5363 24.5532C12.8234 24.5532 13.1584 24.586 13.4455 24.586C13.6847 24.586 13.8761 24.7501 13.8761 24.9142ZM11.0052 12.8024C11.0052 12.9337 10.8616 13.0978 10.6224 13.1307C10.3353 13.1963 10.0482 13.2291 9.76113 13.2948C9.52189 13.3604 9.23479 13.2619 9.1391 13.0978C9.0434 12.9337 9.18695 12.7368 9.42619 12.6711C9.71328 12.6055 10.0482 12.5398 10.3832 12.4742C10.6224 12.4414 10.9095 12.5398 10.9573 12.7039C11.0052 12.7368 11.0052 12.7696 11.0052 12.8024ZM10.1439 24.5204C10.1439 24.5532 10.1439 24.586 10.0961 24.6188C10.0004 24.7829 9.76113 24.8814 9.47404 24.8158C9.18695 24.7501 8.85201 24.6517 8.56492 24.586C8.32568 24.5204 8.22998 24.3234 8.32568 24.1593C8.42137 23.9952 8.70846 23.9295 8.94771 23.9952C9.2348 24.0937 9.52189 24.1593 9.80898 24.225C10.0482 24.2578 10.1439 24.3891 10.1439 24.5204ZM7.5601 13.8528C7.5601 13.9512 7.4644 14.0497 7.36871 14.1154C7.12946 14.2466 6.89022 14.3451 6.65098 14.4764C6.45959 14.6077 6.12465 14.5749 5.9811 14.4436C5.78971 14.3123 5.83756 14.0825 6.02895 13.9841C6.26819 13.8528 6.55528 13.6887 6.84237 13.5902C7.08162 13.4917 7.36871 13.5245 7.51225 13.6887C7.5601 13.7215 7.5601 13.7871 7.5601 13.8528ZM6.84237 23.2731C6.84237 23.3387 6.79453 23.4044 6.74668 23.47C6.60313 23.6013 6.26819 23.6341 6.0768 23.5028C5.83756 23.3715 5.55047 23.2074 5.35907 23.0433C5.16768 22.912 5.16768 22.7151 5.35907 22.5838C5.55047 22.4525 5.83756 22.4525 6.02895 22.5838C6.22035 22.7151 6.45959 22.8792 6.69883 23.0105C6.79453 23.0761 6.84237 23.1746 6.84237 23.2731ZM4.92844 15.6909C4.92844 15.7565 4.88059 15.8222 4.83274 15.855C4.6892 16.0191 4.4978 16.2161 4.4021 16.3802C4.30641 16.5443 3.97147 16.6099 3.78008 16.5115C3.54083 16.4458 3.44514 16.2489 3.58868 16.0848C3.73223 15.8878 3.92362 15.6909 4.06717 15.4939C4.21071 15.3298 4.4978 15.297 4.73704 15.3955C4.83274 15.4611 4.92844 15.5924 4.92844 15.6909ZM4.44995 21.2708C4.44995 21.4021 4.35426 21.5006 4.21071 21.5663C3.97147 21.6647 3.68438 21.5991 3.58868 21.435C3.44514 21.238 3.30159 21.0083 3.20589 20.8113C3.1102 20.6472 3.25374 20.4503 3.49299 20.3846C3.73223 20.319 4.01932 20.4174 4.11501 20.5816C4.21071 20.7785 4.35426 20.9754 4.4978 21.1396C4.44995 21.1724 4.44995 21.2052 4.44995 21.2708ZM3.63653 18.1198L3.63653 18.1526C3.58868 18.3496 3.58868 18.5465 3.58868 18.7435C3.58868 18.9404 3.39729 19.0717 3.1102 19.0717C2.82311 19.0717 2.63171 18.9404 2.63171 18.7435C2.63171 18.5137 2.63171 18.2839 2.67956 18.087C2.72741 17.9229 2.96665 17.7916 3.20589 17.7916C3.44514 17.7916 3.63653 17.9557 3.63653 18.1198Z" fill="#FFBFCD"/>
<path d="M13.8761 26.7851L13.8761 28.7545C14.211 28.7545 14.4981 28.7217 14.8331 28.7217L14.8331 26.7523C14.4981 26.7523 14.211 26.7851 13.8761 26.7851Z" fill="#F48BA2"/>
<path d="M11.4836 26.7195L11.4836 28.6889C11.8186 28.7217 12.1057 28.7217 12.4406 28.7545L12.4406 26.7851C12.1057 26.7523 11.8186 26.7523 11.4836 26.7195Z" fill="#F48BA2"/>
<path d="M16.2686 26.6211L16.2686 28.5905C16.6035 28.5577 16.8906 28.492 17.2255 28.4264L17.2255 26.457C16.8906 26.5226 16.6035 26.5554 16.2686 26.6211Z" fill="#F48BA2"/>
<path d="M18.6609 26.1615L18.6609 28.1309C18.9958 28.0324 19.2829 27.9668 19.6179 27.8683L19.6179 25.8989C19.2829 25.9645 18.9958 26.063 18.6609 26.1615Z" fill="#F48BA2"/>
<path d="M9.09131 26.3585L9.09131 28.3279C9.42625 28.3935 9.71334 28.4592 10.0483 28.492L10.0483 26.5226C9.71334 26.4897 9.42625 26.4241 9.09131 26.3585Z" fill="#F48BA2"/>
<path d="M6.69885 25.702L6.69885 27.6714C7.03379 27.7699 7.32088 27.8683 7.65582 27.9668L7.65582 25.9974C7.32088 25.9318 7.03379 25.8333 6.69885 25.702Z" fill="#F48BA2"/>
<path d="M3.82788 24.3889L3.82788 26.3583C4.11497 26.5553 4.44991 26.7194 4.78485 26.8835L4.78485 24.9141C4.44991 24.75 4.11497 24.5531 3.82788 24.3889Z" fill="#F48BA2"/>
<path d="M1.43555 22.3539L1.43555 24.3233C1.72264 24.6515 2.05758 24.9798 2.39252 25.2752L2.39252 23.3058C2.05758 23.0104 1.72264 22.715 1.43555 22.3539Z" fill="#F48BA2"/>
<path d="M21.5319 25.144L21.5319 27.1134C21.8668 26.9493 22.2017 26.7851 22.4888 26.621L22.4888 24.6516C22.2017 24.8157 21.8668 24.9799 21.5319 25.144Z" fill="#F48BA2"/>
<path d="M23.9243 25.702C24.2593 25.4394 24.5942 25.1768 24.8813 24.8814L24.8813 22.912C24.5942 23.2074 24.2593 23.47 23.9243 23.7325L23.9243 25.702Z" fill="#F48BA2"/>
<path d="M15.8763 18.2518L15.8763 19.542L17.2255 19.542L17.2255 20.5517L15.8763 20.5517L15.8763 21.3731L14.6906 21.3731L14.6906 20.5517L14.0656 20.5517L14.0656 21.3731L12.8799 21.3731L12.8799 20.5517L8.72119 20.5517L8.72119 18.3199C8.72119 17.6762 8.96651 17.162 9.45714 16.7773C9.94388 16.3927 10.5922 16.2004 11.4022 16.2004C12.2277 16.2004 12.876 16.3833 13.3472 16.7493C13.8144 17.1152 14.0539 17.6241 14.0656 18.2759L14.0656 19.542L14.6906 19.542L14.6906 18.2518L15.8763 18.2518ZM12.8799 19.542L12.8799 18.336C12.8799 17.9727 12.7572 17.6949 12.5119 17.5026C12.2666 17.3102 11.9006 17.2141 11.4138 17.2141C10.9777 17.2141 10.6214 17.3089 10.345 17.4986C10.0685 17.6855 9.92441 17.9446 9.91273 18.2759L9.91273 19.542L12.8799 19.542Z" fill="#F48BA2"/>
<path d="M26.7951 16.6219C26.7951 21.0531 20.8141 24.6637 13.3976 24.6637C5.98105 24.6637 -2.30067e-07 21.0531 -5.12423e-07 16.6219C-7.94778e-07 12.1908 5.98105 8.58021 13.3976 8.58021C20.8141 8.58021 26.7951 12.1908 26.7951 16.6219Z" fill="white"/>
<path d="M13.3976 24.6636C6.55523 24.6636 0.90912 21.5782 0.0956963 17.6066C0.0478479 17.9348 -5.33338e-07 18.2631 -5.12423e-07 18.5913C-2.30067e-07 23.0225 5.98105 26.633 13.3976 26.633C20.8141 26.633 26.7951 23.0225 26.7951 18.5913C26.7951 18.2631 26.7473 17.9348 26.6994 17.6066C25.886 21.5782 20.2399 24.6636 13.3976 24.6636Z" fill="#FFBFCD"/>
<path d="M24.1635 16.5892C24.1635 16.8517 24.1635 17.0815 24.1157 17.3113C24.0678 17.4754 23.8286 17.6067 23.5893 17.6067C23.3501 17.5739 23.1587 17.4097 23.1587 17.2456C23.2065 17.0487 23.2065 16.8517 23.2065 16.622C23.2065 16.425 23.3979 16.2937 23.685 16.2937C23.9721 16.2937 24.1635 16.425 24.1635 16.5892ZM23.6372 14.6854C23.6372 14.8167 23.5415 14.948 23.3501 14.9808C23.1108 15.0465 22.8237 14.948 22.728 14.7839C22.6324 14.5869 22.4888 14.39 22.3453 14.2259C22.2017 14.0618 22.2974 13.8648 22.5367 13.7992C22.7759 13.7007 23.063 13.7663 23.1587 13.9305C23.3022 14.1274 23.4458 14.3572 23.5415 14.5541C23.6372 14.6197 23.6372 14.6526 23.6372 14.6854ZM23.3022 19.1166C23.3022 19.1822 23.3022 19.215 23.2544 19.2807C23.1108 19.4776 22.9194 19.6745 22.7759 19.8715C22.6324 20.0356 22.3453 20.0684 22.106 19.97C21.8668 19.8715 21.8189 19.6745 21.9625 19.5104C22.106 19.3463 22.2974 19.1494 22.3931 18.9853C22.5367 18.8211 22.8237 18.7555 23.0151 18.854C23.2065 18.8868 23.3022 19.0181 23.3022 19.1166ZM21.5797 12.5191C21.5797 12.6175 21.5318 12.6832 21.4361 12.7488C21.2447 12.8801 20.9577 12.8801 20.7663 12.7488C20.5749 12.6175 20.3356 12.4534 20.0964 12.3221C19.905 12.2236 19.8571 11.9939 20.0485 11.8626C20.2399 11.7313 20.527 11.6985 20.7184 11.8298C20.9577 11.9611 21.2447 12.1252 21.4361 12.2893C21.5318 12.3549 21.5797 12.4534 21.5797 12.5191ZM20.9098 21.1188C20.9098 21.2172 20.862 21.3157 20.7184 21.3814C20.4792 21.5127 20.1921 21.6768 19.905 21.7752C19.6658 21.8737 19.3787 21.8409 19.2351 21.6768C19.0916 21.5127 19.1394 21.3157 19.3787 21.2172C19.6179 21.086 19.8571 20.9875 20.0964 20.8562C20.2878 20.7249 20.6227 20.7577 20.7663 20.889C20.862 20.9875 20.9098 21.0531 20.9098 21.1188ZM18.4695 11.0748C18.4695 11.1076 18.4695 11.1733 18.4217 11.2061C18.326 11.3702 18.0389 11.4359 17.7997 11.3702C17.5126 11.2718 17.2255 11.2061 16.9384 11.1405C16.6991 11.0748 16.5556 10.9107 16.6513 10.7138C16.747 10.5497 16.9862 10.4512 17.2733 10.5168C17.6083 10.5825 17.8954 10.6809 18.1824 10.7466C18.3738 10.8451 18.4695 10.9435 18.4695 11.0748ZM17.6083 22.3989C17.6083 22.5302 17.4647 22.6615 17.2733 22.6943C16.9862 22.7599 16.6513 22.8256 16.3164 22.8912C16.0771 22.9241 15.79 22.8256 15.7422 22.6615C15.6943 22.4974 15.8379 22.3004 16.0771 22.2676C16.3642 22.2019 16.6513 22.1691 16.9384 22.1035C17.1776 22.0378 17.4647 22.1363 17.5604 22.3004C17.6083 22.3004 17.6083 22.3332 17.6083 22.3989ZM14.7852 10.4512C14.7852 10.484 14.7852 10.484 14.7852 10.4512C14.7852 10.6481 14.546 10.7794 14.2589 10.7794C13.9718 10.7794 13.6847 10.7466 13.3976 10.7466C13.1105 10.7466 12.9191 10.6153 12.9191 10.4184C12.9191 10.2214 13.1105 10.0901 13.3976 10.0901C13.7325 10.0901 14.0196 10.0901 14.3546 10.1229C14.5938 10.1558 14.7852 10.2871 14.7852 10.4512ZM13.8761 22.7928C13.8761 22.9897 13.6847 23.121 13.3976 23.121C13.0627 23.121 12.7277 23.121 12.4406 23.0882C12.2014 23.0882 11.9622 22.9241 12.01 22.7271C12.01 22.5302 12.2492 22.3989 12.5363 22.4317C12.8234 22.4317 13.1584 22.4645 13.4455 22.4645C13.6847 22.4645 13.8761 22.6287 13.8761 22.7928ZM11.0052 10.6809C11.0052 10.8122 10.8616 10.9764 10.6224 11.0092C10.3353 11.0748 10.0482 11.1076 9.76113 11.1733C9.52189 11.2389 9.23479 11.1405 9.1391 10.9764C9.0434 10.8122 9.18695 10.6153 9.42619 10.5497C9.71328 10.484 10.0482 10.4184 10.3832 10.3527C10.6224 10.3199 10.9095 10.4184 10.9573 10.5825C11.0052 10.6153 11.0052 10.6481 11.0052 10.6809ZM10.1439 22.3989C10.1439 22.4317 10.1439 22.4645 10.0961 22.4974C10.0004 22.6615 9.76113 22.7599 9.47404 22.6943C9.18695 22.6287 8.85201 22.5302 8.56492 22.4645C8.32568 22.3989 8.22998 22.2019 8.32568 22.0378C8.42137 21.8737 8.70846 21.8081 8.94771 21.8737C9.2348 21.9722 9.52189 22.0378 9.80898 22.1035C10.0482 22.1363 10.1439 22.2676 10.1439 22.3989ZM7.5601 11.7313C7.5601 11.8298 7.4644 11.9282 7.36871 11.9939C7.12946 12.1252 6.89022 12.2236 6.65098 12.3549C6.45959 12.4862 6.12465 12.4534 5.9811 12.3221C5.78971 12.1908 5.83756 11.9611 6.02895 11.8626C6.26819 11.7313 6.55528 11.5672 6.84237 11.4687C7.08162 11.3702 7.36871 11.4031 7.51225 11.5672C7.5601 11.6 7.5601 11.6656 7.5601 11.7313ZM6.84237 21.1516C6.84237 21.2172 6.79453 21.2829 6.74668 21.3485C6.60313 21.4798 6.26819 21.5127 6.0768 21.3814C5.83756 21.2501 5.55047 21.086 5.35907 20.9218C5.16768 20.7905 5.16768 20.5936 5.35907 20.4623C5.55047 20.331 5.83756 20.331 6.02895 20.4623C6.22035 20.5936 6.45959 20.7577 6.69883 20.889C6.79453 20.9547 6.84237 21.0531 6.84237 21.1516ZM4.92844 13.5694C4.92844 13.635 4.88059 13.7007 4.83274 13.7335C4.6892 13.8976 4.4978 14.0946 4.4021 14.2587C4.30641 14.4228 3.97147 14.4885 3.78008 14.39C3.54083 14.3243 3.44514 14.1274 3.58868 13.9633C3.73223 13.7663 3.92362 13.5694 4.06717 13.3725C4.21071 13.2083 4.4978 13.1755 4.73704 13.274C4.83274 13.3396 4.92844 13.4709 4.92844 13.5694ZM4.44995 19.1494C4.44995 19.2807 4.35426 19.3791 4.21071 19.4448C3.97147 19.5433 3.68438 19.4776 3.58868 19.3135C3.44514 19.1166 3.30159 18.8868 3.20589 18.6898C3.1102 18.5257 3.25374 18.3288 3.49299 18.2631C3.73223 18.1975 4.01932 18.296 4.11501 18.4601C4.21071 18.657 4.35426 18.854 4.4978 19.0181C4.44995 19.0509 4.44995 19.0837 4.44995 19.1494ZM3.63653 15.9983L3.63653 16.0312C3.58868 16.2281 3.58868 16.425 3.58868 16.622C3.58868 16.8189 3.39729 16.9502 3.1102 16.9502C2.82311 16.9502 2.63171 16.8189 2.63171 16.622C2.63171 16.3922 2.63171 16.1624 2.67956 15.9655C2.72741 15.8014 2.96665 15.6701 3.20589 15.6701C3.44514 15.6701 3.63653 15.8342 3.63653 15.9983Z" fill="#FFBFCD"/>
<path d="M13.8761 24.6637L13.8761 26.6331C14.211 26.6331 14.4981 26.6003 14.8331 26.6003L14.8331 24.6309C14.4981 24.6309 14.211 24.6637 13.8761 24.6637Z" fill="#F48BA2"/>
<path d="M11.4836 24.598L11.4836 26.5674C11.8186 26.6003 12.1057 26.6003 12.4406 26.6331L12.4406 24.6637C12.1057 24.6309 11.8186 24.6309 11.4836 24.598Z" fill="#F48BA2"/>
<path d="M16.2686 24.4996L16.2686 26.469C16.6035 26.4362 16.8906 26.3705 17.2255 26.3049L17.2255 24.3355C16.8906 24.4011 16.6035 24.434 16.2686 24.4996Z" fill="#F48BA2"/>
<path d="M18.6609 24.0401L18.6609 26.0095C18.9958 25.9111 19.2829 25.8454 19.6179 25.7469L19.6179 23.7775C19.2829 23.8432 18.9958 23.9416 18.6609 24.0401Z" fill="#F48BA2"/>
<path d="M9.09131 24.2371L9.09131 26.2065C9.42625 26.2722 9.71334 26.3378 10.0483 26.3706L10.0483 24.4012C9.71334 24.3684 9.42625 24.3027 9.09131 24.2371Z" fill="#F48BA2"/>
<path d="M6.69885 23.5805L6.69885 25.5499C7.03379 25.6484 7.32088 25.7469 7.65582 25.8453L7.65582 23.8759C7.32088 23.8103 7.03379 23.7118 6.69885 23.5805Z" fill="#F48BA2"/>
<path d="M3.82788 22.2676L3.82788 24.237C4.11497 24.4339 4.44991 24.598 4.78485 24.7622L4.78485 22.7928C4.44991 22.6286 4.11497 22.4317 3.82788 22.2676Z" fill="#F48BA2"/>
<path d="M1.43555 20.2326L1.43555 22.202C1.72264 22.5302 2.05758 22.8584 2.39252 23.1538L2.39252 21.1844C2.05758 20.889 1.72264 20.5936 1.43555 20.2326Z" fill="#F48BA2"/>
<path d="M21.5319 23.0226L21.5319 24.992C21.8668 24.8279 22.2017 24.6638 22.4888 24.4997L22.4888 22.5303C22.2017 22.6944 21.8668 22.8585 21.5319 23.0226Z" fill="#F48BA2"/>
<path d="M23.9243 23.5805C24.2593 23.3179 24.5942 23.0553 24.8813 22.7599L24.8813 20.7905C24.5942 21.0859 24.2593 21.3485 23.9243 21.6111L23.9243 23.5805Z" fill="#F48BA2"/>
<path d="M15.8763 16.1305L15.8763 17.4206L17.2255 17.4206L17.2255 18.4303L15.8763 18.4303L15.8763 19.2517L14.6906 19.2517L14.6906 18.4303L14.0656 18.4303L14.0656 19.2517L12.8799 19.2517L12.8799 18.4303L8.72119 18.4303L8.72119 16.1986C8.72119 15.5548 8.96651 15.0406 9.45714 14.656C9.94388 14.2713 10.5922 14.079 11.4022 14.079C12.2277 14.079 12.876 14.262 13.3472 14.6279C13.8144 14.9939 14.0539 15.5027 14.0656 16.1545L14.0656 17.4206L14.6906 17.4206L14.6906 16.1305L15.8763 16.1305ZM12.8799 17.4206L12.8799 16.2146C12.8799 15.8513 12.7572 15.5735 12.5119 15.3812C12.2666 15.1889 11.9006 15.0927 11.4138 15.0927C10.9777 15.0927 10.6214 15.1875 10.345 15.3772C10.0685 15.5642 9.92441 15.8233 9.91273 16.1545L9.91273 17.4206L12.8799 17.4206Z" fill="#F48BA2"/>
<path d="M26.7951 14.4918C26.7951 18.923 20.8141 22.5335 13.3976 22.5335C5.98105 22.5335 -2.30067e-07 18.923 -5.12423e-07 14.4918C-7.94778e-07 10.0606 5.98105 6.45007 13.3976 6.45007C20.8141 6.45007 26.7951 10.0606 26.7951 14.4918Z" fill="white"/>
<path d="M13.3976 22.5335C6.55523 22.5335 0.90912 19.4481 0.0956963 15.4765C0.0478479 15.8047 -5.33338e-07 16.1329 -5.12423e-07 16.4612C-2.30067e-07 20.8923 5.98105 24.5029 13.3976 24.5029C20.8141 24.5029 26.7951 20.8923 26.7951 16.4612C26.7951 16.1329 26.7473 15.8047 26.6994 15.4765C25.886 19.4481 20.2399 22.5335 13.3976 22.5335Z" fill="#FFBFCD"/>
<path d="M24.1635 14.459C24.1635 14.7216 24.1635 14.9514 24.1157 15.1811C24.0678 15.3453 23.8286 15.4765 23.5893 15.4765C23.3501 15.4437 23.1587 15.2796 23.1587 15.1155C23.2065 14.9186 23.2065 14.7216 23.2065 14.4918C23.2065 14.2949 23.3979 14.1636 23.685 14.1636C23.9721 14.1636 24.1635 14.2949 24.1635 14.459ZM23.6372 12.5553C23.6372 12.6866 23.5415 12.8179 23.3501 12.8507C23.1108 12.9163 22.8237 12.8179 22.728 12.6537C22.6324 12.4568 22.4888 12.2599 22.3453 12.0957C22.2017 11.9316 22.2974 11.7347 22.5367 11.669C22.7759 11.5706 23.063 11.6362 23.1587 11.8003C23.3022 11.9973 23.4458 12.227 23.5415 12.424C23.6372 12.4896 23.6372 12.5224 23.6372 12.5553ZM23.3022 16.9864C23.3022 17.0521 23.3022 17.0849 23.2544 17.1505C23.1108 17.3475 22.9194 17.5444 22.7759 17.7414C22.6324 17.9055 22.3453 17.9383 22.106 17.8398C21.8668 17.7414 21.8189 17.5444 21.9625 17.3803C22.106 17.2162 22.2974 17.0192 22.3931 16.8551C22.5367 16.691 22.8237 16.6254 23.0151 16.7238C23.2065 16.7567 23.3022 16.888 23.3022 16.9864ZM21.5797 10.3889C21.5797 10.4874 21.5318 10.553 21.4361 10.6187C21.2447 10.75 20.9577 10.75 20.7663 10.6187C20.5749 10.4874 20.3356 10.3233 20.0964 10.192C19.905 10.0935 19.8571 9.86375 20.0485 9.73246C20.2399 9.60117 20.527 9.56834 20.7184 9.69964C20.9577 9.83093 21.2447 9.99505 21.4361 10.1592C21.5318 10.2248 21.5797 10.3233 21.5797 10.3889ZM20.9098 18.9886C20.9098 19.0871 20.862 19.1856 20.7184 19.2512C20.4792 19.3825 20.1921 19.5466 19.905 19.6451C19.6658 19.7436 19.3787 19.7108 19.2351 19.5466C19.0916 19.3825 19.1394 19.1856 19.3787 19.0871C19.6179 18.9558 19.8571 18.8574 20.0964 18.7261C20.2878 18.5948 20.6227 18.6276 20.7663 18.7589C20.862 18.8574 20.9098 18.923 20.9098 18.9886ZM18.4695 8.9447C18.4695 8.97752 18.4695 9.04317 18.4217 9.07599C18.326 9.24011 18.0389 9.30576 17.7997 9.24011C17.5126 9.14164 17.2255 9.07599 16.9384 9.01035C16.6991 8.9447 16.5556 8.78058 16.6513 8.58364C16.747 8.41952 16.9862 8.32105 17.2733 8.3867C17.6083 8.45235 17.8954 8.55082 18.1824 8.61646C18.3738 8.71493 18.4695 8.8134 18.4695 8.9447ZM17.6083 20.2688C17.6083 20.4001 17.4647 20.5313 17.2733 20.5642C16.9862 20.6298 16.6513 20.6955 16.3164 20.7611C16.0771 20.7939 15.79 20.6955 15.7422 20.5313C15.6943 20.3672 15.8379 20.1703 16.0771 20.1375C16.3642 20.0718 16.6513 20.039 16.9384 19.9734C17.1776 19.9077 17.4647 20.0062 17.5604 20.1703C17.6083 20.1703 17.6083 20.2031 17.6083 20.2688ZM14.7852 8.32106C14.7852 8.35388 14.7852 8.35388 14.7852 8.32106C14.7852 8.518 14.546 8.64929 14.2589 8.64929C13.9718 8.64929 13.6847 8.61646 13.3976 8.61646C13.1105 8.61646 12.9191 8.48517 12.9191 8.28823C12.9191 8.09129 13.1105 7.96 13.3976 7.96C13.7325 7.96 14.0196 7.96 14.3546 7.99282C14.5938 8.02564 14.7852 8.15694 14.7852 8.32106ZM13.8761 20.6626C13.8761 20.8596 13.6847 20.9909 13.3976 20.9909C13.0627 20.9909 12.7277 20.9909 12.4406 20.9581C12.2014 20.9581 11.9622 20.7939 12.01 20.597C12.01 20.4001 12.2492 20.2688 12.5363 20.3016C12.8234 20.3016 13.1584 20.3344 13.4455 20.3344C13.6847 20.3344 13.8761 20.4985 13.8761 20.6626ZM11.0052 8.55082C11.0052 8.68211 10.8616 8.84623 10.6224 8.87905C10.3353 8.9447 10.0482 8.97752 9.76113 9.04317C9.52189 9.10882 9.23479 9.01035 9.1391 8.84623C9.0434 8.68211 9.18695 8.48517 9.42619 8.41952C9.71328 8.35388 10.0482 8.28823 10.3832 8.22259C10.6224 8.18976 10.9095 8.28823 10.9573 8.45235C11.0052 8.48517 11.0052 8.518 11.0052 8.55082ZM10.1439 20.2688C10.1439 20.3016 10.1439 20.3344 10.0961 20.3672C10.0004 20.5313 9.76113 20.6298 9.47404 20.5642C9.18695 20.4985 8.85201 20.4001 8.56492 20.3344C8.32568 20.2688 8.22998 20.0718 8.32568 19.9077C8.42137 19.7436 8.70846 19.6779 8.94771 19.7436C9.2348 19.8421 9.52189 19.9077 9.80898 19.9734C10.0482 20.0062 10.1439 20.1375 10.1439 20.2688ZM7.5601 9.60117C7.5601 9.69964 7.4644 9.79811 7.36871 9.86375C7.12946 9.99505 6.89022 10.0935 6.65098 10.2248C6.45959 10.3561 6.12465 10.3233 5.9811 10.192C5.78971 10.0607 5.83756 9.83093 6.02895 9.73246C6.26819 9.60117 6.55528 9.43705 6.84237 9.33858C7.08162 9.24011 7.36871 9.27293 7.51225 9.43705C7.5601 9.46987 7.5601 9.53552 7.5601 9.60117ZM6.84237 19.0215C6.84237 19.0871 6.79453 19.1528 6.74668 19.2184C6.60313 19.3497 6.26819 19.3825 6.0768 19.2512C5.83756 19.1199 5.55047 18.9558 5.35907 18.7917C5.16768 18.6604 5.16768 18.4635 5.35907 18.3322C5.55047 18.2009 5.83756 18.2009 6.02895 18.3322C6.22035 18.4635 6.45959 18.6276 6.69883 18.7589C6.79453 18.8245 6.84237 18.923 6.84237 19.0215ZM4.92844 11.4393C4.92844 11.5049 4.88059 11.5706 4.83274 11.6034C4.6892 11.7675 4.4978 11.9644 4.4021 12.1286C4.30641 12.2927 3.97147 12.3583 3.78008 12.2599C3.54083 12.1942 3.44514 11.9973 3.58868 11.8332C3.73223 11.6362 3.92362 11.4393 4.06717 11.2423C4.21071 11.0782 4.4978 11.0454 4.73704 11.1439C4.83274 11.2095 4.92844 11.3408 4.92844 11.4393ZM4.44995 17.0192C4.44995 17.1505 4.35426 17.249 4.21071 17.3147C3.97147 17.4131 3.68438 17.3475 3.58868 17.1834C3.44514 16.9864 3.30159 16.7567 3.20589 16.5597C3.1102 16.3956 3.25374 16.1987 3.49299 16.133C3.73223 16.0674 4.01932 16.1658 4.11501 16.33C4.21071 16.5269 4.35426 16.7238 4.4978 16.888C4.44995 16.9208 4.44995 16.9536 4.44995 17.0192ZM3.63653 13.8682L3.63653 13.901C3.58868 14.098 3.58868 14.2949 3.58868 14.4918C3.58868 14.6888 3.39729 14.8201 3.1102 14.8201C2.82311 14.8201 2.63171 14.6888 2.63171 14.4918C2.63171 14.2621 2.63171 14.0323 2.67956 13.8354C2.72741 13.6713 2.96665 13.54 3.20589 13.54C3.44514 13.54 3.63653 13.7041 3.63653 13.8682Z" fill="#FFBFCD"/>
<path d="M13.8761 22.5336L13.8761 24.503C14.211 24.503 14.4981 24.4701 14.8331 24.4701L14.8331 22.5007C14.4981 22.5007 14.211 22.5336 13.8761 22.5336Z" fill="#F48BA2"/>
<path d="M11.4836 22.4679L11.4836 24.4373C11.8186 24.4701 12.1057 24.4701 12.4406 24.503L12.4406 22.5336C12.1057 22.5007 11.8186 22.5007 11.4836 22.4679Z" fill="#F48BA2"/>
<path d="M16.2686 22.3696L16.2686 24.339C16.6035 24.3062 16.8906 24.2405 17.2255 24.1749L17.2255 22.2055C16.8906 22.2711 16.6035 22.304 16.2686 22.3696Z" fill="#F48BA2"/>
<path d="M18.6609 21.9099L18.6609 23.8793C18.9958 23.7808 19.2829 23.7152 19.6179 23.6167L19.6179 21.6473C19.2829 21.7129 18.9958 21.8114 18.6609 21.9099Z" fill="#F48BA2"/>
<path d="M9.09131 22.1069L9.09131 24.0763C9.42625 24.1419 9.71334 24.2075 10.0483 24.2404L10.0483 22.271C9.71334 22.2381 9.42625 22.1725 9.09131 22.1069Z" fill="#F48BA2"/>
<path d="M6.69885 21.4504L6.69885 23.4198C7.03379 23.5183 7.32088 23.6167 7.65582 23.7152L7.65582 21.7458C7.32088 21.6801 7.03379 21.5817 6.69885 21.4504Z" fill="#F48BA2"/>
<path d="M3.82788 20.1375L3.82788 22.1069C4.11497 22.3038 4.44991 22.4679 4.78485 22.632L4.78485 20.6626C4.44991 20.4985 4.11497 20.3016 3.82788 20.1375Z" fill="#F48BA2"/>
<path d="M1.43555 18.1024L1.43555 20.0718C1.72264 20.4001 2.05758 20.7283 2.39252 21.0237L2.39252 19.0543C2.05758 18.7589 1.72264 18.4635 1.43555 18.1024Z" fill="#F48BA2"/>
<path d="M21.5319 20.8924L21.5319 22.8618C21.8668 22.6977 22.2017 22.5336 22.4888 22.3694L22.4888 20.4C22.2017 20.5641 21.8668 20.7283 21.5319 20.8924Z" fill="#F48BA2"/>
<path d="M23.9243 21.4505C24.2593 21.1879 24.5942 20.9253 24.8813 20.6299L24.8813 18.6605C24.5942 18.9559 24.2593 19.2185 23.9243 19.4811L23.9243 21.4505Z" fill="#F48BA2"/>
<path d="M15.8763 14.0003L15.8763 15.2905L17.2255 15.2905L17.2255 16.3002L15.8763 16.3002L15.8763 17.1216L14.6906 17.1216L14.6906 16.3002L14.0656 16.3002L14.0656 17.1216L12.8799 17.1216L12.8799 16.3002L8.72119 16.3002L8.72119 14.0684C8.72119 13.4247 8.96651 12.9105 9.45714 12.5258C9.94388 12.1412 10.5922 11.9489 11.4022 11.9489C12.2277 11.9489 12.876 12.1318 13.3472 12.4978C13.8144 12.8637 14.0539 13.3726 14.0656 14.0244L14.0656 15.2905L14.6906 15.2905L14.6906 14.0003L15.8763 14.0003ZM12.8799 15.2905L12.8799 14.0845C12.8799 13.7212 12.7572 13.4434 12.5119 13.2511C12.2666 13.0587 11.9006 12.9626 11.4138 12.9626C10.9777 12.9626 10.6214 13.0574 10.345 13.2471C10.0685 13.434 9.92441 13.6931 9.91273 14.0244L9.91273 15.2905L12.8799 15.2905Z" fill="#F48BA2"/>
<path d="M26.7951 12.3702C26.7951 16.8014 20.8141 20.412 13.3976 20.412C5.98105 20.412 -2.30067e-07 16.8014 -5.12423e-07 12.3702C-7.94778e-07 7.93907 5.98105 4.3285 13.3976 4.3285C20.8141 4.3285 26.7951 7.93907 26.7951 12.3702Z" fill="white"/>
<path d="M13.3976 20.412C6.55523 20.412 0.90912 17.3266 0.0956963 13.355C0.0478479 13.6832 -5.33338e-07 14.0114 -5.12423e-07 14.3397C-2.30067e-07 18.7708 5.98105 22.3814 13.3976 22.3814C20.8141 22.3814 26.7951 18.7708 26.7951 14.3397C26.7951 14.0114 26.7473 13.6832 26.6994 13.355C25.886 17.3266 20.2399 20.412 13.3976 20.412Z" fill="#FFBFCD"/>
<path d="M24.1635 12.3375C24.1635 12.6 24.1635 12.8298 24.1157 13.0596C24.0678 13.2237 23.8286 13.355 23.5893 13.355C23.3501 13.3222 23.1587 13.158 23.1587 12.9939C23.2065 12.797 23.2065 12.6 23.2065 12.3703C23.2065 12.1733 23.3979 12.042 23.685 12.042C23.9721 12.042 24.1635 12.1733 24.1635 12.3375ZM23.6372 10.4337C23.6372 10.565 23.5415 10.6963 23.3501 10.7291C23.1108 10.7948 22.8237 10.6963 22.728 10.5322C22.6324 10.3352 22.4888 10.1383 22.3453 9.97418C22.2017 9.81006 22.2974 9.61312 22.5367 9.54747C22.7759 9.449 23.063 9.51465 23.1587 9.67876C23.3022 9.87571 23.4458 10.1055 23.5415 10.3024C23.6372 10.3681 23.6372 10.4009 23.6372 10.4337ZM23.3022 14.8649C23.3022 14.9305 23.3022 14.9633 23.2544 15.029C23.1108 15.2259 22.9194 15.4229 22.7759 15.6198C22.6324 15.7839 22.3453 15.8167 22.106 15.7183C21.8668 15.6198 21.8189 15.4229 21.9625 15.2587C22.106 15.0946 22.2974 14.8977 22.3931 14.7336C22.5367 14.5694 22.8237 14.5038 23.0151 14.6023C23.2065 14.6351 23.3022 14.7664 23.3022 14.8649ZM21.5797 8.26736C21.5797 8.36583 21.5318 8.43148 21.4361 8.49712C21.2447 8.62842 20.9577 8.62842 20.7663 8.49712C20.5749 8.36583 20.3356 8.20171 20.0964 8.07042C19.905 7.97195 19.8571 7.74219 20.0485 7.61089C20.2399 7.4796 20.527 7.44678 20.7184 7.57807C20.9577 7.70936 21.2447 7.87348 21.4361 8.0376C21.5318 8.10324 21.5797 8.20171 21.5797 8.26736ZM20.9098 16.8671C20.9098 16.9656 20.862 17.064 20.7184 17.1297C20.4792 17.261 20.1921 17.4251 19.905 17.5235C19.6658 17.622 19.3787 17.5892 19.2351 17.4251C19.0916 17.261 19.1394 17.064 19.3787 16.9656C19.6179 16.8343 19.8571 16.7358 20.0964 16.6045C20.2878 16.4732 20.6227 16.506 20.7663 16.6373C20.862 16.7358 20.9098 16.8014 20.9098 16.8671ZM18.4695 6.82313C18.4695 6.85595 18.4695 6.9216 18.4217 6.95443C18.326 7.11854 18.0389 7.18419 17.7997 7.11854C17.5126 7.02007 17.2255 6.95443 16.9384 6.88878C16.6991 6.82313 16.5556 6.65902 16.6513 6.46207C16.747 6.29796 16.9862 6.19949 17.2733 6.26514C17.6083 6.33078 17.8954 6.42925 18.1824 6.4949C18.3738 6.59337 18.4695 6.69184 18.4695 6.82313ZM17.6083 18.1472C17.6083 18.2785 17.4647 18.4098 17.2733 18.4426C16.9862 18.5083 16.6513 18.5739 16.3164 18.6395C16.0771 18.6724 15.79 18.5739 15.7422 18.4098C15.6943 18.2457 15.8379 18.0487 16.0771 18.0159C16.3642 17.9503 16.6513 17.9174 16.9384 17.8518C17.1776 17.7861 17.4647 17.8846 17.5604 18.0487C17.6083 18.0487 17.6083 18.0815 17.6083 18.1472ZM14.7852 6.19949C14.7852 6.23231 14.7852 6.23231 14.7852 6.19949C14.7852 6.39643 14.546 6.52772 14.2589 6.52772C13.9718 6.52772 13.6847 6.4949 13.3976 6.4949C13.1105 6.4949 12.9191 6.3636 12.9191 6.16666C12.9191 5.96972 13.1105 5.83843 13.3976 5.83843C13.7325 5.83843 14.0196 5.83843 14.3546 5.87125C14.5938 5.90408 14.7852 6.03537 14.7852 6.19949ZM13.8761 18.5411C13.8761 18.738 13.6847 18.8693 13.3976 18.8693C13.0627 18.8693 12.7277 18.8693 12.4406 18.8365C12.2014 18.8365 11.9622 18.6724 12.01 18.4754C12.01 18.2785 12.2492 18.1472 12.5363 18.18C12.8234 18.18 13.1584 18.2128 13.4455 18.2128C13.6847 18.2128 13.8761 18.377 13.8761 18.5411ZM11.0052 6.42925C11.0052 6.56055 10.8616 6.72466 10.6224 6.75749C10.3353 6.82313 10.0482 6.85596 9.76113 6.9216C9.52189 6.98725 9.23479 6.88878 9.1391 6.72466C9.0434 6.56054 9.18695 6.36361 9.42619 6.29796C9.71328 6.23231 10.0482 6.16666 10.3832 6.10102C10.6224 6.0682 10.9095 6.16666 10.9573 6.33078C11.0052 6.3636 11.0052 6.39643 11.0052 6.42925ZM10.1439 18.1472C10.1439 18.18 10.1439 18.2128 10.0961 18.2457C10.0004 18.4098 9.76113 18.5083 9.47404 18.4426C9.18695 18.377 8.85201 18.2785 8.56492 18.2128C8.32568 18.1472 8.22998 17.9503 8.32568 17.7861C8.42137 17.622 8.70846 17.5564 8.94771 17.622C9.2348 17.7205 9.52189 17.7861 9.80898 17.8518C10.0482 17.8846 10.1439 18.0159 10.1439 18.1472ZM7.5601 7.4796C7.5601 7.57807 7.4644 7.67654 7.36871 7.74219C7.12946 7.87348 6.89022 7.97195 6.65098 8.10324C6.45959 8.23454 6.12465 8.20171 5.9811 8.07042C5.78971 7.93913 5.83756 7.70936 6.02895 7.61089C6.26819 7.4796 6.55528 7.31548 6.84237 7.21701C7.08162 7.11854 7.36871 7.15137 7.51225 7.31548C7.5601 7.34831 7.5601 7.41395 7.5601 7.4796ZM6.84237 16.8999C6.84237 16.9656 6.79453 17.0312 6.74668 17.0968C6.60313 17.2281 6.26819 17.261 6.0768 17.1297C5.83756 16.9984 5.55047 16.8343 5.35907 16.6701C5.16768 16.5388 5.16768 16.3419 5.35907 16.2106C5.55047 16.0793 5.83756 16.0793 6.02895 16.2106C6.22035 16.3419 6.45959 16.506 6.69883 16.6373C6.79453 16.703 6.84237 16.8014 6.84237 16.8999ZM4.92844 9.31771C4.92844 9.38336 4.88059 9.449 4.83274 9.48183C4.6892 9.64594 4.4978 9.84288 4.4021 10.007C4.30641 10.1711 3.97147 10.2368 3.78008 10.1383C3.54083 10.0726 3.44514 9.87571 3.58868 9.71159C3.73223 9.51465 3.92362 9.31771 4.06717 9.12077C4.21071 8.95665 4.4978 8.92383 4.73704 9.0223C4.83274 9.08794 4.92844 9.21924 4.92844 9.31771ZM4.44995 14.8977C4.44995 15.029 4.35426 15.1274 4.21071 15.1931C3.97147 15.2916 3.68438 15.2259 3.58868 15.0618C3.44514 14.8649 3.30159 14.6351 3.20589 14.4382C3.1102 14.274 3.25374 14.0771 3.49299 14.0114C3.73223 13.9458 4.01932 14.0443 4.11501 14.2084C4.21071 14.4053 4.35426 14.6023 4.4978 14.7664C4.44995 14.7992 4.44995 14.832 4.44995 14.8977ZM3.63653 11.7466L3.63653 11.7795C3.58868 11.9764 3.58868 12.1733 3.58868 12.3703C3.58868 12.5672 3.39729 12.6985 3.1102 12.6985C2.82311 12.6985 2.63171 12.5672 2.63171 12.3703C2.63171 12.1405 2.63171 11.9108 2.67956 11.7138C2.72741 11.5497 2.96665 11.4184 3.20589 11.4184C3.44514 11.4184 3.63653 11.5825 3.63653 11.7466Z" fill="#FFBFCD"/>
<path d="M13.8761 20.412L13.8761 22.3814C14.211 22.3814 14.4981 22.3486 14.8331 22.3486L14.8331 20.3792C14.4981 20.3792 14.211 20.412 13.8761 20.412Z" fill="#F48BA2"/>
<path d="M11.4836 20.3463L11.4836 22.3157C11.8186 22.3486 12.1057 22.3486 12.4406 22.3814L12.4406 20.412C12.1057 20.3792 11.8186 20.3792 11.4836 20.3463Z" fill="#F48BA2"/>
<path d="M16.2686 20.2478L16.2686 22.2172C16.6035 22.1844 16.8906 22.1187 17.2255 22.0531L17.2255 20.0837C16.8906 20.1493 16.6035 20.1821 16.2686 20.2478Z" fill="#F48BA2"/>
<path d="M18.6609 19.7883L18.6609 21.7577C18.9958 21.6593 19.2829 21.5936 19.6179 21.4951L19.6179 19.5257C19.2829 19.5914 18.9958 19.6898 18.6609 19.7883Z" fill="#F48BA2"/>
<path d="M9.09131 19.9853L9.09131 21.9547C9.42625 22.0203 9.71334 22.086 10.0483 22.1188L10.0483 20.1494C9.71334 20.1166 9.42625 20.0509 9.09131 19.9853Z" fill="#F48BA2"/>
<path d="M6.69885 19.3288L6.69885 21.2982C7.03379 21.3967 7.32088 21.4952 7.65582 21.5936L7.65582 19.6242C7.32088 19.5586 7.03379 19.4601 6.69885 19.3288Z" fill="#F48BA2"/>
<path d="M3.82788 18.0158L3.82788 19.9852C4.11497 20.1821 4.44991 20.3462 4.78485 20.5103L4.78485 18.5409C4.44991 18.3768 4.11497 18.1799 3.82788 18.0158Z" fill="#F48BA2"/>
<path d="M1.43555 15.9809L1.43555 17.9503C1.72264 18.2785 2.05758 18.6068 2.39252 18.9022L2.39252 16.9328C2.05758 16.6373 1.72264 16.3419 1.43555 15.9809Z" fill="#F48BA2"/>
<path d="M21.5319 18.7708L21.5319 20.7402C21.8668 20.5761 22.2017 20.412 22.4888 20.2479L22.4888 18.2785C22.2017 18.4426 21.8668 18.6067 21.5319 18.7708Z" fill="#F48BA2"/>
<path d="M23.9243 19.3287C24.2593 19.0661 24.5942 18.8035 24.8813 18.5081L24.8813 16.5387C24.5942 16.8341 24.2593 17.0967 23.9243 17.3593L23.9243 19.3287Z" fill="#F48BA2"/>
<path d="M15.8763 11.8788L15.8763 13.169L17.2255 13.169L17.2255 14.1787L15.8763 14.1787L15.8763 15L14.6906 15L14.6906 14.1787L14.0656 14.1787L14.0656 15L12.8799 15L12.8799 14.1787L8.72119 14.1787L8.72119 11.9469C8.72119 11.3031 8.96651 10.7889 9.45714 10.4043C9.94388 10.0196 10.5922 9.82732 11.4022 9.82732C12.2277 9.82732 12.876 10.0103 13.3472 10.3762C13.8144 10.7422 14.0539 11.2511 14.0656 11.9028L14.0656 13.169L14.6906 13.169L14.6906 11.8788L15.8763 11.8788ZM12.8799 13.169L12.8799 11.9629C12.8799 11.5996 12.7572 11.3218 12.5119 11.1295C12.2666 10.9372 11.9006 10.841 11.4138 10.841C10.9777 10.841 10.6214 10.9359 10.345 11.1255C10.0685 11.3125 9.92441 11.5716 9.91273 11.9028L9.91273 13.169L12.8799 13.169Z" fill="#F48BA2"/>
<path d="M26.7951 10.1632C26.7951 14.5944 20.8141 18.2049 13.3976 18.2049C5.98105 18.2049 -2.30067e-07 14.5944 -5.12423e-07 10.1632C-7.94778e-07 5.73204 5.98105 2.12147 13.3976 2.12147C20.8141 2.12147 26.7951 5.73204 26.7951 10.1632Z" fill="white"/>
<path d="M13.3976 18.205C6.55523 18.205 0.90912 15.1196 0.0956963 11.148C0.0478479 11.4762 -5.33338e-07 11.8044 -5.12423e-07 12.1327C-2.30067e-07 16.5638 5.98105 20.1744 13.3976 20.1744C20.8141 20.1744 26.7951 16.5638 26.7951 12.1327C26.7951 11.8044 26.7473 11.4762 26.6994 11.148C25.886 15.1196 20.2399 18.205 13.3976 18.205Z" fill="#FFBFCD"/>
<path d="M24.1635 10.1304C24.1635 10.393 24.1635 10.6228 24.1157 10.8525C24.0678 11.0167 23.8286 11.148 23.5893 11.148C23.3501 11.1151 23.1587 10.951 23.1587 10.7869C23.2065 10.59 23.2065 10.393 23.2065 10.1632C23.2065 9.96631 23.3979 9.83502 23.685 9.83502C23.9721 9.83502 24.1635 9.96631 24.1635 10.1304ZM23.6372 8.22667C23.6372 8.35796 23.5415 8.48926 23.3501 8.52208C23.1108 8.58773 22.8237 8.48926 22.728 8.32514C22.6324 8.1282 22.4888 7.93126 22.3453 7.76714C22.2017 7.60303 22.2974 7.40609 22.5367 7.34044C22.7759 7.24197 23.063 7.30762 23.1587 7.47173C23.3022 7.66867 23.4458 7.89844 23.5415 8.09538C23.6372 8.16102 23.6372 8.19385 23.6372 8.22667ZM23.3022 12.6578C23.3022 12.7235 23.3022 12.7563 23.2544 12.8219C23.1108 13.0189 22.9194 13.2158 22.7759 13.4128C22.6324 13.5769 22.3453 13.6097 22.106 13.5112C21.8668 13.4128 21.8189 13.2158 21.9625 13.0517C22.106 12.8876 22.2974 12.6906 22.3931 12.5265C22.5367 12.3624 22.8237 12.2968 23.0151 12.3952C23.2065 12.4281 23.3022 12.5594 23.3022 12.6578ZM21.5797 6.06033C21.5797 6.1588 21.5318 6.22445 21.4361 6.29009C21.2447 6.42139 20.9577 6.42139 20.7663 6.29009C20.5749 6.1588 20.3356 5.99468 20.0964 5.86339C19.905 5.76492 19.8571 5.53515 20.0485 5.40386C20.2399 5.27257 20.527 5.23974 20.7184 5.37104C20.9577 5.50233 21.2447 5.66645 21.4361 5.83056C21.5318 5.89621 21.5797 5.99468 21.5797 6.06033ZM20.9098 14.6601C20.9098 14.7585 20.862 14.857 20.7184 14.9226C20.4792 15.0539 20.1921 15.218 19.905 15.3165C19.6658 15.415 19.3787 15.3822 19.2351 15.218C19.0916 15.0539 19.1394 14.857 19.3787 14.7585C19.6179 14.6272 19.8571 14.5288 20.0964 14.3975C20.2878 14.2662 20.6227 14.299 20.7663 14.4303C20.862 14.5288 20.9098 14.5944 20.9098 14.6601ZM18.4695 4.6161C18.4695 4.64892 18.4695 4.71457 18.4217 4.74739C18.326 4.91151 18.0389 4.97716 17.7997 4.91151C17.5126 4.81304 17.2255 4.74739 16.9384 4.68175C16.6991 4.6161 16.5556 4.45198 16.6513 4.25504C16.747 4.09093 16.9862 3.99246 17.2733 4.0581C17.6083 4.12375 17.8954 4.22222 18.1824 4.28787C18.3738 4.38634 18.4695 4.48481 18.4695 4.6161ZM17.6083 15.9402C17.6083 16.0715 17.4647 16.2027 17.2733 16.2356C16.9862 16.3012 16.6513 16.3669 16.3164 16.4325C16.0771 16.4653 15.79 16.3669 15.7422 16.2027C15.6943 16.0386 15.8379 15.8417 16.0771 15.8089C16.3642 15.7432 16.6513 15.7104 16.9384 15.6448C17.1776 15.5791 17.4647 15.6776 17.5604 15.8417C17.6083 15.8417 17.6083 15.8745 17.6083 15.9402ZM14.7852 3.99246C14.7852 4.02528 14.7852 4.02528 14.7852 3.99246C14.7852 4.1894 14.546 4.32069 14.2589 4.32069C13.9718 4.32069 13.6847 4.28787 13.3976 4.28787C13.1105 4.28787 12.9191 4.15657 12.9191 3.95963C12.9191 3.76269 13.1105 3.6314 13.3976 3.6314C13.7325 3.6314 14.0196 3.6314 14.3546 3.66422C14.5938 3.69705 14.7852 3.82834 14.7852 3.99246ZM13.8761 16.334C13.8761 16.531 13.6847 16.6623 13.3976 16.6623C13.0627 16.6623 12.7277 16.6623 12.4406 16.6295C12.2014 16.6295 11.9622 16.4653 12.01 16.2684C12.01 16.0715 12.2492 15.9402 12.5363 15.973C12.8234 15.973 13.1584 16.0058 13.4455 16.0058C13.6847 16.0058 13.8761 16.1699 13.8761 16.334ZM11.0052 4.22222C11.0052 4.35351 10.8616 4.51763 10.6224 4.55045C10.3353 4.6161 10.0482 4.64892 9.76113 4.71457C9.52189 4.78022 9.23479 4.68175 9.1391 4.51763C9.0434 4.35351 9.18695 4.15657 9.42619 4.09093C9.71328 4.02528 10.0482 3.95963 10.3832 3.89399C10.6224 3.86116 10.9095 3.95963 10.9573 4.12375C11.0052 4.15657 11.0052 4.1894 11.0052 4.22222ZM10.1439 15.9402C10.1439 15.973 10.1439 16.0058 10.0961 16.0386C10.0004 16.2027 9.76113 16.3012 9.47404 16.2356C9.18695 16.1699 8.85201 16.0715 8.56492 16.0058C8.32568 15.9402 8.22998 15.7432 8.32568 15.5791C8.42137 15.415 8.70846 15.3493 8.94771 15.415C9.2348 15.5135 9.52189 15.5791 9.80898 15.6448C10.0482 15.6776 10.1439 15.8089 10.1439 15.9402ZM7.5601 5.27257C7.5601 5.37104 7.4644 5.46951 7.36871 5.53516C7.12946 5.66645 6.89022 5.76492 6.65098 5.89621C6.45959 6.02751 6.12465 5.99468 5.9811 5.86339C5.78971 5.7321 5.83756 5.50233 6.02895 5.40386C6.26819 5.27257 6.55528 5.10845 6.84237 5.00998C7.08162 4.91151 7.36871 4.94433 7.51225 5.10845C7.5601 5.14127 7.5601 5.20692 7.5601 5.27257ZM6.84237 14.6929C6.84237 14.7585 6.79453 14.8242 6.74668 14.8898C6.60313 15.0211 6.26819 15.0539 6.0768 14.9226C5.83756 14.7913 5.55047 14.6272 5.35907 14.4631C5.16768 14.3318 5.16768 14.1349 5.35907 14.0036C5.55047 13.8723 5.83756 13.8723 6.02895 14.0036C6.22035 14.1349 6.45959 14.299 6.69883 14.4303C6.79453 14.4959 6.84237 14.5944 6.84237 14.6929ZM4.92844 7.11068C4.92844 7.17632 4.88059 7.24197 4.83274 7.27479C4.6892 7.43891 4.4978 7.63585 4.4021 7.79997C4.30641 7.96408 3.97147 8.02973 3.78008 7.93126C3.54083 7.86561 3.44514 7.66867 3.58868 7.50456C3.73223 7.30762 3.92362 7.11068 4.06717 6.91374C4.21071 6.74962 4.4978 6.7168 4.73704 6.81527C4.83274 6.88091 4.92844 7.01221 4.92844 7.11068ZM4.44995 12.6906C4.44995 12.8219 4.35426 12.9204 4.21071 12.9861C3.97147 13.0845 3.68438 13.0189 3.58868 12.8548C3.44514 12.6578 3.30159 12.4281 3.20589 12.2311C3.1102 12.067 3.25374 11.8701 3.49299 11.8044C3.73223 11.7388 4.01932 11.8372 4.11501 12.0014C4.21071 12.1983 4.35426 12.3952 4.4978 12.5594C4.44995 12.5922 4.44995 12.625 4.44995 12.6906ZM3.63653 9.53961L3.63653 9.57243C3.58868 9.76937 3.58868 9.96631 3.58868 10.1633C3.58868 10.3602 3.39729 10.4915 3.1102 10.4915C2.82311 10.4915 2.63171 10.3602 2.63171 10.1633C2.63171 9.93349 2.63171 9.70372 2.67956 9.50678C2.72741 9.34267 2.96665 9.21137 3.20589 9.21137C3.44514 9.21137 3.63653 9.37549 3.63653 9.53961Z" fill="#FFBFCD"/>
<path d="M13.8761 18.2049L13.8761 20.1743C14.211 20.1743 14.4981 20.1415 14.8331 20.1415L14.8331 18.1721C14.4981 18.1721 14.211 18.2049 13.8761 18.2049Z" fill="#F48BA2"/>
<path d="M11.4836 18.1393L11.4836 20.1087C11.8186 20.1415 12.1057 20.1415 12.4406 20.1743L12.4406 18.2049C12.1057 18.1721 11.8186 18.1721 11.4836 18.1393Z" fill="#F48BA2"/>
<path d="M16.2686 18.0408L16.2686 20.0102C16.6035 19.9773 16.8906 19.9117 17.2255 19.846L17.2255 17.8766C16.8906 17.9423 16.6035 17.9751 16.2686 18.0408Z" fill="#F48BA2"/>
<path d="M18.6609 17.5813L18.6609 19.5507C18.9958 19.4522 19.2829 19.3866 19.6179 19.2881L19.6179 17.3187C19.2829 17.3843 18.9958 17.4828 18.6609 17.5813Z" fill="#F48BA2"/>
<path d="M9.09131 17.7783L9.09131 19.7477C9.42625 19.8133 9.71334 19.879 10.0483 19.9118L10.0483 17.9424C9.71334 17.9095 9.42625 17.8439 9.09131 17.7783Z" fill="#F48BA2"/>
<path d="M6.69885 17.1218L6.69885 19.0912C7.03379 19.1897 7.32088 19.2881 7.65582 19.3866L7.65582 17.4172C7.32088 17.3516 7.03379 17.2531 6.69885 17.1218Z" fill="#F48BA2"/>
<path d="M3.82788 15.8089L3.82788 17.7783C4.11497 17.9752 4.44991 18.1393 4.78485 18.3035L4.78485 16.334C4.44991 16.1699 4.11497 15.973 3.82788 15.8089Z" fill="#F48BA2"/>
<path d="M1.43555 13.7737L1.43555 15.7431C1.72264 16.0713 2.05758 16.3996 2.39252 16.695L2.39252 14.7256C2.05758 14.4302 1.72264 14.1348 1.43555 13.7737Z" fill="#F48BA2"/>
<path d="M21.5319 16.5638L21.5319 18.5332C21.8668 18.3691 22.2017 18.2049 22.4888 18.0408L22.4888 16.0714C22.2017 16.2355 21.8668 16.3997 21.5319 16.5638Z" fill="#F48BA2"/>
<path d="M23.9243 17.1219C24.2593 16.8593 24.5942 16.5967 24.8813 16.3013L24.8813 14.3319C24.5942 14.6273 24.2593 14.8899 23.9243 15.1525L23.9243 17.1219Z" fill="#F48BA2"/>
<path d="M15.8763 9.67163L15.8763 10.9618L17.2255 10.9618L17.2255 11.9715L15.8763 11.9715L15.8763 12.7929L14.6906 12.7929L14.6906 11.9715L14.0656 11.9715L14.0656 12.7929L12.8799 12.7929L12.8799 11.9715L8.72119 11.9715L8.72119 9.73974C8.72119 9.09599 8.96651 8.58179 9.45714 8.19714C9.94388 7.81249 10.5922 7.62017 11.4022 7.62017C12.2277 7.62017 12.876 7.80314 13.3472 8.16909C13.8144 8.53504 14.0539 9.0439 14.0656 9.69567L14.0656 10.9618L14.6906 10.9618L14.6906 9.67163L15.8763 9.67163ZM12.8799 10.9618L12.8799 9.75577C12.8799 9.39249 12.7572 9.11469 12.5119 8.92236C12.2666 8.73004 11.9006 8.63388 11.4138 8.63388C10.9777 8.63388 10.6214 8.7287 10.345 8.91836C10.0685 9.10534 9.92441 9.36444 9.91273 9.69567L9.91273 10.9618L12.8799 10.9618Z" fill="#F48BA2"/>
<path d="M26.7951 8.04168C26.7951 12.4728 20.8141 16.0834 13.3976 16.0834C5.98105 16.0834 -2.30067e-07 12.4728 -5.12423e-07 8.04168C-7.94778e-07 3.61052 5.98105 -4.97704e-05 13.3976 -4.99928e-05C20.8141 -5.02152e-05 26.7951 3.61052 26.7951 8.04168Z" fill="#FFDCE4"/>
<path d="M13.3976 16.0834C6.55523 16.0834 0.90912 12.998 0.0956963 9.0264C0.0478479 9.35463 -5.33338e-07 9.68287 -5.12423e-07 10.0111C-2.30067e-07 14.4423 5.98105 18.0528 13.3976 18.0528C20.8141 18.0528 26.7951 14.4423 26.7951 10.0111C26.7951 9.68287 26.7473 9.35463 26.6994 9.0264C25.886 12.998 20.2399 16.0834 13.3976 16.0834Z" fill="#FFBFCD"/>
<path d="M24.1635 8.00889C24.1635 8.27148 24.1635 8.50124 24.1157 8.731C24.0678 8.89512 23.8286 9.02641 23.5893 9.02641C23.3501 8.99359 23.1587 8.82947 23.1587 8.66536C23.2065 8.46842 23.2065 8.27148 23.2065 8.04171C23.2065 7.84477 23.3979 7.71348 23.685 7.71348C23.9721 7.71348 24.1635 7.84477 24.1635 8.00889ZM23.6372 6.10513C23.6372 6.23643 23.5415 6.36772 23.3501 6.40055C23.1108 6.46619 22.8237 6.36772 22.728 6.20361C22.6324 6.00667 22.4888 5.80973 22.3453 5.64561C22.2017 5.48149 22.2974 5.28455 22.5367 5.2189C22.7759 5.12043 23.063 5.18608 23.1587 5.3502C23.3022 5.54714 23.4458 5.7769 23.5415 5.97384C23.6372 6.03949 23.6372 6.07231 23.6372 6.10513ZM23.3022 10.5363C23.3022 10.6019 23.3022 10.6348 23.2544 10.7004C23.1108 10.8973 22.9194 11.0943 22.7759 11.2912C22.6324 11.4553 22.3453 11.4882 22.106 11.3897C21.8668 11.2912 21.8189 11.0943 21.9625 10.9302C22.106 10.7661 22.2974 10.5691 22.3931 10.405C22.5367 10.2409 22.8237 10.1752 23.0151 10.2737C23.2065 10.3065 23.3022 10.4378 23.3022 10.5363ZM21.5797 3.93879C21.5797 4.03726 21.5318 4.10291 21.4361 4.16856C21.2447 4.29985 20.9577 4.29985 20.7663 4.16856C20.5749 4.03726 20.3356 3.87315 20.0964 3.74185C19.905 3.64338 19.8571 3.41362 20.0485 3.28233C20.2399 3.15103 20.527 3.11821 20.7184 3.2495C20.9577 3.3808 21.2447 3.54491 21.4361 3.70903C21.5318 3.77468 21.5797 3.87315 21.5797 3.93879ZM20.9098 12.5385C20.9098 12.637 20.862 12.7355 20.7184 12.8011C20.4792 12.9324 20.1921 13.0965 19.905 13.195C19.6658 13.2935 19.3787 13.2606 19.2351 13.0965C19.0916 12.9324 19.1394 12.7355 19.3787 12.637C19.6179 12.5057 19.8571 12.4072 20.0964 12.2759C20.2878 12.1446 20.6227 12.1775 20.7663 12.3088C20.862 12.4072 20.9098 12.4729 20.9098 12.5385ZM18.4695 2.49456C18.4695 2.52739 18.4695 2.59303 18.4217 2.62586C18.326 2.78997 18.0389 2.85562 17.7997 2.78997C17.5126 2.6915 17.2255 2.62586 16.9384 2.56021C16.6991 2.49456 16.5556 2.33045 16.6513 2.13351C16.747 1.96939 16.9862 1.87092 17.2733 1.93657C17.6083 2.00221 17.8954 2.10068 18.1824 2.16633C18.3738 2.2648 18.4695 2.36327 18.4695 2.49456ZM17.6083 13.8186C17.6083 13.9499 17.4647 14.0812 17.2733 14.114C16.9862 14.1797 16.6513 14.2453 16.3164 14.311C16.0771 14.3438 15.79 14.2453 15.7422 14.0812C15.6943 13.9171 15.8379 13.7202 16.0771 13.6873C16.3642 13.6217 16.6513 13.5889 16.9384 13.5232C17.1776 13.4576 17.4647 13.556 17.5604 13.7202C17.6083 13.7202 17.6083 13.753 17.6083 13.8186ZM14.7852 1.87092C14.7852 1.90374 14.7852 1.90374 14.7852 1.87092C14.7852 2.06786 14.546 2.19915 14.2589 2.19915C13.9718 2.19915 13.6847 2.16633 13.3976 2.16633C13.1105 2.16633 12.9191 2.03504 12.9191 1.8381C12.9191 1.64116 13.1105 1.50986 13.3976 1.50986C13.7325 1.50986 14.0196 1.50986 14.3546 1.54269C14.5938 1.57551 14.7852 1.7068 14.7852 1.87092ZM13.8761 14.2125C13.8761 14.4094 13.6847 14.5407 13.3976 14.5407C13.0627 14.5407 12.7277 14.5407 12.4406 14.5079C12.2014 14.5079 11.9622 14.3438 12.01 14.1469C12.01 13.9499 12.2492 13.8186 12.5363 13.8514C12.8234 13.8514 13.1584 13.8843 13.4455 13.8843C13.6847 13.8843 13.8761 14.0484 13.8761 14.2125ZM11.0052 2.10068C11.0052 2.23198 10.8616 2.3961 10.6224 2.42892C10.3353 2.49456 10.0482 2.52739 9.76113 2.59304C9.52189 2.65868 9.23479 2.56021 9.1391 2.39609C9.0434 2.23198 9.18695 2.03504 9.42619 1.96939C9.71328 1.90374 10.0482 1.8381 10.3832 1.77245C10.6224 1.73963 10.9095 1.8381 10.9573 2.00221C11.0052 2.03504 11.0052 2.06786 11.0052 2.10068ZM10.1439 13.8186C10.1439 13.8515 10.1439 13.8843 10.0961 13.9171C10.0004 14.0812 9.76113 14.1797 9.47404 14.114C9.18695 14.0484 8.85201 13.9499 8.56492 13.8843C8.32568 13.8186 8.22998 13.6217 8.32568 13.4576C8.42137 13.2935 8.70846 13.2278 8.94771 13.2935C9.2348 13.3919 9.52189 13.4576 9.80898 13.5232C10.0482 13.556 10.1439 13.6873 10.1439 13.8186ZM7.5601 3.15103C7.5601 3.2495 7.4644 3.34797 7.36871 3.41362C7.12946 3.54491 6.89022 3.64338 6.65098 3.77468C6.45959 3.90597 6.12465 3.87315 5.9811 3.74185C5.78971 3.61056 5.83756 3.3808 6.02895 3.28233C6.26819 3.15103 6.55528 2.98692 6.84237 2.88844C7.08162 2.78998 7.36871 2.8228 7.51225 2.98691C7.5601 3.01974 7.5601 3.08539 7.5601 3.15103ZM6.84237 12.5713C6.84237 12.637 6.79453 12.7026 6.74668 12.7683C6.60313 12.8996 6.26819 12.9324 6.0768 12.8011C5.83756 12.6698 5.55047 12.5057 5.35907 12.3416C5.16768 12.2103 5.16768 12.0133 5.35907 11.882C5.55047 11.7508 5.83756 11.7508 6.02895 11.882C6.22035 12.0133 6.45959 12.1775 6.69883 12.3088C6.79453 12.3744 6.84237 12.4729 6.84237 12.5713ZM4.92844 4.98914C4.92844 5.05479 4.88059 5.12043 4.83274 5.15326C4.6892 5.31738 4.4978 5.51431 4.4021 5.67843C4.30641 5.84255 3.97147 5.9082 3.78008 5.80973C3.54083 5.74408 3.44514 5.54714 3.58868 5.38302C3.73223 5.18608 3.92362 4.98914 4.06717 4.7922C4.21071 4.62808 4.4978 4.59526 4.73704 4.69373C4.83274 4.75938 4.92844 4.89067 4.92844 4.98914ZM4.44995 10.5691C4.44995 10.7004 4.35426 10.7989 4.21071 10.8645C3.97147 10.963 3.68438 10.8973 3.58868 10.7332C3.44514 10.5363 3.30159 10.3065 3.20589 10.1096C3.1102 9.94547 3.25374 9.74853 3.49299 9.68288C3.73223 9.61724 4.01932 9.71571 4.11501 9.87982C4.21071 10.0768 4.35426 10.2737 4.4978 10.4378C4.44995 10.4706 4.44995 10.5035 4.44995 10.5691ZM3.63653 7.41807L3.63653 7.45089C3.58868 7.64783 3.58868 7.84477 3.58868 8.04171C3.58868 8.23865 3.39729 8.36995 3.1102 8.36995C2.82311 8.36995 2.63171 8.23865 2.63171 8.04171C2.63171 7.81195 2.63171 7.58219 2.67956 7.38525C2.72741 7.22113 2.96665 7.08984 3.20589 7.08984C3.44514 7.08984 3.63653 7.25395 3.63653 7.41807Z" fill="#FFBFCD"/>
<path d="M13.8761 16.0834L13.8761 18.0528C14.211 18.0528 14.4981 18.02 14.8331 18.02L14.8331 16.0506C14.4981 16.0506 14.211 16.0834 13.8761 16.0834Z" fill="#F48BA2"/>
<path d="M11.4836 16.0178L11.4836 17.9872C11.8186 18.02 12.1057 18.02 12.4406 18.0528L12.4406 16.0834C12.1057 16.0506 11.8186 16.0506 11.4836 16.0178Z" fill="#F48BA2"/>
<path d="M16.2686 15.9192L16.2686 17.8886C16.6035 17.8558 16.8906 17.7902 17.2255 17.7245L17.2255 15.7551C16.8906 15.8208 16.6035 15.8536 16.2686 15.9192Z" fill="#F48BA2"/>
<path d="M18.6609 15.4599L18.6609 17.4293C18.9958 17.3308 19.2829 17.2651 19.6179 17.1667L19.6179 15.1973C19.2829 15.2629 18.9958 15.3614 18.6609 15.4599Z" fill="#F48BA2"/>
<path d="M9.09131 15.6567L9.09131 17.6261C9.42625 17.6918 9.71334 17.7574 10.0483 17.7902L10.0483 15.8208C9.71334 15.788 9.42625 15.7224 9.09131 15.6567Z" fill="#F48BA2"/>
<path d="M6.69885 15.0003L6.69885 16.9697C7.03379 17.0681 7.32088 17.1666 7.65582 17.2651L7.65582 15.2957C7.32088 15.23 7.03379 15.1316 6.69885 15.0003Z" fill="#F48BA2"/>
<path d="M3.82788 13.6872L3.82788 15.6566C4.11497 15.8536 4.44991 16.0177 4.78485 16.1818L4.78485 14.2124C4.44991 14.0483 4.11497 13.8513 3.82788 13.6872Z" fill="#F48BA2"/>
<path d="M1.43555 11.6523L1.43555 13.6217C1.72264 13.9499 2.05758 14.2782 2.39252 14.5736L2.39252 12.6042C2.05758 12.3088 1.72264 12.0134 1.43555 11.6523Z" fill="#F48BA2"/>
<path d="M21.5319 14.4424L21.5319 16.4118C21.8668 16.2477 22.2017 16.0835 22.4888 15.9194L22.4888 13.95C22.2017 14.1141 21.8668 14.2783 21.5319 14.4424Z" fill="#F48BA2"/>
<path d="M23.9243 15.0001C24.2593 14.7375 24.5942 14.4749 24.8813 14.1795L24.8813 12.2101C24.5942 12.5055 24.2593 12.7681 23.9243 13.0307L23.9243 15.0001Z" fill="#F48BA2"/>
<path d="M15.8763 7.55009L15.8763 8.84027L17.2255 8.84027L17.2255 9.84997L15.8763 9.84997L15.8763 10.6714L14.6906 10.6714L14.6906 9.84997L14.0656 9.84997L14.0656 10.6714L12.8799 10.6714L12.8799 9.84997L8.72119 9.84997L8.72119 7.61821C8.72119 6.97445 8.96651 6.46025 9.45714 6.0756C9.94388 5.69095 10.5922 5.49863 11.4022 5.49863C12.2277 5.49863 12.876 5.6816 13.3472 6.04756C13.8144 6.41351 14.0539 6.92236 14.0656 7.57413L14.0656 8.84027L14.6906 8.84027L14.6906 7.55009L15.8763 7.55009ZM12.8799 8.84027L12.8799 7.63423C12.8799 7.27095 12.7572 6.99315 12.5119 6.80083C12.2666 6.6085 11.9006 6.51234 11.4138 6.51234C10.9777 6.51234 10.6214 6.60717 10.345 6.79682C10.0685 6.9838 9.92441 7.24291 9.91273 7.57413L9.91273 8.84027L12.8799 8.84027Z" fill="#F48BA2"/>
<path d="M55.02 12.2296C55.02 16.6607 49.0389 20.2713 41.6224 20.2713C34.2059 20.2713 28.2249 16.6607 28.2249 12.2296C28.2249 7.79842 34.2059 4.18785 41.6224 4.18785C49.0389 4.18785 55.02 7.79842 55.02 12.2296Z" fill="white"/>
<path d="M41.6224 20.2714C34.7801 20.2714 29.134 17.186 28.3205 13.2143C28.2727 13.5426 28.2249 13.8708 28.2249 14.199C28.2249 18.6302 34.2059 22.2408 41.6224 22.2408C49.0389 22.2408 55.02 18.6302 55.02 14.199C55.02 13.8708 54.9721 13.5426 54.9243 13.2143C54.1108 17.186 48.4647 20.2714 41.6224 20.2714Z" fill="#FFBFCD"/>
<path d="M52.3884 12.1968C52.3884 12.4594 52.3884 12.6891 52.3405 12.9189C52.2927 13.083 52.0534 13.2143 51.8142 13.2143C51.5749 13.1815 51.3835 13.0174 51.3835 12.8533C51.4314 12.6563 51.4314 12.4594 51.4314 12.2296C51.4314 12.0327 51.6228 11.9014 51.9099 11.9014C52.197 11.9014 52.3884 12.0327 52.3884 12.1968ZM51.862 10.293C51.862 10.4243 51.7663 10.5556 51.5749 10.5884C51.3357 10.6541 51.0486 10.5556 50.9529 10.3915C50.8572 10.1946 50.7137 9.99762 50.5701 9.83351C50.4266 9.66939 50.5223 9.47245 50.7615 9.4068C51.0008 9.30833 51.2878 9.37398 51.3835 9.53809C51.5271 9.73503 51.6706 9.9648 51.7663 10.1617C51.862 10.2274 51.862 10.2602 51.862 10.293ZM51.5271 14.7242C51.5271 14.7898 51.5271 14.8227 51.4792 14.8883C51.3357 15.0852 51.1443 15.2822 51.0008 15.4791C50.8572 15.6432 50.5701 15.6761 50.3309 15.5776C50.0916 15.4791 50.0438 15.2822 50.1873 15.1181C50.3309 14.9539 50.5223 14.757 50.618 14.5929C50.7615 14.4288 51.0486 14.3631 51.24 14.4616C51.4314 14.4944 51.5271 14.6257 51.5271 14.7242ZM49.8045 8.12669C49.8045 8.22516 49.7567 8.29081 49.661 8.35645C49.4696 8.48775 49.1825 8.48775 48.9911 8.35645C48.7997 8.22516 48.5605 8.06104 48.3212 7.92975C48.1298 7.83128 48.082 7.60152 48.2734 7.47022C48.4648 7.33893 48.7519 7.30611 48.9433 7.4374C49.1825 7.56869 49.4696 7.73281 49.661 7.89693C49.7567 7.96257 49.8045 8.06104 49.8045 8.12669ZM49.1347 16.7264C49.1347 16.8249 49.0868 16.9234 48.9433 16.989C48.704 17.1203 48.4169 17.2844 48.1298 17.3829C47.8906 17.4813 47.6035 17.4485 47.46 17.2844C47.3164 17.1203 47.3643 16.9234 47.6035 16.8249C47.8428 16.6936 48.082 16.5951 48.3212 16.4638C48.5126 16.3325 48.8476 16.3654 48.9911 16.4966C49.0868 16.5951 49.1347 16.6608 49.1347 16.7264ZM46.6944 6.68246C46.6944 6.71528 46.6944 6.78093 46.6465 6.81375C46.5508 6.97787 46.2638 7.04352 46.0245 6.97787C45.7374 6.8794 45.4503 6.81375 45.1632 6.74811C44.924 6.68246 44.7805 6.51834 44.8762 6.3214C44.9718 6.15729 45.2111 6.05882 45.4982 6.12446C45.8331 6.19011 46.1202 6.28858 46.4073 6.35423C46.5987 6.4527 46.6944 6.55117 46.6944 6.68246ZM45.8331 18.0065C45.8331 18.1378 45.6896 18.2691 45.4982 18.3019C45.2111 18.3676 44.8762 18.4332 44.5412 18.4989C44.302 18.5317 44.0149 18.4332 43.967 18.2691C43.9192 18.105 44.0627 17.9081 44.302 17.8752C44.5891 17.8096 44.8762 17.7768 45.1632 17.7111C45.4025 17.6455 45.6896 17.7439 45.7853 17.9081C45.8331 17.9081 45.8331 17.9409 45.8331 18.0065ZM43.0101 6.05882C43.0101 6.09164 43.0101 6.09164 43.0101 6.05882C43.0101 6.25576 42.7708 6.38705 42.4837 6.38705C42.1966 6.38705 41.9096 6.35423 41.6225 6.35423C41.3354 6.35423 41.144 6.22293 41.144 6.02599C41.144 5.82905 41.3354 5.69776 41.6225 5.69776C41.9574 5.69776 42.2445 5.69776 42.5794 5.73058C42.8187 5.76341 43.0101 5.8947 43.0101 6.05882ZM42.1009 18.4004C42.1009 18.5973 41.9096 18.7286 41.6225 18.7286C41.2875 18.7286 40.9526 18.7286 40.6655 18.6958C40.4263 18.6958 40.187 18.5317 40.2349 18.3348C40.2349 18.1378 40.4741 18.0065 40.7612 18.0393C41.0483 18.0393 41.3832 18.0722 41.6703 18.0722C41.9096 18.0722 42.1009 18.2363 42.1009 18.4004ZM39.23 6.28858C39.23 6.41987 39.0865 6.58399 38.8473 6.61682C38.5602 6.68246 38.2731 6.71529 37.986 6.78093C37.7467 6.84658 37.4596 6.74811 37.364 6.58399C37.2683 6.41987 37.4118 6.22293 37.651 6.15729C37.9381 6.09164 38.2731 6.02599 38.608 5.96035C38.8473 5.92752 39.1343 6.02599 39.1822 6.19011C39.23 6.22293 39.23 6.25576 39.23 6.28858ZM38.3688 18.0065C38.3688 18.0393 38.3688 18.0722 38.3209 18.105C38.2252 18.2691 37.986 18.3676 37.6989 18.3019C37.4118 18.2363 37.0769 18.1378 36.7898 18.0722C36.5505 18.0065 36.4548 17.8096 36.5505 17.6455C36.6462 17.4813 36.9333 17.4157 37.1726 17.4813C37.4596 17.5798 37.7467 17.6455 38.0338 17.7111C38.2731 17.7439 38.3688 17.8752 38.3688 18.0065ZM35.785 7.33893C35.785 7.4374 35.6893 7.53587 35.5936 7.60152C35.3543 7.73281 35.1151 7.83128 34.8758 7.96257C34.6844 8.09387 34.3495 8.06104 34.206 7.92975C34.0146 7.79846 34.0624 7.56869 34.2538 7.47022C34.493 7.33893 34.7801 7.17481 35.0672 7.07634C35.3065 6.97787 35.5936 7.01069 35.7371 7.17481C35.785 7.20763 35.785 7.27328 35.785 7.33893ZM35.0672 16.7592C35.0672 16.8249 35.0194 16.8905 34.9715 16.9562C34.828 17.0875 34.493 17.1203 34.3017 16.989C34.0624 16.8577 33.7753 16.6936 33.5839 16.5295C33.3925 16.3982 33.3925 16.2012 33.5839 16.0699C33.7753 15.9387 34.0624 15.9387 34.2538 16.0699C34.4452 16.2012 34.6844 16.3654 34.9237 16.4966C35.0194 16.5623 35.0672 16.6608 35.0672 16.7592ZM33.1533 9.17704C33.1533 9.24268 33.1054 9.30833 33.0576 9.34115C32.914 9.50527 32.7227 9.70221 32.627 9.86633C32.5313 10.0304 32.1963 10.0961 32.0049 9.99762C31.7657 9.93198 31.67 9.73503 31.8135 9.57092C31.9571 9.37398 32.1485 9.17704 32.292 8.9801C32.4356 8.81598 32.7227 8.78316 32.9619 8.88163C33.0576 8.94727 33.1533 9.07857 33.1533 9.17704ZM32.6748 14.757C32.6748 14.8883 32.5791 14.9868 32.4356 15.0524C32.1963 15.1509 31.9092 15.0852 31.8135 14.9211C31.67 14.7242 31.5264 14.4944 31.4307 14.2975C31.3351 14.1334 31.4786 13.9364 31.7178 13.8708C31.9571 13.8051 32.2442 13.9036 32.3399 14.0677C32.4356 14.2647 32.5791 14.4616 32.7227 14.6257C32.6748 14.6585 32.6748 14.6914 32.6748 14.757ZM31.8614 11.606L31.8614 11.6388C31.8135 11.8357 31.8135 12.0327 31.8135 12.2296C31.8135 12.4266 31.6221 12.5578 31.3351 12.5578C31.048 12.5578 30.8566 12.4266 30.8566 12.2296C30.8566 11.9998 30.8566 11.7701 30.9044 11.5731C30.9523 11.409 31.1915 11.2777 31.4307 11.2777C31.67 11.2777 31.8614 11.4418 31.8614 11.606Z" fill="#FFBFCD"/>
<path d="M42.101 20.2713L42.101 22.2407C42.4359 22.2407 42.723 22.2079 43.0579 22.2079L43.0579 20.2385C42.723 20.2385 42.4359 20.2713 42.101 20.2713Z" fill="#F48BA2"/>
<path d="M39.7085 20.2057L39.7085 22.1751C40.0434 22.2079 40.3305 22.2079 40.6655 22.2407L40.6655 20.2713C40.3305 20.2385 40.0434 20.2385 39.7085 20.2057Z" fill="#F48BA2"/>
<path d="M44.4934 20.1072L44.4934 22.0766C44.8283 22.0438 45.1154 21.9782 45.4504 21.9125L45.4504 19.9431C45.1154 20.0088 44.8283 20.0416 44.4934 20.1072Z" fill="#F48BA2"/>
<path d="M46.8857 19.6476L46.8857 21.617C47.2207 21.5186 47.5078 21.4529 47.8427 21.3544L47.8427 19.385C47.5078 19.4507 47.2207 19.5492 46.8857 19.6476Z" fill="#F48BA2"/>
<path d="M37.3162 19.8446L37.3162 21.814C37.6511 21.8797 37.9382 21.9453 38.2731 21.9781L38.2731 20.0087C37.9382 19.9759 37.6511 19.9103 37.3162 19.8446Z" fill="#F48BA2"/>
<path d="M34.9237 19.1882L34.9237 21.1576C35.2586 21.256 35.5457 21.3545 35.8807 21.453L35.8807 19.4836C35.5457 19.4179 35.2586 19.3195 34.9237 19.1882Z" fill="#F48BA2"/>
<path d="M32.0527 17.8751L32.0527 19.8445C32.3398 20.0415 32.6748 20.2056 33.0097 20.3697L33.0097 18.4003C32.6748 18.2362 32.3398 18.0392 32.0527 17.8751Z" fill="#F48BA2"/>
<path d="M29.6604 15.8401L29.6604 17.8095C29.9475 18.1377 30.2824 18.4659 30.6174 18.7614L30.6174 16.792C30.2824 16.4965 29.9475 16.2011 29.6604 15.8401Z" fill="#F48BA2"/>
<path d="M49.7567 18.6301L49.7567 20.5995C50.0917 20.4354 50.4266 20.2713 50.7137 20.1072L50.7137 18.1378C50.4266 18.3019 50.0917 18.466 49.7567 18.6301Z" fill="#F48BA2"/>
<path d="M52.1492 19.1881C52.4841 18.9255 52.819 18.663 53.1061 18.3675L53.1061 16.3981C52.819 16.6935 52.4841 16.9561 52.1492 17.2187L52.1492 19.1881Z" fill="#F48BA2"/>
<path d="M44.1011 11.738L44.1011 13.0282L45.4504 13.0282L45.4504 14.0379L44.1011 14.0379L44.1011 14.8593L42.9154 14.8593L42.9154 14.0379L42.2904 14.0379L42.2904 14.8593L41.1047 14.8593L41.1047 14.0379L36.946 14.0379L36.946 11.8061C36.946 11.1623 37.1914 10.6481 37.682 10.2635C38.1687 9.87885 38.8171 9.68653 39.627 9.68653C40.4525 9.68653 41.1009 9.8695 41.572 10.2355C42.0393 10.6014 42.2788 11.1103 42.2904 11.762L42.2904 13.0282L42.9154 13.0282L42.9154 11.738L44.1011 11.738ZM41.1047 13.0282L41.1047 11.8221C41.1047 11.4588 40.9821 11.181 40.7368 10.9887C40.4915 10.7964 40.1254 10.7002 39.6387 10.7002C39.2026 10.7002 38.8463 10.7951 38.5698 10.9847C38.2933 11.1717 38.1493 11.4308 38.1376 11.762L38.1376 13.0282L41.1047 13.0282Z" fill="#F48BA2"/>
<path d="M55.02 10.1081C55.02 14.5392 49.0389 18.1498 41.6224 18.1498C34.2059 18.1498 28.2249 14.5392 28.2249 10.1081C28.2249 5.6769 34.2059 2.06633 41.6224 2.06633C49.0389 2.06633 55.02 5.6769 55.02 10.1081Z" fill="#FFDCE4"/>
<path d="M41.6224 18.1498C34.7801 18.1498 29.134 15.0644 28.3205 11.0928C28.2727 11.421 28.2249 11.7492 28.2249 12.0775C28.2249 16.5086 34.2059 20.1192 41.6224 20.1192C49.0389 20.1192 55.02 16.5086 55.02 12.0775C55.02 11.7492 54.9721 11.421 54.9243 11.0928C54.1108 15.0644 48.4647 18.1498 41.6224 18.1498Z" fill="#FFBFCD"/>
<path d="M52.3884 10.0753C52.3884 10.3379 52.3884 10.5676 52.3405 10.7974C52.2927 10.9615 52.0534 11.0928 51.8142 11.0928C51.5749 11.06 51.3835 10.8959 51.3835 10.7317C51.4314 10.5348 51.4314 10.3379 51.4314 10.1081C51.4314 9.91116 51.6228 9.77987 51.9099 9.77987C52.197 9.77987 52.3884 9.91116 52.3884 10.0753ZM51.862 8.17153C51.862 8.30282 51.7663 8.43411 51.5749 8.46694C51.3357 8.53258 51.0486 8.43411 50.9529 8.27C50.8572 8.07306 50.7137 7.87612 50.5701 7.712C50.4266 7.54788 50.5223 7.35094 50.7615 7.28529C51.0008 7.18683 51.2878 7.25247 51.3835 7.41659C51.5271 7.61353 51.6706 7.84329 51.7663 8.04023C51.862 8.10588 51.862 8.1387 51.862 8.17153ZM51.5271 12.6027C51.5271 12.6683 51.5271 12.7012 51.4792 12.7668C51.3357 12.9637 51.1443 13.1607 51.0008 13.3576C50.8572 13.5217 50.5701 13.5546 50.3309 13.4561C50.0916 13.3576 50.0438 13.1607 50.1873 12.9966C50.3309 12.8324 50.5223 12.6355 50.618 12.4714C50.7615 12.3073 51.0486 12.2416 51.24 12.3401C51.4314 12.3729 51.5271 12.5042 51.5271 12.6027ZM49.8045 6.00518C49.8045 6.10365 49.7567 6.1693 49.661 6.23495C49.4696 6.36624 49.1825 6.36624 48.9911 6.23495C48.7997 6.10365 48.5605 5.93954 48.3212 5.80824C48.1298 5.70977 48.082 5.48001 48.2734 5.34872C48.4648 5.21742 48.7519 5.1846 48.9433 5.31589C49.1825 5.44719 49.4696 5.6113 49.661 5.77542C49.7567 5.84107 49.8045 5.93954 49.8045 6.00518ZM49.1347 14.6049C49.1347 14.7034 49.0868 14.8018 48.9433 14.8675C48.704 14.9988 48.4169 15.1629 48.1298 15.2614C47.8906 15.3598 47.6035 15.327 47.46 15.1629C47.3164 14.9988 47.3643 14.8018 47.6035 14.7034C47.8428 14.5721 48.082 14.4736 48.3212 14.3423C48.5126 14.211 48.8476 14.2438 48.9911 14.3751C49.0868 14.4736 49.1347 14.5393 49.1347 14.6049ZM46.6944 4.56095C46.6944 4.59378 46.6944 4.65943 46.6465 4.69225C46.5508 4.85637 46.2638 4.92201 46.0245 4.85637C45.7374 4.7579 45.4503 4.69225 45.1632 4.6266C44.924 4.56096 44.7805 4.39684 44.8762 4.1999C44.9718 4.03578 45.2111 3.93731 45.4982 4.00296C45.8331 4.0686 46.1202 4.16707 46.4073 4.23272C46.5987 4.33119 46.6944 4.42966 46.6944 4.56095ZM45.8331 15.885C45.8331 16.0163 45.6896 16.1476 45.4982 16.1804C45.2111 16.2461 44.8762 16.3117 44.5412 16.3774C44.302 16.4102 44.0149 16.3117 43.967 16.1476C43.9192 15.9835 44.0627 15.7865 44.302 15.7537C44.5891 15.6881 44.8762 15.6553 45.1632 15.5896C45.4025 15.524 45.6896 15.6224 45.7853 15.7865C45.8331 15.7865 45.8331 15.8194 45.8331 15.885ZM43.0101 3.93731C43.0101 3.97014 43.0101 3.97014 43.0101 3.93731C43.0101 4.13425 42.7708 4.26555 42.4837 4.26555C42.1966 4.26555 41.9096 4.23272 41.6225 4.23272C41.3354 4.23272 41.144 4.10143 41.144 3.90449C41.144 3.70755 41.3354 3.57625 41.6225 3.57625C41.9574 3.57625 42.2445 3.57625 42.5794 3.60908C42.8187 3.6419 43.0101 3.77319 43.0101 3.93731ZM42.1009 16.2789C42.1009 16.4758 41.9096 16.6071 41.6225 16.6071C41.2875 16.6071 40.9526 16.6071 40.6655 16.5743C40.4263 16.5743 40.187 16.4102 40.2349 16.2133C40.2349 16.0163 40.4741 15.885 40.7612 15.9178C41.0483 15.9178 41.3832 15.9507 41.6703 15.9507C41.9096 15.9507 42.1009 16.1148 42.1009 16.2789ZM39.23 4.16708C39.23 4.29837 39.0865 4.46249 38.8473 4.49531C38.5602 4.56096 38.2731 4.59378 37.986 4.65943C37.7467 4.72507 37.4596 4.6266 37.364 4.46249C37.2683 4.29837 37.4118 4.10143 37.651 4.03578C37.9381 3.97013 38.2731 3.90449 38.608 3.83884C38.8473 3.80602 39.1343 3.90449 39.1822 4.0686C39.23 4.10143 39.23 4.13425 39.23 4.16708ZM38.3688 15.885C38.3688 15.9178 38.3688 15.9507 38.3209 15.9835C38.2252 16.1476 37.986 16.2461 37.6989 16.1804C37.4118 16.1148 37.0769 16.0163 36.7898 15.9507C36.5505 15.885 36.4548 15.6881 36.5505 15.524C36.6462 15.3598 36.9333 15.2942 37.1726 15.3598C37.4596 15.4583 37.7467 15.524 38.0338 15.5896C38.2731 15.6224 38.3688 15.7537 38.3688 15.885ZM35.785 5.21742C35.785 5.31589 35.6893 5.41436 35.5936 5.48001C35.3543 5.6113 35.1151 5.70977 34.8758 5.84107C34.6844 5.97236 34.3495 5.93954 34.206 5.80824C34.0146 5.67695 34.0624 5.44719 34.2538 5.34872C34.493 5.21742 34.7801 5.05331 35.0672 4.95484C35.3065 4.85637 35.5936 4.88919 35.7371 5.05331C35.785 5.08613 35.785 5.15178 35.785 5.21742ZM35.0672 14.6377C35.0672 14.7034 35.0194 14.769 34.9715 14.8347C34.828 14.966 34.493 14.9988 34.3017 14.8675C34.0624 14.7362 33.7753 14.5721 33.5839 14.408C33.3925 14.2767 33.3925 14.0797 33.5839 13.9484C33.7753 13.8171 34.0624 13.8171 34.2538 13.9484C34.4452 14.0797 34.6844 14.2438 34.9237 14.3751C35.0194 14.4408 35.0672 14.5393 35.0672 14.6377ZM33.1533 7.05553C33.1533 7.12118 33.1054 7.18683 33.0576 7.21965C32.914 7.38377 32.7227 7.58071 32.627 7.74482C32.5313 7.90894 32.1963 7.97459 32.0049 7.87612C31.7657 7.81047 31.67 7.61353 31.8135 7.44941C31.9571 7.25247 32.1485 7.05553 32.292 6.85859C32.4356 6.69447 32.7227 6.66165 32.9619 6.76012C33.0576 6.82577 33.1533 6.95706 33.1533 7.05553ZM32.6748 12.6355C32.6748 12.7668 32.5791 12.8653 32.4356 12.9309C32.1963 13.0294 31.9092 12.9637 31.8135 12.7996C31.67 12.6027 31.5264 12.3729 31.4307 12.176C31.3351 12.0119 31.4786 11.8149 31.7178 11.7493C31.9571 11.6836 32.2442 11.7821 32.3399 11.9462C32.4356 12.1432 32.5791 12.3401 32.7227 12.5042C32.6748 12.537 32.6748 12.5699 32.6748 12.6355ZM31.8614 9.48446L31.8614 9.51728C31.8135 9.71422 31.8135 9.91116 31.8135 10.1081C31.8135 10.305 31.6221 10.4363 31.3351 10.4363C31.048 10.4363 30.8566 10.305 30.8566 10.1081C30.8566 9.87834 30.8566 9.64858 30.9044 9.45164C30.9523 9.28752 31.1915 9.15623 31.4307 9.15623C31.67 9.15623 31.8614 9.32034 31.8614 9.48446Z" fill="#FFBFCD"/>
<path d="M42.101 18.1498L42.101 20.1192C42.4359 20.1192 42.723 20.0864 43.0579 20.0864L43.0579 18.117C42.723 18.117 42.4359 18.1498 42.101 18.1498Z" fill="#F48BA2"/>
<path d="M39.7085 18.0842L39.7085 20.0536C40.0434 20.0864 40.3305 20.0864 40.6655 20.1192L40.6655 18.1498C40.3305 18.117 40.0434 18.117 39.7085 18.0842Z" fill="#F48BA2"/>
<path d="M44.4934 17.9857L44.4934 19.9551C44.8283 19.9223 45.1154 19.8567 45.4504 19.791L45.4504 17.8216C45.1154 17.8873 44.8283 17.9201 44.4934 17.9857Z" fill="#F48BA2"/>
<path d="M46.8857 17.5262L46.8857 19.4957C47.2207 19.3972 47.5078 19.3315 47.8427 19.2331L47.8427 17.2637C47.5078 17.3293 47.2207 17.4278 46.8857 17.5262Z" fill="#F48BA2"/>
<path d="M37.3162 17.7232L37.3162 19.6926C37.6511 19.7583 37.9382 19.8239 38.2731 19.8567L38.2731 17.8873C37.9382 17.8545 37.6511 17.7889 37.3162 17.7232Z" fill="#F48BA2"/>
<path d="M34.9237 17.0667L34.9237 19.0361C35.2586 19.1345 35.5457 19.233 35.8807 19.3315L35.8807 17.3621C35.5457 17.2964 35.2586 17.1979 34.9237 17.0667Z" fill="#F48BA2"/>
<path d="M32.0527 15.7537L32.0527 17.7231C32.3398 17.9201 32.6748 18.0842 33.0097 18.2483L33.0097 16.2789C32.6748 16.1148 32.3398 15.9178 32.0527 15.7537Z" fill="#F48BA2"/>
<path d="M29.6604 13.7187L29.6604 15.6881C29.9475 16.0163 30.2824 16.3446 30.6174 16.64L30.6174 14.6706C30.2824 14.3752 29.9475 14.0797 29.6604 13.7187Z" fill="#F48BA2"/>
<path d="M49.7567 16.5088L49.7567 18.4782C50.0917 18.314 50.4266 18.1499 50.7137 17.9858L50.7137 16.0164C50.4266 16.1805 50.0917 16.3446 49.7567 16.5088Z" fill="#F48BA2"/>
<path d="M52.1492 17.0666C52.4841 16.804 52.819 16.5414 53.1061 16.246L53.1061 14.2766C52.819 14.572 52.4841 14.8346 52.1492 15.0972L52.1492 17.0666Z" fill="#F48BA2"/>
<path d="M44.1011 9.61659L44.1011 10.9068L45.4504 10.9068L45.4504 11.9165L44.1011 11.9165L44.1011 12.7379L42.9154 12.7379L42.9154 11.9165L42.2904 11.9165L42.2904 12.7379L41.1047 12.7379L41.1047 11.9165L36.946 11.9165L36.946 9.6847C36.946 9.04095 37.1914 8.52675 37.682 8.1421C38.1687 7.75745 38.8171 7.56513 39.627 7.56513C40.4525 7.56513 41.1009 7.7481 41.572 8.11405C42.0393 8.48 42.2788 8.98886 42.2904 9.64063L42.2904 10.9068L42.9154 10.9068L42.9154 9.61659L44.1011 9.61659ZM41.1047 10.9068L41.1047 9.70073C41.1047 9.33745 40.9821 9.05965 40.7368 8.86732C40.4915 8.675 40.1254 8.57884 39.6387 8.57884C39.2026 8.57884 38.8463 8.67366 38.5698 8.86332C38.2933 9.0503 38.1493 9.3094 38.1376 9.64063L38.1376 10.9068L41.1047 10.9068Z" fill="#F48BA2"/>
</svg>
