<svg width="114" height="101" viewBox="0 0 114 101" fill="none" xmlns="http://www.w3.org/2000/svg">
<path d="M75 77.2586L17 98V36.7414L75 16V77.2586Z" fill="#FFBFCD"/>
<path d="M23 53L49.5 43.5M37 73L63.5 63.5" stroke="#F1AABA"/>
<path d="M0 20.5176L16.7206 37L75 16.4824L58.2794 0L0 20.5176Z" fill="#FFDCE4"/>
<path d="M17 98V37.4654L0 21V81.5346L17 98Z" fill="#E492A4"/>
<path d="M10.5 67L16.5 71V69.5L10.5 67Z" fill="#DC8094"/>
<path d="M7.5 41.5L0 35V37.5L7.5 41.5Z" fill="#DC8094"/>
<path d="M10.5 83L0 72.5V74.5L10.5 83Z" fill="#DC8094"/>
<ellipse cx="38" cy="18" rx="10" ry="6" fill="#FFBFCD"/>
<ellipse cx="56.5" cy="11.5" rx="2.5" ry="1.5" fill="#FFBFCD"/>
<ellipse cx="19.5" cy="24.5" rx="2.5" ry="1.5" fill="#FFBFCD"/>
<path d="M36 36L17 41.5V43L36 36Z" fill="#F1AABA"/>
<path d="M36 85L17 90.5V92L36 85Z" fill="#F1AABA"/>
<path d="M25.5 67L17 69.5V71L25.5 67Z" fill="#F1AABA"/>
<path d="M52 49.5L17 61.6429V63L52 49.5Z" fill="#F1AABA"/>
<path d="M58 41L74.5 36.3571L74.5 34.9999L58 41Z" fill="#F1AABA"/>
<path d="M84.7951 90.2246C84.7951 94.6557 78.8141 98.2663 71.3976 98.2663C63.9811 98.2663 58 94.6557 58 90.2246C58 85.7934 63.9811 82.1828 71.3976 82.1828C78.8141 82.1828 84.7951 85.7934 84.7951 90.2246Z" fill="white"/>
<path d="M71.3976 98.2663C64.5552 98.2663 58.9091 95.1809 58.0957 91.2093C58.0478 91.5375 58 91.8658 58 92.194C58 96.6251 63.9811 100.236 71.3976 100.236C78.8141 100.236 84.7951 96.6251 84.7951 92.194C84.7951 91.8658 84.7473 91.5375 84.6994 91.2093C83.886 95.1809 78.2399 98.2663 71.3976 98.2663Z" fill="#FFBFCD"/>
<path d="M82.1635 90.1918C82.1635 90.4544 82.1635 90.6841 82.1157 90.9139C82.0678 91.078 81.8286 91.2093 81.5893 91.2093C81.3501 91.1765 81.1587 91.0124 81.1587 90.8483C81.2065 90.6513 81.2065 90.4544 81.2065 90.2246C81.2065 90.0277 81.3979 89.8964 81.685 89.8964C81.9721 89.8964 82.1635 90.0277 82.1635 90.1918ZM81.6372 88.288C81.6372 88.4193 81.5415 88.5506 81.3501 88.5835C81.1108 88.6491 80.8237 88.5506 80.728 88.3865C80.6324 88.1896 80.4888 87.9926 80.3453 87.8285C80.2017 87.6644 80.2974 87.4675 80.5367 87.4018C80.7759 87.3033 81.063 87.369 81.1587 87.5331C81.3022 87.73 81.4458 87.9598 81.5415 88.1567C81.6372 88.2224 81.6372 88.2552 81.6372 88.288ZM81.3022 92.7192C81.3022 92.7848 81.3022 92.8177 81.2544 92.8833C81.1108 93.0803 80.9194 93.2772 80.7759 93.4741C80.6324 93.6383 80.3453 93.6711 80.106 93.5726C79.8668 93.4741 79.8189 93.2772 79.9625 93.1131C80.106 92.949 80.2974 92.752 80.3931 92.5879C80.5367 92.4238 80.8237 92.3581 81.0151 92.4566C81.2065 92.4894 81.3022 92.6207 81.3022 92.7192ZM79.5797 86.1217C79.5797 86.2202 79.5318 86.2858 79.4361 86.3515C79.2447 86.4828 78.9577 86.4828 78.7663 86.3515C78.5749 86.2202 78.3356 86.0561 78.0964 85.9248C77.905 85.8263 77.8571 85.5965 78.0485 85.4652C78.2399 85.3339 78.527 85.3011 78.7184 85.4324C78.9577 85.5637 79.2447 85.7278 79.4361 85.8919C79.5318 85.9576 79.5797 86.0561 79.5797 86.1217ZM78.9098 94.7214C78.9098 94.8199 78.862 94.9184 78.7184 94.984C78.4792 95.1153 78.1921 95.2794 77.905 95.3779C77.6658 95.4764 77.3787 95.4435 77.2351 95.2794C77.0916 95.1153 77.1394 94.9184 77.3787 94.8199C77.6179 94.6886 77.8571 94.5901 78.0964 94.4588C78.2878 94.3275 78.6227 94.3604 78.7663 94.4917C78.862 94.5901 78.9098 94.6558 78.9098 94.7214ZM76.4695 84.6775C76.4695 84.7103 76.4695 84.7759 76.4217 84.8088C76.326 84.9729 76.0389 85.0385 75.7997 84.9729C75.5126 84.8744 75.2255 84.8088 74.9384 84.7431C74.6991 84.6775 74.5556 84.5134 74.6513 84.3164C74.747 84.1523 74.9862 84.0538 75.2733 84.1195C75.6083 84.1851 75.8954 84.2836 76.1824 84.3492C76.3738 84.4477 76.4695 84.5462 76.4695 84.6775ZM75.6083 96.0015C75.6083 96.1328 75.4647 96.2641 75.2733 96.2969C74.9862 96.3626 74.6513 96.4282 74.3164 96.4939C74.0771 96.5267 73.79 96.4282 73.7422 96.2641C73.6943 96.1 73.8379 95.9031 74.0771 95.8702C74.3642 95.8046 74.6513 95.7718 74.9384 95.7061C75.1776 95.6405 75.4647 95.7389 75.5604 95.9031C75.6083 95.9031 75.6083 95.9359 75.6083 96.0015ZM72.7852 84.0538C72.7852 84.0867 72.7852 84.0867 72.7852 84.0538C72.7852 84.2508 72.546 84.3821 72.2589 84.3821C71.9718 84.3821 71.6847 84.3492 71.3976 84.3492C71.1105 84.3492 70.9191 84.2179 70.9191 84.021C70.9191 83.8241 71.1105 83.6928 71.3976 83.6928C71.7325 83.6928 72.0196 83.6928 72.3546 83.7256C72.5938 83.7584 72.7852 83.8897 72.7852 84.0538ZM71.8761 96.3954C71.8761 96.5924 71.6847 96.7236 71.3976 96.7236C71.0627 96.7236 70.7277 96.7236 70.4406 96.6908C70.2014 96.6908 69.9622 96.5267 70.01 96.3298C70.01 96.1328 70.2492 96.0015 70.5363 96.0344C70.8234 96.0344 71.1584 96.0672 71.4455 96.0672C71.6847 96.0672 71.8761 96.2313 71.8761 96.3954ZM69.0052 84.2836C69.0052 84.4149 68.8616 84.579 68.6224 84.6118C68.3353 84.6775 68.0482 84.7103 67.7611 84.7759C67.5219 84.8416 67.2348 84.7431 67.1391 84.579C67.0434 84.4149 67.1869 84.2179 67.4262 84.1523C67.7133 84.0867 68.0482 84.021 68.3832 83.9554C68.6224 83.9225 68.9095 84.021 68.9573 84.1851C69.0052 84.2179 69.0052 84.2508 69.0052 84.2836ZM68.1439 96.0015C68.1439 96.0344 68.1439 96.0672 68.0961 96.1C68.0004 96.2641 67.7611 96.3626 67.474 96.2969C67.1869 96.2313 66.852 96.1328 66.5649 96.0672C66.3257 96.0015 66.23 95.8046 66.3257 95.6405C66.4214 95.4764 66.7085 95.4107 66.9477 95.4764C67.2348 95.5748 67.5219 95.6405 67.809 95.7061C68.0482 95.7389 68.1439 95.8702 68.1439 96.0015ZM65.5601 85.3339C65.5601 85.4324 65.4644 85.5309 65.3687 85.5965C65.1295 85.7278 64.8902 85.8263 64.651 85.9576C64.4596 86.0889 64.1246 86.0561 63.9811 85.9248C63.7897 85.7935 63.8376 85.5637 64.029 85.4652C64.2682 85.3339 64.5553 85.1698 64.8424 85.0714C65.0816 84.9729 65.3687 85.0057 65.5123 85.1698C65.5601 85.2026 65.5601 85.2683 65.5601 85.3339ZM64.8424 94.7542C64.8424 94.8199 64.7945 94.8855 64.7467 94.9512C64.6031 95.0825 64.2682 95.1153 64.0768 94.984C63.8376 94.8527 63.5505 94.6886 63.3591 94.5245C63.1677 94.3932 63.1677 94.1962 63.3591 94.065C63.5505 93.9337 63.8376 93.9337 64.029 94.065C64.2203 94.1962 64.4596 94.3604 64.6988 94.4917C64.7945 94.5573 64.8424 94.6558 64.8424 94.7542ZM62.9284 87.172C62.9284 87.2377 62.8806 87.3033 62.8327 87.3362C62.6892 87.5003 62.4978 87.6972 62.4021 87.8613C62.3064 88.0255 61.9715 88.0911 61.7801 87.9926C61.5408 87.927 61.4451 87.73 61.5887 87.5659C61.7322 87.369 61.9236 87.172 62.0672 86.9751C62.2107 86.811 62.4978 86.7782 62.737 86.8766C62.8327 86.9423 62.9284 87.0736 62.9284 87.172ZM62.45 92.752C62.45 92.8833 62.3543 92.9818 62.2107 93.0474C61.9715 93.1459 61.6844 93.0803 61.5887 92.9161C61.4451 92.7192 61.3016 92.4894 61.2059 92.2925C61.1102 92.1284 61.2537 91.9314 61.493 91.8658C61.7322 91.8001 62.0193 91.8986 62.115 92.0627C62.2107 92.2597 62.3543 92.4566 62.4978 92.6207C62.45 92.6536 62.45 92.6864 62.45 92.752ZM61.6365 89.601L61.6365 89.6338C61.5887 89.8307 61.5887 90.0277 61.5887 90.2246C61.5887 90.4216 61.3973 90.5529 61.1102 90.5529C60.8231 90.5529 60.6317 90.4216 60.6317 90.2246C60.6317 89.9949 60.6317 89.7651 60.6796 89.5682C60.7274 89.404 60.9667 89.2727 61.2059 89.2727C61.4451 89.2727 61.6365 89.4369 61.6365 89.601Z" fill="#FFBFCD"/>
<path d="M71.8761 98.2663L71.8761 100.236C72.211 100.236 72.4981 100.203 72.8331 100.203L72.8331 98.2335C72.4981 98.2335 72.211 98.2663 71.8761 98.2663Z" fill="#F48BA2"/>
<path d="M69.4836 98.2007L69.4836 100.17C69.8186 100.203 70.1057 100.203 70.4406 100.236L70.4406 98.2663C70.1057 98.2335 69.8186 98.2335 69.4836 98.2007Z" fill="#F48BA2"/>
<path d="M74.2686 98.1023L74.2686 100.072C74.6035 100.039 74.8906 99.9732 75.2255 99.9075L75.2255 97.9381C74.8906 98.0038 74.6035 98.0366 74.2686 98.1023Z" fill="#F48BA2"/>
<path d="M76.6609 97.6426L76.6609 99.612C76.9958 99.5136 77.2829 99.4479 77.6179 99.3495L77.6179 97.3801C77.2829 97.4457 76.9958 97.5442 76.6609 97.6426Z" fill="#F48BA2"/>
<path d="M67.0913 97.8396L67.0913 99.809C67.4262 99.8747 67.7133 99.9403 68.0483 99.9731L68.0483 98.0037C67.7133 97.9709 67.4262 97.9053 67.0913 97.8396Z" fill="#F48BA2"/>
<path d="M64.6989 97.1832L64.6989 99.1526C65.0338 99.251 65.3209 99.3495 65.6558 99.448L65.6558 97.4786C65.3209 97.4129 65.0338 97.3145 64.6989 97.1832Z" fill="#F48BA2"/>
<path d="M61.8279 95.8701L61.8279 97.8395C62.115 98.0365 62.4499 98.2006 62.7848 98.3647L62.7848 96.3953C62.4499 96.2312 62.115 96.0342 61.8279 95.8701Z" fill="#F48BA2"/>
<path d="M59.4355 93.8351L59.4355 95.8045C59.7226 96.1327 60.0576 96.4609 60.3925 96.7563L60.3925 94.7869C60.0576 94.4915 59.7226 94.1961 59.4355 93.8351Z" fill="#F48BA2"/>
<path d="M79.5319 96.6251L79.5319 98.5945C79.8668 98.4304 80.2017 98.2663 80.4888 98.1022L80.4888 96.1328C80.2017 96.2969 79.8668 96.461 79.5319 96.6251Z" fill="#F48BA2"/>
<path d="M81.9243 97.1831C82.2593 96.9205 82.5942 96.6579 82.8813 96.3625L82.8813 94.3931C82.5942 94.6885 82.2593 94.9511 81.9243 95.2137L81.9243 97.1831Z" fill="#F48BA2"/>
<path d="M73.8763 89.733L73.8763 91.0232L75.2255 91.0232L75.2255 92.0329L73.8763 92.0329L73.8763 92.8543L72.6906 92.8543L72.6906 92.0329L72.0656 92.0329L72.0656 92.8543L70.8799 92.8543L70.8799 92.0329L66.7212 92.0329L66.7212 89.8011C66.7212 89.1574 66.9665 88.6432 67.4571 88.2585C67.9439 87.8739 68.5922 87.6815 69.4022 87.6815C70.2277 87.6815 70.876 87.8645 71.3472 88.2305C71.8144 88.5964 72.0539 89.1053 72.0656 89.757L72.0656 91.0232L72.6906 91.0232L72.6906 89.733L73.8763 89.733ZM70.8799 91.0232L70.8799 89.8171C70.8799 89.4539 70.7572 89.1761 70.5119 88.9837C70.2666 88.7914 69.9006 88.6952 69.4138 88.6952C68.9777 88.6952 68.6214 88.7901 68.345 88.9797C68.0685 89.1667 67.9244 89.4258 67.9127 89.757L67.9127 91.0232L70.8799 91.0232Z" fill="#F48BA2"/>
<path d="M84.7951 88.1031C84.7951 92.5343 78.8141 96.1448 71.3976 96.1448C63.9811 96.1448 58 92.5343 58 88.1031C58 83.672 63.9811 80.0614 71.3976 80.0614C78.8141 80.0614 84.7951 83.672 84.7951 88.1031Z" fill="white"/>
<path d="M71.3976 96.1448C64.5552 96.1448 58.9091 93.0594 58.0957 89.0878C58.0478 89.416 58 89.7442 58 90.0725C58 94.5036 63.9811 98.1142 71.3976 98.1142C78.8141 98.1142 84.7951 94.5036 84.7951 90.0725C84.7951 89.7442 84.7473 89.416 84.6994 89.0878C83.886 93.0594 78.2399 96.1448 71.3976 96.1448Z" fill="#FFBFCD"/>
<path d="M82.1635 88.0703C82.1635 88.3329 82.1635 88.5627 82.1157 88.7924C82.0678 88.9566 81.8286 89.0878 81.5893 89.0878C81.3501 89.055 81.1587 88.8909 81.1587 88.7268C81.2065 88.5298 81.2065 88.3329 81.2065 88.1031C81.2065 87.9062 81.3979 87.7749 81.685 87.7749C81.9721 87.7749 82.1635 87.9062 82.1635 88.0703ZM81.6372 86.1666C81.6372 86.2979 81.5415 86.4292 81.3501 86.462C81.1108 86.5276 80.8237 86.4292 80.728 86.265C80.6324 86.0681 80.4888 85.8712 80.3453 85.707C80.2017 85.5429 80.2974 85.346 80.5367 85.2803C80.7759 85.1819 81.063 85.2475 81.1587 85.4116C81.3022 85.6086 81.4458 85.8383 81.5415 86.0353C81.6372 86.1009 81.6372 86.1337 81.6372 86.1666ZM81.3022 90.5977C81.3022 90.6634 81.3022 90.6962 81.2544 90.7618C81.1108 90.9588 80.9194 91.1557 80.7759 91.3527C80.6324 91.5168 80.3453 91.5496 80.106 91.4511C79.8668 91.3527 79.8189 91.1557 79.9625 90.9916C80.106 90.8275 80.2974 90.6305 80.3931 90.4664C80.5367 90.3023 80.8237 90.2367 81.0151 90.3351C81.2065 90.368 81.3022 90.4993 81.3022 90.5977ZM79.5797 84.0002C79.5797 84.0987 79.5318 84.1643 79.4361 84.23C79.2447 84.3613 78.9577 84.3613 78.7663 84.23C78.5749 84.0987 78.3356 83.9346 78.0964 83.8033C77.905 83.7048 77.8571 83.4751 78.0485 83.3438C78.2399 83.2125 78.527 83.1796 78.7184 83.3109C78.9577 83.4422 79.2447 83.6063 79.4361 83.7705C79.5318 83.8361 79.5797 83.9346 79.5797 84.0002ZM78.9098 92.5999C78.9098 92.6984 78.862 92.7969 78.7184 92.8625C78.4792 92.9938 78.1921 93.1579 77.905 93.2564C77.6658 93.3549 77.3787 93.3221 77.2351 93.1579C77.0916 92.9938 77.1394 92.7969 77.3787 92.6984C77.6179 92.5671 77.8571 92.4687 78.0964 92.3374C78.2878 92.2061 78.6227 92.2389 78.7663 92.3702C78.862 92.4687 78.9098 92.5343 78.9098 92.5999ZM76.4695 82.556C76.4695 82.5888 76.4695 82.6545 76.4217 82.6873C76.326 82.8514 76.0389 82.9171 75.7997 82.8514C75.5126 82.7529 75.2255 82.6873 74.9384 82.6216C74.6991 82.556 74.5556 82.3919 74.6513 82.1949C74.747 82.0308 74.9862 81.9324 75.2733 81.998C75.6083 82.0636 75.8954 82.1621 76.1824 82.2278C76.3738 82.3262 76.4695 82.4247 76.4695 82.556ZM75.6083 93.8801C75.6083 94.0114 75.4647 94.1426 75.2733 94.1755C74.9862 94.2411 74.6513 94.3068 74.3164 94.3724C74.0771 94.4052 73.79 94.3068 73.7422 94.1426C73.6943 93.9785 73.8379 93.7816 74.0771 93.7488C74.3642 93.6831 74.6513 93.6503 74.9384 93.5846C75.1776 93.519 75.4647 93.6175 75.5604 93.7816C75.6083 93.7816 75.6083 93.8144 75.6083 93.8801ZM72.7852 81.9324C72.7852 81.9652 72.7852 81.9652 72.7852 81.9324C72.7852 82.1293 72.546 82.2606 72.2589 82.2606C71.9718 82.2606 71.6847 82.2278 71.3976 82.2278C71.1105 82.2278 70.9191 82.0965 70.9191 81.8995C70.9191 81.7026 71.1105 81.5713 71.3976 81.5713C71.7325 81.5713 72.0196 81.5713 72.3546 81.6041C72.5938 81.6369 72.7852 81.7682 72.7852 81.9324ZM71.8761 94.2739C71.8761 94.4709 71.6847 94.6022 71.3976 94.6022C71.0627 94.6022 70.7277 94.6022 70.4406 94.5693C70.2014 94.5693 69.9622 94.4052 70.01 94.2083C70.01 94.0114 70.2492 93.8801 70.5363 93.9129C70.8234 93.9129 71.1584 93.9457 71.4455 93.9457C71.6847 93.9457 71.8761 94.1098 71.8761 94.2739ZM69.0052 82.1621C69.0052 82.2934 68.8616 82.4575 68.6224 82.4904C68.3353 82.556 68.0482 82.5888 67.7611 82.6545C67.5219 82.7201 67.2348 82.6216 67.1391 82.4575C67.0434 82.2934 67.1869 82.0965 67.4262 82.0308C67.7133 81.9652 68.0482 81.8995 68.3832 81.8339C68.6224 81.8011 68.9095 81.8995 68.9573 82.0636C69.0052 82.0965 69.0052 82.1293 69.0052 82.1621ZM68.1439 93.8801C68.1439 93.9129 68.1439 93.9457 68.0961 93.9785C68.0004 94.1426 67.7611 94.2411 67.474 94.1755C67.1869 94.1098 66.852 94.0114 66.5649 93.9457C66.3257 93.8801 66.23 93.6831 66.3257 93.519C66.4214 93.3549 66.7085 93.2892 66.9477 93.3549C67.2348 93.4534 67.5219 93.519 67.809 93.5846C68.0482 93.6175 68.1439 93.7488 68.1439 93.8801ZM65.5601 83.2125C65.5601 83.3109 65.4644 83.4094 65.3687 83.4751C65.1295 83.6063 64.8902 83.7048 64.651 83.8361C64.4596 83.9674 64.1246 83.9346 63.9811 83.8033C63.7897 83.672 63.8376 83.4422 64.029 83.3438C64.2682 83.2125 64.5553 83.0483 64.8424 82.9499C65.0816 82.8514 65.3687 82.8842 65.5123 83.0483C65.5601 83.0812 65.5601 83.1468 65.5601 83.2125ZM64.8424 92.6328C64.8424 92.6984 64.7945 92.7641 64.7467 92.8297C64.6031 92.961 64.2682 92.9938 64.0768 92.8625C63.8376 92.7312 63.5505 92.5671 63.3591 92.403C63.1677 92.2717 63.1677 92.0748 63.3591 91.9435C63.5505 91.8122 63.8376 91.8122 64.029 91.9435C64.2203 92.0748 64.4596 92.2389 64.6988 92.3702C64.7945 92.4358 64.8424 92.5343 64.8424 92.6328ZM62.9284 85.0506C62.9284 85.1162 62.8806 85.1819 62.8327 85.2147C62.6892 85.3788 62.4978 85.5757 62.4021 85.7399C62.3064 85.904 61.9715 85.9696 61.7801 85.8712C61.5408 85.8055 61.4451 85.6086 61.5887 85.4445C61.7322 85.2475 61.9236 85.0506 62.0672 84.8536C62.2107 84.6895 62.4978 84.6567 62.737 84.7552C62.8327 84.8208 62.9284 84.9521 62.9284 85.0506ZM62.45 90.6305C62.45 90.7618 62.3543 90.8603 62.2107 90.926C61.9715 91.0244 61.6844 90.9588 61.5887 90.7947C61.4451 90.5977 61.3016 90.368 61.2059 90.171C61.1102 90.0069 61.2537 89.81 61.493 89.7443C61.7322 89.6787 62.0193 89.7771 62.115 89.9413C62.2107 90.1382 62.3543 90.3351 62.4978 90.4993C62.45 90.5321 62.45 90.5649 62.45 90.6305ZM61.6365 87.4795L61.6365 87.5123C61.5887 87.7093 61.5887 87.9062 61.5887 88.1031C61.5887 88.3001 61.3973 88.4314 61.1102 88.4314C60.8231 88.4314 60.6317 88.3001 60.6317 88.1031C60.6317 87.8734 60.6317 87.6436 60.6796 87.4467C60.7274 87.2826 60.9667 87.1513 61.2059 87.1513C61.4451 87.1513 61.6365 87.3154 61.6365 87.4795Z" fill="#FFBFCD"/>
<path d="M71.8761 96.1449L71.8761 98.1143C72.211 98.1143 72.4981 98.0814 72.8331 98.0814L72.8331 96.112C72.4981 96.112 72.211 96.1449 71.8761 96.1449Z" fill="#F48BA2"/>
<path d="M69.4836 96.0792L69.4836 98.0486C69.8186 98.0814 70.1057 98.0814 70.4406 98.1143L70.4406 96.1449C70.1057 96.112 69.8186 96.112 69.4836 96.0792Z" fill="#F48BA2"/>
<path d="M74.2686 95.9808L74.2686 97.9502C74.6035 97.9174 74.8906 97.8517 75.2255 97.7861L75.2255 95.8167C74.8906 95.8823 74.6035 95.9151 74.2686 95.9808Z" fill="#F48BA2"/>
<path d="M76.6609 95.5213L76.6609 97.4907C76.9958 97.3922 77.2829 97.3266 77.6179 97.2281L77.6179 95.2587C77.2829 95.3243 76.9958 95.4228 76.6609 95.5213Z" fill="#F48BA2"/>
<path d="M67.0913 95.7183L67.0913 97.6877C67.4262 97.7533 67.7133 97.819 68.0483 97.8518L68.0483 95.8824C67.7133 95.8496 67.4262 95.7839 67.0913 95.7183Z" fill="#F48BA2"/>
<path d="M64.6989 95.0617L64.6989 97.0311C65.0338 97.1296 65.3209 97.228 65.6558 97.3265L65.6558 95.3571C65.3209 95.2915 65.0338 95.193 64.6989 95.0617Z" fill="#F48BA2"/>
<path d="M61.8279 93.7488L61.8279 95.7182C62.115 95.9151 62.4499 96.0792 62.7848 96.2433L62.7848 94.2739C62.4499 94.1098 62.115 93.9129 61.8279 93.7488Z" fill="#F48BA2"/>
<path d="M59.4355 91.7137L59.4355 93.6831C59.7226 94.0114 60.0576 94.3396 60.3925 94.635L60.3925 92.6656C60.0576 92.3702 59.7226 92.0748 59.4355 91.7137Z" fill="#F48BA2"/>
<path d="M79.5319 94.5038L79.5319 96.4732C79.8668 96.3091 80.2017 96.145 80.4888 95.9809L80.4888 94.0115C80.2017 94.1756 79.8668 94.3397 79.5319 94.5038Z" fill="#F48BA2"/>
<path d="M81.9243 95.0617C82.2593 94.7991 82.5942 94.5365 82.8813 94.2411L82.8813 92.2717C82.5942 92.5671 82.2593 92.8297 81.9243 93.0923L81.9243 95.0617Z" fill="#F48BA2"/>
<path d="M73.8763 87.6116L73.8763 88.9018L75.2255 88.9018L75.2255 89.9115L73.8763 89.9115L73.8763 90.7329L72.6906 90.7329L72.6906 89.9115L72.0656 89.9115L72.0656 90.7329L70.8799 90.7329L70.8799 89.9115L66.7212 89.9115L66.7212 87.6797C66.7212 87.036 66.9665 86.5218 67.4571 86.1371C67.9439 85.7525 68.5922 85.5602 69.4022 85.5602C70.2277 85.5602 70.876 85.7431 71.3472 86.1091C71.8144 86.475 72.0539 86.9839 72.0656 87.6357L72.0656 88.9018L72.6906 88.9018L72.6906 87.6116L73.8763 87.6116ZM70.8799 88.9018L70.8799 87.6958C70.8799 87.3325 70.7572 87.0547 70.5119 86.8624C70.2666 86.67 69.9006 86.5739 69.4138 86.5739C68.9777 86.5739 68.6214 86.6687 68.345 86.8584C68.0685 87.0453 67.9244 87.3044 67.9127 87.6357L67.9127 88.9018L70.8799 88.9018Z" fill="#F48BA2"/>
<path d="M84.7951 85.973C84.7951 90.4041 78.8141 94.0147 71.3976 94.0147C63.9811 94.0147 58 90.4041 58 85.973C58 81.5418 63.9811 77.9312 71.3976 77.9312C78.8141 77.9312 84.7951 81.5418 84.7951 85.973Z" fill="white"/>
<path d="M71.3976 94.0147C64.5552 94.0147 58.9091 90.9293 58.0957 86.9576C58.0478 87.2859 58 87.6141 58 87.9423C58 92.3735 63.9811 95.9841 71.3976 95.9841C78.8141 95.9841 84.7951 92.3735 84.7951 87.9423C84.7951 87.6141 84.7473 87.2859 84.6994 86.9576C83.886 90.9293 78.2399 94.0147 71.3976 94.0147Z" fill="#FFBFCD"/>
<path d="M82.1635 85.9402C82.1635 86.2028 82.1635 86.4325 82.1157 86.6623C82.0678 86.8264 81.8286 86.9577 81.5893 86.9577C81.3501 86.9249 81.1587 86.7608 81.1587 86.5967C81.2065 86.3997 81.2065 86.2028 81.2065 85.973C81.2065 85.7761 81.3979 85.6448 81.685 85.6448C81.9721 85.6448 82.1635 85.7761 82.1635 85.9402ZM81.6372 84.0364C81.6372 84.1677 81.5415 84.299 81.3501 84.3319C81.1108 84.3975 80.8237 84.299 80.728 84.1349C80.6324 83.938 80.4888 83.741 80.3453 83.5769C80.2017 83.4128 80.2974 83.2159 80.5367 83.1502C80.7759 83.0517 81.063 83.1174 81.1587 83.2815C81.3022 83.4784 81.4458 83.7082 81.5415 83.9051C81.6372 83.9708 81.6372 84.0036 81.6372 84.0364ZM81.3022 88.4676C81.3022 88.5332 81.3022 88.5661 81.2544 88.6317C81.1108 88.8287 80.9194 89.0256 80.7759 89.2225C80.6324 89.3866 80.3453 89.4195 80.106 89.321C79.8668 89.2225 79.8189 89.0256 79.9625 88.8615C80.106 88.6974 80.2974 88.5004 80.3931 88.3363C80.5367 88.1722 80.8237 88.1065 81.0151 88.205C81.2065 88.2378 81.3022 88.3691 81.3022 88.4676ZM79.5797 81.8701C79.5797 81.9686 79.5318 82.0342 79.4361 82.0999C79.2447 82.2312 78.9577 82.2312 78.7663 82.0999C78.5749 81.9686 78.3356 81.8045 78.0964 81.6732C77.905 81.5747 77.8571 81.3449 78.0485 81.2136C78.2399 81.0823 78.527 81.0495 78.7184 81.1808C78.9577 81.3121 79.2447 81.4762 79.4361 81.6403C79.5318 81.706 79.5797 81.8045 79.5797 81.8701ZM78.9098 90.4698C78.9098 90.5683 78.862 90.6668 78.7184 90.7324C78.4792 90.8637 78.1921 91.0278 77.905 91.1263C77.6658 91.2248 77.3787 91.1919 77.2351 91.0278C77.0916 90.8637 77.1394 90.6668 77.3787 90.5683C77.6179 90.437 77.8571 90.3385 78.0964 90.2072C78.2878 90.0759 78.6227 90.1088 78.7663 90.2401C78.862 90.3385 78.9098 90.4042 78.9098 90.4698ZM76.4695 80.4259C76.4695 80.4587 76.4695 80.5243 76.4217 80.5572C76.326 80.7213 76.0389 80.7869 75.7997 80.7213C75.5126 80.6228 75.2255 80.5572 74.9384 80.4915C74.6991 80.4259 74.5556 80.2618 74.6513 80.0648C74.747 79.9007 74.9862 79.8022 75.2733 79.8679C75.6083 79.9335 75.8954 80.032 76.1824 80.0976C76.3738 80.1961 76.4695 80.2946 76.4695 80.4259ZM75.6083 91.7499C75.6083 91.8812 75.4647 92.0125 75.2733 92.0453C74.9862 92.111 74.6513 92.1766 74.3164 92.2423C74.0771 92.2751 73.79 92.1766 73.7422 92.0125C73.6943 91.8484 73.8379 91.6515 74.0771 91.6186C74.3642 91.553 74.6513 91.5202 74.9384 91.4545C75.1776 91.3889 75.4647 91.4873 75.5604 91.6515C75.6083 91.6515 75.6083 91.6843 75.6083 91.7499ZM72.7852 79.8022C72.7852 79.835 72.7852 79.835 72.7852 79.8022C72.7852 79.9992 72.546 80.1305 72.2589 80.1305C71.9718 80.1305 71.6847 80.0976 71.3976 80.0976C71.1105 80.0976 70.9191 79.9663 70.9191 79.7694C70.9191 79.5725 71.1105 79.4412 71.3976 79.4412C71.7325 79.4412 72.0196 79.4412 72.3546 79.474C72.5938 79.5068 72.7852 79.6381 72.7852 79.8022ZM71.8761 92.1438C71.8761 92.3408 71.6847 92.472 71.3976 92.472C71.0627 92.472 70.7277 92.472 70.4406 92.4392C70.2014 92.4392 69.9622 92.2751 70.01 92.0782C70.01 91.8812 70.2492 91.7499 70.5363 91.7828C70.8234 91.7828 71.1584 91.8156 71.4455 91.8156C71.6847 91.8156 71.8761 91.9797 71.8761 92.1438ZM69.0052 80.032C69.0052 80.1633 68.8616 80.3274 68.6224 80.3602C68.3353 80.4259 68.0482 80.4587 67.7611 80.5243C67.5219 80.59 67.2348 80.4915 67.1391 80.3274C67.0434 80.1633 67.1869 79.9663 67.4262 79.9007C67.7133 79.835 68.0482 79.7694 68.3832 79.7038C68.6224 79.6709 68.9095 79.7694 68.9573 79.9335C69.0052 79.9663 69.0052 79.9992 69.0052 80.032ZM68.1439 91.7499C68.1439 91.7828 68.1439 91.8156 68.0961 91.8484C68.0004 92.0125 67.7611 92.111 67.474 92.0453C67.1869 91.9797 66.852 91.8812 66.5649 91.8156C66.3257 91.7499 66.23 91.553 66.3257 91.3889C66.4214 91.2248 66.7085 91.1591 66.9477 91.2248C67.2348 91.3232 67.5219 91.3889 67.809 91.4545C68.0482 91.4873 68.1439 91.6186 68.1439 91.7499ZM65.5601 81.0823C65.5601 81.1808 65.4644 81.2793 65.3687 81.3449C65.1295 81.4762 64.8902 81.5747 64.651 81.706C64.4596 81.8373 64.1246 81.8045 63.9811 81.6732C63.7897 81.5419 63.8376 81.3121 64.029 81.2136C64.2682 81.0823 64.5553 80.9182 64.8424 80.8197C65.0816 80.7213 65.3687 80.7541 65.5123 80.9182C65.5601 80.951 65.5601 81.0167 65.5601 81.0823ZM64.8424 90.5026C64.8424 90.5683 64.7945 90.6339 64.7467 90.6996C64.6031 90.8309 64.2682 90.8637 64.0768 90.7324C63.8376 90.6011 63.5505 90.437 63.3591 90.2729C63.1677 90.1416 63.1677 89.9446 63.3591 89.8134C63.5505 89.6821 63.8376 89.6821 64.029 89.8134C64.2203 89.9446 64.4596 90.1088 64.6988 90.2401C64.7945 90.3057 64.8424 90.4042 64.8424 90.5026ZM62.9284 82.9204C62.9284 82.9861 62.8806 83.0517 62.8327 83.0846C62.6892 83.2487 62.4978 83.4456 62.4021 83.6097C62.3064 83.7739 61.9715 83.8395 61.7801 83.741C61.5408 83.6754 61.4451 83.4784 61.5887 83.3143C61.7322 83.1174 61.9236 82.9204 62.0672 82.7235C62.2107 82.5594 62.4978 82.5266 62.737 82.625C62.8327 82.6907 62.9284 82.822 62.9284 82.9204ZM62.45 88.5004C62.45 88.6317 62.3543 88.7302 62.2107 88.7958C61.9715 88.8943 61.6844 88.8287 61.5887 88.6645C61.4451 88.4676 61.3016 88.2378 61.2059 88.0409C61.1102 87.8768 61.2537 87.6798 61.493 87.6142C61.7322 87.5485 62.0193 87.647 62.115 87.8111C62.2107 88.0081 62.3543 88.205 62.4978 88.3691C62.45 88.4019 62.45 88.4348 62.45 88.5004ZM61.6365 85.3494L61.6365 85.3822C61.5887 85.5791 61.5887 85.7761 61.5887 85.973C61.5887 86.17 61.3973 86.3013 61.1102 86.3013C60.8231 86.3013 60.6317 86.17 60.6317 85.973C60.6317 85.7433 60.6317 85.5135 60.6796 85.3166C60.7274 85.1524 60.9667 85.0211 61.2059 85.0211C61.4451 85.0211 61.6365 85.1853 61.6365 85.3494Z" fill="#FFBFCD"/>
<path d="M71.8761 94.0147L71.8761 95.9841C72.211 95.9841 72.4981 95.9513 72.8331 95.9513L72.8331 93.9819C72.4981 93.9819 72.211 94.0147 71.8761 94.0147Z" fill="#F48BA2"/>
<path d="M69.4836 93.9491L69.4836 95.9185C69.8186 95.9513 70.1057 95.9513 70.4406 95.9841L70.4406 94.0147C70.1057 93.9819 69.8186 93.9819 69.4836 93.9491Z" fill="#F48BA2"/>
<path d="M74.2686 93.8508L74.2686 95.8202C74.6035 95.7874 74.8906 95.7217 75.2255 95.6561L75.2255 93.6867C74.8906 93.7523 74.6035 93.7851 74.2686 93.8508Z" fill="#F48BA2"/>
<path d="M76.6609 93.391L76.6609 95.3604C76.9958 95.262 77.2829 95.1963 77.6179 95.0979L77.6179 93.1285C77.2829 93.1941 76.9958 93.2926 76.6609 93.391Z" fill="#F48BA2"/>
<path d="M67.0913 93.588L67.0913 95.5574C67.4262 95.6231 67.7133 95.6887 68.0483 95.7215L68.0483 93.7521C67.7133 93.7193 67.4262 93.6537 67.0913 93.588Z" fill="#F48BA2"/>
<path d="M64.6989 92.9316L64.6989 94.901C65.0338 94.9994 65.3209 95.0979 65.6558 95.1964L65.6558 93.227C65.3209 93.1613 65.0338 93.0628 64.6989 92.9316Z" fill="#F48BA2"/>
<path d="M61.8279 91.6186L61.8279 93.588C62.115 93.785 62.4499 93.9491 62.7848 94.1132L62.7848 92.1438C62.4499 91.9797 62.115 91.7827 61.8279 91.6186Z" fill="#F48BA2"/>
<path d="M59.4355 89.5836L59.4355 91.553C59.7226 91.8812 60.0576 92.2095 60.3925 92.5049L60.3925 90.5355C60.0576 90.2401 59.7226 89.9447 59.4355 89.5836Z" fill="#F48BA2"/>
<path d="M79.5319 92.3736L79.5319 94.343C79.8668 94.1788 80.2017 94.0147 80.4888 93.8506L80.4888 91.8812C80.2017 92.0453 79.8668 92.2094 79.5319 92.3736Z" fill="#F48BA2"/>
<path d="M81.9243 92.9317C82.2593 92.6691 82.5942 92.4065 82.8813 92.1111L82.8813 90.1417C82.5942 90.4371 82.2593 90.6997 81.9243 90.9623L81.9243 92.9317Z" fill="#F48BA2"/>
<path d="M73.8763 85.4815L73.8763 86.7717L75.2255 86.7717L75.2255 87.7814L73.8763 87.7814L73.8763 88.6028L72.6906 88.6028L72.6906 87.7814L72.0656 87.7814L72.0656 88.6028L70.8799 88.6028L70.8799 87.7814L66.7212 87.7814L66.7212 85.5496C66.7212 84.9059 66.9665 84.3917 67.4571 84.007C67.9439 83.6224 68.5922 83.43 69.4022 83.43C70.2277 83.43 70.876 83.613 71.3472 83.979C71.8144 84.3449 72.0539 84.8538 72.0656 85.5055L72.0656 86.7717L72.6906 86.7717L72.6906 85.4815L73.8763 85.4815ZM70.8799 86.7717L70.8799 85.5656C70.8799 85.2024 70.7572 84.9246 70.5119 84.7322C70.2666 84.5399 69.9006 84.4438 69.4138 84.4438C68.9777 84.4438 68.6214 84.5386 68.345 84.7282C68.0685 84.9152 67.9244 85.1743 67.9127 85.5055L67.9127 86.7717L70.8799 86.7717Z" fill="#F48BA2"/>
<path d="M84.7951 83.8514C84.7951 88.2826 78.8141 91.8931 71.3976 91.8931C63.9811 91.8931 58 88.2826 58 83.8514C58 79.4202 63.9811 75.8097 71.3976 75.8097C78.8141 75.8097 84.7951 79.4202 84.7951 83.8514Z" fill="white"/>
<path d="M71.3976 91.8932C64.5552 91.8932 58.9091 88.8078 58.0957 84.8362C58.0478 85.1644 58 85.4926 58 85.8209C58 90.252 63.9811 93.8626 71.3976 93.8626C78.8141 93.8626 84.7951 90.252 84.7951 85.8209C84.7951 85.4926 84.7473 85.1644 84.6994 84.8362C83.886 88.8078 78.2399 91.8932 71.3976 91.8932Z" fill="#FFBFCD"/>
<path d="M82.1635 83.8186C82.1635 84.0812 82.1635 84.311 82.1157 84.5407C82.0678 84.7049 81.8286 84.8362 81.5893 84.8362C81.3501 84.8033 81.1587 84.6392 81.1587 84.4751C81.2065 84.2782 81.2065 84.0812 81.2065 83.8515C81.2065 83.6545 81.3979 83.5232 81.685 83.5232C81.9721 83.5232 82.1635 83.6545 82.1635 83.8186ZM81.6372 81.9149C81.6372 82.0462 81.5415 82.1775 81.3501 82.2103C81.1108 82.2759 80.8237 82.1775 80.728 82.0133C80.6324 81.8164 80.4888 81.6195 80.3453 81.4553C80.2017 81.2912 80.2974 81.0943 80.5367 81.0286C80.7759 80.9302 81.063 80.9958 81.1587 81.1599C81.3022 81.3569 81.4458 81.5866 81.5415 81.7836C81.6372 81.8492 81.6372 81.882 81.6372 81.9149ZM81.3022 86.346C81.3022 86.4117 81.3022 86.4445 81.2544 86.5101C81.1108 86.7071 80.9194 86.904 80.7759 87.101C80.6324 87.2651 80.3453 87.2979 80.106 87.1994C79.8668 87.101 79.8189 86.904 79.9625 86.7399C80.106 86.5758 80.2974 86.3789 80.3931 86.2147C80.5367 86.0506 80.8237 85.985 81.0151 86.0834C81.2065 86.1163 81.3022 86.2476 81.3022 86.346ZM79.5797 79.7485C79.5797 79.847 79.5318 79.9126 79.4361 79.9783C79.2447 80.1096 78.9577 80.1096 78.7663 79.9783C78.5749 79.847 78.3356 79.6829 78.0964 79.5516C77.905 79.4531 77.8571 79.2234 78.0485 79.0921C78.2399 78.9608 78.527 78.9279 78.7184 79.0592C78.9577 79.1905 79.2447 79.3546 79.4361 79.5188C79.5318 79.5844 79.5797 79.6829 79.5797 79.7485ZM78.9098 88.3483C78.9098 88.4467 78.862 88.5452 78.7184 88.6108C78.4792 88.7421 78.1921 88.9063 77.905 89.0047C77.6658 89.1032 77.3787 89.0704 77.2351 88.9063C77.0916 88.7421 77.1394 88.5452 77.3787 88.4467C77.6179 88.3154 77.8571 88.217 78.0964 88.0857C78.2878 87.9544 78.6227 87.9872 78.7663 88.1185C78.862 88.217 78.9098 88.2826 78.9098 88.3483ZM76.4695 78.3043C76.4695 78.3371 76.4695 78.4028 76.4217 78.4356C76.326 78.5997 76.0389 78.6654 75.7997 78.5997C75.5126 78.5012 75.2255 78.4356 74.9384 78.3699C74.6991 78.3043 74.5556 78.1402 74.6513 77.9432C74.747 77.7791 74.9862 77.6807 75.2733 77.7463C75.6083 77.812 75.8954 77.9104 76.1824 77.9761C76.3738 78.0745 76.4695 78.173 76.4695 78.3043ZM75.6083 89.6284C75.6083 89.7597 75.4647 89.891 75.2733 89.9238C74.9862 89.9894 74.6513 90.0551 74.3164 90.1207C74.0771 90.1535 73.79 90.0551 73.7422 89.891C73.6943 89.7268 73.8379 89.5299 74.0771 89.4971C74.3642 89.4314 74.6513 89.3986 74.9384 89.333C75.1776 89.2673 75.4647 89.3658 75.5604 89.5299C75.6083 89.5299 75.6083 89.5627 75.6083 89.6284ZM72.7852 77.6807C72.7852 77.7135 72.7852 77.7135 72.7852 77.6807C72.7852 77.8776 72.546 78.0089 72.2589 78.0089C71.9718 78.0089 71.6847 77.9761 71.3976 77.9761C71.1105 77.9761 70.9191 77.8448 70.9191 77.6478C70.9191 77.4509 71.1105 77.3196 71.3976 77.3196C71.7325 77.3196 72.0196 77.3196 72.3546 77.3524C72.5938 77.3852 72.7852 77.5165 72.7852 77.6807ZM71.8761 90.0222C71.8761 90.2192 71.6847 90.3505 71.3976 90.3505C71.0627 90.3505 70.7277 90.3505 70.4406 90.3177C70.2014 90.3177 69.9622 90.1535 70.01 89.9566C70.01 89.7597 70.2492 89.6284 70.5363 89.6612C70.8234 89.6612 71.1584 89.694 71.4455 89.694C71.6847 89.694 71.8761 89.8581 71.8761 90.0222ZM69.0052 77.9104C69.0052 78.0417 68.8616 78.2058 68.6224 78.2387C68.3353 78.3043 68.0482 78.3371 67.7611 78.4028C67.5219 78.4684 67.2348 78.3699 67.1391 78.2058C67.0434 78.0417 67.1869 77.8448 67.4262 77.7791C67.7133 77.7135 68.0482 77.6478 68.3832 77.5822C68.6224 77.5494 68.9095 77.6478 68.9573 77.812C69.0052 77.8448 69.0052 77.8776 69.0052 77.9104ZM68.1439 89.6284C68.1439 89.6612 68.1439 89.694 68.0961 89.7268C68.0004 89.891 67.7611 89.9894 67.474 89.9238C67.1869 89.8581 66.852 89.7597 66.5649 89.694C66.3257 89.6284 66.23 89.4314 66.3257 89.2673C66.4214 89.1032 66.7085 89.0375 66.9477 89.1032C67.2348 89.2017 67.5219 89.2673 67.809 89.333C68.0482 89.3658 68.1439 89.4971 68.1439 89.6284ZM65.5601 78.9608C65.5601 79.0592 65.4644 79.1577 65.3687 79.2234C65.1295 79.3547 64.8902 79.4531 64.651 79.5844C64.4596 79.7157 64.1246 79.6829 63.9811 79.5516C63.7897 79.4203 63.8376 79.1905 64.029 79.0921C64.2682 78.9608 64.5553 78.7967 64.8424 78.6982C65.0816 78.5997 65.3687 78.6325 65.5123 78.7967C65.5601 78.8295 65.5601 78.8951 65.5601 78.9608ZM64.8424 88.3811C64.8424 88.4467 64.7945 88.5124 64.7467 88.578C64.6031 88.7093 64.2682 88.7421 64.0768 88.6108C63.8376 88.4795 63.5505 88.3154 63.3591 88.1513C63.1677 88.02 63.1677 87.8231 63.3591 87.6918C63.5505 87.5605 63.8376 87.5605 64.029 87.6918C64.2203 87.8231 64.4596 87.9872 64.6988 88.1185C64.7945 88.1841 64.8424 88.2826 64.8424 88.3811ZM62.9284 80.7989C62.9284 80.8645 62.8806 80.9302 62.8327 80.963C62.6892 81.1271 62.4978 81.3241 62.4021 81.4882C62.3064 81.6523 61.9715 81.7179 61.7801 81.6195C61.5408 81.5538 61.4451 81.3569 61.5887 81.1928C61.7322 80.9958 61.9236 80.7989 62.0672 80.6019C62.2107 80.4378 62.4978 80.405 62.737 80.5035C62.8327 80.5691 62.9284 80.7004 62.9284 80.7989ZM62.45 86.3789C62.45 86.5101 62.3543 86.6086 62.2107 86.6743C61.9715 86.7727 61.6844 86.7071 61.5887 86.543C61.4451 86.346 61.3016 86.1163 61.2059 85.9193C61.1102 85.7552 61.2537 85.5583 61.493 85.4926C61.7322 85.427 62.0193 85.5254 62.115 85.6896C62.2107 85.8865 62.3543 86.0834 62.4978 86.2476C62.45 86.2804 62.45 86.3132 62.45 86.3789ZM61.6365 83.2278L61.6365 83.2606C61.5887 83.4576 61.5887 83.6545 61.5887 83.8515C61.5887 84.0484 61.3973 84.1797 61.1102 84.1797C60.8231 84.1797 60.6317 84.0484 60.6317 83.8515C60.6317 83.6217 60.6317 83.3919 60.6796 83.195C60.7274 83.0309 60.9667 82.8996 61.2059 82.8996C61.4451 82.8996 61.6365 83.0637 61.6365 83.2278Z" fill="#FFBFCD"/>
<path d="M71.8761 91.8931L71.8761 93.8625C72.211 93.8625 72.4981 93.8297 72.8331 93.8297L72.8331 91.8603C72.4981 91.8603 72.211 91.8931 71.8761 91.8931Z" fill="#F48BA2"/>
<path d="M69.4836 91.8275L69.4836 93.7969C69.8186 93.8297 70.1057 93.8297 70.4406 93.8625L70.4406 91.8931C70.1057 91.8603 69.8186 91.8603 69.4836 91.8275Z" fill="#F48BA2"/>
<path d="M74.2686 91.729L74.2686 93.6984C74.6035 93.6655 74.8906 93.5999 75.2255 93.5342L75.2255 91.5648C74.8906 91.6305 74.6035 91.6633 74.2686 91.729Z" fill="#F48BA2"/>
<path d="M76.6609 91.2695L76.6609 93.2389C76.9958 93.1404 77.2829 93.0748 77.6179 92.9763L77.6179 91.0069C77.2829 91.0725 76.9958 91.171 76.6609 91.2695Z" fill="#F48BA2"/>
<path d="M67.0913 91.4665L67.0913 93.4359C67.4262 93.5015 67.7133 93.5672 68.0483 93.6L68.0483 91.6306C67.7133 91.5977 67.4262 91.5321 67.0913 91.4665Z" fill="#F48BA2"/>
<path d="M64.6989 90.81L64.6989 92.7794C65.0338 92.8779 65.3209 92.9763 65.6558 93.0748L65.6558 91.1054C65.3209 91.0398 65.0338 90.9413 64.6989 90.81Z" fill="#F48BA2"/>
<path d="M61.8279 89.4969L61.8279 91.4663C62.115 91.6633 62.4499 91.8274 62.7848 91.9915L62.7848 90.0221C62.4499 89.858 62.115 89.6611 61.8279 89.4969Z" fill="#F48BA2"/>
<path d="M59.4355 87.4621L59.4355 89.4315C59.7226 89.7597 60.0576 90.0879 60.3925 90.3833L60.3925 88.4139C60.0576 88.1185 59.7226 87.8231 59.4355 87.4621Z" fill="#F48BA2"/>
<path d="M79.5319 90.252L79.5319 92.2214C79.8668 92.0573 80.2017 91.8932 80.4888 91.729L80.4888 89.7596C80.2017 89.9238 79.8668 90.0879 79.5319 90.252Z" fill="#F48BA2"/>
<path d="M81.9243 90.8098C82.2593 90.5473 82.5942 90.2847 82.8813 89.9893L82.8813 88.0199C82.5942 88.3153 82.2593 88.5779 81.9243 88.8404L81.9243 90.8098Z" fill="#F48BA2"/>
<path d="M73.8763 83.36L73.8763 84.6501L75.2255 84.6501L75.2255 85.6598L73.8763 85.6598L73.8763 86.4812L72.6906 86.4812L72.6906 85.6598L72.0656 85.6598L72.0656 86.4812L70.8799 86.4812L70.8799 85.6598L66.7212 85.6598L66.7212 83.4281C66.7212 82.7843 66.9665 82.2701 67.4571 81.8855C67.9439 81.5008 68.5922 81.3085 69.4022 81.3085C70.2277 81.3085 70.876 81.4915 71.3472 81.8574C71.8144 82.2234 72.0539 82.7322 72.0656 83.384L72.0656 84.6501L72.6906 84.6501L72.6906 83.36L73.8763 83.36ZM70.8799 84.6501L70.8799 83.4441C70.8799 83.0808 70.7572 82.803 70.5119 82.6107C70.2666 82.4184 69.9006 82.3222 69.4138 82.3222C68.9777 82.3222 68.6214 82.417 68.345 82.6067C68.0685 82.7937 67.9244 83.0528 67.9127 83.384L67.9127 84.6501L70.8799 84.6501Z" fill="#F48BA2"/>
<path d="M84.7951 81.6444C84.7951 86.0755 78.8141 89.6861 71.3976 89.6861C63.9811 89.6861 58 86.0755 58 81.6444C58 77.2132 63.9811 73.6026 71.3976 73.6026C78.8141 73.6026 84.7951 77.2132 84.7951 81.6444Z" fill="white"/>
<path d="M71.3976 89.6862C64.5552 89.6862 58.9091 86.6008 58.0957 82.6292C58.0478 82.9574 58 83.2856 58 83.6139C58 88.045 63.9811 91.6556 71.3976 91.6556C78.8141 91.6556 84.7951 88.045 84.7951 83.6139C84.7951 83.2856 84.7473 82.9574 84.6994 82.6292C83.886 86.6008 78.2399 89.6862 71.3976 89.6862Z" fill="#FFBFCD"/>
<path d="M82.1635 81.6116C82.1635 81.8742 82.1635 82.1039 82.1157 82.3337C82.0678 82.4978 81.8286 82.6291 81.5893 82.6291C81.3501 82.5963 81.1587 82.4322 81.1587 82.2681C81.2065 82.0711 81.2065 81.8742 81.2065 81.6444C81.2065 81.4475 81.3979 81.3162 81.685 81.3162C81.9721 81.3162 82.1635 81.4475 82.1635 81.6116ZM81.6372 79.7078C81.6372 79.8391 81.5415 79.9704 81.3501 80.0033C81.1108 80.0689 80.8237 79.9704 80.728 79.8063C80.6324 79.6094 80.4888 79.4124 80.3453 79.2483C80.2017 79.0842 80.2974 78.8873 80.5367 78.8216C80.7759 78.7231 81.063 78.7888 81.1587 78.9529C81.3022 79.1498 81.4458 79.3796 81.5415 79.5765C81.6372 79.6422 81.6372 79.675 81.6372 79.7078ZM81.3022 84.139C81.3022 84.2046 81.3022 84.2375 81.2544 84.3031C81.1108 84.5001 80.9194 84.697 80.7759 84.8939C80.6324 85.0581 80.3453 85.0909 80.106 84.9924C79.8668 84.8939 79.8189 84.697 79.9625 84.5329C80.106 84.3688 80.2974 84.1718 80.3931 84.0077C80.5367 83.8436 80.8237 83.7779 81.0151 83.8764C81.2065 83.9092 81.3022 84.0405 81.3022 84.139ZM79.5797 77.5415C79.5797 77.64 79.5318 77.7056 79.4361 77.7713C79.2447 77.9026 78.9577 77.9026 78.7663 77.7713C78.5749 77.64 78.3356 77.4759 78.0964 77.3446C77.905 77.2461 77.8571 77.0163 78.0485 76.885C78.2399 76.7537 78.527 76.7209 78.7184 76.8522C78.9577 76.9835 79.2447 77.1476 79.4361 77.3117C79.5318 77.3774 79.5797 77.4759 79.5797 77.5415ZM78.9098 86.1412C78.9098 86.2397 78.862 86.3382 78.7184 86.4038C78.4792 86.5351 78.1921 86.6992 77.905 86.7977C77.6658 86.8962 77.3787 86.8633 77.2351 86.6992C77.0916 86.5351 77.1394 86.3382 77.3787 86.2397C77.6179 86.1084 77.8571 86.0099 78.0964 85.8786C78.2878 85.7473 78.6227 85.7802 78.7663 85.9115C78.862 86.0099 78.9098 86.0756 78.9098 86.1412ZM76.4695 76.0973C76.4695 76.1301 76.4695 76.1957 76.4217 76.2286C76.326 76.3927 76.0389 76.4583 75.7997 76.3927C75.5126 76.2942 75.2255 76.2286 74.9384 76.1629C74.6991 76.0973 74.5556 75.9332 74.6513 75.7362C74.747 75.5721 74.9862 75.4736 75.2733 75.5393C75.6083 75.6049 75.8954 75.7034 76.1824 75.769C76.3738 75.8675 76.4695 75.966 76.4695 76.0973ZM75.6083 87.4213C75.6083 87.5526 75.4647 87.6839 75.2733 87.7167C74.9862 87.7824 74.6513 87.848 74.3164 87.9137C74.0771 87.9465 73.79 87.848 73.7422 87.6839C73.6943 87.5198 73.8379 87.3229 74.0771 87.29C74.3642 87.2244 74.6513 87.1916 74.9384 87.1259C75.1776 87.0603 75.4647 87.1587 75.5604 87.3229C75.6083 87.3229 75.6083 87.3557 75.6083 87.4213ZM72.7852 75.4736C72.7852 75.5065 72.7852 75.5065 72.7852 75.4736C72.7852 75.6706 72.546 75.8019 72.2589 75.8019C71.9718 75.8019 71.6847 75.769 71.3976 75.769C71.1105 75.769 70.9191 75.6377 70.9191 75.4408C70.9191 75.2439 71.1105 75.1126 71.3976 75.1126C71.7325 75.1126 72.0196 75.1126 72.3546 75.1454C72.5938 75.1782 72.7852 75.3095 72.7852 75.4736ZM71.8761 87.8152C71.8761 88.0122 71.6847 88.1434 71.3976 88.1434C71.0627 88.1434 70.7277 88.1434 70.4406 88.1106C70.2014 88.1106 69.9622 87.9465 70.01 87.7496C70.01 87.5526 70.2492 87.4213 70.5363 87.4542C70.8234 87.4542 71.1584 87.487 71.4455 87.487C71.6847 87.487 71.8761 87.6511 71.8761 87.8152ZM69.0052 75.7034C69.0052 75.8347 68.8616 75.9988 68.6224 76.0316C68.3353 76.0973 68.0482 76.1301 67.7611 76.1957C67.5219 76.2614 67.2348 76.1629 67.1391 75.9988C67.0434 75.8347 67.1869 75.6377 67.4262 75.5721C67.7133 75.5065 68.0482 75.4408 68.3832 75.3752C68.6224 75.3423 68.9095 75.4408 68.9573 75.6049C69.0052 75.6377 69.0052 75.6706 69.0052 75.7034ZM68.1439 87.4213C68.1439 87.4542 68.1439 87.487 68.0961 87.5198C68.0004 87.6839 67.7611 87.7824 67.474 87.7167C67.1869 87.6511 66.852 87.5526 66.5649 87.487C66.3257 87.4213 66.23 87.2244 66.3257 87.0603C66.4214 86.8962 66.7085 86.8305 66.9477 86.8962C67.2348 86.9946 67.5219 87.0603 67.809 87.1259C68.0482 87.1587 68.1439 87.29 68.1439 87.4213ZM65.5601 76.7537C65.5601 76.8522 65.4644 76.9507 65.3687 77.0163C65.1295 77.1476 64.8902 77.2461 64.651 77.3774C64.4596 77.5087 64.1246 77.4759 63.9811 77.3446C63.7897 77.2133 63.8376 76.9835 64.029 76.885C64.2682 76.7537 64.5553 76.5896 64.8424 76.4912C65.0816 76.3927 65.3687 76.4255 65.5123 76.5896C65.5601 76.6224 65.5601 76.6881 65.5601 76.7537ZM64.8424 86.174C64.8424 86.2397 64.7945 86.3053 64.7467 86.371C64.6031 86.5023 64.2682 86.5351 64.0768 86.4038C63.8376 86.2725 63.5505 86.1084 63.3591 85.9443C63.1677 85.813 63.1677 85.616 63.3591 85.4848C63.5505 85.3535 63.8376 85.3535 64.029 85.4848C64.2203 85.616 64.4596 85.7802 64.6988 85.9115C64.7945 85.9771 64.8424 86.0756 64.8424 86.174ZM62.9284 78.5918C62.9284 78.6575 62.8806 78.7231 62.8327 78.756C62.6892 78.9201 62.4978 79.117 62.4021 79.2811C62.3064 79.4453 61.9715 79.5109 61.7801 79.4124C61.5408 79.3468 61.4451 79.1498 61.5887 78.9857C61.7322 78.7888 61.9236 78.5918 62.0672 78.3949C62.2107 78.2308 62.4978 78.198 62.737 78.2964C62.8327 78.3621 62.9284 78.4934 62.9284 78.5918ZM62.45 84.1718C62.45 84.3031 62.3543 84.4016 62.2107 84.4672C61.9715 84.5657 61.6844 84.5001 61.5887 84.3359C61.4451 84.139 61.3016 83.9092 61.2059 83.7123C61.1102 83.5482 61.2537 83.3512 61.493 83.2856C61.7322 83.2199 62.0193 83.3184 62.115 83.4825C62.2107 83.6795 62.3543 83.8764 62.4978 84.0405C62.45 84.0733 62.45 84.1062 62.45 84.1718ZM61.6365 81.0208L61.6365 81.0536C61.5887 81.2505 61.5887 81.4475 61.5887 81.6444C61.5887 81.8414 61.3973 81.9727 61.1102 81.9727C60.8231 81.9727 60.6317 81.8414 60.6317 81.6444C60.6317 81.4147 60.6317 81.1849 60.6796 80.988C60.7274 80.8238 60.9667 80.6925 61.2059 80.6925C61.4451 80.6925 61.6365 80.8567 61.6365 81.0208Z" fill="#FFBFCD"/>
<path d="M71.8761 89.6861L71.8761 91.6555C72.211 91.6555 72.4981 91.6227 72.8331 91.6227L72.8331 89.6533C72.4981 89.6533 72.211 89.6861 71.8761 89.6861Z" fill="#F48BA2"/>
<path d="M69.4836 89.6205L69.4836 91.5899C69.8186 91.6227 70.1057 91.6227 70.4406 91.6555L70.4406 89.6861C70.1057 89.6533 69.8186 89.6533 69.4836 89.6205Z" fill="#F48BA2"/>
<path d="M74.2686 89.5219L74.2686 91.4913C74.6035 91.4585 74.8906 91.3929 75.2255 91.3272L75.2255 89.3578C74.8906 89.4235 74.6035 89.4563 74.2686 89.5219Z" fill="#F48BA2"/>
<path d="M76.6609 89.0624L76.6609 91.0318C76.9958 90.9334 77.2829 90.8677 77.6179 90.7693L77.6179 88.7999C77.2829 88.8655 76.9958 88.964 76.6609 89.0624Z" fill="#F48BA2"/>
<path d="M67.0913 89.2594L67.0913 91.2288C67.4262 91.2945 67.7133 91.3601 68.0483 91.3929L68.0483 89.4235C67.7133 89.3907 67.4262 89.3251 67.0913 89.2594Z" fill="#F48BA2"/>
<path d="M64.6989 88.603L64.6989 90.5724C65.0338 90.6708 65.3209 90.7693 65.6558 90.8678L65.6558 88.8984C65.3209 88.8327 65.0338 88.7343 64.6989 88.603Z" fill="#F48BA2"/>
<path d="M61.8279 87.29L61.8279 89.2594C62.115 89.4564 62.4499 89.6205 62.7848 89.7846L62.7848 87.8152C62.4499 87.6511 62.115 87.4542 61.8279 87.29Z" fill="#F48BA2"/>
<path d="M59.4355 85.2549L59.4355 87.2243C59.7226 87.5525 60.0576 87.8807 60.3925 88.1761L60.3925 86.2067C60.0576 85.9113 59.7226 85.6159 59.4355 85.2549Z" fill="#F48BA2"/>
<path d="M79.5319 88.0449L79.5319 90.0143C79.8668 89.8502 80.2017 89.6861 80.4888 89.522L80.4888 87.5526C80.2017 87.7167 79.8668 87.8808 79.5319 88.0449Z" fill="#F48BA2"/>
<path d="M81.9243 88.603C82.2593 88.3405 82.5942 88.0779 82.8813 87.7825L82.8813 85.8131C82.5942 86.1085 82.2593 86.3711 81.9243 86.6336L81.9243 88.603Z" fill="#F48BA2"/>
<path d="M73.8763 81.1528L73.8763 82.443L75.2255 82.443L75.2255 83.4527L73.8763 83.4527L73.8763 84.2741L72.6906 84.2741L72.6906 83.4527L72.0656 83.4527L72.0656 84.2741L70.8799 84.2741L70.8799 83.4527L66.7212 83.4527L66.7212 81.2209C66.7212 80.5772 66.9665 80.063 67.4571 79.6783C67.9439 79.2937 68.5922 79.1013 69.4022 79.1013C70.2277 79.1013 70.876 79.2843 71.3472 79.6503C71.8144 80.0162 72.0539 80.5251 72.0656 81.1768L72.0656 82.443L72.6906 82.443L72.6906 81.1528L73.8763 81.1528ZM70.8799 82.443L70.8799 81.2369C70.8799 80.8737 70.7572 80.5959 70.5119 80.4035C70.2666 80.2112 69.9006 80.115 69.4138 80.115C68.9777 80.115 68.6214 80.2099 68.345 80.3995C68.0685 80.5865 67.9244 80.8456 67.9127 81.1768L67.9127 82.443L70.8799 82.443Z" fill="#F48BA2"/>
<path d="M84.7951 79.5228C84.7951 83.954 78.8141 87.5646 71.3976 87.5646C63.9811 87.5646 58 83.954 58 79.5228C58 75.0917 63.9811 71.4811 71.3976 71.4811C78.8141 71.4811 84.7951 75.0917 84.7951 79.5228Z" fill="#FFDCE4"/>
<path d="M71.3976 87.5646C64.5552 87.5646 58.9091 84.4792 58.0957 80.5076C58.0478 80.8358 58 81.164 58 81.4923C58 85.9234 63.9811 89.534 71.3976 89.534C78.8141 89.534 84.7951 85.9234 84.7951 81.4923C84.7951 81.164 84.7473 80.8358 84.6994 80.5076C83.886 84.4792 78.2399 87.5646 71.3976 87.5646Z" fill="#FFBFCD"/>
<path d="M82.1635 79.4901C82.1635 79.7526 82.1635 79.9824 82.1157 80.2122C82.0678 80.3763 81.8286 80.5076 81.5893 80.5076C81.3501 80.4748 81.1587 80.3106 81.1587 80.1465C81.2065 79.9496 81.2065 79.7526 81.2065 79.5229C81.2065 79.3259 81.3979 79.1947 81.685 79.1947C81.9721 79.1947 82.1635 79.3259 82.1635 79.4901ZM81.6372 77.5863C81.6372 77.7176 81.5415 77.8489 81.3501 77.8817C81.1108 77.9474 80.8237 77.8489 80.728 77.6848C80.6324 77.4878 80.4888 77.2909 80.3453 77.1268C80.2017 76.9627 80.2974 76.7657 80.5367 76.7001C80.7759 76.6016 81.063 76.6673 81.1587 76.8314C81.3022 77.0283 81.4458 77.2581 81.5415 77.455C81.6372 77.5207 81.6372 77.5535 81.6372 77.5863ZM81.3022 82.0175C81.3022 82.0831 81.3022 82.1159 81.2544 82.1816C81.1108 82.3785 80.9194 82.5755 80.7759 82.7724C80.6324 82.9365 80.3453 82.9693 80.106 82.8709C79.8668 82.7724 79.8189 82.5755 79.9625 82.4113C80.106 82.2472 80.2974 82.0503 80.3931 81.8862C80.5367 81.7221 80.8237 81.6564 81.0151 81.7549C81.2065 81.7877 81.3022 81.919 81.3022 82.0175ZM79.5797 75.42C79.5797 75.5184 79.5318 75.5841 79.4361 75.6497C79.2447 75.781 78.9577 75.781 78.7663 75.6497C78.5749 75.5184 78.3356 75.3543 78.0964 75.223C77.905 75.1246 77.8571 74.8948 78.0485 74.7635C78.2399 74.6322 78.527 74.5994 78.7184 74.7307C78.9577 74.862 79.2447 75.0261 79.4361 75.1902C79.5318 75.2558 79.5797 75.3543 79.5797 75.42ZM78.9098 84.0197C78.9098 84.1182 78.862 84.2166 78.7184 84.2823C78.4792 84.4136 78.1921 84.5777 77.905 84.6762C77.6658 84.7746 77.3787 84.7418 77.2351 84.5777C77.0916 84.4136 77.1394 84.2166 77.3787 84.1182C77.6179 83.9869 77.8571 83.8884 78.0964 83.7571C78.2878 83.6258 78.6227 83.6586 78.7663 83.7899C78.862 83.8884 78.9098 83.954 78.9098 84.0197ZM76.4695 73.9757C76.4695 74.0086 76.4695 74.0742 76.4217 74.107C76.326 74.2711 76.0389 74.3368 75.7997 74.2711C75.5126 74.1727 75.2255 74.107 74.9384 74.0414C74.6991 73.9757 74.5556 73.8116 74.6513 73.6147C74.747 73.4506 74.9862 73.3521 75.2733 73.4177C75.6083 73.4834 75.8954 73.5819 76.1824 73.6475C76.3738 73.746 76.4695 73.8444 76.4695 73.9757ZM75.6083 85.2998C75.6083 85.4311 75.4647 85.5624 75.2733 85.5952C74.9862 85.6609 74.6513 85.7265 74.3164 85.7921C74.0771 85.825 73.79 85.7265 73.7422 85.5624C73.6943 85.3983 73.8379 85.2013 74.0771 85.1685C74.3642 85.1029 74.6513 85.07 74.9384 85.0044C75.1776 84.9387 75.4647 85.0372 75.5604 85.2013C75.6083 85.2013 75.6083 85.2342 75.6083 85.2998ZM72.7852 73.3521C72.7852 73.3849 72.7852 73.3849 72.7852 73.3521C72.7852 73.549 72.546 73.6803 72.2589 73.6803C71.9718 73.6803 71.6847 73.6475 71.3976 73.6475C71.1105 73.6475 70.9191 73.5162 70.9191 73.3193C70.9191 73.1223 71.1105 72.991 71.3976 72.991C71.7325 72.991 72.0196 72.991 72.3546 73.0239C72.5938 73.0567 72.7852 73.188 72.7852 73.3521ZM71.8761 85.6937C71.8761 85.8906 71.6847 86.0219 71.3976 86.0219C71.0627 86.0219 70.7277 86.0219 70.4406 85.9891C70.2014 85.9891 69.9622 85.825 70.01 85.628C70.01 85.4311 70.2492 85.2998 70.5363 85.3326C70.8234 85.3326 71.1584 85.3654 71.4455 85.3654C71.6847 85.3654 71.8761 85.5296 71.8761 85.6937ZM69.0052 73.5819C69.0052 73.7131 68.8616 73.8773 68.6224 73.9101C68.3353 73.9757 68.0482 74.0086 67.7611 74.0742C67.5219 74.1399 67.2348 74.0414 67.1391 73.8773C67.0434 73.7131 67.1869 73.5162 67.4262 73.4506C67.7133 73.3849 68.0482 73.3193 68.3832 73.2536C68.6224 73.2208 68.9095 73.3193 68.9573 73.4834C69.0052 73.5162 69.0052 73.549 69.0052 73.5819ZM68.1439 85.2998C68.1439 85.3326 68.1439 85.3654 68.0961 85.3983C68.0004 85.5624 67.7611 85.6609 67.474 85.5952C67.1869 85.5296 66.852 85.4311 66.5649 85.3654C66.3257 85.2998 66.23 85.1029 66.3257 84.9387C66.4214 84.7746 66.7085 84.709 66.9477 84.7746C67.2348 84.8731 67.5219 84.9387 67.809 85.0044C68.0482 85.0372 68.1439 85.1685 68.1439 85.2998ZM65.5601 74.6322C65.5601 74.7307 65.4644 74.8291 65.3687 74.8948C65.1295 75.0261 64.8902 75.1246 64.651 75.2558C64.4596 75.3871 64.1246 75.3543 63.9811 75.223C63.7897 75.0917 63.8376 74.862 64.029 74.7635C64.2682 74.6322 64.5553 74.4681 64.8424 74.3696C65.0816 74.2711 65.3687 74.304 65.5123 74.4681C65.5601 74.5009 65.5601 74.5666 65.5601 74.6322ZM64.8424 84.0525C64.8424 84.1182 64.7945 84.1838 64.7467 84.2494C64.6031 84.3807 64.2682 84.4136 64.0768 84.2823C63.8376 84.151 63.5505 83.9869 63.3591 83.8227C63.1677 83.6915 63.1677 83.4945 63.3591 83.3632C63.5505 83.2319 63.8376 83.2319 64.029 83.3632C64.2203 83.4945 64.4596 83.6586 64.6988 83.7899C64.7945 83.8556 64.8424 83.954 64.8424 84.0525ZM62.9284 76.4703C62.9284 76.536 62.8806 76.6016 62.8327 76.6344C62.6892 76.7985 62.4978 76.9955 62.4021 77.1596C62.3064 77.3237 61.9715 77.3894 61.7801 77.2909C61.5408 77.2252 61.4451 77.0283 61.5887 76.8642C61.7322 76.6673 61.9236 76.4703 62.0672 76.2734C62.2107 76.1093 62.4978 76.0764 62.737 76.1749C62.8327 76.2405 62.9284 76.3718 62.9284 76.4703ZM62.45 82.0503C62.45 82.1816 62.3543 82.28 62.2107 82.3457C61.9715 82.4442 61.6844 82.3785 61.5887 82.2144C61.4451 82.0175 61.3016 81.7877 61.2059 81.5908C61.1102 81.4266 61.2537 81.2297 61.493 81.1641C61.7322 81.0984 62.0193 81.1969 62.115 81.361C62.2107 81.5579 62.3543 81.7549 62.4978 81.919C62.45 81.9518 62.45 81.9846 62.45 82.0503ZM61.6365 78.8992L61.6365 78.9321C61.5887 79.129 61.5887 79.3259 61.5887 79.5229C61.5887 79.7198 61.3973 79.8511 61.1102 79.8511C60.8231 79.8511 60.6317 79.7198 60.6317 79.5229C60.6317 79.2931 60.6317 79.0634 60.6796 78.8664C60.7274 78.7023 60.9667 78.571 61.2059 78.571C61.4451 78.571 61.6365 78.7351 61.6365 78.8992Z" fill="#FFBFCD"/>
<path d="M71.8761 87.5646L71.8761 89.534C72.211 89.534 72.4981 89.5012 72.8331 89.5012L72.8331 87.5318C72.4981 87.5318 72.211 87.5646 71.8761 87.5646Z" fill="#F48BA2"/>
<path d="M69.4836 87.4989L69.4836 89.4683C69.8186 89.5012 70.1057 89.5012 70.4406 89.534L70.4406 87.5646C70.1057 87.5318 69.8186 87.5318 69.4836 87.4989Z" fill="#F48BA2"/>
<path d="M74.2686 87.4004L74.2686 89.3698C74.6035 89.337 74.8906 89.2713 75.2255 89.2057L75.2255 87.2363C74.8906 87.3019 74.6035 87.3348 74.2686 87.4004Z" fill="#F48BA2"/>
<path d="M76.6609 86.941L76.6609 88.9104C76.9958 88.812 77.2829 88.7463 77.6179 88.6478L77.6179 86.6784C77.2829 86.7441 76.9958 86.8426 76.6609 86.941Z" fill="#F48BA2"/>
<path d="M67.0913 87.1379L67.0913 89.1073C67.4262 89.1729 67.7133 89.2386 68.0483 89.2714L68.0483 87.302C67.7133 87.2692 67.4262 87.2035 67.0913 87.1379Z" fill="#F48BA2"/>
<path d="M64.6989 86.4814L64.6989 88.4508C65.0338 88.5493 65.3209 88.6478 65.6558 88.7462L65.6558 86.7768C65.3209 86.7112 65.0338 86.6127 64.6989 86.4814Z" fill="#F48BA2"/>
<path d="M61.8279 85.1684L61.8279 87.1378C62.115 87.3347 62.4499 87.4988 62.7848 87.663L62.7848 85.6936C62.4499 85.5294 62.115 85.3325 61.8279 85.1684Z" fill="#F48BA2"/>
<path d="M59.4355 83.1335L59.4355 85.1029C59.7226 85.4311 60.0576 85.7593 60.3925 86.0547L60.3925 84.0853C60.0576 83.7899 59.7226 83.4945 59.4355 83.1335Z" fill="#F48BA2"/>
<path d="M79.5319 85.9235L79.5319 87.8929C79.8668 87.7288 80.2017 87.5647 80.4888 87.4006L80.4888 85.4312C80.2017 85.5953 79.8668 85.7594 79.5319 85.9235Z" fill="#F48BA2"/>
<path d="M81.9243 86.4813C82.2593 86.2187 82.5942 85.9561 82.8813 85.6607L82.8813 83.6913C82.5942 83.9867 82.2593 84.2493 81.9243 84.5119L81.9243 86.4813Z" fill="#F48BA2"/>
<path d="M73.8763 79.0313L73.8763 80.3214L75.2255 80.3214L75.2255 81.3311L73.8763 81.3311L73.8763 82.1525L72.6906 82.1525L72.6906 81.3311L72.0656 81.3311L72.0656 82.1525L70.8799 82.1525L70.8799 81.3311L66.7212 81.3311L66.7212 79.0994C66.7212 78.4556 66.9665 77.9414 67.4571 77.5568C67.9439 77.1721 68.5922 76.9798 69.4022 76.9798C70.2277 76.9798 70.876 77.1628 71.3472 77.5287C71.8144 77.8947 72.0539 78.4035 72.0656 79.0553L72.0656 80.3214L72.6906 80.3214L72.6906 79.0313L73.8763 79.0313ZM70.8799 80.3214L70.8799 79.1154C70.8799 78.7521 70.7572 78.4743 70.5119 78.282C70.2666 78.0897 69.9006 77.9935 69.4138 77.9935C68.9777 77.9935 68.6214 78.0883 68.345 78.278C68.0685 78.465 67.9244 78.7241 67.9127 79.0553L67.9127 80.3214L70.8799 80.3214Z" fill="#F48BA2"/>
<path d="M113.02 83.7107C113.02 88.1419 107.039 91.7525 99.6224 91.7525C92.2059 91.7525 86.2249 88.1419 86.2249 83.7107C86.2249 79.2796 92.2059 75.669 99.6224 75.669C107.039 75.669 113.02 79.2796 113.02 83.7107Z" fill="white"/>
<path d="M99.6224 91.7525C92.7801 91.7525 87.134 88.6671 86.3205 84.6955C86.2727 85.0237 86.2249 85.352 86.2249 85.6802C86.2249 90.1114 92.2059 93.7219 99.6224 93.7219C107.039 93.7219 113.02 90.1114 113.02 85.6802C113.02 85.352 112.972 85.0237 112.924 84.6955C112.111 88.6671 106.465 91.7525 99.6224 91.7525Z" fill="#FFBFCD"/>
<path d="M110.388 83.678C110.388 83.9405 110.388 84.1703 110.341 84.4001C110.293 84.5642 110.053 84.6955 109.814 84.6955C109.575 84.6627 109.384 84.4985 109.384 84.3344C109.431 84.1375 109.431 83.9405 109.431 83.7108C109.431 83.5138 109.623 83.3825 109.91 83.3825C110.197 83.3825 110.388 83.5138 110.388 83.678ZM109.862 81.7742C109.862 81.9055 109.766 82.0368 109.575 82.0696C109.336 82.1353 109.049 82.0368 108.953 81.8727C108.857 81.6757 108.714 81.4788 108.57 81.3147C108.427 81.1506 108.522 80.9536 108.762 80.888C109.001 80.7895 109.288 80.8551 109.384 81.0193C109.527 81.2162 109.671 81.446 109.766 81.6429C109.862 81.7086 109.862 81.7414 109.862 81.7742ZM109.527 86.2054C109.527 86.271 109.527 86.3038 109.479 86.3695C109.336 86.5664 109.144 86.7634 109.001 86.9603C108.857 87.1244 108.57 87.1572 108.331 87.0588C108.092 86.9603 108.044 86.7634 108.187 86.5992C108.331 86.4351 108.522 86.2382 108.618 86.0741C108.762 85.9099 109.049 85.8443 109.24 85.9428C109.431 85.9756 109.527 86.1069 109.527 86.2054ZM107.805 79.6079C107.805 79.7063 107.757 79.772 107.661 79.8376C107.47 79.9689 107.183 79.9689 106.991 79.8376C106.8 79.7063 106.56 79.5422 106.321 79.4109C106.13 79.3124 106.082 79.0827 106.273 78.9514C106.465 78.8201 106.752 78.7873 106.943 78.9186C107.183 79.0499 107.47 79.214 107.661 79.3781C107.757 79.4437 107.805 79.5422 107.805 79.6079ZM107.135 88.2076C107.135 88.3061 107.087 88.4045 106.943 88.4702C106.704 88.6015 106.417 88.7656 106.13 88.864C105.891 88.9625 105.604 88.9297 105.46 88.7656C105.316 88.6015 105.364 88.4045 105.604 88.3061C105.843 88.1748 106.082 88.0763 106.321 87.945C106.513 87.8137 106.848 87.8465 106.991 87.9778C107.087 88.0763 107.135 88.1419 107.135 88.2076ZM104.694 78.1636C104.694 78.1965 104.694 78.2621 104.647 78.2949C104.551 78.459 104.264 78.5247 104.025 78.459C103.737 78.3606 103.45 78.2949 103.163 78.2293C102.924 78.1636 102.78 77.9995 102.876 77.8026C102.972 77.6385 103.211 77.54 103.498 77.6056C103.833 77.6713 104.12 77.7698 104.407 77.8354C104.599 77.9339 104.694 78.0323 104.694 78.1636ZM103.833 89.4877C103.833 89.619 103.69 89.7503 103.498 89.7831C103.211 89.8488 102.876 89.9144 102.541 89.98C102.302 90.0129 102.015 89.9144 101.967 89.7503C101.919 89.5862 102.063 89.3892 102.302 89.3564C102.589 89.2908 102.876 89.2579 103.163 89.1923C103.402 89.1266 103.69 89.2251 103.785 89.3892C103.833 89.3892 103.833 89.422 103.833 89.4877ZM101.01 77.54C101.01 77.5728 101.01 77.5728 101.01 77.54C101.01 77.7369 100.771 77.8682 100.484 77.8682C100.197 77.8682 99.9096 77.8354 99.6225 77.8354C99.3354 77.8354 99.144 77.7041 99.144 77.5072C99.144 77.3102 99.3354 77.1789 99.6225 77.1789C99.9574 77.1789 100.244 77.1789 100.579 77.2118C100.819 77.2446 101.01 77.3759 101.01 77.54ZM100.101 89.8816C100.101 90.0785 99.9096 90.2098 99.6225 90.2098C99.2875 90.2098 98.9526 90.2098 98.6655 90.177C98.4263 90.177 98.187 90.0129 98.2349 89.8159C98.2349 89.619 98.4741 89.4877 98.7612 89.5205C99.0483 89.5205 99.3832 89.5533 99.6703 89.5533C99.9096 89.5533 100.101 89.7175 100.101 89.8816ZM97.23 77.7698C97.23 77.901 97.0865 78.0652 96.8473 78.098C96.5602 78.1636 96.2731 78.1965 95.986 78.2621C95.7467 78.3277 95.4596 78.2293 95.364 78.0652C95.2683 77.901 95.4118 77.7041 95.651 77.6385C95.9381 77.5728 96.2731 77.5072 96.608 77.4415C96.8473 77.4087 97.1343 77.5072 97.1822 77.6713C97.23 77.7041 97.23 77.7369 97.23 77.7698ZM96.3688 89.4877C96.3688 89.5205 96.3688 89.5533 96.3209 89.5862C96.2252 89.7503 95.986 89.8488 95.6989 89.7831C95.4118 89.7175 95.0769 89.619 94.7898 89.5533C94.5505 89.4877 94.4548 89.2908 94.5505 89.1266C94.6462 88.9625 94.9333 88.8969 95.1726 88.9625C95.4596 89.061 95.7467 89.1266 96.0338 89.1923C96.2731 89.2251 96.3688 89.3564 96.3688 89.4877ZM93.785 78.8201C93.785 78.9186 93.6893 79.017 93.5936 79.0827C93.3543 79.214 93.1151 79.3125 92.8758 79.4437C92.6844 79.575 92.3495 79.5422 92.206 79.4109C92.0146 79.2796 92.0624 79.0499 92.2538 78.9514C92.493 78.8201 92.7801 78.656 93.0672 78.5575C93.3065 78.459 93.5936 78.4919 93.7371 78.656C93.785 78.6888 93.785 78.7545 93.785 78.8201ZM93.0672 88.2404C93.0672 88.3061 93.0194 88.3717 92.9715 88.4373C92.828 88.5686 92.493 88.6015 92.3017 88.4702C92.0624 88.3389 91.7753 88.1748 91.5839 88.0106C91.3925 87.8793 91.3925 87.6824 91.5839 87.5511C91.7753 87.4198 92.0624 87.4198 92.2538 87.5511C92.4452 87.6824 92.6844 87.8465 92.9237 87.9778C93.0194 88.0435 93.0672 88.1419 93.0672 88.2404ZM91.1533 80.6582C91.1533 80.7239 91.1054 80.7895 91.0576 80.8223C90.914 80.9864 90.7227 81.1834 90.627 81.3475C90.5313 81.5116 90.1963 81.5773 90.0049 81.4788C89.7657 81.4131 89.67 81.2162 89.8135 81.0521C89.9571 80.8551 90.1485 80.6582 90.292 80.4613C90.4356 80.2972 90.7227 80.2643 90.9619 80.3628C91.0576 80.4284 91.1533 80.5597 91.1533 80.6582ZM90.6748 86.2382C90.6748 86.3695 90.5791 86.4679 90.4356 86.5336C90.1963 86.6321 89.9092 86.5664 89.8135 86.4023C89.67 86.2054 89.5264 85.9756 89.4307 85.7787C89.3351 85.6145 89.4786 85.4176 89.7178 85.3519C89.9571 85.2863 90.2442 85.3848 90.3399 85.5489C90.4356 85.7458 90.5791 85.9428 90.7227 86.1069C90.6748 86.1397 90.6748 86.1725 90.6748 86.2382ZM89.8614 83.0871L89.8614 83.12C89.8135 83.3169 89.8135 83.5138 89.8135 83.7108C89.8135 83.9077 89.6221 84.039 89.3351 84.039C89.048 84.039 88.8566 83.9077 88.8566 83.7108C88.8566 83.481 88.8566 83.2513 88.9044 83.0543C88.9523 82.8902 89.1915 82.7589 89.4307 82.7589C89.67 82.7589 89.8614 82.923 89.8614 83.0871Z" fill="#FFBFCD"/>
<path d="M100.101 91.7525L100.101 93.7219C100.436 93.7219 100.723 93.6891 101.058 93.6891L101.058 91.7197C100.723 91.7197 100.436 91.7525 100.101 91.7525Z" fill="#F48BA2"/>
<path d="M97.7085 91.6868L97.7085 93.6562C98.0434 93.6891 98.3305 93.6891 98.6655 93.7219L98.6655 91.7525C98.3305 91.7197 98.0434 91.7197 97.7085 91.6868Z" fill="#F48BA2"/>
<path d="M102.493 91.5884L102.493 93.5578C102.828 93.525 103.115 93.4593 103.45 93.3937L103.45 91.4243C103.115 91.4899 102.828 91.5228 102.493 91.5884Z" fill="#F48BA2"/>
<path d="M104.886 91.1288L104.886 93.0982C105.221 92.9997 105.508 92.9341 105.843 92.8356L105.843 90.8662C105.508 90.9319 105.221 91.0303 104.886 91.1288Z" fill="#F48BA2"/>
<path d="M95.3162 91.3258L95.3162 93.2952C95.6511 93.3608 95.9382 93.4265 96.2731 93.4593L96.2731 91.4899C95.9382 91.4571 95.6511 91.3914 95.3162 91.3258Z" fill="#F48BA2"/>
<path d="M92.9237 90.6693L92.9237 92.6387C93.2586 92.7372 93.5457 92.8357 93.8807 92.9341L93.8807 90.9647C93.5457 90.8991 93.2586 90.8006 92.9237 90.6693Z" fill="#F48BA2"/>
<path d="M90.0527 89.3563L90.0527 91.3257C90.3398 91.5226 90.6748 91.6867 91.0097 91.8509L91.0097 89.8815C90.6748 89.7173 90.3398 89.5204 90.0527 89.3563Z" fill="#F48BA2"/>
<path d="M87.6604 87.3212L87.6604 89.2906C87.9475 89.6189 88.2824 89.9471 88.6174 90.2425L88.6174 88.2731C88.2824 87.9777 87.9475 87.6823 87.6604 87.3212Z" fill="#F48BA2"/>
<path d="M107.757 90.1113L107.757 92.0807C108.092 91.9166 108.427 91.7525 108.714 91.5884L108.714 89.619C108.427 89.7831 108.092 89.9472 107.757 90.1113Z" fill="#F48BA2"/>
<path d="M110.149 90.6693C110.484 90.4067 110.819 90.1441 111.106 89.8487L111.106 87.8793C110.819 88.1747 110.484 88.4373 110.149 88.6999L110.149 90.6693Z" fill="#F48BA2"/>
<path d="M102.101 83.2192L102.101 84.5093L103.45 84.5093L103.45 85.519L102.101 85.519L102.101 86.3404L100.915 86.3404L100.915 85.519L100.29 85.519L100.29 86.3404L99.1047 86.3404L99.1047 85.519L94.946 85.519L94.946 83.2873C94.946 82.6435 95.1914 82.1293 95.682 81.7447C96.1687 81.36 96.8171 81.1677 97.627 81.1677C98.4525 81.1677 99.1009 81.3507 99.572 81.7166C100.039 82.0826 100.279 82.5914 100.29 83.2432L100.29 84.5093L100.915 84.5093L100.915 83.2192L102.101 83.2192ZM99.1047 84.5093L99.1047 83.3033C99.1047 82.94 98.9821 82.6622 98.7368 82.4699C98.4915 82.2776 98.1254 82.1814 97.6387 82.1814C97.2026 82.1814 96.8463 82.2762 96.5698 82.4659C96.2933 82.6529 96.1493 82.912 96.1376 83.2432L96.1376 84.5093L99.1047 84.5093Z" fill="#F48BA2"/>
<path d="M113.02 81.5892C113.02 86.0204 107.039 89.631 99.6224 89.631C92.2059 89.631 86.2249 86.0204 86.2249 81.5892C86.2249 77.1581 92.2059 73.5475 99.6224 73.5475C107.039 73.5475 113.02 77.1581 113.02 81.5892Z" fill="white"/>
<path d="M99.6224 89.631C92.7801 89.631 87.134 86.5456 86.3205 82.5739C86.2727 82.9022 86.2249 83.2304 86.2249 83.5586C86.2249 87.9898 92.2059 91.6004 99.6224 91.6004C107.039 91.6004 113.02 87.9898 113.02 83.5586C113.02 83.2304 112.972 82.9022 112.924 82.5739C112.111 86.5456 106.465 89.631 99.6224 89.631Z" fill="#FFBFCD"/>
<path d="M110.388 81.5565C110.388 81.819 110.388 82.0488 110.341 82.2786C110.293 82.4427 110.053 82.574 109.814 82.574C109.575 82.5412 109.384 82.377 109.384 82.2129C109.431 82.016 109.431 81.819 109.431 81.5893C109.431 81.3923 109.623 81.261 109.91 81.261C110.197 81.261 110.388 81.3923 110.388 81.5565ZM109.862 79.6527C109.862 79.784 109.766 79.9153 109.575 79.9481C109.336 80.0138 109.049 79.9153 108.953 79.7512C108.857 79.5542 108.714 79.3573 108.57 79.1932C108.427 79.0291 108.522 78.8321 108.762 78.7665C109.001 78.668 109.288 78.7336 109.384 78.8978C109.527 79.0947 109.671 79.3245 109.766 79.5214C109.862 79.587 109.862 79.6199 109.862 79.6527ZM109.527 84.0839C109.527 84.1495 109.527 84.1823 109.479 84.248C109.336 84.4449 109.144 84.6418 109.001 84.8388C108.857 85.0029 108.57 85.0357 108.331 84.9373C108.092 84.8388 108.044 84.6418 108.187 84.4777C108.331 84.3136 108.522 84.1167 108.618 83.9526C108.762 83.7884 109.049 83.7228 109.24 83.8213C109.431 83.8541 109.527 83.9854 109.527 84.0839ZM107.805 77.4864C107.805 77.5848 107.757 77.6505 107.661 77.7161C107.47 77.8474 107.183 77.8474 106.991 77.7161C106.8 77.5848 106.56 77.4207 106.321 77.2894C106.13 77.1909 106.082 76.9612 106.273 76.8299C106.465 76.6986 106.752 76.6658 106.943 76.7971C107.183 76.9284 107.47 77.0925 107.661 77.2566C107.757 77.3222 107.805 77.4207 107.805 77.4864ZM107.135 86.0861C107.135 86.1845 107.087 86.283 106.943 86.3487C106.704 86.48 106.417 86.6441 106.13 86.7425C105.891 86.841 105.604 86.8082 105.46 86.6441C105.316 86.48 105.364 86.283 105.604 86.1845C105.843 86.0533 106.082 85.9548 106.321 85.8235C106.513 85.6922 106.848 85.725 106.991 85.8563C107.087 85.9548 107.135 86.0204 107.135 86.0861ZM104.694 76.0421C104.694 76.0749 104.694 76.1406 104.647 76.1734C104.551 76.3375 104.264 76.4032 104.025 76.3375C103.737 76.2391 103.45 76.1734 103.163 76.1078C102.924 76.0421 102.78 75.878 102.876 75.6811C102.972 75.517 103.211 75.4185 103.498 75.4841C103.833 75.5498 104.12 75.6482 104.407 75.7139C104.599 75.8124 104.694 75.9108 104.694 76.0421ZM103.833 87.3662C103.833 87.4975 103.69 87.6288 103.498 87.6616C103.211 87.7272 102.876 87.7929 102.541 87.8585C102.302 87.8914 102.015 87.7929 101.967 87.6288C101.919 87.4647 102.063 87.2677 102.302 87.2349C102.589 87.1692 102.876 87.1364 103.163 87.0708C103.402 87.0051 103.69 87.1036 103.785 87.2677C103.833 87.2677 103.833 87.3005 103.833 87.3662ZM101.01 75.4185C101.01 75.4513 101.01 75.4513 101.01 75.4185C101.01 75.6154 100.771 75.7467 100.484 75.7467C100.197 75.7467 99.9096 75.7139 99.6225 75.7139C99.3354 75.7139 99.144 75.5826 99.144 75.3857C99.144 75.1887 99.3354 75.0574 99.6225 75.0574C99.9574 75.0574 100.244 75.0574 100.579 75.0902C100.819 75.1231 101.01 75.2544 101.01 75.4185ZM100.101 87.7601C100.101 87.957 99.9096 88.0883 99.6225 88.0883C99.2875 88.0883 98.9526 88.0883 98.6655 88.0555C98.4263 88.0555 98.187 87.8914 98.2349 87.6944C98.2349 87.4975 98.4741 87.3662 98.7612 87.399C99.0483 87.399 99.3832 87.4318 99.6703 87.4318C99.9096 87.4318 100.101 87.596 100.101 87.7601ZM97.23 75.6482C97.23 75.7795 97.0865 75.9437 96.8473 75.9765C96.5602 76.0421 96.2731 76.0749 95.986 76.1406C95.7467 76.2062 95.4596 76.1078 95.364 75.9437C95.2683 75.7795 95.4118 75.5826 95.651 75.517C95.9381 75.4513 96.2731 75.3857 96.608 75.32C96.8473 75.2872 97.1343 75.3857 97.1822 75.5498C97.23 75.5826 97.23 75.6154 97.23 75.6482ZM96.3688 87.3662C96.3688 87.399 96.3688 87.4318 96.3209 87.4647C96.2252 87.6288 95.986 87.7272 95.6989 87.6616C95.4118 87.596 95.0769 87.4975 94.7898 87.4318C94.5505 87.3662 94.4548 87.1692 94.5505 87.0051C94.6462 86.841 94.9333 86.7754 95.1726 86.841C95.4596 86.9395 95.7467 87.0051 96.0338 87.0708C96.2731 87.1036 96.3688 87.2349 96.3688 87.3662ZM93.785 76.6986C93.785 76.7971 93.6893 76.8955 93.5936 76.9612C93.3543 77.0925 93.1151 77.1909 92.8758 77.3222C92.6844 77.4535 92.3495 77.4207 92.206 77.2894C92.0146 77.1581 92.0624 76.9284 92.2538 76.8299C92.493 76.6986 92.7801 76.5345 93.0672 76.436C93.3065 76.3375 93.5936 76.3704 93.7371 76.5345C93.785 76.5673 93.785 76.6329 93.785 76.6986ZM93.0672 86.1189C93.0672 86.1845 93.0194 86.2502 92.9715 86.3158C92.828 86.4471 92.493 86.48 92.3017 86.3487C92.0624 86.2174 91.7753 86.0533 91.5839 85.8891C91.3925 85.7578 91.3925 85.5609 91.5839 85.4296C91.7753 85.2983 92.0624 85.2983 92.2538 85.4296C92.4452 85.5609 92.6844 85.725 92.9237 85.8563C93.0194 85.922 93.0672 86.0204 93.0672 86.1189ZM91.1533 78.5367C91.1533 78.6023 91.1054 78.668 91.0576 78.7008C90.914 78.8649 90.7227 79.0619 90.627 79.226C90.5313 79.3901 90.1963 79.4558 90.0049 79.3573C89.7657 79.2916 89.67 79.0947 89.8135 78.9306C89.9571 78.7336 90.1485 78.5367 90.292 78.3398C90.4356 78.1756 90.7227 78.1428 90.9619 78.2413C91.0576 78.3069 91.1533 78.4382 91.1533 78.5367ZM90.6748 84.1167C90.6748 84.248 90.5791 84.3464 90.4356 84.4121C90.1963 84.5106 89.9092 84.4449 89.8135 84.2808C89.67 84.0839 89.5264 83.8541 89.4307 83.6571C89.3351 83.493 89.4786 83.2961 89.7178 83.2304C89.9571 83.1648 90.2442 83.2633 90.3399 83.4274C90.4356 83.6243 90.5791 83.8213 90.7227 83.9854C90.6748 84.0182 90.6748 84.051 90.6748 84.1167ZM89.8614 80.9656L89.8614 80.9985C89.8135 81.1954 89.8135 81.3923 89.8135 81.5893C89.8135 81.7862 89.6221 81.9175 89.3351 81.9175C89.048 81.9175 88.8566 81.7862 88.8566 81.5893C88.8566 81.3595 88.8566 81.1297 88.9044 80.9328C88.9523 80.7687 89.1915 80.6374 89.4307 80.6374C89.67 80.6374 89.8614 80.8015 89.8614 80.9656Z" fill="#FFBFCD"/>
<path d="M100.101 89.631L100.101 91.6004C100.436 91.6004 100.723 91.5675 101.058 91.5675L101.058 89.5981C100.723 89.5981 100.436 89.631 100.101 89.631Z" fill="#F48BA2"/>
<path d="M97.7085 89.5653L97.7085 91.5347C98.0434 91.5675 98.3305 91.5675 98.6655 91.6004L98.6655 89.631C98.3305 89.5981 98.0434 89.5981 97.7085 89.5653Z" fill="#F48BA2"/>
<path d="M102.493 89.4669L102.493 91.4363C102.828 91.4035 103.115 91.3378 103.45 91.2722L103.45 89.3028C103.115 89.3684 102.828 89.4012 102.493 89.4669Z" fill="#F48BA2"/>
<path d="M104.886 89.0074L104.886 90.9768C105.221 90.8784 105.508 90.8127 105.843 90.7142L105.843 88.7448C105.508 88.8105 105.221 88.9089 104.886 89.0074Z" fill="#F48BA2"/>
<path d="M95.3162 89.2044L95.3162 91.1738C95.6511 91.2394 95.9382 91.3051 96.2731 91.3379L96.2731 89.3685C95.9382 89.3357 95.6511 89.27 95.3162 89.2044Z" fill="#F48BA2"/>
<path d="M92.9237 88.5478L92.9237 90.5172C93.2586 90.6157 93.5457 90.7142 93.8807 90.8126L93.8807 88.8432C93.5457 88.7776 93.2586 88.6791 92.9237 88.5478Z" fill="#F48BA2"/>
<path d="M90.0527 87.2349L90.0527 89.2043C90.3398 89.4012 90.6748 89.5653 91.0097 89.7295L91.0097 87.7601C90.6748 87.5959 90.3398 87.399 90.0527 87.2349Z" fill="#F48BA2"/>
<path d="M87.6604 85.1999L87.6604 87.1693C87.9475 87.4975 88.2824 87.8257 88.6174 88.1211L88.6174 86.1517C88.2824 85.8563 87.9475 85.5609 87.6604 85.1999Z" fill="#F48BA2"/>
<path d="M107.757 87.9899L107.757 89.9593C108.092 89.7952 108.427 89.6311 108.714 89.467L108.714 87.4976C108.427 87.6617 108.092 87.8258 107.757 87.9899Z" fill="#F48BA2"/>
<path d="M110.149 88.5478C110.484 88.2852 110.819 88.0226 111.106 87.7272L111.106 85.7578C110.819 86.0532 110.484 86.3158 110.149 86.5784L110.149 88.5478Z" fill="#F48BA2"/>
<path d="M102.101 81.0978L102.101 82.3879L103.45 82.3879L103.45 83.3976L102.101 83.3976L102.101 84.219L100.915 84.219L100.915 83.3976L100.29 83.3976L100.29 84.219L99.1047 84.219L99.1047 83.3976L94.946 83.3976L94.946 81.1659C94.946 80.5221 95.1914 80.0079 95.682 79.6233C96.1687 79.2386 96.8171 79.0463 97.627 79.0463C98.4525 79.0463 99.1009 79.2293 99.572 79.5952C100.039 79.9612 100.279 80.47 100.29 81.1218L100.29 82.3879L100.915 82.3879L100.915 81.0978L102.101 81.0978ZM99.1047 82.3879L99.1047 81.1819C99.1047 80.8186 98.9821 80.5408 98.7368 80.3485C98.4915 80.1562 98.1254 80.06 97.6387 80.06C97.2026 80.06 96.8463 80.1548 96.5698 80.3445C96.2933 80.5315 96.1493 80.7906 96.1376 81.1218L96.1376 82.3879L99.1047 82.3879Z" fill="#F48BA2"/>
<path d="M113.02 79.4592C113.02 83.8904 107.039 87.5009 99.6224 87.5009C92.2059 87.5009 86.2249 83.8904 86.2249 79.4592C86.2249 75.028 92.2059 71.4175 99.6224 71.4175C107.039 71.4175 113.02 75.028 113.02 79.4592Z" fill="white"/>
<path d="M99.6224 87.5009C92.7801 87.5009 87.134 84.4155 86.3205 80.4439C86.2727 80.7721 86.2249 81.1004 86.2249 81.4286C86.2249 85.8598 92.2059 89.4703 99.6224 89.4703C107.039 89.4703 113.02 85.8598 113.02 81.4286C113.02 81.1004 112.972 80.7721 112.924 80.4439C112.111 84.4155 106.465 87.5009 99.6224 87.5009Z" fill="#FFBFCD"/>
<path d="M110.388 79.4264C110.388 79.689 110.388 79.9188 110.341 80.1485C110.293 80.3127 110.053 80.444 109.814 80.444C109.575 80.4111 109.384 80.247 109.384 80.0829C109.431 79.886 109.431 79.689 109.431 79.4593C109.431 79.2623 109.623 79.131 109.91 79.131C110.197 79.131 110.388 79.2623 110.388 79.4264ZM109.862 77.5227C109.862 77.654 109.766 77.7853 109.575 77.8181C109.336 77.8837 109.049 77.7853 108.953 77.6211C108.857 77.4242 108.714 77.2273 108.57 77.0631C108.427 76.899 108.522 76.7021 108.762 76.6364C109.001 76.538 109.288 76.6036 109.384 76.7677C109.527 76.9647 109.671 77.1944 109.766 77.3914C109.862 77.457 109.862 77.4899 109.862 77.5227ZM109.527 81.9538C109.527 82.0195 109.527 82.0523 109.479 82.1179C109.336 82.3149 109.144 82.5118 109.001 82.7088C108.857 82.8729 108.57 82.9057 108.331 82.8072C108.092 82.7088 108.044 82.5118 108.187 82.3477C108.331 82.1836 108.522 81.9867 108.618 81.8225C108.762 81.6584 109.049 81.5928 109.24 81.6912C109.431 81.7241 109.527 81.8554 109.527 81.9538ZM107.805 75.3563C107.805 75.4548 107.757 75.5205 107.661 75.5861C107.47 75.7174 107.183 75.7174 106.991 75.5861C106.8 75.4548 106.56 75.2907 106.321 75.1594C106.13 75.0609 106.082 74.8312 106.273 74.6999C106.465 74.5686 106.752 74.5357 106.943 74.667C107.183 74.7983 107.47 74.9625 107.661 75.1266C107.757 75.1922 107.805 75.2907 107.805 75.3563ZM107.135 83.9561C107.135 84.0545 107.087 84.153 106.943 84.2186C106.704 84.3499 106.417 84.5141 106.13 84.6125C105.891 84.711 105.604 84.6782 105.46 84.5141C105.316 84.3499 105.364 84.153 105.604 84.0545C105.843 83.9232 106.082 83.8248 106.321 83.6935C106.513 83.5622 106.848 83.595 106.991 83.7263C107.087 83.8248 107.135 83.8904 107.135 83.9561ZM104.694 73.9121C104.694 73.9449 104.694 74.0106 104.647 74.0434C104.551 74.2075 104.264 74.2732 104.025 74.2075C103.737 74.109 103.45 74.0434 103.163 73.9778C102.924 73.9121 102.78 73.748 102.876 73.551C102.972 73.3869 103.211 73.2885 103.498 73.3541C103.833 73.4198 104.12 73.5182 104.407 73.5839C104.599 73.6823 104.694 73.7808 104.694 73.9121ZM103.833 85.2362C103.833 85.3675 103.69 85.4988 103.498 85.5316C103.211 85.5972 102.876 85.6629 102.541 85.7285C102.302 85.7613 102.015 85.6629 101.967 85.4988C101.919 85.3346 102.063 85.1377 102.302 85.1049C102.589 85.0392 102.876 85.0064 103.163 84.9408C103.402 84.8751 103.69 84.9736 103.785 85.1377C103.833 85.1377 103.833 85.1705 103.833 85.2362ZM101.01 73.2885C101.01 73.3213 101.01 73.3213 101.01 73.2885C101.01 73.4854 100.771 73.6167 100.484 73.6167C100.197 73.6167 99.9096 73.5839 99.6225 73.5839C99.3354 73.5839 99.144 73.4526 99.144 73.2556C99.144 73.0587 99.3354 72.9274 99.6225 72.9274C99.9574 72.9274 100.244 72.9274 100.579 72.9602C100.819 72.9931 101.01 73.1243 101.01 73.2885ZM100.101 85.63C100.101 85.827 99.9096 85.9583 99.6225 85.9583C99.2875 85.9583 98.9526 85.9583 98.6655 85.9255C98.4263 85.9255 98.187 85.7613 98.2349 85.5644C98.2349 85.3675 98.4741 85.2362 98.7612 85.269C99.0483 85.269 99.3832 85.3018 99.6703 85.3018C99.9096 85.3018 100.101 85.4659 100.101 85.63ZM97.23 73.5182C97.23 73.6495 97.0865 73.8136 96.8473 73.8465C96.5602 73.9121 96.2731 73.9449 95.986 74.0106C95.7467 74.0762 95.4596 73.9778 95.364 73.8136C95.2683 73.6495 95.4118 73.4526 95.651 73.3869C95.9381 73.3213 96.2731 73.2556 96.608 73.19C96.8473 73.1572 97.1343 73.2556 97.1822 73.4198C97.23 73.4526 97.23 73.4854 97.23 73.5182ZM96.3688 85.2362C96.3688 85.269 96.3688 85.3018 96.3209 85.3346C96.2252 85.4988 95.986 85.5972 95.6989 85.5316C95.4118 85.4659 95.0769 85.3675 94.7898 85.3018C94.5505 85.2362 94.4548 85.0392 94.5505 84.8751C94.6462 84.711 94.9333 84.6453 95.1726 84.711C95.4596 84.8095 95.7467 84.8751 96.0338 84.9408C96.2731 84.9736 96.3688 85.1049 96.3688 85.2362ZM93.785 74.5686C93.785 74.667 93.6893 74.7655 93.5936 74.8312C93.3543 74.9625 93.1151 75.0609 92.8758 75.1922C92.6844 75.3235 92.3495 75.2907 92.206 75.1594C92.0146 75.0281 92.0624 74.7983 92.2538 74.6999C92.493 74.5686 92.7801 74.4045 93.0672 74.306C93.3065 74.2075 93.5936 74.2403 93.7371 74.4045C93.785 74.4373 93.785 74.5029 93.785 74.5686ZM93.0672 83.9889C93.0672 84.0545 93.0194 84.1202 92.9715 84.1858C92.828 84.3171 92.493 84.3499 92.3017 84.2186C92.0624 84.0874 91.7753 83.9232 91.5839 83.7591C91.3925 83.6278 91.3925 83.4309 91.5839 83.2996C91.7753 83.1683 92.0624 83.1683 92.2538 83.2996C92.4452 83.4309 92.6844 83.595 92.9237 83.7263C93.0194 83.7919 93.0672 83.8904 93.0672 83.9889ZM91.1533 76.4067C91.1533 76.4723 91.1054 76.538 91.0576 76.5708C90.914 76.7349 90.7227 76.9319 90.627 77.096C90.5313 77.2601 90.1963 77.3257 90.0049 77.2273C89.7657 77.1616 89.67 76.9647 89.8135 76.8006C89.9571 76.6036 90.1485 76.4067 90.292 76.2097C90.4356 76.0456 90.7227 76.0128 90.9619 76.1113C91.0576 76.1769 91.1533 76.3082 91.1533 76.4067ZM90.6748 81.9867C90.6748 82.1179 90.5791 82.2164 90.4356 82.2821C90.1963 82.3805 89.9092 82.3149 89.8135 82.1508C89.67 81.9538 89.5264 81.7241 89.4307 81.5271C89.3351 81.363 89.4786 81.1661 89.7178 81.1004C89.9571 81.0348 90.2442 81.1332 90.3399 81.2974C90.4356 81.4943 90.5791 81.6912 90.7227 81.8554C90.6748 81.8882 90.6748 81.921 90.6748 81.9867ZM89.8614 78.8356L89.8614 78.8684C89.8135 79.0654 89.8135 79.2623 89.8135 79.4593C89.8135 79.6562 89.6221 79.7875 89.3351 79.7875C89.048 79.7875 88.8566 79.6562 88.8566 79.4593C88.8566 79.2295 88.8566 78.9997 88.9044 78.8028C88.9523 78.6387 89.1915 78.5074 89.4307 78.5074C89.67 78.5074 89.8614 78.6715 89.8614 78.8356Z" fill="#FFBFCD"/>
<path d="M100.101 87.501L100.101 89.4704C100.436 89.4704 100.723 89.4375 101.058 89.4375L101.058 87.4681C100.723 87.4681 100.436 87.501 100.101 87.501Z" fill="#F48BA2"/>
<path d="M97.7085 87.4353L97.7085 89.4047C98.0434 89.4375 98.3305 89.4375 98.6655 89.4704L98.6655 87.5009C98.3305 87.4681 98.0434 87.4681 97.7085 87.4353Z" fill="#F48BA2"/>
<path d="M102.493 87.337L102.493 89.3064C102.828 89.2736 103.115 89.2079 103.45 89.1423L103.45 87.1729C103.115 87.2385 102.828 87.2714 102.493 87.337Z" fill="#F48BA2"/>
<path d="M104.886 86.8773L104.886 88.8467C105.221 88.7482 105.508 88.6826 105.843 88.5841L105.843 86.6147C105.508 86.6803 105.221 86.7788 104.886 86.8773Z" fill="#F48BA2"/>
<path d="M95.3162 87.0743L95.3162 89.0437C95.6511 89.1093 95.9382 89.175 96.2731 89.2078L96.2731 87.2384C95.9382 87.2056 95.6511 87.1399 95.3162 87.0743Z" fill="#F48BA2"/>
<path d="M92.9237 86.4178L92.9237 88.3872C93.2586 88.4857 93.5457 88.5841 93.8807 88.6826L93.8807 86.7132C93.5457 86.6476 93.2586 86.5491 92.9237 86.4178Z" fill="#F48BA2"/>
<path d="M90.0527 85.1049L90.0527 87.0743C90.3398 87.2712 90.6748 87.4353 91.0097 87.5994L91.0097 85.63C90.6748 85.4659 90.3398 85.269 90.0527 85.1049Z" fill="#F48BA2"/>
<path d="M87.6604 83.0698L87.6604 85.0392C87.9475 85.3675 88.2824 85.6957 88.6174 85.9911L88.6174 84.0217C88.2824 83.7263 87.9475 83.4309 87.6604 83.0698Z" fill="#F48BA2"/>
<path d="M107.757 85.8598L107.757 87.8292C108.092 87.6651 108.427 87.501 108.714 87.3368L108.714 85.3674C108.427 85.5316 108.092 85.6957 107.757 85.8598Z" fill="#F48BA2"/>
<path d="M110.149 86.4179C110.484 86.1553 110.819 85.8927 111.106 85.5973L111.106 83.6279C110.819 83.9233 110.484 84.1859 110.149 84.4485L110.149 86.4179Z" fill="#F48BA2"/>
<path d="M102.101 78.9678L102.101 80.2579L103.45 80.2579L103.45 81.2676L102.101 81.2676L102.101 82.089L100.915 82.089L100.915 81.2676L100.29 81.2676L100.29 82.089L99.1047 82.089L99.1047 81.2676L94.946 81.2676L94.946 79.0359C94.946 78.3921 95.1914 77.8779 95.682 77.4933C96.1687 77.1086 96.8171 76.9163 97.627 76.9163C98.4525 76.9163 99.1009 77.0993 99.572 77.4652C100.039 77.8312 100.279 78.34 100.29 78.9918L100.29 80.2579L100.915 80.2579L100.915 78.9678L102.101 78.9678ZM99.1047 80.2579L99.1047 79.0519C99.1047 78.6886 98.9821 78.4108 98.7368 78.2185C98.4915 78.0262 98.1254 77.93 97.6387 77.93C97.2026 77.93 96.8463 78.0248 96.5698 78.2145C96.2933 78.4015 96.1493 78.6606 96.1376 78.9918L96.1376 80.2579L99.1047 80.2579Z" fill="#F48BA2"/>
<path d="M113.02 77.3376C113.02 81.7688 107.039 85.3793 99.6224 85.3793C92.2059 85.3793 86.2249 81.7688 86.2249 77.3376C86.2249 72.9065 92.2059 69.2959 99.6224 69.2959C107.039 69.2959 113.02 72.9065 113.02 77.3376Z" fill="#FFDCE4"/>
<path d="M99.6224 85.3794C92.7801 85.3794 87.134 82.294 86.3205 78.3224C86.2727 78.6506 86.2249 78.9789 86.2249 79.3071C86.2249 83.7383 92.2059 87.3488 99.6224 87.3488C107.039 87.3488 113.02 83.7383 113.02 79.3071C113.02 78.9789 112.972 78.6506 112.924 78.3224C112.111 82.294 106.465 85.3794 99.6224 85.3794Z" fill="#FFBFCD"/>
<path d="M110.388 77.3048C110.388 77.5674 110.388 77.7972 110.341 78.027C110.293 78.1911 110.053 78.3224 109.814 78.3224C109.575 78.2896 109.384 78.1254 109.384 77.9613C109.431 77.7644 109.431 77.5674 109.431 77.3377C109.431 77.1407 109.623 77.0094 109.91 77.0094C110.197 77.0094 110.388 77.1407 110.388 77.3048ZM109.862 75.4011C109.862 75.5324 109.766 75.6637 109.575 75.6965C109.336 75.7622 109.049 75.6637 108.953 75.4996C108.857 75.3026 108.714 75.1057 108.57 74.9416C108.427 74.7775 108.522 74.5805 108.762 74.5149C109.001 74.4164 109.288 74.482 109.384 74.6462C109.527 74.8431 109.671 75.0729 109.766 75.2698C109.862 75.3354 109.862 75.3683 109.862 75.4011ZM109.527 79.8322C109.527 79.8979 109.527 79.9307 109.479 79.9964C109.336 80.1933 109.144 80.3902 109.001 80.5872C108.857 80.7513 108.57 80.7841 108.331 80.6857C108.092 80.5872 108.044 80.3902 108.187 80.2261C108.331 80.062 108.522 79.8651 108.618 79.701C108.762 79.5368 109.049 79.4712 109.24 79.5697C109.431 79.6025 109.527 79.7338 109.527 79.8322ZM107.805 73.2348C107.805 73.3332 107.757 73.3989 107.661 73.4645C107.47 73.5958 107.183 73.5958 106.991 73.4645C106.8 73.3332 106.56 73.1691 106.321 73.0378C106.13 72.9393 106.082 72.7096 106.273 72.5783C106.465 72.447 106.752 72.4142 106.943 72.5455C107.183 72.6768 107.47 72.8409 107.661 73.005C107.757 73.0706 107.805 73.1691 107.805 73.2348ZM107.135 81.8345C107.135 81.9329 107.087 82.0314 106.943 82.0971C106.704 82.2284 106.417 82.3925 106.13 82.4909C105.891 82.5894 105.604 82.5566 105.46 82.3925C105.316 82.2284 105.364 82.0314 105.604 81.9329C105.843 81.8017 106.082 81.7032 106.321 81.5719C106.513 81.4406 106.848 81.4734 106.991 81.6047C107.087 81.7032 107.135 81.7688 107.135 81.8345ZM104.694 71.7905C104.694 71.8233 104.694 71.889 104.647 71.9218C104.551 72.0859 104.264 72.1516 104.025 72.0859C103.737 71.9875 103.45 71.9218 103.163 71.8562C102.924 71.7905 102.78 71.6264 102.876 71.4295C102.972 71.2653 103.211 71.1669 103.498 71.2325C103.833 71.2982 104.12 71.3966 104.407 71.4623C104.599 71.5608 104.694 71.6592 104.694 71.7905ZM103.833 83.1146C103.833 83.2459 103.69 83.3772 103.498 83.41C103.211 83.4756 102.876 83.5413 102.541 83.6069C102.302 83.6398 102.015 83.5413 101.967 83.3772C101.919 83.2131 102.063 83.0161 102.302 82.9833C102.589 82.9176 102.876 82.8848 103.163 82.8192C103.402 82.7535 103.69 82.852 103.785 83.0161C103.833 83.0161 103.833 83.0489 103.833 83.1146ZM101.01 71.1669C101.01 71.1997 101.01 71.1997 101.01 71.1669C101.01 71.3638 100.771 71.4951 100.484 71.4951C100.197 71.4951 99.9096 71.4623 99.6225 71.4623C99.3354 71.4623 99.144 71.331 99.144 71.1341C99.144 70.9371 99.3354 70.8058 99.6225 70.8058C99.9574 70.8058 100.244 70.8058 100.579 70.8386C100.819 70.8715 101.01 71.0028 101.01 71.1669ZM100.101 83.5085C100.101 83.7054 99.9096 83.8367 99.6225 83.8367C99.2875 83.8367 98.9526 83.8367 98.6655 83.8039C98.4263 83.8039 98.187 83.6398 98.2349 83.4428C98.2349 83.2459 98.4741 83.1146 98.7612 83.1474C99.0483 83.1474 99.3832 83.1802 99.6703 83.1802C99.9096 83.1802 100.101 83.3443 100.101 83.5085ZM97.23 71.3966C97.23 71.5279 97.0865 71.6921 96.8473 71.7249C96.5602 71.7905 96.2731 71.8233 95.986 71.889C95.7467 71.9546 95.4596 71.8562 95.364 71.6921C95.2683 71.5279 95.4118 71.331 95.651 71.2654C95.9381 71.1997 96.2731 71.1341 96.608 71.0684C96.8473 71.0356 97.1343 71.1341 97.1822 71.2982C97.23 71.331 97.23 71.3638 97.23 71.3966ZM96.3688 83.1146C96.3688 83.1474 96.3688 83.1802 96.3209 83.2131C96.2252 83.3772 95.986 83.4756 95.6989 83.41C95.4118 83.3443 95.0769 83.2459 94.7898 83.1802C94.5505 83.1146 94.4548 82.9176 94.5505 82.7535C94.6462 82.5894 94.9333 82.5238 95.1726 82.5894C95.4596 82.6879 95.7467 82.7535 96.0338 82.8192C96.2731 82.852 96.3688 82.9833 96.3688 83.1146ZM93.785 72.447C93.785 72.5455 93.6893 72.6439 93.5936 72.7096C93.3543 72.8409 93.1151 72.9393 92.8758 73.0706C92.6844 73.2019 92.3495 73.1691 92.206 73.0378C92.0146 72.9065 92.0624 72.6768 92.2538 72.5783C92.493 72.447 92.7801 72.2829 93.0672 72.1844C93.3065 72.0859 93.5936 72.1188 93.7371 72.2829C93.785 72.3157 93.785 72.3813 93.785 72.447ZM93.0672 81.8673C93.0672 81.9329 93.0194 81.9986 92.9715 82.0642C92.828 82.1955 92.493 82.2284 92.3017 82.0971C92.0624 81.9658 91.7753 81.8017 91.5839 81.6375C91.3925 81.5062 91.3925 81.3093 91.5839 81.178C91.7753 81.0467 92.0624 81.0467 92.2538 81.178C92.4452 81.3093 92.6844 81.4734 92.9237 81.6047C93.0194 81.6704 93.0672 81.7688 93.0672 81.8673ZM91.1533 74.2851C91.1533 74.3507 91.1054 74.4164 91.0576 74.4492C90.914 74.6133 90.7227 74.8103 90.627 74.9744C90.5313 75.1385 90.1963 75.2042 90.0049 75.1057C89.7657 75.04 89.67 74.8431 89.8135 74.679C89.9571 74.482 90.1485 74.2851 90.292 74.0882C90.4356 73.924 90.7227 73.8912 90.9619 73.9897C91.0576 74.0553 91.1533 74.1866 91.1533 74.2851ZM90.6748 79.8651C90.6748 79.9964 90.5791 80.0948 90.4356 80.1605C90.1963 80.259 89.9092 80.1933 89.8135 80.0292C89.67 79.8322 89.5264 79.6025 89.4307 79.4055C89.3351 79.2414 89.4786 79.0445 89.7178 78.9788C89.9571 78.9132 90.2442 79.0117 90.3399 79.1758C90.4356 79.3727 90.5791 79.5697 90.7227 79.7338C90.6748 79.7666 90.6748 79.7994 90.6748 79.8651ZM89.8614 76.714L89.8614 76.7469C89.8135 76.9438 89.8135 77.1407 89.8135 77.3377C89.8135 77.5346 89.6221 77.6659 89.3351 77.6659C89.048 77.6659 88.8566 77.5346 88.8566 77.3377C88.8566 77.1079 88.8566 76.8781 88.9044 76.6812C88.9523 76.5171 89.1915 76.3858 89.4307 76.3858C89.67 76.3858 89.8614 76.5499 89.8614 76.714Z" fill="#FFBFCD"/>
<path d="M100.101 85.3794L100.101 87.3488C100.436 87.3488 100.723 87.316 101.058 87.316L101.058 85.3466C100.723 85.3466 100.436 85.3794 100.101 85.3794Z" fill="#F48BA2"/>
<path d="M97.7085 85.3137L97.7085 87.2831C98.0434 87.316 98.3305 87.316 98.6655 87.3488L98.6655 85.3794C98.3305 85.3466 98.0434 85.3466 97.7085 85.3137Z" fill="#F48BA2"/>
<path d="M102.493 85.2152L102.493 87.1846C102.828 87.1518 103.115 87.0861 103.45 87.0205L103.45 85.0511C103.115 85.1167 102.828 85.1495 102.493 85.2152Z" fill="#F48BA2"/>
<path d="M104.886 84.7557L104.886 86.7251C105.221 86.6266 105.508 86.561 105.843 86.4625L105.843 84.4931C105.508 84.5588 105.221 84.6572 104.886 84.7557Z" fill="#F48BA2"/>
<path d="M95.3162 84.9527L95.3162 86.9221C95.6511 86.9877 95.9382 87.0534 96.2731 87.0862L96.2731 85.1168C95.9382 85.084 95.6511 85.0183 95.3162 84.9527Z" fill="#F48BA2"/>
<path d="M92.9237 84.2962L92.9237 86.2656C93.2586 86.3641 93.5457 86.4626 93.8807 86.561L93.8807 84.5916C93.5457 84.526 93.2586 84.4275 92.9237 84.2962Z" fill="#F48BA2"/>
<path d="M90.0527 82.9832L90.0527 84.9526C90.3398 85.1495 90.6748 85.3136 91.0097 85.4778L91.0097 83.5084C90.6748 83.3442 90.3398 83.1473 90.0527 82.9832Z" fill="#F48BA2"/>
<path d="M87.6604 80.9483L87.6604 82.9177C87.9475 83.2459 88.2824 83.5741 88.6174 83.8696L88.6174 81.9002C88.2824 81.6047 87.9475 81.3093 87.6604 80.9483Z" fill="#F48BA2"/>
<path d="M107.757 83.7382L107.757 85.7076C108.092 85.5435 108.427 85.3794 108.714 85.2153L108.714 83.2459C108.427 83.41 108.092 83.5741 107.757 83.7382Z" fill="#F48BA2"/>
<path d="M110.149 84.2961C110.484 84.0335 110.819 83.7709 111.106 83.4755L111.106 81.5061C110.819 81.8015 110.484 82.0641 110.149 82.3267L110.149 84.2961Z" fill="#F48BA2"/>
<path d="M102.101 76.8462L102.101 78.1363L103.45 78.1363L103.45 79.1461L102.101 79.1461L102.101 79.9674L100.915 79.9674L100.915 79.1461L100.29 79.1461L100.29 79.9674L99.1047 79.9674L99.1047 79.1461L94.946 79.1461L94.946 76.9143C94.946 76.2705 95.1914 75.7563 95.682 75.3717C96.1687 74.987 96.8171 74.7947 97.627 74.7947C98.4525 74.7947 99.1009 74.9777 99.572 75.3436C100.039 75.7096 100.279 76.2184 100.29 76.8702L100.29 78.1363L100.915 78.1363L100.915 76.8462L102.101 76.8462ZM99.1047 78.1363L99.1047 76.9303C99.1047 76.567 98.9821 76.2892 98.7368 76.0969C98.4915 75.9046 98.1254 75.8084 97.6387 75.8084C97.2026 75.8084 96.8463 75.9032 96.5698 76.0929C96.2933 76.2799 96.1493 76.539 96.1376 76.8702L96.1376 78.1363L99.1047 78.1363Z" fill="#F48BA2"/>
</svg>
