<svg width="56" height="29" fill="none" xmlns="http://www.w3.org/2000/svg"><path d="M26.795 18.743c0 4.432-5.98 8.042-13.397 8.042S0 23.175 0 18.743c0-4.43 5.981-8.041 13.398-8.041 7.416 0 13.397 3.61 13.397 8.041z" fill="#fff"/><path d="M13.398 26.785C6.555 26.785.909 23.7.096 19.728a6.843 6.843 0 00-.096.985c0 4.431 5.981 8.041 13.398 8.041 7.416 0 13.397-3.61 13.397-8.041 0-.328-.048-.657-.096-.985-.813 3.972-6.46 7.057-13.301 7.057z" fill="#FFBFCD"/><path d="M24.163 18.71c0 .263 0 .493-.047.723-.048.164-.287.295-.527.295-.239-.033-.43-.197-.43-.36.047-.198.047-.395.047-.624 0-.197.192-.329.479-.329s.479.132.479.296zm-.526-1.903c0 .131-.096.263-.287.295-.24.066-.526-.032-.622-.197a2.642 2.642 0 00-.383-.558c-.143-.164-.048-.36.192-.426.239-.099.526-.033.622.13.143.198.287.428.383.625.095.065.095.098.095.13zm-.335 4.431c0 .066 0 .099-.048.164-.143.197-.335.394-.478.591-.144.164-.43.197-.67.098-.24-.098-.287-.295-.144-.46.144-.163.335-.36.431-.524.144-.164.43-.23.622-.132.191.033.287.165.287.263zM21.58 14.64c0 .099-.048.165-.144.23a.619.619 0 01-.67 0 8.181 8.181 0 00-.67-.426c-.191-.099-.239-.329-.047-.46.19-.131.478-.164.67-.033.239.131.526.296.717.46.096.065.144.164.144.23zm-.67 8.6c0 .099-.048.197-.192.263-.239.131-.526.295-.813.394-.24.098-.526.065-.67-.099-.143-.164-.096-.36.144-.46.239-.13.478-.229.717-.36.192-.132.527-.099.67.032.096.099.144.165.144.23zm-2.44-10.044c0 .033 0 .099-.048.132-.096.164-.383.23-.622.164-.287-.099-.575-.164-.862-.23-.239-.066-.382-.23-.287-.427.096-.164.335-.262.622-.197.335.066.622.164.91.23.19.098.287.197.287.328zm-.862 11.324c0 .132-.143.263-.335.296-.287.065-.622.131-.957.197-.239.032-.526-.066-.574-.23-.048-.164.096-.361.335-.394.287-.066.574-.098.861-.164.24-.066.527.033.622.197.048 0 .048.033.048.098zm-2.823-11.947c0 .032 0 .032 0 0 0 .197-.239.328-.526.328-.287 0-.574-.033-.861-.033-.287 0-.479-.131-.479-.328s.191-.328.479-.328c.335 0 .622 0 .957.032.239.033.43.165.43.329zm-.909 12.341c0 .197-.191.328-.478.328-.335 0-.67 0-.957-.032-.24 0-.479-.165-.431-.361 0-.197.24-.329.526-.296.287 0 .622.033.91.033.239 0 .43.164.43.328zm-2.87-12.112c0 .132-.144.296-.384.329-.287.065-.574.098-.86.164-.24.065-.527-.033-.623-.197-.096-.164.048-.361.287-.427.287-.066.622-.131.957-.197.24-.033.527.066.574.23.048.033.048.066.048.098zm-.862 11.718c0 .033 0 .066-.048.099-.096.164-.335.262-.622.197-.287-.066-.622-.164-.91-.23-.238-.066-.334-.263-.238-.427.095-.164.382-.23.622-.164.287.099.574.164.861.23.24.033.335.164.335.295zM7.56 13.853c0 .098-.096.197-.191.262-.24.132-.479.23-.718.361-.191.132-.526.099-.67-.032-.191-.132-.143-.362.048-.46.24-.131.526-.295.813-.394.24-.098.527-.066.67.099.048.033.048.098.048.164zm-.718 9.42c0 .066-.047.131-.095.197-.144.131-.479.164-.67.033-.24-.131-.527-.296-.718-.46-.191-.131-.191-.328 0-.46a.619.619 0 01.67 0c.191.132.43.296.67.428a.318.318 0 01.143.262zm-1.914-7.582c0 .066-.047.131-.095.164-.144.164-.335.361-.43.525-.097.164-.432.23-.623.132-.24-.066-.335-.263-.191-.427.143-.197.335-.394.478-.591.144-.164.43-.197.67-.098.096.065.191.196.191.295zm-.478 5.58c0 .131-.096.23-.24.295-.239.099-.526.033-.621-.131a4.383 4.383 0 01-.383-.624c-.096-.164.048-.36.287-.426.24-.066.526.032.622.197.096.197.24.393.383.558-.048.032-.048.065-.048.13zm-.813-3.151v.033c-.048.197-.048.394-.048.59 0 .197-.192.329-.479.329s-.478-.132-.478-.328c0-.23 0-.46.048-.657.047-.164.287-.295.526-.295.24 0 .43.164.43.328z" fill="#FFBFCD"/><path d="M13.876 26.785v1.97c.335 0 .622-.033.957-.033v-1.97c-.335 0-.622.033-.957.033zm-2.392-.065v1.969c.335.033.622.033.957.066v-1.97c-.335-.033-.622-.033-.957-.066zm4.785-.099v1.97c.335-.033.622-.099.957-.165v-1.969c-.335.066-.622.098-.957.164zm2.391-.459v1.969c.336-.099.623-.164.958-.263v-1.97c-.335.067-.622.165-.957.264zm-9.569.196v1.97c.335.066.622.131.957.164v-1.97c-.335-.032-.622-.098-.957-.163zm-2.392-.656v1.97c.335.098.622.196.957.295v-1.97a5.337 5.337 0 01-.957-.295zm-2.871-1.313v1.97c.287.196.622.36.957.524v-1.969c-.335-.164-.67-.36-.957-.525zm-2.392-2.035v1.97c.287.327.622.656.957.951v-1.97c-.335-.295-.67-.59-.957-.951zm20.096 2.79v1.97c.335-.165.67-.329.957-.493v-1.97a17.64 17.64 0 01-.957.493zm2.392.558c.335-.263.67-.525.957-.82v-1.97c-.287.295-.622.558-.957.82v1.97zm-8.048-7.45v1.29h1.35v1.01h-1.35v.821h-1.185v-.821h-.625v.821H12.88v-.821H8.72V18.32c0-.644.246-1.158.736-1.543.487-.384 1.135-.577 1.945-.577.826 0 1.474.183 1.945.55.467.365.707.874.719 1.526v1.266h.625v-1.29h1.185zm-2.996 1.29v-1.206c0-.363-.123-.641-.368-.833-.245-.193-.611-.289-1.098-.289-.436 0-.793.095-1.069.285a.93.93 0 00-.432.777v1.266h2.967z" fill="#F48BA2"/><path d="M26.795 16.622c0 4.431-5.98 8.042-13.397 8.042S0 21.054 0 16.622 5.981 8.58 13.398 8.58c7.416 0 13.397 3.61 13.397 8.042z" fill="#fff"/><path d="M13.398 24.664c-6.843 0-12.489-3.086-13.302-7.057A6.86 6.86 0 000 18.59c0 4.431 5.981 8.042 13.398 8.042 7.416 0 13.397-3.61 13.397-8.042a6.83 6.83 0 00-.096-.984c-.813 3.971-6.46 7.057-13.301 7.057z" fill="#FFBFCD"/><path d="M24.163 16.59c0 .262 0 .491-.047.721-.048.164-.287.296-.527.296-.239-.033-.43-.197-.43-.361.047-.197.047-.394.047-.624 0-.197.192-.328.479-.328s.479.131.479.295zm-.526-1.905c0 .132-.096.263-.287.296-.24.066-.526-.033-.622-.197a2.637 2.637 0 00-.383-.558c-.143-.164-.048-.361.192-.427.239-.098.526-.033.622.132a4.4 4.4 0 01.383.623c.095.066.095.099.095.131zm-.335 4.432c0 .065 0 .098-.048.164-.143.197-.335.393-.478.59-.144.165-.43.197-.67.099-.24-.098-.287-.296-.144-.46.144-.164.335-.36.431-.525.144-.164.43-.23.622-.131.191.033.287.164.287.263zm-1.722-6.598c0 .098-.048.164-.144.23a.619.619 0 01-.67 0 8.181 8.181 0 00-.67-.427c-.191-.098-.239-.328-.047-.46.19-.13.478-.164.67-.032.239.131.526.295.717.46.096.065.144.163.144.23zm-.67 8.6c0 .098-.048.197-.192.262-.239.132-.526.296-.813.394-.24.099-.526.066-.67-.098-.143-.164-.096-.361.144-.46.239-.131.478-.23.717-.36.192-.132.527-.1.67.032.096.099.144.164.144.23zm-2.44-10.044c0 .033 0 .098-.048.131-.096.164-.383.23-.622.164a8.363 8.363 0 00-.862-.23c-.239-.065-.382-.23-.287-.426.096-.164.335-.263.622-.197.335.066.622.164.91.23.19.098.287.197.287.328zm-.862 11.324c0 .131-.143.262-.335.295-.287.066-.622.132-.957.197-.239.033-.526-.065-.574-.23-.048-.164.096-.36.335-.393.287-.066.574-.099.861-.165.24-.065.527.033.622.197.048 0 .048.033.048.099zM14.785 10.45c0 .033 0 .033 0 0 0 .197-.239.328-.526.328-.287 0-.574-.032-.861-.032-.287 0-.479-.132-.479-.329s.191-.328.479-.328c.335 0 .622 0 .957.033.239.033.43.164.43.328zm-.909 12.342c0 .197-.191.328-.478.328-.335 0-.67 0-.957-.033-.24 0-.479-.164-.431-.36 0-.198.24-.33.526-.296.287 0 .622.033.91.033.239 0 .43.164.43.328zm-2.87-12.112c0 .131-.144.295-.384.328-.287.066-.574.099-.86.164-.24.066-.527-.033-.623-.197-.096-.164.048-.36.287-.426.287-.066.622-.132.957-.197.24-.033.527.065.574.23.048.032.048.065.048.098zm-.862 11.718c0 .033 0 .066-.048.098-.096.165-.335.263-.622.197-.287-.065-.622-.164-.91-.23-.238-.065-.334-.262-.238-.426.095-.164.382-.23.622-.164.287.098.574.164.861.23.24.032.335.164.335.295zM7.56 11.73c0 .099-.096.197-.191.263-.24.131-.479.23-.718.36-.191.132-.526.1-.67-.032-.191-.131-.143-.36.048-.46.24-.13.526-.295.813-.393.24-.099.527-.066.67.098.048.033.048.099.048.164zm-.718 9.42c0 .066-.047.132-.095.198-.144.13-.479.164-.67.032-.24-.13-.527-.295-.718-.46-.191-.13-.191-.327 0-.459a.619.619 0 01.67 0c.191.132.43.296.67.427a.318.318 0 01.143.263zm-1.914-7.58a.215.215 0 01-.095.164c-.144.165-.335.362-.43.526-.097.164-.432.23-.623.131-.24-.066-.335-.263-.191-.427.143-.197.335-.394.478-.59.144-.165.43-.197.67-.099.096.066.191.197.191.295zm-.478 5.58c0 .132-.096.23-.24.296-.239.098-.526.033-.621-.131a4.377 4.377 0 01-.383-.624c-.096-.164.048-.361.287-.427.24-.066.526.033.622.197.096.197.24.394.383.558-.048.033-.048.066-.048.131zM3.637 16v.032c-.048.197-.048.394-.048.591 0 .197-.192.328-.479.328s-.478-.131-.478-.328c0-.23 0-.46.048-.656.047-.165.287-.296.526-.296.24 0 .43.164.43.328z" fill="#FFBFCD"/><path d="M13.876 24.664v1.97c.335 0 .622-.034.957-.034v-1.97c-.335 0-.622.034-.957.034zm-2.392-.066v1.97c.335.032.622.032.957.065v-1.97c-.335-.032-.622-.032-.957-.065zm4.785-.098v1.969c.335-.033.622-.099.957-.164v-1.97c-.335.066-.622.099-.957.165zm2.391-.46v1.97c.336-.099.623-.165.958-.263v-1.97c-.335.066-.622.165-.957.263zm-9.569.197v1.97c.335.065.622.13.957.164V24.4c-.335-.033-.622-.098-.957-.164zm-2.392-.657v1.97c.335.098.622.197.957.295v-1.97a5.337 5.337 0 01-.957-.294zm-2.871-1.312v1.969c.287.197.622.361.957.525v-1.97c-.335-.163-.67-.36-.957-.524zm-2.392-2.035v1.969c.287.328.622.656.957.952v-1.97c-.335-.295-.67-.59-.957-.951zm20.096 2.79v1.969c.335-.164.67-.328.957-.492v-1.97c-.287.164-.622.328-.957.493zm2.392.557c.335-.262.67-.525.957-.82v-1.97c-.287.296-.622.559-.957.821v1.97zm-8.048-7.45v1.29h1.35v1.01h-1.35v.822h-1.185v-.822h-.625v.822H12.88v-.822H8.72V16.2c0-.644.246-1.158.736-1.543.487-.385 1.135-.577 1.945-.577.826 0 1.474.183 1.945.549.467.366.707.875.719 1.526v1.267h.625v-1.29h1.185zm-2.996 1.29v-1.205c0-.364-.123-.642-.368-.834-.245-.192-.611-.288-1.098-.288-.436 0-.793.095-1.069.284a.931.931 0 00-.432.777v1.267h2.967z" fill="#F48BA2"/><path d="M26.795 14.492c0 4.431-5.98 8.041-13.397 8.041S0 18.924 0 14.492 5.981 6.45 13.398 6.45c7.416 0 13.397 3.61 13.397 8.042z" fill="#fff"/><path d="M13.398 22.534c-6.843 0-12.489-3.086-13.302-7.057a6.83 6.83 0 00-.096.984c0 4.431 5.981 8.042 13.398 8.042 7.416 0 13.397-3.61 13.397-8.042a6.85 6.85 0 00-.096-.984c-.813 3.971-6.46 7.056-13.301 7.056z" fill="#FFBFCD"/><path d="M24.163 14.459c0 .263 0 .492-.047.722-.048.164-.287.296-.527.296-.239-.033-.43-.197-.43-.361.047-.197.047-.394.047-.624 0-.197.192-.328.479-.328s.479.13.479.295zm-.526-1.904c0 .132-.096.263-.287.296-.24.065-.526-.033-.622-.197a2.642 2.642 0 00-.383-.558c-.143-.164-.048-.361.192-.427.239-.098.526-.033.622.131.143.197.287.427.383.624.095.066.095.098.095.131zm-.335 4.431c0 .066 0 .099-.048.165-.143.197-.335.393-.478.59-.144.165-.43.197-.67.099-.24-.099-.287-.296-.144-.46.144-.164.335-.36.431-.525.144-.164.43-.23.622-.131.191.033.287.164.287.262zM21.58 10.39c0 .098-.048.164-.144.23a.619.619 0 01-.67 0 8.181 8.181 0 00-.67-.427c-.191-.098-.239-.328-.047-.46.19-.13.478-.164.67-.032.239.13.526.295.717.46.096.065.144.163.144.229zm-.67 8.6c0 .098-.048.197-.192.262-.239.131-.526.296-.813.394-.24.099-.526.066-.67-.098-.143-.165-.096-.361.144-.46.239-.131.478-.23.717-.36.192-.132.527-.1.67.032.096.098.144.164.144.23zM18.47 8.945c0 .033 0 .098-.048.131-.096.164-.383.23-.622.164a8.356 8.356 0 00-.862-.23c-.239-.065-.382-.23-.287-.426.096-.164.335-.263.622-.197.335.065.622.164.91.23.19.098.287.196.287.328zm-.862 11.324c0 .131-.143.262-.335.295-.287.066-.622.131-.957.197-.239.033-.526-.066-.574-.23-.048-.164.096-.36.335-.393.287-.066.574-.099.861-.165.24-.065.527.033.622.197.048 0 .048.033.048.099zM14.785 8.32c0 .033 0 .033 0 0 0 .197-.239.328-.526.328-.287 0-.574-.033-.861-.033-.287 0-.479-.13-.479-.328 0-.197.191-.328.479-.328.335 0 .622 0 .957.033.239.033.43.164.43.328zm-.909 12.342c0 .197-.191.328-.478.328-.335 0-.67 0-.957-.033-.24 0-.479-.164-.431-.361 0-.197.24-.328.526-.295.287 0 .622.032.91.032.239 0 .43.165.43.329zM11.006 8.55c0 .131-.144.295-.384.328-.287.066-.574.099-.86.164-.24.066-.527-.033-.623-.197-.096-.164.048-.36.287-.426.287-.066.622-.132.957-.197.24-.033.527.065.574.23.048.032.048.065.048.098zm-.862 11.718c0 .033 0 .065-.048.098-.096.164-.335.263-.622.197s-.622-.164-.91-.23c-.238-.065-.334-.262-.238-.426.095-.164.382-.23.622-.164.287.098.574.164.861.23.24.032.335.163.335.295zM7.56 9.6c0 .099-.096.197-.191.263-.24.131-.479.23-.718.36-.191.132-.526.1-.67-.032-.191-.131-.143-.361.048-.46.24-.13.526-.295.813-.393.24-.099.527-.066.67.098.048.033.048.099.048.164zm-.718 9.42c0 .066-.047.132-.095.197-.144.132-.479.165-.67.033-.24-.131-.527-.295-.718-.46-.191-.13-.191-.328 0-.459a.619.619 0 01.67 0c.191.131.43.296.67.427a.318.318 0 01.143.262zm-1.914-7.58a.215.215 0 01-.095.164c-.144.165-.335.361-.43.526-.097.164-.432.23-.623.13-.24-.065-.335-.262-.191-.426.143-.197.335-.394.478-.59.144-.165.43-.198.67-.1.096.066.191.198.191.296zm-.478 5.58c0 .132-.096.23-.24.296-.239.098-.526.032-.621-.132a4.383 4.383 0 01-.383-.623c-.096-.164.048-.361.287-.427.24-.066.526.033.622.197.096.197.24.394.383.558-.048.033-.048.066-.048.131zm-.813-3.15v.032c-.048.197-.048.394-.048.59 0 .198-.192.33-.479.33s-.478-.132-.478-.33c0-.229 0-.459.048-.656.047-.164.287-.295.526-.295.24 0 .43.164.43.328z" fill="#FFBFCD"/><path d="M13.876 22.534v1.969c.335 0 .622-.033.957-.033V22.5c-.335 0-.622.034-.957.034zm-2.392-.066v1.97c.335.032.622.032.957.065v-1.97c-.335-.032-.622-.032-.957-.065zm4.785-.098v1.969c.335-.033.622-.098.957-.164v-1.97c-.335.066-.622.099-.957.165zm2.391-.46v1.97c.336-.1.623-.165.958-.263v-1.97c-.335.066-.622.164-.957.263zm-9.569.197v1.97c.335.065.622.13.957.163v-1.969c-.335-.033-.622-.099-.957-.164zm-2.392-.657v1.97c.335.098.622.197.957.295v-1.97a5.345 5.345 0 01-.957-.295zm-2.871-1.313v1.97c.287.197.622.36.957.525v-1.97c-.335-.163-.67-.36-.957-.524zm-2.392-2.035v1.97c.287.328.622.656.957.952v-1.97c-.335-.295-.67-.59-.957-.952zm20.096 2.79v1.97c.335-.164.67-.328.957-.493V20.4a17.64 17.64 0 01-.957.492zm2.392.558c.335-.262.67-.525.957-.82v-1.97c-.287.296-.622.558-.957.821v1.97zM15.876 14v1.29h1.35v1.01h-1.35v.822h-1.185V16.3h-.625v.822H12.88V16.3H8.72v-2.232c0-.643.246-1.157.736-1.542.487-.385 1.135-.577 1.945-.577.826 0 1.474.183 1.945.549.467.366.707.875.719 1.526v1.267h.625V14h1.185zm-2.996 1.29v-1.205c0-.364-.123-.642-.368-.834-.245-.192-.611-.288-1.098-.288-.436 0-.793.094-1.069.284a.93.93 0 00-.432.777v1.267h2.967z" fill="#F48BA2"/><path d="M26.795 12.37c0 4.431-5.98 8.042-13.397 8.042S0 16.802 0 12.37c0-4.43 5.981-8.04 13.398-8.04 7.416 0 13.397 3.61 13.397 8.041z" fill="#fff"/><path d="M13.398 20.412c-6.843 0-12.489-3.085-13.302-7.057-.048.328-.096.656-.096.985 0 4.43 5.981 8.041 13.398 8.041 7.416 0 13.397-3.61 13.397-8.041a6.85 6.85 0 00-.096-.985c-.813 3.972-6.46 7.057-13.301 7.057z" fill="#FFBFCD"/><path d="M24.163 12.338c0 .262 0 .492-.047.722-.048.164-.287.295-.527.295-.239-.033-.43-.197-.43-.361.047-.197.047-.394.047-.624 0-.197.192-.328.479-.328s.479.131.479.296zm-.526-1.904c0 .131-.096.262-.287.295-.24.066-.526-.033-.622-.197a2.638 2.638 0 00-.383-.558c-.143-.164-.048-.36.192-.427.239-.098.526-.032.622.132.143.197.287.426.383.623.095.066.095.099.095.132zm-.335 4.43c0 .066 0 .1-.048.165-.143.197-.335.394-.478.59-.144.165-.43.198-.67.1-.24-.1-.287-.296-.144-.46.144-.164.335-.361.431-.525.144-.165.43-.23.622-.132.191.033.287.164.287.263zM21.58 8.268c0 .099-.048.164-.144.23a.619.619 0 01-.67 0 8.181 8.181 0 00-.67-.427c-.191-.098-.239-.328-.047-.46.19-.13.478-.163.67-.032.239.131.526.295.717.46.096.065.144.164.144.23zm-.67 8.6c0 .099-.048.197-.192.263-.239.131-.526.295-.813.393-.24.099-.526.066-.67-.098-.143-.164-.096-.361.144-.46.239-.13.478-.23.717-.36.192-.132.527-.099.67.032.096.099.144.164.144.23zM18.47 6.823c0 .033 0 .099-.048.131-.096.165-.383.23-.622.165a8.082 8.082 0 00-.862-.23c-.239-.066-.382-.23-.287-.427.096-.164.335-.263.622-.197.335.066.622.164.91.23.19.098.287.197.287.328zm-.862 11.324c0 .132-.143.263-.335.296-.287.065-.622.13-.957.197-.239.032-.526-.066-.574-.23-.048-.164.096-.361.335-.394.287-.066.574-.099.861-.164.24-.066.527.033.622.197.048 0 .048.032.048.098zM14.785 6.2c0 .033 0 .033 0 0 0 .197-.239.329-.526.329-.287 0-.574-.033-.861-.033-.287 0-.479-.131-.479-.328s.191-.329.479-.329c.335 0 .622 0 .957.033.239.033.43.164.43.328zm-.909 12.342c0 .197-.191.328-.478.328-.335 0-.67 0-.957-.032-.24 0-.479-.165-.431-.362 0-.197.24-.328.526-.295.287 0 .622.033.91.033.239 0 .43.164.43.328zM11.006 6.43c0 .132-.144.296-.384.328-.287.066-.574.099-.86.165-.24.065-.527-.033-.623-.197-.096-.164.048-.361.287-.427.287-.066.622-.131.957-.197.24-.033.527.066.574.23.048.033.048.065.048.098zm-.862 11.718c0 .033 0 .066-.048.099-.096.164-.335.262-.622.197-.287-.066-.622-.165-.91-.23-.238-.066-.334-.263-.238-.427.095-.164.382-.23.622-.164.287.099.574.164.861.23.24.033.335.164.335.295zM7.56 7.48c0 .098-.096.197-.191.262-.24.131-.479.23-.718.361-.191.132-.526.099-.67-.033-.191-.13-.143-.36.048-.46.24-.13.526-.295.813-.393.24-.098.527-.066.67.098.048.033.048.099.048.165zm-.718 9.42c0 .066-.047.131-.095.197-.144.131-.479.164-.67.033-.24-.132-.527-.296-.718-.46-.191-.131-.191-.328 0-.46a.619.619 0 01.67 0c.191.132.43.296.67.427a.318.318 0 01.143.263zM4.928 9.318c0 .065-.047.131-.095.164-.144.164-.335.36-.43.525-.097.164-.432.23-.623.131-.24-.065-.335-.262-.191-.426.143-.197.335-.394.478-.591.144-.164.43-.197.67-.099.096.066.191.197.191.296zm-.478 5.58c0 .131-.096.23-.24.295-.239.099-.526.033-.621-.131a4.382 4.382 0 01-.383-.624c-.096-.164.048-.36.287-.427.24-.065.526.033.622.197.096.197.24.394.383.558-.048.033-.048.066-.048.132zm-.813-3.151v.033c-.048.196-.048.393-.048.59 0 .197-.192.329-.479.329s-.478-.132-.478-.329c0-.23 0-.46.048-.656.047-.164.287-.296.526-.296.24 0 .43.165.43.329z" fill="#FFBFCD"/><path d="M13.876 20.412v1.97c.335 0 .622-.033.957-.033v-1.97c-.335 0-.622.033-.957.033zm-2.392-.066v1.97c.335.033.622.033.957.065v-1.969c-.335-.033-.622-.033-.957-.066zm4.785-.098v1.97c.335-.034.622-.1.957-.165v-1.97c-.335.066-.622.1-.957.165zm2.391-.46v1.97c.336-.099.623-.164.958-.263v-1.97c-.335.066-.622.165-.957.263zm-9.569.197v1.97c.335.065.622.131.957.164v-1.97c-.335-.032-.622-.098-.957-.164zm-2.392-.656v1.97c.335.098.622.196.957.295v-1.97a5.337 5.337 0 01-.957-.295zm-2.871-1.313v1.97c.287.196.622.36.957.524v-1.97c-.335-.163-.67-.36-.957-.524zM1.436 15.98v1.97c.287.329.622.657.957.952v-1.97c-.335-.295-.67-.59-.957-.951zm20.096 2.79v1.97c.335-.164.67-.328.957-.492v-1.97a17.64 17.64 0 01-.957.493zm2.392.559c.335-.263.67-.526.957-.82v-1.97c-.287.295-.622.558-.957.82v1.97zm-8.048-7.45v1.29h1.35v1.01h-1.35V15h-1.185v-.821h-.625V15H12.88v-.821H8.72v-2.232c0-.644.246-1.158.736-1.543.487-.384 1.135-.577 1.945-.577.826 0 1.474.183 1.945.55.467.365.707.874.719 1.526v1.266h.625v-1.29h1.185zm-2.996 1.29v-1.206c0-.363-.123-.641-.368-.833-.245-.193-.611-.289-1.098-.289-.436 0-.793.095-1.069.285a.931.931 0 00-.432.777v1.266h2.967z" fill="#F48BA2"/><path d="M26.795 10.163c0 4.431-5.98 8.042-13.397 8.042S0 14.595 0 10.163c0-4.431 5.981-8.042 13.398-8.042 7.416 0 13.397 3.611 13.397 8.042z" fill="#fff"/><path d="M13.398 18.205C6.555 18.205.909 15.12.096 11.148c-.048.328-.096.656-.096.985 0 4.43 5.981 8.041 13.398 8.041 7.416 0 13.397-3.61 13.397-8.041a6.85 6.85 0 00-.096-.985c-.813 3.972-6.46 7.057-13.301 7.057z" fill="#FFBFCD"/><path d="M24.163 10.13c0 .263 0 .493-.047.722-.048.165-.287.296-.527.296-.239-.033-.43-.197-.43-.361.047-.197.047-.394.047-.624 0-.197.192-.328.479-.328s.479.131.479.295zm-.526-1.903c0 .131-.096.262-.287.295-.24.066-.526-.033-.622-.197a2.64 2.64 0 00-.383-.558c-.143-.164-.048-.36.192-.427.239-.098.526-.032.622.132.143.197.287.426.383.623.095.066.095.099.095.132zm-.335 4.43c0 .066 0 .1-.048.165-.143.197-.335.394-.478.59-.144.165-.43.198-.67.1-.24-.1-.287-.296-.144-.46.144-.164.335-.361.431-.525.144-.165.43-.23.622-.132.191.033.287.164.287.263zM21.58 6.06c0 .099-.048.164-.144.23a.619.619 0 01-.67 0 8.181 8.181 0 00-.67-.427c-.191-.098-.239-.328-.047-.46.19-.13.478-.163.67-.032.239.131.526.295.717.46.096.065.144.164.144.23zm-.67 8.6c0 .098-.048.197-.192.263-.239.13-.526.295-.813.393-.24.099-.526.066-.67-.098-.143-.164-.096-.361.144-.46.239-.13.478-.23.717-.36.192-.132.527-.099.67.032.096.099.144.164.144.23zM18.47 4.616c0 .033 0 .099-.048.131-.096.165-.383.23-.622.165a8.356 8.356 0 00-.862-.23c-.239-.066-.382-.23-.287-.427.096-.164.335-.263.622-.197.335.066.622.164.91.23.19.098.287.197.287.328zm-.862 11.324c0 .132-.143.263-.335.296-.287.065-.622.13-.957.197-.239.032-.526-.066-.574-.23-.048-.164.096-.361.335-.394.287-.066.574-.099.861-.164.24-.066.527.033.622.197.048 0 .048.032.048.098zM14.785 3.992c0 .033 0 .033 0 0 0 .197-.239.329-.526.329-.287 0-.574-.033-.861-.033-.287 0-.479-.131-.479-.328s.191-.329.479-.329c.335 0 .622 0 .957.033.239.033.43.164.43.328zm-.909 12.342c0 .197-.191.328-.478.328-.335 0-.67 0-.957-.032-.24 0-.479-.165-.431-.362 0-.197.24-.328.526-.295.287 0 .622.033.91.033.239 0 .43.164.43.328zm-2.87-12.112c0 .132-.144.296-.384.328-.287.066-.574.099-.86.165-.24.065-.527-.033-.623-.197-.096-.164.048-.361.287-.427.287-.066.622-.131.957-.197.24-.033.527.066.574.23.048.033.048.065.048.098zm-.862 11.718c0 .033 0 .066-.048.099-.096.164-.335.262-.622.197-.287-.066-.622-.165-.91-.23-.238-.066-.334-.263-.238-.427.095-.164.382-.23.622-.164.287.099.574.164.861.23.24.033.335.164.335.295zM7.56 5.273c0 .098-.096.197-.191.262-.24.131-.479.23-.718.361-.191.132-.526.099-.67-.033-.191-.13-.143-.36.048-.46.24-.13.526-.295.813-.393.24-.098.527-.066.67.098.048.033.048.099.048.165zm-.718 9.42c0 .066-.047.131-.095.197-.144.131-.479.164-.67.033-.24-.132-.527-.296-.718-.46-.191-.131-.191-.328 0-.46a.619.619 0 01.67 0c.191.132.43.296.67.427a.318.318 0 01.143.263zM4.928 7.11c0 .065-.047.131-.095.164-.144.164-.335.36-.43.525-.097.164-.432.23-.623.131-.24-.065-.335-.262-.191-.426.143-.197.335-.394.478-.591.144-.164.43-.197.67-.099.096.066.191.197.191.296zm-.478 5.58c0 .13-.096.23-.24.295-.239.098-.526.033-.621-.131a4.383 4.383 0 01-.383-.624c-.096-.164.048-.36.287-.427.24-.065.526.033.622.197.096.197.24.394.383.558-.048.033-.048.066-.048.132zm-.813-3.15v.032c-.048.197-.048.394-.048.591 0 .197-.192.329-.479.329s-.478-.132-.478-.329c0-.23 0-.46.048-.656.047-.164.287-.296.526-.296.24 0 .43.164.43.329z" fill="#FFBFCD"/><path d="M13.876 18.205v1.97c.335 0 .622-.034.957-.034v-1.969c-.335 0-.622.033-.957.033zm-2.392-.065v1.969c.335.032.622.032.957.065v-1.97c-.335-.032-.622-.032-.957-.065zm4.785-.1v1.97c.335-.033.622-.098.957-.164v-1.97c-.335.066-.622.1-.957.165zm2.391-.459v1.97c.336-.099.623-.164.958-.263v-1.97c-.335.066-.622.165-.957.263zm-9.569.197v1.97c.335.065.622.131.957.164v-1.97c-.335-.032-.622-.098-.957-.164zm-2.392-.656v1.97c.335.098.622.196.957.295v-1.97a5.337 5.337 0 01-.957-.295zm-2.871-1.313v1.97c.287.196.622.36.957.524v-1.969c-.335-.164-.67-.361-.957-.525zm-2.392-2.035v1.97c.287.327.622.656.957.951v-1.97c-.335-.295-.67-.59-.957-.951zm20.096 2.79v1.97c.335-.165.67-.33.957-.493v-1.97a17.64 17.64 0 01-.957.493zm2.392.558c.335-.263.67-.525.957-.82v-1.97c-.287.295-.622.558-.957.82v1.97zm-8.048-7.45v1.29h1.35v1.01h-1.35v.82h-1.185v-.82h-.625v.82H12.88v-.82H8.72V9.74c0-.644.246-1.158.736-1.543.487-.385 1.135-.577 1.945-.577.826 0 1.474.183 1.945.55.467.365.707.874.719 1.526v1.266h.625v-1.29h1.185zm-2.996 1.29V9.756c0-.364-.123-.641-.368-.834-.245-.192-.611-.288-1.098-.288-.436 0-.793.095-1.069.284a.931.931 0 00-.432.778v1.266h2.967z" fill="#F48BA2"/><path d="M26.795 8.042c0 4.43-5.98 8.041-13.397 8.041S0 12.473 0 8.042C0 3.61 5.981 0 13.398 0c7.416 0 13.397 3.61 13.397 8.042z" fill="#FFDCE4"/><path d="M13.398 16.083C6.555 16.083.909 12.998.096 9.026a6.86 6.86 0 00-.096.985c0 4.431 5.981 8.042 13.398 8.042 7.416 0 13.397-3.61 13.397-8.042 0-.328-.048-.656-.096-.985-.813 3.972-6.46 7.057-13.301 7.057z" fill="#FFBFCD"/><path d="M24.163 8.009c0 .262 0 .492-.047.722-.048.164-.287.295-.527.295-.239-.032-.43-.197-.43-.36.047-.198.047-.395.047-.624 0-.197.192-.329.479-.329s.479.132.479.296zm-.526-1.904c0 .131-.096.263-.287.296-.24.065-.526-.033-.622-.197a2.64 2.64 0 00-.383-.558c-.143-.165-.048-.361.192-.427.239-.099.526-.033.622.131.143.197.287.427.383.624.095.065.095.098.095.131zm-.335 4.431c0 .066 0 .099-.048.164-.143.197-.335.394-.478.591-.144.164-.43.197-.67.099-.24-.099-.287-.296-.144-.46.144-.164.335-.36.431-.525.144-.164.43-.23.622-.131.191.033.287.164.287.262zM21.58 3.94c0 .098-.048.164-.144.23a.619.619 0 01-.67 0 8.181 8.181 0 00-.67-.427c-.191-.099-.239-.328-.047-.46.19-.131.478-.164.67-.033.239.132.526.296.717.46.096.066.144.164.144.23zm-.67 8.6c0 .098-.048.197-.192.262-.239.131-.526.296-.813.394-.24.098-.526.066-.67-.098-.143-.165-.096-.361.144-.46.239-.131.478-.23.717-.361.192-.131.527-.098.67.033.096.098.144.164.144.23zM18.47 2.495c0 .032 0 .098-.048.13-.096.165-.383.23-.622.165-.287-.099-.575-.164-.862-.23-.239-.065-.382-.23-.287-.426.096-.165.335-.263.622-.197.335.065.622.164.91.23.19.098.287.196.287.328zm-.862 11.324c0 .13-.143.262-.335.295-.287.066-.622.131-.957.197-.239.033-.526-.066-.574-.23-.048-.164.096-.36.335-.394.287-.065.574-.098.861-.164.24-.065.527.033.622.197.048 0 .048.033.048.099zM14.785 1.87c0 .033 0 .033 0 0 0 .197-.239.328-.526.328-.287 0-.574-.033-.861-.033-.287 0-.479-.131-.479-.328s.191-.328.479-.328c.335 0 .622 0 .957.033.239.033.43.164.43.328zm-.909 12.341c0 .197-.191.329-.478.329-.335 0-.67 0-.957-.033-.24 0-.479-.164-.431-.361 0-.197.24-.328.526-.296.287 0 .622.033.91.033.239 0 .43.164.43.329zM11.006 2.1c0 .131-.144.295-.384.328-.287.066-.574.098-.86.164-.24.066-.527-.033-.623-.197-.096-.164.048-.361.287-.427.287-.065.622-.13.957-.197.24-.032.527.066.574.23.048.033.048.066.048.099zm-.862 11.718c0 .032 0 .065-.048.098-.096.164-.335.263-.622.197s-.622-.164-.91-.23c-.238-.065-.334-.262-.238-.426.095-.165.382-.23.622-.165.287.099.574.165.861.23.24.033.335.164.335.296zM7.56 3.15c0 .099-.096.197-.191.263-.24.13-.479.23-.718.36-.191.132-.526.1-.67-.032-.191-.131-.143-.361.048-.46.24-.131.526-.295.813-.394.24-.098.527-.065.67.099.048.033.048.098.048.164zm-.718 9.42c0 .066-.047.132-.095.197-.144.132-.479.164-.67.033-.24-.131-.527-.295-.718-.46-.191-.13-.191-.328 0-.459a.62.62 0 01.67 0c.191.131.43.296.67.427a.317.317 0 01.143.262zM4.928 4.99c0 .066-.047.131-.095.164-.144.164-.335.361-.43.525-.097.165-.432.23-.623.132-.24-.066-.335-.263-.191-.427.143-.197.335-.394.478-.59.144-.165.43-.198.67-.1.096.066.191.198.191.296zm-.478 5.58c0 .131-.096.23-.24.295-.239.099-.526.033-.621-.13a4.382 4.382 0 01-.383-.624c-.096-.165.048-.361.287-.427.24-.066.526.033.622.197.096.197.24.394.383.558-.048.033-.048.066-.048.131zm-.813-3.15v.032c-.048.197-.048.394-.048.59 0 .198-.192.329-.479.329s-.478-.131-.478-.328c0-.23 0-.46.048-.657.047-.164.287-.295.526-.295.24 0 .43.164.43.328z" fill="#FFBFCD"/><path d="M13.876 16.083v1.97c.335 0 .622-.033.957-.033v-1.97c-.335 0-.622.033-.957.033zm-2.392-.065v1.97c.335.032.622.032.957.065v-1.97c-.335-.032-.622-.032-.957-.065zm4.785-.098v1.969c.335-.033.622-.099.957-.165v-1.969c-.335.066-.622.099-.957.164zm2.391-.46v1.97c.336-.1.623-.165.958-.263v-1.97c-.335.066-.622.164-.957.263zm-9.569.197v1.97c.335.065.622.13.957.163v-1.97c-.335-.032-.622-.098-.957-.163zM6.699 15v1.97c.335.098.622.197.957.295v-1.97A5.345 5.345 0 016.699 15zm-2.871-1.313v1.97c.287.197.622.36.957.525v-1.97c-.335-.164-.67-.36-.957-.525zm-2.392-2.035v1.97c.287.328.622.656.957.952v-1.97c-.335-.295-.67-.59-.957-.952zm20.096 2.79v1.97c.335-.164.67-.328.957-.493V13.95a17.64 17.64 0 01-.957.492zm2.392.558c.335-.262.67-.525.957-.82v-1.97c-.287.295-.622.558-.957.82V15zm-8.048-7.45v1.29h1.35v1.01h-1.35v.821h-1.185V9.85h-.625v.821H12.88V9.85H8.72V7.618c0-.644.246-1.158.736-1.542.487-.385 1.135-.577 1.945-.577.826 0 1.474.183 1.945.549.467.366.707.874.719 1.526V8.84h.625V7.55h1.185zM12.88 8.84V7.634c0-.363-.123-.64-.368-.833-.245-.192-.611-.289-1.098-.289-.436 0-.793.095-1.069.285a.931.931 0 00-.432.777V8.84h2.967z" fill="#F48BA2"/><path d="M55.02 12.23c0 4.43-5.981 8.041-13.398 8.041-7.416 0-13.397-3.61-13.397-8.041 0-4.432 5.98-8.042 13.397-8.042S55.02 7.798 55.02 12.23z" fill="#fff"/><path d="M41.622 20.271c-6.842 0-12.488-3.085-13.302-7.057-.047.329-.095.657-.095.985 0 4.431 5.98 8.042 13.397 8.042s13.398-3.61 13.398-8.042c0-.328-.048-.656-.096-.985-.813 3.972-6.46 7.057-13.302 7.057z" fill="#FFBFCD"/><path d="M52.388 12.197c0 .262 0 .492-.047.722-.048.164-.288.295-.527.295-.24-.033-.43-.197-.43-.36.047-.198.047-.395.047-.624 0-.197.192-.329.479-.329s.478.132.478.296zm-.526-1.904c0 .131-.096.263-.287.295-.24.066-.526-.032-.622-.196a2.64 2.64 0 00-.383-.558c-.143-.165-.048-.362.191-.427.24-.099.527-.033.622.131.144.197.288.427.383.624.096.065.096.098.096.131zm-.335 4.431c0 .066 0 .099-.048.164-.143.197-.335.394-.478.591-.144.164-.43.197-.67.099-.24-.099-.287-.296-.144-.46.144-.164.335-.361.431-.525.143-.164.43-.23.622-.131.191.032.287.164.287.262zm-1.723-6.597c0 .098-.047.164-.143.23a.619.619 0 01-.67 0 7.736 7.736 0 00-.67-.427c-.191-.099-.239-.328-.048-.46.192-.131.479-.164.67-.033.24.132.527.296.718.46.096.066.143.164.143.23zm-.67 8.6c0 .098-.047.196-.19.262-.24.131-.527.295-.814.394-.24.098-.527.066-.67-.099-.144-.164-.096-.36.143-.46.24-.13.479-.229.718-.36.192-.131.527-.099.67.033.096.098.144.164.144.23zm-2.44-10.045c0 .033 0 .099-.047.132-.096.164-.383.23-.622.164a8.356 8.356 0 00-.862-.23c-.239-.066-.382-.23-.287-.427.096-.164.335-.262.622-.197.335.066.622.165.91.23.19.099.286.197.286.328zm-.86 11.324c0 .132-.144.263-.336.296-.287.066-.622.131-.957.197-.239.033-.526-.066-.574-.23-.048-.164.096-.36.335-.394.287-.065.574-.098.861-.164.24-.066.527.033.622.197.048 0 .048.033.048.098zM43.01 6.06c0 .033 0 .033 0 0 0 .197-.24.328-.526.328-.287 0-.574-.033-.861-.033-.288 0-.479-.131-.479-.328s.191-.328.479-.328c.334 0 .622 0 .956.033.24.032.431.164.431.328zM42.1 18.4c0 .197-.19.329-.477.329-.335 0-.67 0-.957-.033-.24 0-.479-.164-.431-.361 0-.197.24-.329.526-.296.287 0 .622.033.91.033.239 0 .43.164.43.328zM39.23 6.29c0 .13-.143.295-.383.328-.287.065-.574.098-.861.164-.24.066-.526-.033-.622-.197-.096-.164.048-.361.287-.427.287-.065.622-.131.957-.197.24-.032.526.066.574.23.048.033.048.066.048.099zm-.861 11.717c0 .033 0 .066-.048.099-.096.164-.335.263-.622.197s-.622-.164-.91-.23c-.239-.066-.334-.262-.239-.427.096-.164.383-.23.623-.164.287.099.574.164.86.23.24.033.336.164.336.296zM35.785 7.34c0 .098-.096.197-.191.263-.24.13-.479.23-.718.36-.192.132-.526.099-.67-.032-.191-.132-.144-.361.048-.46.239-.131.526-.295.813-.394.24-.098.527-.065.67.099.048.033.048.098.048.164zm-.718 9.42c0 .066-.048.131-.096.197-.143.131-.478.164-.67.033-.239-.131-.526-.295-.717-.46-.192-.13-.192-.328 0-.46a.62.62 0 01.67 0c.191.132.43.296.67.428a.318.318 0 01.143.262zm-1.914-7.582c0 .066-.048.131-.095.164-.144.164-.335.361-.431.525-.096.164-.43.23-.622.132-.24-.066-.335-.263-.192-.427.144-.197.335-.394.479-.59.144-.165.43-.198.67-.1.096.066.191.198.191.296zm-.478 5.58c0 .131-.096.23-.24.295-.239.099-.526.033-.622-.13a4.386 4.386 0 01-.382-.625c-.096-.164.048-.36.287-.426.24-.066.526.033.622.197.096.197.24.394.383.558-.048.033-.048.065-.048.131zm-.814-3.151v.033c-.047.197-.047.394-.047.59 0 .198-.192.329-.479.329s-.478-.131-.478-.328c0-.23 0-.46.047-.657.048-.164.288-.295.527-.295.239 0 .43.164.43.328z" fill="#FFBFCD"/><path d="M42.101 20.271v1.97c.335 0 .622-.033.957-.033v-1.97c-.335 0-.622.033-.957.033zm-2.392-.065v1.97c.334.032.621.032.956.065v-1.97c-.334-.033-.622-.033-.956-.065zm4.784-.099v1.97c.335-.033.622-.099.957-.165v-1.969c-.335.066-.622.099-.957.164zm2.393-.459v1.969c.335-.098.622-.164.957-.263v-1.969c-.335.066-.622.164-.957.263zm-9.57.197v1.969c.335.066.622.131.957.164v-1.97c-.335-.032-.622-.098-.957-.163zm-2.392-.657v1.97c.335.098.622.197.957.295v-1.97a5.343 5.343 0 01-.957-.295zm-2.871-1.313v1.97c.287.197.622.36.957.525V18.4c-.335-.164-.67-.36-.957-.525zM29.66 15.84v1.97c.288.328.622.656.957.951v-1.969c-.335-.296-.67-.59-.957-.952zm20.097 2.79v1.97c.335-.165.67-.329.957-.493v-1.97c-.287.165-.622.329-.957.493zm2.393.558c.334-.262.669-.525.956-.82v-1.97c-.287.296-.622.558-.957.82v1.97zm-8.049-7.45v1.29h1.35v1.01H44.1v.821h-1.186v-.821h-.625v.821h-1.185v-.821h-4.159v-2.232c0-.644.245-1.158.736-1.542.487-.385 1.135-.577 1.945-.577.825 0 1.474.183 1.945.549.467.365.707.874.718 1.526v1.266h.625v-1.29H44.1zm-2.996 1.29v-1.206c0-.363-.123-.641-.368-.833-.245-.193-.612-.289-1.098-.289-.436 0-.793.095-1.07.285a.931.931 0 00-.431.777v1.266h2.967z" fill="#F48BA2"/><path d="M55.02 10.108c0 4.431-5.981 8.042-13.398 8.042-7.416 0-13.397-3.61-13.397-8.042 0-4.431 5.98-8.042 13.397-8.042s13.398 3.61 13.398 8.042z" fill="#FFDCE4"/><path d="M41.622 18.15c-6.842 0-12.488-3.086-13.302-7.057a6.865 6.865 0 00-.095.985c0 4.43 5.98 8.041 13.397 8.041s13.398-3.61 13.398-8.041c0-.329-.048-.657-.096-.985-.813 3.971-6.46 7.057-13.302 7.057z" fill="#FFBFCD"/><path d="M52.388 10.075c0 .263 0 .493-.047.722-.048.164-.288.296-.527.296-.24-.033-.43-.197-.43-.361.047-.197.047-.394.047-.624 0-.197.192-.328.479-.328s.478.131.478.295zm-.526-1.903c0 .13-.096.262-.287.295-.24.066-.526-.033-.622-.197a2.64 2.64 0 00-.383-.558c-.143-.164-.048-.361.191-.427.24-.098.527-.033.622.132.144.197.288.426.383.623.096.066.096.099.096.132zm-.335 4.43c0 .066 0 .1-.048.165-.143.197-.335.394-.478.59-.144.165-.43.198-.67.1-.24-.1-.287-.296-.144-.46.144-.165.335-.361.431-.526.143-.164.43-.23.622-.13.191.032.287.163.287.262zm-1.723-6.597c0 .099-.047.164-.143.23a.619.619 0 01-.67 0c-.191-.131-.43-.295-.67-.427-.191-.098-.239-.328-.048-.46.192-.13.479-.163.67-.032.24.131.527.295.718.46.096.065.143.164.143.23zm-.67 8.6c0 .098-.047.197-.19.262-.24.132-.527.296-.814.394-.24.099-.527.066-.67-.098-.144-.164-.096-.361.143-.46.24-.13.479-.23.718-.36.192-.132.527-.1.67.032.096.099.144.164.144.23zM46.695 4.56c0 .033 0 .098-.047.131-.096.164-.383.23-.622.164a8.659 8.659 0 00-.862-.23c-.239-.065-.382-.23-.287-.426.096-.164.335-.263.622-.197.335.066.622.164.91.23.19.098.286.197.286.328zm-.86 11.324c0 .131-.144.263-.336.295-.287.066-.622.132-.957.197-.239.033-.526-.065-.574-.23-.048-.163.096-.36.335-.393.287-.066.574-.099.861-.164.24-.066.527.032.622.197.048 0 .048.032.048.098zM43.01 3.937c0 .033 0 .033 0 0 0 .197-.24.329-.526.329-.287 0-.574-.033-.861-.033-.288 0-.479-.132-.479-.329 0-.196.191-.328.479-.328.334 0 .622 0 .956.033.24.033.431.164.431.328zM42.1 16.28c0 .197-.19.328-.477.328-.335 0-.67 0-.957-.033-.24 0-.479-.164-.431-.36 0-.198.24-.329.526-.296.287 0 .622.033.91.033.239 0 .43.164.43.328zM39.23 4.167c0 .131-.143.295-.383.328-.287.066-.574.099-.861.164-.24.066-.526-.032-.622-.197-.096-.164.048-.36.287-.426.287-.066.622-.132.957-.197.24-.033.526.065.574.23.048.032.048.065.048.098zm-.861 11.718c0 .033 0 .066-.048.098-.096.165-.335.263-.622.197-.287-.065-.622-.164-.91-.23-.239-.065-.334-.262-.239-.426.096-.164.383-.23.623-.164.287.098.574.164.86.23.24.032.336.164.336.295zM35.785 5.217c0 .099-.096.197-.191.263-.24.131-.479.23-.718.361-.192.131-.526.099-.67-.033-.191-.131-.144-.36.048-.46.239-.13.526-.295.813-.393.24-.099.527-.066.67.098.048.033.048.099.048.164zm-.718 9.42c0 .066-.048.132-.096.198-.143.131-.478.164-.67.032-.239-.13-.526-.295-.717-.459-.192-.131-.192-.328 0-.46a.619.619 0 01.67 0c.191.132.43.296.67.427a.318.318 0 01.143.263zm-1.914-7.581c0 .065-.048.13-.095.164-.144.164-.335.36-.431.525-.096.164-.43.23-.622.131-.24-.066-.335-.262-.192-.427.144-.197.335-.393.479-.59.144-.165.43-.197.67-.099.096.066.191.197.191.296zm-.478 5.58c0 .13-.096.23-.24.295-.239.098-.526.033-.622-.131a4.386 4.386 0 01-.382-.624c-.096-.164.048-.361.287-.427.24-.065.526.033.622.197.096.197.24.394.383.558-.048.033-.048.066-.048.132zm-.814-3.152v.033c-.047.197-.047.394-.047.591 0 .197-.192.328-.479.328s-.478-.131-.478-.328c0-.23 0-.46.047-.656.048-.164.288-.296.527-.296.239 0 .43.164.43.328z" fill="#FFBFCD"/><path d="M42.101 18.15v1.97c.335 0 .622-.034.957-.034v-1.969c-.335 0-.622.033-.957.033zm-2.392-.066v1.97c.334.032.621.032.956.065v-1.97c-.334-.032-.622-.032-.956-.065zm4.784-.098v1.97c.335-.034.622-.1.957-.165v-1.97c-.335.066-.622.1-.957.165zm2.393-.46v1.97c.335-.099.622-.165.957-.263v-1.97c-.335.066-.622.165-.957.263zm-9.57.197v1.97c.335.065.622.13.957.164v-1.97c-.335-.032-.622-.098-.957-.164zm-2.392-.656v1.97c.335.098.622.196.957.294v-1.969a5.35 5.35 0 01-.957-.295zm-2.871-1.313v1.97c.287.196.622.36.957.524v-1.97c-.335-.163-.67-.36-.957-.524zm-2.393-2.035v1.97c.288.327.622.656.957.951v-1.97c-.335-.295-.67-.59-.957-.951zm20.097 2.79v1.97c.335-.165.67-.33.957-.493v-1.97c-.287.165-.622.329-.957.493zm2.393.558c.334-.263.669-.526.956-.821v-1.97c-.287.296-.622.559-.957.821v1.97zm-8.049-7.45v1.29h1.35v1.01H44.1v.82h-1.186v-.82h-.625v.82h-1.185v-.82h-4.159V9.684c0-.644.245-1.158.736-1.543.487-.385 1.135-.577 1.945-.577.825 0 1.474.183 1.945.55.467.365.707.874.718 1.526v1.266h.625v-1.29H44.1zm-2.996 1.29V9.7c0-.364-.123-.641-.368-.834-.245-.192-.612-.288-1.098-.288-.436 0-.793.095-1.07.284a.931.931 0 00-.431.778v1.266h2.967z" fill="#F48BA2"/></svg>