<svg width="114" height="101" fill="none" xmlns="http://www.w3.org/2000/svg"><path d="M75 77.259L17 98V36.741L75 16v61.259z" fill="#FFBFCD"/><path d="M23 53l26.5-9.5M37 73l26.5-9.5" stroke="#F1AABA"/><path d="M0 20.518L16.72 37 75 16.482 58.28 0 0 20.518z" fill="#FFDCE4"/><path d="M17 98V37.465L0 21v60.535L17 98z" fill="#E492A4"/><path d="M10.5 67l6 4v-1.5l-6-2.5zm-3-25.5L0 35v2.5l7.5 4zm3 41.5L0 72.5v2L10.5 83z" fill="#DC8094"/><ellipse cx="38" cy="18" rx="10" ry="6" fill="#FFBFCD"/><ellipse cx="56.5" cy="11.5" rx="2.5" ry="1.5" fill="#FFBFCD"/><ellipse cx="19.5" cy="24.5" rx="2.5" ry="1.5" fill="#FFBFCD"/><path d="M36 36l-19 5.5V43l19-7zm0 49l-19 5.5V92l19-7zM25.5 67L17 69.5V71l8.5-4zM52 49.5L17 61.643V63l35-13.5zm6-8.5l16.5-4.643V35L58 41z" fill="#F1AABA"/><path d="M84.795 90.225c0 4.43-5.98 8.041-13.397 8.041S58 94.656 58 90.225c0-4.432 5.981-8.042 13.398-8.042 7.416 0 13.397 3.61 13.397 8.042z" fill="#fff"/><path d="M71.398 98.266c-6.843 0-12.489-3.085-13.302-7.057a6.852 6.852 0 00-.096.985c0 4.431 5.981 8.042 13.398 8.042 7.416 0 13.397-3.61 13.397-8.042 0-.328-.048-.657-.096-.985-.813 3.972-6.46 7.057-13.301 7.057z" fill="#FFBFCD"/><path d="M82.163 90.192c0 .262 0 .492-.047.722-.048.164-.287.295-.527.295-.239-.032-.43-.197-.43-.36.047-.198.047-.395.047-.624 0-.197.192-.329.479-.329s.478.132.478.296zm-.526-1.904c0 .131-.096.263-.287.296-.24.065-.526-.033-.622-.198a2.64 2.64 0 00-.383-.557c-.143-.165-.048-.361.192-.427.239-.099.526-.033.622.131.143.197.287.427.382.624.096.065.096.098.096.131zm-.335 4.431c0 .066 0 .099-.048.164-.143.197-.335.394-.478.591-.144.164-.43.197-.67.099-.24-.099-.287-.296-.143-.46.143-.164.334-.361.43-.525.144-.164.43-.23.622-.131.192.032.287.164.287.262zm-1.722-6.597c0 .098-.048.164-.144.23a.619.619 0 01-.67 0 8.181 8.181 0 00-.67-.427c-.191-.099-.239-.328-.047-.46.19-.131.478-.164.67-.033.239.132.526.296.717.46.096.066.144.164.144.23zm-.67 8.6c0 .098-.048.196-.192.262-.239.131-.526.295-.813.394-.24.098-.526.066-.67-.099-.143-.164-.096-.36.144-.46.239-.13.478-.229.717-.36.192-.132.527-.099.67.033.096.098.144.164.144.23zm-2.44-10.044c0 .032 0 .098-.048.13-.096.165-.383.23-.622.165-.287-.099-.575-.164-.862-.23-.239-.066-.382-.23-.287-.427.096-.164.335-.262.622-.197.335.066.622.165.91.23.19.099.286.197.286.328zM75.608 96c0 .132-.143.263-.335.296-.287.066-.622.131-.957.197-.239.033-.526-.066-.574-.23-.048-.164.096-.36.335-.394.287-.065.574-.098.861-.164.24-.066.527.033.622.197.048 0 .048.033.048.098zm-2.823-11.947c0 .033 0 .033 0 0 0 .197-.239.328-.526.328-.287 0-.574-.033-.861-.033-.287 0-.479-.131-.479-.328s.192-.328.479-.328c.335 0 .622 0 .957.033.239.032.43.164.43.328zm-.909 12.341c0 .197-.191.329-.478.329-.335 0-.67 0-.957-.033-.24 0-.479-.164-.431-.361 0-.197.24-.329.526-.296.287 0 .622.033.91.033.239 0 .43.164.43.328zm-2.87-12.111c0 .13-.144.295-.384.328-.287.066-.574.098-.86.164-.24.066-.527-.033-.623-.197-.096-.164.048-.361.287-.427.287-.065.622-.131.957-.197.24-.032.526.066.574.23.048.033.048.066.048.099zM68.143 96c0 .033 0 .066-.048.099-.096.164-.335.263-.622.197s-.622-.164-.91-.23c-.238-.066-.334-.262-.238-.426.095-.165.383-.23.622-.165.287.099.574.165.861.23.24.033.335.164.335.295zM65.56 85.334c0 .098-.096.197-.191.263-.24.13-.479.23-.718.36-.191.132-.526.1-.67-.032-.191-.132-.143-.361.048-.46.24-.131.526-.295.813-.394.24-.098.527-.065.67.099.048.033.048.098.048.164zm-.718 9.42c0 .066-.047.131-.095.197-.144.132-.479.164-.67.033-.24-.131-.526-.295-.718-.46-.191-.13-.191-.328 0-.459a.619.619 0 01.67 0c.191.131.43.295.67.427a.318.318 0 01.143.262zm-1.914-7.582c0 .066-.047.131-.095.164-.144.164-.335.361-.43.525-.097.164-.431.23-.623.132-.24-.066-.335-.263-.191-.427.143-.197.335-.394.478-.59.144-.165.43-.198.67-.1.096.066.191.198.191.296zm-.478 5.58c0 .131-.096.23-.24.295-.239.099-.526.033-.621-.13a4.377 4.377 0 01-.383-.624c-.096-.165.048-.362.287-.427.24-.066.526.033.622.197.096.197.24.394.383.558-.048.033-.048.065-.048.131zm-.814-3.151v.033c-.047.197-.047.394-.047.59 0 .198-.192.329-.479.329s-.478-.131-.478-.328c0-.23 0-.46.048-.657.047-.164.287-.295.526-.295.24 0 .43.164.43.328z" fill="#FFBFCD"/><path d="M71.876 98.266v1.97c.335 0 .622-.033.957-.033v-1.97c-.335 0-.622.033-.957.033zm-2.392-.066v1.97c.335.033.622.033.957.066v-1.97c-.335-.032-.622-.032-.957-.065zm4.785-.098v1.97c.334-.033.622-.099.956-.165v-1.969c-.334.066-.621.099-.956.164zm2.391-.459v1.969c.336-.098.623-.164.958-.262v-1.97c-.335.066-.622.164-.957.263zm-9.569.197v1.969c.335.066.622.131.957.164v-1.97c-.335-.032-.622-.098-.957-.163zm-2.392-.657v1.97c.335.098.622.197.957.295v-1.97a5.344 5.344 0 01-.957-.295zm-2.871-1.313v1.97c.287.197.622.36.957.525v-1.97c-.335-.164-.67-.36-.957-.525zm-2.393-2.035v1.97c.288.328.623.656.957.951v-1.97c-.334-.294-.67-.59-.957-.95zm20.097 2.79v1.97c.335-.165.67-.329.957-.493v-1.97c-.287.165-.622.329-.957.493zm2.392.558c.335-.263.67-.525.957-.82v-1.97c-.287.296-.622.558-.957.82v1.97zm-8.048-7.45v1.29h1.35v1.01h-1.35v.821h-1.185v-.821h-.625v.821H70.88v-.821h-4.16V89.8c0-.644.245-1.158.736-1.543.487-.384 1.135-.576 1.945-.576.826 0 1.474.183 1.945.549.467.365.707.874.719 1.526v1.266h.625v-1.29h1.185zm-2.996 1.29v-1.206c0-.363-.123-.64-.368-.833-.245-.193-.611-.289-1.098-.289-.436 0-.793.095-1.069.285a.931.931 0 00-.432.777v1.266h2.967z" fill="#F48BA2"/><path d="M84.795 88.103c0 4.431-5.98 8.042-13.397 8.042S58 92.535 58 88.103c0-4.431 5.981-8.042 13.398-8.042 7.416 0 13.397 3.611 13.397 8.042z" fill="#fff"/><path d="M71.398 96.145c-6.843 0-12.489-3.086-13.302-7.057a6.85 6.85 0 00-.096.985c0 4.43 5.981 8.041 13.398 8.041 7.416 0 13.397-3.61 13.397-8.041a6.85 6.85 0 00-.096-.985c-.813 3.971-6.46 7.057-13.301 7.057z" fill="#FFBFCD"/><path d="M82.163 88.07c0 .263 0 .493-.047.722-.048.165-.287.296-.527.296-.239-.033-.43-.197-.43-.361.047-.197.047-.394.047-.624 0-.197.192-.328.479-.328s.478.131.478.295zm-.526-1.903c0 .13-.096.262-.287.295-.24.066-.526-.033-.622-.197a2.642 2.642 0 00-.383-.558c-.143-.164-.048-.361.192-.427.239-.098.526-.032.622.132.143.197.287.426.382.623.096.066.096.099.096.132zm-.335 4.43c0 .066 0 .1-.048.165-.143.197-.335.394-.478.59-.144.165-.43.198-.67.1-.24-.1-.287-.296-.143-.46.143-.165.334-.362.43-.526.144-.164.43-.23.622-.13.192.032.287.163.287.262zM79.58 84c0 .099-.048.164-.144.23a.619.619 0 01-.67 0 8.181 8.181 0 00-.67-.427c-.191-.098-.239-.328-.047-.46.19-.13.478-.163.67-.032.239.131.526.295.717.46.096.065.144.164.144.23zm-.67 8.6c0 .098-.048.197-.192.263-.239.13-.526.295-.813.393-.24.099-.526.066-.67-.098-.143-.164-.096-.361.144-.46.239-.13.478-.23.717-.36.192-.132.527-.1.67.032.096.099.144.164.144.23zm-2.44-10.044c0 .033 0 .099-.048.131-.096.164-.383.23-.622.164-.287-.098-.575-.164-.862-.23-.239-.065-.382-.23-.287-.426.096-.164.335-.263.622-.197.335.066.622.164.91.23.19.098.286.197.286.328zm-.862 11.324c0 .131-.143.263-.335.296-.287.065-.622.13-.957.196-.239.033-.526-.065-.574-.23-.048-.163.096-.36.335-.393.287-.066.574-.099.861-.164.24-.066.527.033.622.197.048 0 .048.032.048.098zm-2.823-11.948c0 .033 0 .033 0 0 0 .197-.239.329-.526.329-.287 0-.574-.033-.861-.033-.287 0-.479-.131-.479-.328s.192-.329.479-.329c.335 0 .622 0 .957.033.239.033.43.164.43.328zm-.909 12.342c0 .197-.191.328-.478.328-.335 0-.67 0-.957-.033-.24 0-.479-.164-.431-.36 0-.198.24-.329.526-.296.287 0 .622.033.91.033.239 0 .43.164.43.328zm-2.87-12.112c0 .131-.144.295-.384.328-.287.066-.574.099-.86.165-.24.065-.527-.033-.623-.198-.096-.164.048-.36.287-.426.287-.066.622-.132.957-.197.24-.033.526.066.574.23.048.033.048.065.048.098zm-.862 11.718c0 .033 0 .066-.048.099-.096.164-.335.262-.622.197-.287-.066-.622-.165-.91-.23-.238-.066-.334-.263-.238-.427.095-.164.383-.23.622-.164.287.098.574.164.861.23.24.033.335.164.335.295zM65.56 83.213c0 .098-.096.196-.191.262-.24.131-.479.23-.718.361-.191.131-.526.099-.67-.033-.191-.131-.143-.36.048-.46.24-.13.526-.295.813-.393.24-.099.527-.066.67.098.048.033.048.099.048.165zm-.718 9.42c0 .065-.047.131-.095.197-.144.131-.479.164-.67.032-.24-.13-.526-.295-.718-.459-.191-.131-.191-.328 0-.46a.619.619 0 01.67 0c.191.132.43.296.67.427a.318.318 0 01.143.263zm-1.914-7.582c0 .065-.047.13-.095.164-.144.164-.335.36-.43.525-.097.164-.431.23-.623.131-.24-.066-.335-.262-.191-.426.143-.197.335-.394.478-.591.144-.165.43-.197.67-.099.096.066.191.197.191.296zm-.478 5.58c0 .13-.096.23-.24.295-.239.098-.526.033-.621-.131a4.378 4.378 0 01-.383-.624c-.096-.164.048-.361.287-.427.24-.065.526.033.622.197.096.197.24.394.383.558-.048.033-.048.066-.048.132zm-.814-3.151v.032c-.047.197-.047.394-.047.591 0 .197-.192.328-.479.328s-.478-.13-.478-.328c0-.23 0-.46.048-.656.047-.164.287-.296.526-.296.24 0 .43.164.43.329z" fill="#FFBFCD"/><path d="M71.876 96.145v1.97c.335 0 .622-.034.957-.034v-1.969c-.335 0-.622.033-.957.033zm-2.392-.065v1.969c.335.032.622.032.957.065v-1.97c-.335-.032-.622-.032-.957-.065zm4.785-.1v1.97c.334-.033.622-.098.956-.164v-1.97c-.334.066-.621.1-.956.165zm2.391-.459v1.97c.336-.099.623-.164.958-.263v-1.97c-.335.066-.622.165-.957.263zm-9.569.197v1.97c.335.065.622.131.957.164v-1.97c-.335-.032-.622-.098-.957-.164zm-2.392-.656v1.97c.335.098.622.196.957.294v-1.969a5.336 5.336 0 01-.957-.295zm-2.871-1.313v1.97c.287.196.622.36.957.524v-1.97c-.335-.163-.67-.36-.957-.524zm-2.393-2.035v1.97c.288.327.623.656.957.951v-1.97c-.334-.295-.67-.59-.957-.951zm20.097 2.79v1.97c.335-.165.67-.329.957-.493v-1.97c-.287.165-.622.329-.957.493zm2.392.558c.335-.263.67-.525.957-.82v-1.97c-.287.295-.622.558-.957.82v1.97zm-8.048-7.45v1.29h1.35v1.01h-1.35v.82h-1.185v-.82h-.625v.82H70.88v-.82h-4.16V87.68c0-.644.245-1.158.736-1.543.487-.385 1.135-.577 1.945-.577.826 0 1.474.183 1.945.55.467.365.707.874.719 1.526v1.266h.625v-1.29h1.185zm-2.996 1.29v-1.206c0-.364-.123-.641-.368-.834-.245-.192-.611-.288-1.098-.288-.436 0-.793.095-1.069.284a.93.93 0 00-.432.778v1.266h2.967z" fill="#F48BA2"/><path d="M84.795 85.973c0 4.431-5.98 8.042-13.397 8.042S58 90.405 58 85.973c0-4.431 5.981-8.042 13.398-8.042 7.416 0 13.397 3.61 13.397 8.042z" fill="#fff"/><path d="M71.398 94.015c-6.843 0-12.489-3.086-13.302-7.057a6.854 6.854 0 00-.096.984c0 4.432 5.981 8.042 13.398 8.042 7.416 0 13.397-3.61 13.397-8.042a6.83 6.83 0 00-.096-.984c-.813 3.971-6.46 7.057-13.301 7.057z" fill="#FFBFCD"/><path d="M82.163 85.94c0 .263 0 .493-.047.722-.048.164-.287.296-.527.296-.239-.033-.43-.197-.43-.361.047-.197.047-.394.047-.624 0-.197.192-.328.479-.328s.478.131.478.295zm-.526-1.904c0 .132-.096.263-.287.296-.24.066-.526-.033-.622-.197a2.64 2.64 0 00-.383-.558c-.143-.164-.048-.361.192-.427.239-.098.526-.033.622.131.143.197.287.427.382.624.096.066.096.099.096.131zm-.335 4.432c0 .065 0 .098-.048.164-.143.197-.335.394-.478.59-.144.165-.43.198-.67.099-.24-.099-.287-.295-.143-.46.143-.164.334-.36.43-.525.144-.164.43-.23.622-.131.192.033.287.164.287.263zM79.58 81.87c0 .099-.048.164-.144.23a.619.619 0 01-.67 0 8.181 8.181 0 00-.67-.427c-.191-.098-.239-.328-.047-.46.19-.13.478-.163.67-.032.239.131.526.295.717.46.096.065.144.163.144.23zm-.67 8.6c0 .098-.048.197-.192.262-.239.132-.526.296-.813.394-.24.099-.526.066-.67-.098-.143-.164-.096-.361.144-.46.239-.131.478-.23.717-.36.192-.132.527-.1.67.032.096.099.144.164.144.23zm-2.44-10.044c0 .033 0 .098-.048.131-.096.164-.383.23-.622.164-.287-.098-.575-.164-.862-.23-.239-.065-.382-.23-.287-.426.096-.164.335-.263.622-.197.335.066.622.164.91.23.19.098.286.197.286.328zm-.862 11.324c0 .131-.143.263-.335.295-.287.066-.622.132-.957.197-.239.033-.526-.065-.574-.23-.048-.164.096-.36.335-.393.287-.066.574-.099.861-.165.24-.065.527.033.622.198.048 0 .048.032.048.098zm-2.823-11.948c0 .033 0 .033 0 0 0 .197-.239.328-.526.328-.287 0-.574-.032-.861-.032-.287 0-.479-.132-.479-.329s.192-.328.479-.328c.335 0 .622 0 .957.033.239.033.43.164.43.328zm-.909 12.342c0 .197-.191.328-.478.328-.335 0-.67 0-.957-.033-.24 0-.479-.164-.431-.36 0-.198.24-.33.526-.296.287 0 .622.033.91.033.239 0 .43.164.43.328zm-2.87-12.112c0 .131-.144.295-.384.328-.287.066-.574.099-.86.164-.24.066-.527-.032-.623-.197-.096-.164.048-.36.287-.426.287-.066.622-.132.957-.197.24-.033.526.065.574.23.048.032.048.065.048.098zm-.862 11.718c0 .033 0 .066-.048.098-.096.165-.335.263-.622.197-.287-.065-.622-.164-.91-.23-.238-.065-.334-.262-.238-.426.095-.164.383-.23.622-.164.287.098.574.164.861.23.24.032.335.164.335.295zM65.56 81.082c0 .099-.096.197-.191.263-.24.131-.479.23-.718.361-.191.131-.526.099-.67-.033-.191-.131-.143-.36.048-.46.24-.13.526-.295.813-.393.24-.099.527-.066.67.098.048.033.048.099.048.164zm-.718 9.42c0 .066-.047.132-.095.198-.144.13-.479.164-.67.032-.24-.13-.526-.295-.718-.46-.191-.13-.191-.327 0-.459a.619.619 0 01.67 0c.191.132.43.296.67.427a.318.318 0 01.143.263zm-1.914-7.582c0 .066-.047.132-.095.165-.144.164-.335.36-.43.525-.097.164-.431.23-.623.131-.24-.066-.335-.263-.191-.427.143-.197.335-.394.478-.59.144-.165.43-.197.67-.099.096.066.191.197.191.295zm-.478 5.58c0 .132-.096.23-.24.296-.239.098-.526.033-.621-.132a4.377 4.377 0 01-.383-.623c-.096-.164.048-.361.287-.427.24-.066.526.033.622.197.096.197.24.394.383.558-.048.033-.048.066-.048.131zm-.814-3.15v.032c-.047.197-.047.394-.047.591 0 .197-.192.328-.479.328s-.478-.131-.478-.328c0-.23 0-.46.048-.656.047-.165.287-.296.526-.296.24 0 .43.164.43.328z" fill="#FFBFCD"/><path d="M71.876 94.015v1.97c.335 0 .622-.034.957-.034v-1.97c-.335 0-.622.034-.957.034zm-2.392-.065v1.968c.335.033.622.033.957.066v-1.97c-.335-.032-.622-.032-.957-.065zm4.785-.1v1.97c.334-.033.622-.098.956-.164v-1.97c-.334.066-.621.1-.956.165zm2.391-.459v1.97c.336-.099.623-.165.958-.263v-1.97c-.335.066-.622.165-.957.263zm-9.569.197v1.97c.335.065.622.13.957.163v-1.969c-.335-.033-.622-.098-.957-.164zm-2.392-.656V94.9c.335.098.622.197.957.295v-1.969a5.352 5.352 0 01-.957-.295zm-2.871-1.313v1.969c.287.197.622.361.957.525v-1.97c-.335-.163-.67-.36-.957-.524zm-2.393-2.035v1.969c.288.328.623.657.957.952v-1.97c-.334-.295-.67-.59-.957-.951zm20.097 2.79v1.969c.335-.164.67-.328.957-.492v-1.97c-.287.164-.622.328-.957.493zm2.392.558c.335-.263.67-.526.957-.82v-1.97c-.287.295-.622.558-.957.82v1.97zm-8.048-7.451v1.29h1.35v1.01h-1.35v.822h-1.185v-.822h-.625v.822H70.88v-.822h-4.16V85.55c0-.644.245-1.158.736-1.543.487-.385 1.135-.577 1.945-.577.826 0 1.474.183 1.945.549.467.366.707.875.719 1.526v1.267h.625v-1.29h1.185zm-2.996 1.29v-1.205c0-.364-.123-.641-.368-.834-.245-.192-.611-.288-1.098-.288-.436 0-.793.095-1.069.284a.931.931 0 00-.432.778v1.266h2.967z" fill="#F48BA2"/><path d="M84.795 83.851c0 4.432-5.98 8.042-13.397 8.042S58 88.283 58 83.851c0-4.43 5.981-8.041 13.398-8.041 7.416 0 13.397 3.61 13.397 8.041z" fill="#fff"/><path d="M71.398 91.893c-6.843 0-12.489-3.085-13.302-7.057a6.85 6.85 0 00-.096.985c0 4.431 5.981 8.042 13.398 8.042 7.416 0 13.397-3.611 13.397-8.042a6.85 6.85 0 00-.096-.985c-.813 3.972-6.46 7.057-13.301 7.057z" fill="#FFBFCD"/><path d="M82.163 83.819c0 .262 0 .492-.047.722-.048.164-.287.295-.527.295-.239-.033-.43-.197-.43-.36.047-.198.047-.395.047-.624 0-.198.192-.329.479-.329s.478.132.478.296zm-.526-1.904c0 .131-.096.262-.287.295-.24.066-.526-.032-.622-.197a2.642 2.642 0 00-.383-.558c-.143-.164-.048-.36.192-.426.239-.099.526-.033.622.13.143.198.287.428.382.625.096.065.096.098.096.13zm-.335 4.431c0 .066 0 .099-.048.164-.143.197-.335.394-.478.591-.144.164-.43.197-.67.098-.24-.098-.287-.295-.143-.46.143-.163.334-.36.43-.524.144-.164.43-.23.622-.132.192.033.287.165.287.263zm-1.722-6.597c0 .098-.048.164-.144.23a.619.619 0 01-.67 0 8.181 8.181 0 00-.67-.427c-.191-.099-.239-.329-.047-.46.19-.131.478-.164.67-.033.239.132.526.296.717.46.096.065.144.164.144.23zm-.67 8.6c0 .098-.048.196-.192.262-.239.131-.526.295-.813.394-.24.098-.526.065-.67-.099-.143-.164-.096-.36.144-.46.239-.13.478-.229.717-.36.192-.132.527-.099.67.032.096.099.144.165.144.23zm-2.44-10.045c0 .033 0 .099-.048.132-.096.164-.383.23-.622.164-.287-.099-.575-.164-.862-.23-.239-.066-.382-.23-.287-.427.096-.164.335-.262.622-.197.335.066.622.164.91.23.19.099.286.197.286.328zm-.862 11.324c0 .132-.143.263-.335.296-.287.065-.622.131-.957.197-.239.032-.526-.066-.574-.23-.048-.164.096-.361.335-.394.287-.066.574-.098.861-.164.24-.066.527.033.622.197.048 0 .048.033.048.098zm-2.823-11.947c0 .032 0 .032 0 0 0 .197-.239.328-.526.328-.287 0-.574-.033-.861-.033-.287 0-.479-.131-.479-.328s.192-.328.479-.328c.335 0 .622 0 .957.032.239.033.43.164.43.329zm-.909 12.341c0 .197-.191.328-.478.328-.335 0-.67 0-.957-.032-.24 0-.479-.165-.431-.361 0-.197.24-.329.526-.296.287 0 .622.033.91.033.239 0 .43.164.43.328zm-2.87-12.112c0 .132-.144.296-.384.329-.287.065-.574.098-.86.164-.24.065-.527-.033-.623-.197-.096-.164.048-.361.287-.427.287-.066.622-.131.957-.197.24-.033.526.066.574.23.048.033.048.066.048.098zm-.862 11.718c0 .033 0 .066-.048.099-.096.164-.335.262-.622.197-.287-.066-.622-.164-.91-.23-.238-.066-.334-.263-.238-.427.095-.164.383-.23.622-.164.287.099.574.164.861.23.24.033.335.164.335.295zM65.56 78.961c0 .098-.096.197-.191.262-.24.132-.479.23-.718.361-.191.132-.526.099-.67-.032-.191-.132-.143-.362.048-.46.24-.131.526-.295.813-.394.24-.098.527-.066.67.099.048.032.048.098.048.164zm-.718 9.42c0 .066-.047.131-.095.197-.144.131-.479.164-.67.033-.24-.132-.526-.296-.718-.46-.191-.131-.191-.328 0-.46a.619.619 0 01.67 0c.191.132.43.296.67.427a.318.318 0 01.143.263zM62.928 80.8c0 .066-.047.131-.095.164-.144.164-.335.361-.43.525-.097.164-.431.23-.623.132-.24-.066-.335-.263-.191-.427.143-.197.335-.394.478-.591.144-.164.43-.197.67-.099.096.066.191.197.191.296zm-.478 5.58c0 .131-.096.23-.24.295-.239.099-.526.033-.621-.131a4.378 4.378 0 01-.383-.624c-.096-.164.048-.36.287-.426.24-.066.526.032.622.197.096.197.24.393.383.558-.048.032-.048.065-.048.13zm-.814-3.151v.033c-.047.197-.047.394-.047.59 0 .197-.192.329-.479.329s-.478-.132-.478-.329c0-.23 0-.46.048-.656.047-.164.287-.295.526-.295.24 0 .43.164.43.328z" fill="#FFBFCD"/><path d="M71.876 91.893v1.97c.335 0 .622-.033.957-.033v-1.97c-.335 0-.622.033-.957.033zm-2.392-.065v1.969c.335.033.622.033.957.066v-1.97c-.335-.033-.622-.033-.957-.066zm4.785-.099v1.97c.334-.034.622-.1.956-.165v-1.97c-.334.067-.621.1-.956.165zm2.391-.459v1.969c.336-.099.623-.164.958-.263v-1.97c-.335.067-.622.165-.957.263zm-9.569.196v1.97c.335.065.622.131.957.164v-1.97c-.335-.032-.622-.098-.957-.163zm-2.392-.656v1.97c.335.098.622.196.957.295v-1.97a5.336 5.336 0 01-.957-.295zm-2.871-1.313v1.97c.287.196.622.36.957.525v-1.97c-.335-.164-.67-.36-.957-.525zm-2.393-2.035v1.97c.288.328.623.656.957.951v-1.97c-.334-.294-.67-.59-.957-.95zm20.097 2.79v1.97c.335-.165.67-.329.957-.493v-1.97c-.287.165-.622.329-.957.493zm2.392.558c.335-.263.67-.525.957-.82v-1.97c-.287.295-.622.558-.957.82v1.97zm-8.048-7.45v1.29h1.35v1.01h-1.35v.821h-1.185v-.821h-.625v.821H70.88v-.821h-4.16v-2.232c0-.644.245-1.158.736-1.543.487-.384 1.135-.577 1.945-.577.826 0 1.474.183 1.945.55.467.365.707.874.719 1.526v1.266h.625v-1.29h1.185zm-2.996 1.29v-1.206c0-.363-.123-.641-.368-.833-.245-.193-.611-.289-1.098-.289-.436 0-.793.095-1.069.285a.931.931 0 00-.432.777v1.266h2.967z" fill="#F48BA2"/><path d="M84.795 81.644c0 4.431-5.98 8.042-13.397 8.042S58 86.076 58 81.644c0-4.43 5.981-8.041 13.398-8.041 7.416 0 13.397 3.61 13.397 8.041z" fill="#fff"/><path d="M71.398 89.686c-6.843 0-12.489-3.085-13.302-7.057a6.85 6.85 0 00-.096.985c0 4.431 5.981 8.042 13.398 8.042 7.416 0 13.397-3.611 13.397-8.042a6.85 6.85 0 00-.096-.985c-.813 3.972-6.46 7.057-13.301 7.057z" fill="#FFBFCD"/><path d="M82.163 81.612c0 .262 0 .492-.047.722-.048.164-.287.295-.527.295-.239-.033-.43-.197-.43-.36.047-.198.047-.395.047-.625 0-.197.192-.328.479-.328s.478.132.478.296zm-.526-1.904c0 .131-.096.262-.287.295-.24.066-.526-.033-.622-.197a2.64 2.64 0 00-.383-.558c-.143-.164-.048-.36.192-.426.239-.099.526-.033.622.13.143.198.287.428.382.624.096.066.096.099.096.132zm-.335 4.431c0 .066 0 .099-.048.164-.143.197-.335.394-.478.59-.144.165-.43.198-.67.1-.24-.1-.287-.296-.143-.46.143-.164.334-.361.43-.525.144-.164.43-.23.622-.132.192.033.287.164.287.263zm-1.722-6.597c0 .098-.048.164-.144.23a.619.619 0 01-.67 0 8.181 8.181 0 00-.67-.427c-.191-.099-.239-.329-.047-.46.19-.131.478-.164.67-.033.239.132.526.296.717.46.096.065.144.164.144.23zm-.67 8.6c0 .098-.048.196-.192.262-.239.131-.526.295-.813.394-.24.098-.526.065-.67-.099-.143-.164-.096-.36.144-.46.239-.13.478-.23.717-.36.192-.132.527-.099.67.032.096.099.144.165.144.23zm-2.44-10.045c0 .033 0 .099-.048.132-.096.164-.383.23-.622.164-.287-.099-.575-.164-.862-.23-.239-.066-.382-.23-.287-.427.096-.164.335-.262.622-.197.335.066.622.164.91.23.19.099.286.197.286.328zm-.862 11.324c0 .132-.143.263-.335.296-.287.065-.622.131-.957.197-.239.032-.526-.066-.574-.23-.048-.164.096-.361.335-.394.287-.066.574-.098.861-.164.24-.066.527.033.622.197.048 0 .048.033.048.098zm-2.823-11.947c0 .032 0 .032 0 0 0 .197-.239.328-.526.328-.287 0-.574-.033-.861-.033-.287 0-.479-.131-.479-.328s.192-.328.479-.328c.335 0 .622 0 .957.032.239.033.43.165.43.329zm-.909 12.341c0 .197-.191.328-.478.328-.335 0-.67 0-.957-.032-.24 0-.479-.165-.431-.361 0-.197.24-.329.526-.296.287 0 .622.033.91.033.239 0 .43.164.43.328zm-2.87-12.112c0 .132-.144.296-.384.329-.287.065-.574.098-.86.164-.24.065-.527-.033-.623-.197-.096-.164.048-.361.287-.427.287-.066.622-.131.957-.197.24-.033.526.066.574.23.048.033.048.066.048.098zm-.862 11.718c0 .033 0 .066-.048.099-.096.164-.335.262-.622.197-.287-.066-.622-.164-.91-.23-.238-.066-.334-.263-.238-.427.095-.164.383-.23.622-.164.287.099.574.164.861.23.24.033.335.164.335.295zM65.56 76.754c0 .098-.096.197-.191.262-.24.132-.479.23-.718.361-.191.132-.526.099-.67-.032-.191-.132-.143-.361.048-.46.24-.131.526-.295.813-.394.24-.098.527-.066.67.099.048.032.048.098.048.164zm-.718 9.42c0 .066-.047.131-.095.197-.144.131-.479.164-.67.033-.24-.132-.526-.296-.718-.46-.191-.131-.191-.328 0-.46a.619.619 0 01.67 0c.191.132.43.296.67.428a.318.318 0 01.143.262zm-1.914-7.582c0 .066-.047.131-.095.164-.144.164-.335.361-.43.525-.097.164-.431.23-.623.131-.24-.065-.335-.262-.191-.426.143-.197.335-.394.478-.591.144-.164.43-.197.67-.099.096.066.191.197.191.296zm-.478 5.58c0 .131-.096.23-.24.295-.239.099-.526.033-.621-.131a4.377 4.377 0 01-.383-.624c-.096-.164.048-.36.287-.426.24-.066.526.032.622.197.096.197.24.393.383.557-.048.033-.048.066-.048.132zm-.814-3.151v.033c-.047.197-.047.394-.047.59 0 .197-.192.329-.479.329s-.478-.132-.478-.329c0-.23 0-.46.048-.656.047-.164.287-.296.526-.296.24 0 .43.165.43.329z" fill="#FFBFCD"/><path d="M71.876 89.686v1.97c.335 0 .622-.033.957-.033v-1.97c-.335 0-.622.033-.957.033zm-2.392-.066v1.97c.335.033.622.033.957.066v-1.97c-.335-.033-.622-.033-.957-.066zm4.785-.098v1.97c.334-.034.622-.1.956-.165v-1.97c-.334.067-.621.1-.956.165zm2.391-.46v1.97c.336-.099.623-.164.958-.263V88.8c-.335.066-.622.165-.957.263zm-9.569.198v1.969c.335.066.622.131.957.164v-1.97c-.335-.032-.622-.098-.957-.164zm-2.392-.657v1.97c.335.098.622.196.957.295v-1.97a5.344 5.344 0 01-.957-.295zm-2.871-1.313v1.97c.287.196.622.36.957.525v-1.97c-.335-.164-.67-.36-.957-.525zm-2.393-2.035v1.97c.288.328.623.656.957.951v-1.97c-.334-.295-.67-.59-.957-.951zm20.097 2.79v1.97c.335-.165.67-.329.957-.493v-1.97c-.287.165-.622.329-.957.493zm2.392.558c.335-.262.67-.525.957-.82v-1.97c-.287.296-.622.558-.957.82v1.97zm-8.048-7.45v1.29h1.35v1.01h-1.35v.821h-1.185v-.821h-.625v.821H70.88v-.821h-4.16V81.22c0-.644.245-1.158.736-1.543.487-.384 1.135-.577 1.945-.577.826 0 1.474.183 1.945.55.467.365.707.874.719 1.526v1.266h.625v-1.29h1.185zm-2.996 1.29v-1.206c0-.363-.123-.641-.368-.834-.245-.192-.611-.288-1.098-.288-.436 0-.793.095-1.069.285a.931.931 0 00-.432.777v1.266h2.967z" fill="#F48BA2"/><path d="M84.795 79.523c0 4.431-5.98 8.042-13.397 8.042S58 83.954 58 79.523c0-4.431 5.981-8.042 13.398-8.042 7.416 0 13.397 3.61 13.397 8.042z" fill="#FFDCE4"/><path d="M71.398 87.565c-6.843 0-12.489-3.086-13.302-7.057a6.85 6.85 0 00-.096.984c0 4.431 5.981 8.042 13.398 8.042 7.416 0 13.397-3.61 13.397-8.042a6.85 6.85 0 00-.096-.984c-.813 3.971-6.46 7.057-13.301 7.057z" fill="#FFBFCD"/><path d="M82.163 79.49c0 .263 0 .492-.047.722-.048.164-.287.296-.527.296-.239-.033-.43-.197-.43-.361.047-.197.047-.394.047-.624 0-.197.192-.328.479-.328s.478.13.478.295zm-.526-1.904c0 .132-.096.263-.287.296-.24.065-.526-.033-.622-.197a2.637 2.637 0 00-.383-.558c-.143-.164-.048-.361.192-.427.239-.098.526-.033.622.131.143.197.287.427.382.624.096.066.096.099.096.131zm-.335 4.431c0 .066 0 .099-.048.165-.143.197-.335.394-.478.59-.144.164-.43.197-.67.099-.24-.099-.287-.295-.143-.46.143-.164.334-.36.43-.525.144-.164.43-.23.622-.131.192.033.287.164.287.263zM79.58 75.42c0 .098-.048.164-.144.23a.619.619 0 01-.67 0 8.181 8.181 0 00-.67-.427c-.191-.098-.239-.328-.047-.46.19-.13.478-.164.67-.032.239.131.526.295.717.46.096.065.144.163.144.229zm-.67 8.6c0 .098-.048.197-.192.262-.239.132-.526.296-.813.394-.24.099-.526.066-.67-.098-.143-.164-.096-.361.144-.46.239-.131.478-.23.717-.36.192-.132.527-.1.67.032.096.098.144.164.144.23zm-2.44-10.044c0 .033 0 .098-.048.131-.096.164-.383.23-.622.164a8.363 8.363 0 00-.862-.23c-.239-.065-.382-.23-.287-.426.096-.164.335-.263.622-.197.335.065.622.164.91.23.19.098.286.196.286.328zM75.608 85.3c0 .131-.143.262-.335.295a32.65 32.65 0 01-.957.197c-.239.033-.526-.066-.574-.23-.048-.164.096-.36.335-.394.287-.065.574-.098.861-.164.24-.065.527.033.622.197.048 0 .048.033.048.099zm-2.823-11.948c0 .033 0 .033 0 0 0 .197-.239.328-.526.328-.287 0-.574-.033-.861-.033-.287 0-.479-.13-.479-.328 0-.197.192-.328.479-.328.335 0 .622 0 .957.033.239.033.43.164.43.328zm-.909 12.342c0 .197-.191.328-.478.328-.335 0-.67 0-.957-.033-.24 0-.479-.164-.431-.361 0-.197.24-.328.526-.295.287 0 .622.032.91.032.239 0 .43.165.43.329zm-2.87-12.112c0 .131-.144.295-.384.328-.287.066-.574.099-.86.164-.24.066-.527-.033-.623-.197-.096-.164.048-.36.287-.426.287-.066.622-.132.957-.197.24-.033.526.065.574.23.048.032.048.065.048.098zM68.143 85.3c0 .033 0 .065-.048.098-.096.164-.335.263-.622.197-.287-.065-.622-.164-.91-.23-.238-.065-.334-.262-.238-.426.095-.164.383-.23.622-.164.287.098.574.164.861.23.24.032.335.163.335.295zM65.56 74.632c0 .099-.096.197-.191.263-.24.131-.479.23-.718.36-.191.132-.526.1-.67-.032-.191-.131-.143-.361.048-.46.24-.13.526-.295.813-.393.24-.099.527-.066.67.098.048.033.048.099.048.164zm-.718 9.42c0 .066-.047.132-.095.197-.144.132-.479.165-.67.033-.24-.131-.526-.295-.718-.46-.191-.13-.191-.328 0-.459a.619.619 0 01.67 0c.191.132.43.296.67.427a.318.318 0 01.143.262zm-1.914-7.582a.215.215 0 01-.095.164c-.144.165-.335.362-.43.526-.097.164-.431.23-.623.13-.24-.065-.335-.262-.191-.426.143-.197.335-.394.478-.59.144-.165.43-.198.67-.1.096.066.191.198.191.296zm-.478 5.58c0 .132-.096.23-.24.296-.239.098-.526.032-.621-.132a4.377 4.377 0 01-.383-.623c-.096-.164.048-.361.287-.427.24-.066.526.033.622.197.096.197.24.394.383.558-.048.033-.048.066-.048.131zm-.814-3.15v.032c-.047.197-.047.394-.047.59 0 .198-.192.33-.479.33s-.478-.132-.478-.33c0-.229 0-.459.048-.656.047-.164.287-.295.526-.295.24 0 .43.164.43.328z" fill="#FFBFCD"/><path d="M71.876 87.565v1.969c.335 0 .622-.033.957-.033v-1.97c-.335 0-.622.034-.957.034zm-2.392-.066v1.97c.335.032.622.032.957.065v-1.97c-.335-.032-.622-.032-.957-.065zm4.785-.099v1.97c.334-.033.622-.099.956-.164v-1.97c-.334.066-.621.099-.956.164zm2.391-.459v1.97c.336-.099.623-.165.958-.263v-1.97c-.335.066-.622.165-.957.263zm-9.569.197v1.97c.335.065.622.13.957.163v-1.969c-.335-.033-.622-.099-.957-.164zm-2.392-.657v1.97c.335.098.622.197.957.295v-1.97a5.336 5.336 0 01-.957-.295zm-2.871-1.313v1.97c.287.197.622.36.957.525v-1.97c-.335-.164-.67-.36-.957-.525zm-2.393-2.035v1.97c.288.328.623.656.957.952v-1.97c-.334-.295-.67-.59-.957-.951zm20.097 2.791v1.969c.335-.164.67-.328.957-.492v-1.97c-.287.164-.622.328-.957.493zm2.392.557c.335-.262.67-.525.957-.82v-1.97c-.287.296-.622.558-.957.82v1.97zm-8.048-7.45v1.29h1.35v1.01h-1.35v.822h-1.185v-.822h-.625v.822H70.88v-.822h-4.16V79.1c0-.643.245-1.158.736-1.542.487-.385 1.135-.577 1.945-.577.826 0 1.474.183 1.945.549.467.366.707.874.719 1.526v1.266h.625v-1.29h1.185zm-2.996 1.29v-1.206c0-.363-.123-.64-.368-.833-.245-.192-.611-.288-1.098-.288-.436 0-.793.094-1.069.284a.931.931 0 00-.432.777v1.266h2.967z" fill="#F48BA2"/><path d="M113.02 83.71c0 4.432-5.981 8.043-13.398 8.043-7.416 0-13.397-3.611-13.397-8.042 0-4.431 5.98-8.042 13.397-8.042s13.398 3.61 13.398 8.042z" fill="#fff"/><path d="M99.622 91.752c-6.842 0-12.488-3.085-13.302-7.056a6.866 6.866 0 00-.095.984c0 4.431 5.98 8.042 13.397 8.042s13.398-3.61 13.398-8.042c0-.328-.048-.656-.096-.985-.813 3.972-6.459 7.058-13.302 7.058z" fill="#FFBFCD"/><path d="M110.388 83.678c0 .263 0 .492-.047.722-.048.164-.288.295-.527.295-.239-.032-.43-.196-.43-.36.047-.197.047-.394.047-.624 0-.197.192-.329.479-.329s.478.132.478.296zm-.526-1.904c0 .132-.096.263-.287.296-.239.065-.526-.033-.622-.197a2.635 2.635 0 00-.383-.558c-.143-.164-.048-.361.192-.427.239-.099.526-.033.622.131.143.197.287.427.382.624.096.066.096.098.096.131zm-.335 4.431c0 .066 0 .099-.048.165-.143.196-.335.393-.478.59-.144.164-.431.197-.67.099-.239-.099-.287-.296-.144-.46.144-.164.335-.36.431-.525.144-.164.431-.23.622-.131.191.033.287.164.287.262zm-1.722-6.597c0 .098-.048.164-.144.23a.62.62 0 01-.67 0 8.15 8.15 0 00-.67-.427c-.191-.099-.239-.328-.048-.46.192-.13.479-.164.67-.032.24.13.527.295.718.46.096.065.144.163.144.229zm-.67 8.6c0 .098-.048.197-.192.262-.239.132-.526.296-.813.394-.239.099-.526.066-.67-.098-.144-.165-.096-.362.144-.46.239-.131.478-.23.717-.361.192-.131.527-.098.67.033.096.098.144.164.144.23zm-2.441-10.044c0 .032 0 .098-.047.13-.096.165-.383.23-.622.165a8.444 8.444 0 00-.862-.23c-.239-.065-.383-.23-.287-.426.096-.165.335-.263.622-.197.335.065.622.164.909.23.192.098.287.196.287.328zm-.861 11.324c0 .131-.143.262-.335.295-.287.066-.622.131-.957.197-.239.033-.526-.066-.574-.23-.048-.164.096-.36.335-.394.287-.065.574-.098.861-.164.239-.065.527.033.622.197.048 0 .048.033.048.099zM101.01 77.54c0 .033 0 .033 0 0 0 .197-.239.328-.526.328-.287 0-.574-.033-.861-.033-.288 0-.479-.13-.479-.328 0-.197.191-.328.478-.328.335 0 .622 0 .957.033.24.033.431.164.431.328zm-.909 12.342c0 .197-.191.328-.478.328-.336 0-.67 0-.958-.033-.239 0-.478-.164-.43-.361 0-.197.24-.328.526-.296.287 0 .622.033.91.033.239 0 .43.165.43.329zM97.23 77.77c0 .131-.144.295-.383.328-.287.066-.574.099-.861.164-.24.066-.526-.033-.622-.197-.096-.164.048-.36.287-.427.287-.065.622-.13.957-.197.24-.032.526.066.574.23.048.033.048.066.048.099zm-.861 11.718c0 .032 0 .065-.048.098-.096.164-.335.263-.622.197s-.622-.164-.91-.23c-.239-.065-.334-.262-.239-.426.096-.164.383-.23.623-.164.287.098.574.164.86.23.24.032.336.163.336.295zM93.785 78.82c0 .099-.096.197-.191.263-.24.131-.479.23-.718.36-.192.132-.526.1-.67-.032-.191-.131-.144-.361.048-.46.239-.13.526-.295.813-.393.24-.099.527-.066.67.098.048.033.048.098.048.164zm-.718 9.42c0 .066-.048.132-.095.197-.144.132-.479.165-.67.033-.24-.131-.527-.295-.718-.46-.192-.13-.192-.328 0-.459a.619.619 0 01.67 0c.191.131.43.296.67.427a.318.318 0 01.143.262zm-1.914-7.582c0 .066-.048.132-.095.164-.144.164-.335.361-.431.525-.096.165-.43.23-.622.132-.24-.066-.335-.263-.191-.427.143-.197.335-.394.478-.59.144-.165.43-.198.67-.1.096.066.191.198.191.296zm-.478 5.58c0 .132-.096.23-.24.296-.239.098-.526.032-.621-.132a4.386 4.386 0 01-.383-.623c-.096-.164.048-.361.287-.427.24-.066.526.033.622.197.096.197.24.394.383.558-.048.033-.048.066-.048.131zm-.814-3.15v.032c-.047.197-.047.394-.047.59 0 .198-.192.329-.479.329s-.478-.131-.478-.328c0-.23 0-.46.047-.657.048-.164.288-.295.527-.295.239 0 .43.164.43.328z" fill="#FFBFCD"/><path d="M100.101 91.752v1.97c.335 0 .622-.033.957-.033v-1.97c-.335 0-.622.034-.957.034zm-2.392-.065v1.97c.334.032.621.032.956.065v-1.97c-.335-.032-.622-.032-.957-.065zm4.784-.099v1.97c.335-.033.622-.099.957-.164v-1.97c-.335.066-.622.099-.957.164zm2.393-.459v1.97c.335-.1.622-.165.957-.263v-1.97c-.335.066-.622.164-.957.263zm-9.57.197v1.97c.335.065.622.13.957.163v-1.97c-.335-.032-.622-.098-.957-.163zm-2.392-.656v1.969c.335.098.622.197.957.295v-1.97a5.334 5.334 0 01-.957-.295zm-2.871-1.314v1.97c.287.197.622.36.957.525v-1.97c-.335-.164-.67-.36-.957-.525zm-2.393-2.035v1.97c.288.328.622.656.957.952v-1.97c-.335-.295-.67-.59-.957-.952zm20.097 2.79v1.97c.335-.164.67-.329.957-.493V89.62c-.287.164-.622.328-.957.492zm2.392.559c.335-.263.67-.526.957-.821v-1.97c-.287.296-.622.558-.957.82v1.97zm-8.048-7.45v1.29h1.349v1.009h-1.349v.821h-1.186v-.821h-.625v.821h-1.185v-.821h-4.159v-2.232c0-.644.245-1.158.736-1.542.487-.385 1.135-.577 1.945-.577.826 0 1.474.183 1.945.549.467.366.707.874.718 1.526v1.266h.625v-1.29h1.186zm-2.996 1.29v-1.207c0-.363-.123-.64-.368-.833-.245-.192-.612-.289-1.098-.289-.436 0-.793.095-1.07.285a.931.931 0 00-.431.777v1.266h2.967z" fill="#F48BA2"/><path d="M113.02 81.59c0 4.43-5.981 8.041-13.398 8.041-7.416 0-13.397-3.61-13.397-8.042 0-4.43 5.98-8.041 13.397-8.041s13.398 3.61 13.398 8.041z" fill="#fff"/><path d="M99.622 89.631c-6.842 0-12.488-3.085-13.302-7.057-.047.328-.095.656-.095.985 0 4.43 5.98 8.041 13.397 8.041s13.398-3.61 13.398-8.041c0-.329-.048-.657-.096-.985-.813 3.972-6.459 7.057-13.302 7.057z" fill="#FFBFCD"/><path d="M110.388 81.556c0 .263 0 .493-.047.723-.048.164-.288.295-.527.295-.239-.033-.43-.197-.43-.361.047-.197.047-.394.047-.624 0-.197.192-.328.479-.328s.478.131.478.296zm-.526-1.903c0 .131-.096.262-.287.295-.239.066-.526-.033-.622-.197a2.635 2.635 0 00-.383-.558c-.143-.164-.048-.36.192-.427.239-.098.526-.032.622.132.143.197.287.427.382.623.096.066.096.099.096.132zm-.335 4.43c0 .067 0 .1-.048.165-.143.197-.335.394-.478.59-.144.165-.431.198-.67.1-.239-.1-.287-.296-.144-.46.144-.164.335-.361.431-.525.144-.165.431-.23.622-.132.191.033.287.164.287.263zm-1.722-6.597c0 .099-.048.164-.144.23a.62.62 0 01-.67 0 8.15 8.15 0 00-.67-.427c-.191-.098-.239-.328-.048-.46.192-.13.479-.163.67-.032.24.131.527.296.718.46.096.065.144.164.144.23zm-.67 8.6c0 .099-.048.197-.192.263-.239.131-.526.295-.813.394-.239.098-.526.065-.67-.099-.144-.164-.096-.361.144-.46.239-.13.478-.23.717-.36.192-.132.527-.099.67.032.096.099.144.164.144.23zm-2.441-10.044c0 .033 0 .099-.047.131-.096.165-.383.23-.622.165a8.444 8.444 0 00-.862-.23c-.239-.066-.383-.23-.287-.427.096-.164.335-.263.622-.197.335.066.622.164.909.23.192.098.287.197.287.328zm-.861 11.324c0 .132-.143.263-.335.296-.287.065-.622.13-.957.197-.239.032-.526-.066-.574-.23-.048-.164.096-.361.335-.394.287-.066.574-.099.861-.164.239-.066.527.033.622.197.048 0 .048.032.048.098zm-2.823-11.948c0 .033 0 .033 0 0 0 .197-.239.329-.526.329-.287 0-.574-.033-.861-.033-.288 0-.479-.131-.479-.328s.191-.329.478-.329c.335 0 .622 0 .957.033.24.033.431.164.431.328zm-.909 12.342c0 .197-.191.328-.478.328-.336 0-.67 0-.958-.032-.239 0-.478-.165-.43-.362 0-.197.24-.328.526-.295.287 0 .622.033.91.033.239 0 .43.164.43.328zM97.23 75.648c0 .132-.144.296-.383.329-.287.065-.574.098-.861.164-.24.065-.526-.033-.622-.197-.096-.165.048-.361.287-.427.287-.066.622-.131.957-.197.24-.033.526.066.574.23.048.033.048.065.048.098zm-.861 11.718c0 .033 0 .066-.048.099-.096.164-.335.262-.622.197-.287-.066-.622-.165-.91-.23-.239-.066-.334-.263-.239-.427.096-.164.383-.23.623-.164.287.099.574.164.86.23.24.033.336.164.336.295zM93.785 76.7c0 .098-.096.197-.191.262-.24.132-.479.23-.718.361-.192.132-.526.099-.67-.033-.191-.13-.144-.36.048-.46.239-.13.526-.294.813-.393.24-.099.527-.066.67.098.048.033.048.099.048.165zm-.718 9.42c0 .066-.048.131-.095.197-.144.131-.479.164-.67.033-.24-.132-.527-.296-.718-.46-.192-.131-.192-.328 0-.46a.619.619 0 01.67 0c.191.132.43.296.67.427a.318.318 0 01.143.263zm-1.914-7.582c0 .065-.048.131-.095.164-.144.164-.335.36-.431.525-.096.164-.43.23-.622.131-.24-.065-.335-.262-.191-.426.143-.197.335-.394.478-.591.144-.164.43-.197.67-.099.096.066.191.197.191.296zm-.478 5.58c0 .131-.096.23-.24.295-.239.099-.526.033-.621-.131a4.381 4.381 0 01-.383-.624c-.096-.164.048-.36.287-.427.24-.065.526.033.622.197.096.197.24.394.383.558-.048.033-.048.066-.048.132zm-.814-3.151V81c-.047.196-.047.393-.047.59 0 .197-.192.329-.479.329s-.478-.132-.478-.329c0-.23 0-.46.047-.656.048-.164.288-.296.527-.296.239 0 .43.165.43.329z" fill="#FFBFCD"/><path d="M100.101 89.631v1.97c.335 0 .622-.034.957-.034v-1.969c-.335 0-.622.033-.957.033zm-2.392-.066v1.97c.334.032.621.032.956.065v-1.969c-.335-.033-.622-.033-.957-.066zm4.784-.098v1.97c.335-.034.622-.1.957-.165v-1.97c-.335.066-.622.1-.957.165zm2.393-.46v1.97c.335-.099.622-.164.957-.263v-1.97c-.335.067-.622.165-.957.263zm-9.57.197v1.97c.335.065.622.131.957.164v-1.97c-.335-.032-.622-.098-.957-.164zm-2.392-.656v1.97c.335.098.622.196.957.295v-1.97a5.334 5.334 0 01-.957-.295zm-2.871-1.313v1.97c.287.196.622.36.957.525v-1.97c-.335-.164-.67-.361-.957-.525zM87.66 85.2v1.97c.288.328.622.656.957.951v-1.97c-.335-.295-.67-.59-.957-.951zm20.097 2.79v1.97c.335-.165.67-.329.957-.493v-1.97c-.287.165-.622.329-.957.493zm2.392.558c.335-.263.67-.525.957-.82v-1.97c-.287.295-.622.558-.957.82v1.97zm-8.048-7.45v1.29h1.349v1.01h-1.349v.821h-1.186v-.821h-.625v.821h-1.185v-.821h-4.159v-2.232c0-.644.245-1.158.736-1.543.487-.384 1.135-.577 1.945-.577.826 0 1.474.183 1.945.55.467.365.707.874.718 1.526v1.266h.625v-1.29h1.186zm-2.996 1.29v-1.206c0-.363-.123-.641-.368-.834-.245-.192-.612-.288-1.098-.288-.436 0-.793.095-1.07.284a.931.931 0 00-.431.778v1.266h2.967z" fill="#F48BA2"/><path d="M113.02 79.46c0 4.43-5.981 8.04-13.398 8.04-7.416 0-13.397-3.61-13.397-8.04 0-4.432 5.98-8.042 13.397-8.042s13.398 3.61 13.398 8.041z" fill="#fff"/><path d="M99.622 87.5c-6.842 0-12.488-3.085-13.302-7.056a6.866 6.866 0 00-.095.985c0 4.43 5.98 8.041 13.397 8.041s13.398-3.61 13.398-8.041c0-.329-.048-.657-.096-.985-.813 3.971-6.459 7.057-13.302 7.057z" fill="#FFBFCD"/><path d="M110.388 79.426c0 .263 0 .493-.047.722-.048.165-.288.296-.527.296-.239-.033-.43-.197-.43-.361.047-.197.047-.394.047-.624 0-.197.192-.328.479-.328s.478.131.478.295zm-.526-1.903c0 .131-.096.262-.287.295-.239.066-.526-.033-.622-.197a2.64 2.64 0 00-.383-.558c-.143-.164-.048-.36.192-.427.239-.098.526-.032.622.132.143.197.287.426.382.623.096.066.096.099.096.132zm-.335 4.43c0 .066 0 .1-.048.165-.143.197-.335.394-.478.59-.144.165-.431.198-.67.1-.239-.1-.287-.296-.144-.46.144-.164.335-.361.431-.525.144-.165.431-.23.622-.132.191.033.287.164.287.263zm-1.722-6.597c0 .099-.048.165-.144.23a.62.62 0 01-.67 0 8.15 8.15 0 00-.67-.427c-.191-.098-.239-.328-.048-.46.192-.13.479-.163.67-.032.24.131.527.296.718.46.096.065.144.164.144.23zm-.67 8.6c0 .099-.048.197-.192.263-.239.13-.526.295-.813.394-.239.098-.526.065-.67-.099-.144-.164-.096-.361.144-.46.239-.13.478-.23.717-.36.192-.132.527-.099.67.032.096.099.144.164.144.23zm-2.441-10.044c0 .033 0 .099-.047.131-.096.164-.383.23-.622.164a8.659 8.659 0 00-.862-.23c-.239-.065-.383-.229-.287-.426.096-.164.335-.263.622-.197.335.066.622.164.909.23.192.098.287.197.287.328zm-.861 11.324c0 .132-.143.263-.335.296-.287.065-.622.13-.957.197-.239.032-.526-.066-.574-.23-.048-.164.096-.361.335-.394.287-.066.574-.099.861-.164.239-.066.527.033.622.197.048 0 .048.032.048.098zm-2.823-11.948c0 .033 0 .033 0 0 0 .197-.239.329-.526.329-.287 0-.574-.033-.861-.033-.288 0-.479-.131-.479-.328s.191-.329.478-.329c.335 0 .622 0 .957.033.24.033.431.164.431.329zm-.909 12.342c0 .197-.191.328-.478.328-.336 0-.67 0-.958-.032-.239 0-.478-.165-.43-.362 0-.196.24-.328.526-.295.287 0 .622.033.91.033.239 0 .43.164.43.328zM97.23 73.518c0 .132-.144.296-.383.329-.287.065-.574.098-.861.164-.24.065-.526-.033-.622-.197-.096-.164.048-.361.287-.427.287-.066.622-.131.957-.197.24-.033.526.066.574.23.048.033.048.065.048.098zm-.861 11.718c0 .033 0 .066-.048.099-.096.164-.335.262-.622.197-.287-.066-.622-.164-.91-.23-.239-.066-.334-.263-.239-.427.096-.164.383-.23.623-.164.287.099.574.164.86.23.24.033.336.164.336.295zM93.785 74.57c0 .098-.096.197-.191.262-.24.132-.479.23-.718.361-.192.132-.526.099-.67-.033-.191-.13-.144-.36.048-.46.239-.13.526-.294.813-.393.24-.099.527-.066.67.099.048.032.048.098.048.164zm-.718 9.42c0 .066-.048.131-.095.197-.144.131-.479.164-.67.033-.24-.132-.527-.296-.718-.46-.192-.131-.192-.328 0-.46a.619.619 0 01.67 0c.191.132.43.296.67.427a.317.317 0 01.143.263zm-1.914-7.582c0 .065-.048.131-.095.164-.144.164-.335.36-.431.525-.096.164-.43.23-.622.131-.24-.065-.335-.262-.191-.426.143-.197.335-.394.478-.591.144-.164.43-.197.67-.099.096.066.191.197.191.296zm-.478 5.58c0 .13-.096.23-.24.295-.239.099-.526.033-.621-.131a4.387 4.387 0 01-.383-.624c-.096-.164.048-.36.287-.427.24-.065.526.033.622.197.096.197.24.394.383.558-.048.033-.048.066-.048.132zm-.814-3.151v.032c-.047.197-.047.394-.047.591 0 .197-.192.328-.479.328s-.478-.13-.478-.328c0-.23 0-.46.047-.656.048-.164.288-.296.527-.296.239 0 .43.164.43.329z" fill="#FFBFCD"/><path d="M100.101 87.501v1.97c.335 0 .622-.034.957-.034v-1.969c-.335 0-.622.033-.957.033zm-2.392-.066v1.97c.334.032.621.032.956.065V87.5c-.335-.032-.622-.032-.957-.065zm4.784-.098v1.97c.335-.033.622-.1.957-.165v-1.97c-.335.067-.622.1-.957.165zm2.393-.46v1.97c.335-.099.622-.164.957-.263v-1.97c-.335.066-.622.165-.957.263zm-9.57.197v1.97c.335.065.622.131.957.164v-1.97c-.335-.032-.622-.098-.957-.164zm-2.392-.656v1.97c.335.098.622.196.957.295v-1.97a5.334 5.334 0 01-.957-.295zm-2.871-1.313v1.97c.287.196.622.36.957.524V85.63c-.335-.164-.67-.361-.957-.525zM87.66 83.07v1.97c.288.328.622.656.957.951v-1.97c-.335-.295-.67-.59-.957-.951zm20.097 2.79v1.97c.335-.165.67-.329.957-.493v-1.97c-.287.165-.622.329-.957.493zm2.392.558c.335-.263.67-.525.957-.82v-1.97c-.287.295-.622.558-.957.82v1.97zm-8.048-7.45v1.29h1.349v1.01h-1.349v.821h-1.186v-.821h-.625v.821h-1.185v-.821h-4.159v-2.232c0-.644.245-1.158.736-1.543.487-.384 1.135-.577 1.945-.577.826 0 1.474.183 1.945.55.467.365.707.874.718 1.526v1.266h.625v-1.29h1.186zm-2.996 1.29v-1.206c0-.363-.123-.641-.368-.834-.245-.192-.612-.288-1.098-.288-.436 0-.793.095-1.07.284a.931.931 0 00-.431.778v1.266h2.967z" fill="#F48BA2"/><path d="M113.02 77.338c0 4.43-5.981 8.041-13.398 8.041-7.416 0-13.397-3.61-13.397-8.041 0-4.431 5.98-8.042 13.397-8.042s13.398 3.61 13.398 8.042z" fill="#FFDCE4"/><path d="M99.622 85.38c-6.842 0-12.488-3.086-13.302-7.058a6.866 6.866 0 00-.095.985c0 4.431 5.98 8.042 13.397 8.042s13.398-3.61 13.398-8.042c0-.328-.048-.656-.096-.985-.813 3.972-6.459 7.057-13.302 7.057z" fill="#FFBFCD"/><path d="M110.388 77.305c0 .262 0 .492-.047.722-.048.164-.288.295-.527.295-.239-.032-.43-.197-.43-.36.047-.198.047-.395.047-.624 0-.197.192-.329.479-.329s.478.132.478.296zm-.526-1.904c0 .131-.096.263-.287.296-.239.065-.526-.033-.622-.197a2.635 2.635 0 00-.383-.558c-.143-.164-.048-.361.192-.427.239-.099.526-.033.622.131.143.197.287.427.382.624.096.065.096.098.096.131zm-.335 4.431c0 .066 0 .099-.048.164-.143.197-.335.394-.478.591-.144.164-.431.197-.67.099-.239-.099-.287-.296-.144-.46.144-.164.335-.36.431-.525.144-.164.431-.23.622-.131.191.033.287.164.287.262zm-1.722-6.597c0 .098-.048.164-.144.23a.62.62 0 01-.67 0 8.15 8.15 0 00-.67-.427c-.191-.099-.239-.328-.048-.46.192-.131.479-.164.67-.032.24.13.527.295.718.459.096.066.144.164.144.23zm-.67 8.6c0 .098-.048.196-.192.262-.239.131-.526.296-.813.394-.239.098-.526.066-.67-.099-.144-.164-.096-.36.144-.46.239-.13.478-.229.717-.36.192-.131.527-.099.67.033.096.098.144.164.144.23zm-2.441-10.044c0 .032 0 .098-.047.13-.096.165-.383.23-.622.165a8.444 8.444 0 00-.862-.23c-.239-.066-.383-.23-.287-.426.096-.165.335-.263.622-.198.335.066.622.165.909.23.192.099.287.197.287.328zm-.861 11.324c0 .13-.143.262-.335.295-.287.066-.622.131-.957.197-.239.033-.526-.066-.574-.23-.048-.164.096-.36.335-.394.287-.065.574-.098.861-.164.239-.066.527.033.622.197.048 0 .048.033.048.099zm-2.823-11.948c0 .033 0 .033 0 0 0 .197-.239.328-.526.328-.287 0-.574-.033-.861-.033-.288 0-.479-.131-.479-.328s.191-.328.478-.328c.335 0 .622 0 .957.033.24.032.431.164.431.328zm-.909 12.341c0 .197-.191.329-.478.329-.336 0-.67 0-.958-.033-.239 0-.478-.164-.43-.361 0-.197.24-.328.526-.296.287 0 .622.033.91.033.239 0 .43.164.43.328zM97.23 71.397c0 .13-.144.295-.383.328-.287.066-.574.098-.861.164-.24.066-.526-.033-.622-.197-.096-.164.048-.361.287-.427.287-.065.622-.13.957-.197.24-.032.526.066.574.23.048.033.048.066.048.099zm-.861 11.718c0 .032 0 .065-.048.098-.096.164-.335.263-.622.197s-.622-.164-.91-.23c-.239-.065-.334-.262-.239-.427.096-.164.383-.23.623-.164.287.099.574.165.86.23.24.033.336.164.336.296zm-2.584-10.668c0 .099-.096.197-.191.263-.24.13-.479.23-.718.36-.192.132-.526.1-.67-.032-.191-.132-.144-.361.048-.46.239-.131.526-.295.813-.394.24-.098.527-.065.67.099.048.033.048.098.048.164zm-.718 9.42c0 .066-.048.132-.095.197-.144.132-.479.164-.67.033-.24-.131-.527-.295-.718-.46-.192-.13-.192-.328 0-.459a.619.619 0 01.67 0c.191.131.43.295.67.427a.318.318 0 01.143.262zm-1.914-7.582c0 .066-.048.131-.095.164-.144.164-.335.361-.431.525-.096.164-.43.23-.622.132-.24-.066-.335-.263-.191-.427.143-.197.335-.394.478-.59.144-.165.43-.198.67-.1.096.066.191.198.191.296zm-.478 5.58c0 .131-.096.23-.24.296-.239.098-.526.032-.621-.132a4.387 4.387 0 01-.383-.623c-.096-.165.048-.362.287-.427.24-.066.526.033.622.197.096.197.24.394.383.558-.048.033-.048.065-.048.131zm-.814-3.151v.033c-.047.197-.047.394-.047.59 0 .198-.192.329-.479.329s-.478-.131-.478-.328c0-.23 0-.46.047-.657.048-.164.288-.295.527-.295.239 0 .43.164.43.328z" fill="#FFBFCD"/><path d="M100.101 85.38v1.969c.335 0 .622-.033.957-.033v-1.97c-.335 0-.622.033-.957.033zm-2.392-.066v1.97c.334.032.621.032.956.065v-1.97c-.335-.032-.622-.032-.957-.065zm4.784-.099v1.97c.335-.033.622-.099.957-.165v-1.969c-.335.066-.622.099-.957.164zm2.393-.459v1.97c.335-.1.622-.165.957-.263v-1.97c-.335.066-.622.164-.957.263zm-9.57.197v1.97c.335.065.622.13.957.163v-1.97c-.335-.032-.622-.098-.957-.163zm-2.392-.657v1.97c.335.098.622.197.957.295v-1.97a5.334 5.334 0 01-.957-.295zm-2.871-1.313v1.97c.287.197.622.36.957.525v-1.97c-.335-.164-.67-.36-.957-.525zm-2.393-2.035v1.97c.288.328.622.656.957.952V81.9c-.335-.295-.67-.59-.957-.952zm20.097 2.79v1.97c.335-.165.67-.329.957-.493v-1.97c-.287.165-.622.33-.957.493zm2.392.558c.335-.263.67-.525.957-.82v-1.97c-.287.296-.622.558-.957.82v1.97zm-8.048-7.45v1.29h1.349v1.01h-1.349v.821h-1.186v-.82h-.625v.82h-1.185v-.82h-4.159v-2.233c0-.644.245-1.158.736-1.542.487-.385 1.135-.577 1.945-.577.826 0 1.474.183 1.945.549.467.366.707.874.718 1.526v1.266h.625v-1.29h1.186zm-2.996 1.29V76.93c0-.363-.123-.64-.368-.833-.245-.192-.612-.289-1.098-.289-.436 0-.793.095-1.07.285a.931.931 0 00-.431.777v1.266h2.967z" fill="#F48BA2"/></svg>